<?xml version="1.0" encoding="utf-8"?>
<!-- Generator: Adobe Illustrator 19.0.1, SVG Export Plug-In . SVG Version: 6.00 Build 0)  -->
<svg version="1.1" id="Layer_1" xmlns="http://www.w3.org/2000/svg" xmlns:xlink="http://www.w3.org/1999/xlink" x="0px" y="0px"
	 viewBox="2 341 599 159.9" style="enable-background:new 2 341 599 159.9;" xml:space="preserve">
<style type="text/css">
	.st0{fill:#2B4160;}
	.st1{fill:#77D9D5;}
	.st2{fill:#FCAD00;}
	.st3{fill:#BEE9FF;}
	.st4{clip-path:url(#SVGID_2_);}
	.st5{fill:#8F9194;}
	.st6{fill:#678815;}
	.st7{fill:#87BA39;}
	.st8{fill:#7F737D;}
	.st9{fill:#BBB29A;}
	.st10{fill:#D9CEB1;}
	.st11{fill:#C6BDA2;}
	.st12{fill:#A6B1B1;}
	.st13{fill:#FFFFFF;}
	.st14{fill:#222C30;}
	.st15{fill:#FCB700;}
	.st16{fill:#DD3F12;}
	.st17{fill:#9E3600;}
	.st18{fill:#F4FFFF;}
	.st19{fill:#353542;}
	.st20{fill:#BCC0C3;}
	.st21{fill:#9E9596;}
	.st22{fill:#7DD5EC;}
	.st23{fill:#B0BCCE;}
	.st24{fill:#F6F2E3;}
	.st25{fill:#B4B4A6;}
	.st26{fill:#D0CCBE;}
	.st27{fill:#ECE5D0;}
	.st28{fill:#7BACD5;}
	.st29{fill:#AAD8FF;}
	.st30{fill:#2E282A;}
	.st31{fill:#DFE2D1;}
	.st32{fill:#D0CDBF;}
	.st33{fill:#95A3A4;}
	.st34{fill:#616B6B;}
	.st35{fill:#86857A;}
	.st36{fill:#87877D;}
	.st37{fill:#AFAEA2;}
	.st38{fill:#E0E5F6;}
	.st39{fill:#2D5A77;}
	.st40{fill:#20435B;}
	.st41{fill:#FFDCB7;}
	.st42{fill:#E7C49F;}
	.st43{fill:#F6D5B1;}
	.st44{fill:#7C5E53;}
	.st45{clip-path:url(#SVGID_4_);}
	.st46{fill:#49CDC7;}
	.st47{fill:#D3D4CF;}
	.st48{fill:#EDEAEB;}
	.st49{fill:#577384;}
	.st50{fill:#3C5665;}
	.st51{fill:#9ADFE4;}
	.st52{fill:#70CFD2;}
	.st53{fill:#F4AB51;}
	.st54{fill:#FFB657;}
	.st55{fill:#908F91;}
	.st56{fill:#A7A7A7;}
	.st57{fill:none;}
	.st58{fill:#BEBEBE;}
	.st59{fill:#DADADA;}
	.st60{fill:#ED9F7E;}
	.st61{fill:#A8A8A8;}
	.st62{fill:#DE7D37;}
	.st63{fill:#102637;}
	.st64{fill:#354B5A;}
	.st65{fill:#2B3848;}
	.st66{fill:#2F3B4C;}
	.st67{fill:#F56B2F;}
	.st68{fill:#CE5826;}
	.st69{fill:#505050;}
	.st70{fill:#353D41;}
	.st71{fill:#F2FBFF;}
	.st72{fill:#787878;}
	.st73{fill:#FBB250;}
	.st74{fill:#FFA243;}
	.st75{fill:#FCCF49;}
	.st76{fill:#EC2926;}
	.st77{fill:#342F27;}
	.st78{fill:#453E36;}
	.st79{fill:#8F4A91;}
	.st80{clip-path:url(#SVGID_6_);fill:#342F27;}
	.st81{fill:#9B509D;}
	.st82{fill:#F0E3C3;}
	.st83{fill:#3B5A83;}
</style>
<polygon class="st0" points="589.4,455.5 574.3,448.4 571.8,458.2 "/>
<polygon class="st0" points="389.3,455.2 370,446.1 370,458.2 "/>
<polygon class="st0" points="189.8,455.2 170.5,446.1 170.5,458.2 "/>
<circle class="st1" cx="102.1" cy="420.1" r="79.1"/>
<circle class="st2" cx="301.4" cy="420.1" r="79.1"/>
<circle class="st3" cx="501.4" cy="420.1" r="79.1"/>
<g>
	<defs>
		<circle id="SVGID_1_" cx="501.4" cy="420.1" r="79.1"/>
	</defs>
	<clipPath id="SVGID_2_">
		<use xlink:href="#SVGID_1_"  style="overflow:visible;"/>
	</clipPath>
	<g class="st4">
		<g>
			<g>
				<g>
					<g>
						<path class="st5" d="M566.7,380.9c-13.9,0-26.1,6.8-33.3,17.3c-4.7-1.3-9.8-2-15-2c-12.5,0-23.8,4-32.1,10.4
							c-9.3-12.5-23.4-20.4-39.3-20.4c-27.9,0-50.5,24.6-50.5,55c0,30.4,22.6,55,50.5,55c20.4,0,38-13.2,45.9-32.1
							c7.3,3.9,16,6.1,25.4,6.1c13.7,0,26-4.8,34.5-12.4c4.3,1.6,9,2.4,13.9,2.4c22.3,0,40.4-17.7,40.4-39.6
							C607.1,398.6,589,380.9,566.7,380.9z"/>
						<path class="st6" d="M621.3,450.9c0,22.5-24.7,40.8-55.1,40.8s-82-18.4-82-40.9c0-22.5,42.4-45.5,92.5-45.5
							C607.2,405.3,621.3,428.4,621.3,450.9z"/>
						<path class="st7" d="M526.7,462.6c0,22.5-29,40.8-64.8,40.8c-35.8,0-60.9-27.7-60.9-50.2c0-22.5,25.1-31.4,60.9-31.4
							C497.7,421.8,526.7,440.1,526.7,462.6z"/>
						<rect x="401.7" y="467.6" class="st8" width="208.3" height="46.5"/>
						<g>
							<g>
								<polygon class="st9" points="549.2,445.4 551.2,426.7 555.4,420.6 566.1,413.4 578.4,425.7 574.6,432.4 597.8,460.3 
									570.1,465.7 								"/>
							</g>
							<g>
								<polygon class="st9" points="524.9,455.8 526.9,437.1 531.1,431 541.8,423.8 552,430.9 550.3,442.8 552.3,452 540.9,457.7 
																	"/>
							</g>
							<g>
								<polygon class="st10" points="545.9,457.5 541,449.7 545.9,438.1 558.2,434.2 562.7,438.9 570.4,445 565.9,454.8 
									557.6,458.9 								"/>
							</g>
							<g>
								<polygon class="st10" points="567.2,450.9 569.4,445.4 564.9,431.3 579.5,427.6 584,432.3 591.7,438.4 587.1,448.1 
									578.8,452.3 								"/>
							</g>
							<g>
								<polygon class="st10" points="571.1,456.6 572.7,445.6 574.5,440 582.2,434.7 586.9,440 589.6,447.1 591.1,453.8 582.8,458 
																	"/>
							</g>
							<g>
								<polygon class="st10" points="523.4,457.7 525.6,449.2 528.6,445.1 533.6,442.6 541.3,446.3 540.9,453.1 543,455.4 
									535.1,459.1 								"/>
							</g>
							<g>
								<polygon class="st10" points="509.1,462.8 511.2,454.3 514.2,450.2 519.3,447.7 527,451.4 526.6,458.2 528.6,460.5 
									520.8,464.2 								"/>
							</g>
							<g>
								<polygon class="st10" points="589.2,456.4 589.5,453.3 590.2,450.2 593.8,447.8 595.4,450.9 596.7,454.2 597.4,457.3 
									593.5,459.3 								"/>
							</g>
							<g>
								<polygon class="st11" points="566,458 567.1,455 566.9,451.9 569.8,450.1 572.2,452.5 573.5,455.9 574.2,459 570.3,460.9 
																	"/>
							</g>
							<g>
								<polygon class="st11" points="575.2,435.4 574,425.9 573.7,417.7 581,413.1 587.4,419.5 590.7,428.1 592.5,436.3 
									582.4,441.3 								"/>
							</g>
							<g>
								<polygon class="st11" points="522.7,456.5 523.8,453.5 523.6,450.3 526.4,448.6 528.9,451 530.2,454.3 530.8,457.5 
									527,459.4 								"/>
							</g>
							<g>
								<polygon class="st11" points="543.1,451.8 545.6,451.7 548.2,452.1 550.7,456.2 548.4,458.6 545.8,460.6 543.4,461.8 
									541.3,457.4 								"/>
							</g>
							<g>
								<polygon class="st11" points="536.2,450.6 537.5,452.5 540.4,454.4 539.3,458 536.9,456.8 535.4,457.5 533.4,457.2 
									533.4,453.5 								"/>
							</g>
							<g>
								<polygon class="st11" points="520.2,457.6 518.6,457.2 516.1,457.5 515.5,454.5 517.5,454 518.3,452.7 519.6,451.8 
									521,454.3 								"/>
							</g>
							<g>
								<polygon class="st11" points="600,455.1 601.6,455.7 604.2,455.7 604.6,458.8 602.5,459.1 601.6,460.3 600.2,461 599,458.4 
																	"/>
							</g>
						</g>
						<rect x="406.7" y="457.6" class="st12" width="208.3" height="10.4"/>
					</g>
				</g>
			</g>
		</g>
		<g>
			<g>
				<ellipse class="st13" cx="528.9" cy="363.8" rx="12.4" ry="12.4"/>
			</g>
		</g>
	</g>
</g>
<g>
	<polygon class="st14" points="423.5,405.5 411.4,414.5 411.4,408.5 418.9,402.7 	"/>
	<rect x="408.1" y="408.1" class="st15" width="3.4" height="5.8"/>
	<polygon class="st16" points="452.8,422.2 411.4,402.7 412.9,397.9 434.7,400 448.5,408.5 470.7,405.8 470.7,418.3 	"/>
	<path class="st14" d="M463.4,410.4h-22.1c0,0-11.9-10.2-14.5-10.2s-15.4-2.6-15.4-2.6v-2.4l23.1,2.4l7.9,5.2h21L463.4,410.4
		L463.4,410.4z"/>
	<path class="st17" d="M488.9,397.6c0,0-14.3-3.6-19.4-2.1c-5.1,1.5-7.9,7.3-7.9,7.3v7l9.4,3C471.1,412.8,489.3,402.3,488.9,397.6z"
		/>
	<polygon class="st14" points="496,387.5 486.8,392.5 490.4,394.2 492.8,392.2 494.4,396 491.4,396 491.4,400 501.2,402.8 	"/>
	<path class="st17" d="M517.7,404c0,0-5.6-19.4-21.6-27.8l-5.1,4.1l7.7,7.3l-4.1-0.4l5.1,13C499.7,400.3,503.8,404.5,517.7,404z"/>
	<path class="st18" d="M512.9,393.3h-6.3l2,8.6l9.1,2.1C517.7,404,515.2,396.9,512.9,393.3z"/>
	<path class="st19" d="M513.7,450.1c-6.3,0-11.3-5.1-11.3-11.3c0-6.3,5.1-11.3,11.3-11.3c6.3,0,11.3,5.1,11.3,11.3
		C525.1,445.1,520,450.1,513.7,450.1z M513.7,419.8c-10.5,0-19,8.5-19,19c0,10.5,8.5,19,19,19c10.5,0,19-8.5,19-19
		C532.8,428.3,524.2,419.8,513.7,419.8z"/>
	<path class="st20" d="M520.9,438.8c0,4-3.2,7.2-7.2,7.2c-4,0-7.2-3.2-7.2-7.2c0-4,3.2-7.2,7.2-7.2
		C517.7,431.6,520.9,434.8,520.9,438.8z"/>
	<path class="st17" d="M501.3,417.1c0,0,7-5.4,17.7-1l-10.5,16.1L501.3,417.1z"/>
	<path class="st14" d="M502.9,418.3l13.6,17.9c0,0,1.3,2.1-0.9,4c-2.3,2-5.3,0-5.3,0L495,425L502.9,418.3z"/>
	<path class="st19" d="M427.9,450.1c-6.3,0-11.3-5.1-11.3-11.3c0-6.3,5.1-11.3,11.3-11.3c6.3,0,11.3,5.1,11.3,11.3
		C439.3,445.1,434.2,450.1,427.9,450.1z M427.9,419.8c-10.5,0-19,8.5-19,19c0,10.5,8.5,19,19,19c10.5,0,19-8.5,19-19
		C447,428.3,438.4,419.8,427.9,419.8z"/>
	<path class="st20" d="M435.1,438.8c0,4-3.2,7.2-7.2,7.2s-7.2-3.2-7.2-7.2c0-4,3.2-7.2,7.2-7.2C431.9,431.6,435.1,434.8,435.1,438.8
		z"/>
	<path class="st14" d="M471.2,411l-42.7,22.1c0,0-3,1.7-3,4.9c0,3.2,4.1,3.4,4.1,3.4l30.9-2.4l15.3-16.4L471.2,411z"/>
	<g>
		<polygon class="st20" points="442.1,442.2 406.4,424.2 409.7,418.8 442.6,436.6 459.6,434.3 461.9,441.2 		"/>
	</g>
	<g>
		<polygon class="st21" points="442.1,442.2 406.4,424.2 407.6,422.2 442.4,440.2 460.5,439 461.9,441.2 		"/>
	</g>
	<path class="st16" d="M468.6,413l20.3-15.4l27.5,6L492.5,439h-33.3v-4.5c0,0,9.5-1,9.5-8.9C468.7,417.6,468.6,413,468.6,413z"/>
	<polygon class="st17" points="489.5,441.4 459.2,441.4 459.2,439 492.5,439 	"/>
	<polygon class="st15" points="504.4,406.6 495,418.3 477.8,416.1 492.5,405.1 	"/>
	<path class="st22" d="M498.7,387.6l11.5,1.4c0,0-8.6-11.1-14.1-12.9l-5.1,4.1L498.7,387.6z"/>
</g>
<path class="st23" d="M301.4,499.2c23.3,0,44.2-10.1,58.7-26.1H242.7C257.2,489.1,278.1,499.2,301.4,499.2z"/>
<g>
	<rect x="228.6" y="410.5" class="st24" width="143.7" height="63.2"/>
	<rect x="228.6" y="410.5" class="st25" width="143.7" height="11.3"/>
	<rect x="345.8" y="433.3" class="st26" width="21.6" height="40.4"/>
	<rect x="347.5" y="435.1" class="st13" width="18" height="38.6"/>
	<rect x="227" y="386.6" class="st27" width="48.8" height="26.9"/>
	<path class="st25" d="M251.2,399.6c9.4,0,17.5-5.3,21.7-13h-43.4C233.7,394.4,241.9,399.6,251.2,399.6z"/>
	<rect x="238.8" y="430.1" class="st28" width="29" height="31.6"/>
	<rect x="238.8" y="432.2" class="st29" width="26.7" height="29.6"/>
	<rect x="323.7" y="387.1" class="st25" width="6.4" height="17"/>
	<path class="st30" d="M275.8,372.8c0,13.6-11,24.6-24.6,24.6c-13.6,0-24.6-11-24.6-24.6c0-13.6,11-24.6,24.6-24.6
		C264.8,348.2,275.8,359.2,275.8,372.8z"/>
	<path class="st31" d="M266.1,372.8c0,8.2-6.7,14.9-14.9,14.9c-8.2,0-14.9-6.7-14.9-14.9c0-8.2,6.7-14.9,14.9-14.9
		C259.5,357.9,266.1,364.6,266.1,372.8z"/>
	<circle class="st30" cx="251.2" cy="372.8" r="5.5"/>
	<rect x="271" y="424.8" class="st32" width="69.9" height="48.9"/>
	<rect x="278.6" y="430.1" class="st33" width="54.7" height="43.6"/>
	<polygon class="st34" points="333.2,470.2 318.2,438.2 278.6,430.1 333.2,430.1 	"/>
	<rect x="271" y="424.8" class="st32" width="69.9" height="7.4"/>
	<rect x="271" y="430.7" class="st35" width="69.9" height="1.5"/>
	<rect x="271" y="424.9" class="st35" width="69.9" height="1.5"/>
	<rect x="271" y="427.6" class="st35" width="69.9" height="1.5"/>
	<rect x="347.5" y="385.1" class="st36" width="19.8" height="1.5"/>
	<path class="st24" d="M278.6,385.2c-2.4,0-4.3-1.9-4.3-4.3c0-2.4,1.9-4.3,4.3-4.3c2.4,0,4.3,1.9,4.3,4.3
		C282.9,383.3,281,385.2,278.6,385.2z M351,375.5h16.4c-2.2-6.7-8.5-11.5-16-11.5c-6.3,0-11.8,3.5-14.7,8.6h-59.5
		c-4.6,0-8.3,3.7-8.3,8.3c0,4.6,3.7,8.3,8.3,8.3h59.6c2.9,5,8.4,8.4,14.6,8.4c7.3,0,13.4-4.6,15.8-11H351L351,375.5L351,375.5z"/>
	<rect x="219.8" y="401" class="st24" width="161.9" height="17.7"/>
	<rect x="345.8" y="451.9" class="st37" width="4.1" height="4.2"/>
	<g>
		<path class="st36" d="M331.2,382.3h-41.7c-1.6,0-3-1.3-3-3c0-0.1,0-0.2,0-0.2c-0.3,0.5-0.5,1-0.5,1.6c0,1.6,1.3,3,3,3h41.7
			c1.6,0,2.8-1.2,2.9-2.7C333.2,381.8,332.3,382.3,331.2,382.3z"/>
		<path class="st25" d="M289.5,382.3h41.7c1.1,0,2-0.6,2.5-1.4c0-0.1,0-0.2,0-0.2c0-1.6-1.3-3-3-3h-41.7c-1.1,0-2,0.6-2.5,1.4
			c0,0.1,0,0.2,0,0.2C286.6,381,287.9,382.3,289.5,382.3z"/>
	</g>
</g>
<g>
	<g>
		<path class="st13" d="M300.5,451c-5.7,3.7-8,11.6-11.3,21c4.5,3.2,9.6,5.7,14.9,7.5c5-4.2,11.7-2.7,17.9-2.7
			c5.3-8.2,12.3-2.5,17.9,2.7c5.4-1.8,10.4-4.3,14.9-7.4c-3.3-9.4-5.6-17.4-11.4-21c-9.8-6.1-15.7-7.6-21.5-7.7
			C316,443.3,310.2,444.7,300.5,451z"/>
		<path class="st38" d="M300.5,451c-5.7,3.7-8,11.6-11.3,21c4.5,3.2,9.5,5.7,14.9,7.4c5.6,1.9,11.7-2.3,18-2.3v-33.8h0
			C316,443.3,310.2,444.7,300.5,451z"/>
		<path class="st39" d="M309,446.2v25h25.9v-24.9c1.6,0.7,3.2,1.5,5.1,2.6v30.5c-5.8,1.9-11.9,2.9-18,2.9c-4.5-4.1-12.2-4.5-18-6.4
			v-27.1C305.8,447.8,307.5,446.9,309,446.2z"/>
		<path class="st40" d="M309,446.2v25H322v11.1c-6.1,0-12.2-1-18-2.9v-30.6C305.8,447.8,307.5,446.9,309,446.2z"/>
	</g>
	<path class="st41" d="M313.8,421.7h16.3v23.5c0,7.9-16.3,8.9-16.3,0L313.8,421.7L313.8,421.7z"/>
	<polygon class="st42" points="330.1,436.5 330.1,433.5 313.8,433.5 313.8,444.6 	"/>
	<path class="st43" d="M322,391.8c34.4,0,20.5,45.5,0,45.5C301.5,437.3,287.5,391.8,322,391.8z"/>
	<path class="st41" d="M322,391.8c34.4,0,20.5,45.5,0,45.5V391.8z"/>
	<path class="st44" d="M305,413c-0.6,4.1-4.2,1.4-4.5-2.4s0.1-4.4,1.6-7.9c1.5-3.5,10.1-8.7,20.1-8.7c10,0,18.5,6.5,20,9.2
		c1.5,2.7,1.8,5.6,1.1,8c-0.7,2.4-2.2,4.1-3.1,1.1c-2.9-10.2-10.4-12.2-17.8-12.3C313.3,399.9,306.1,405.5,305,413z"/>
	<g>
		
			<ellipse transform="matrix(-0.2174 0.9761 -0.9761 -0.2174 820.3488 167.726)" class="st41" cx="342.9" cy="412.7" rx="5.4" ry="2.3"/>
		<path class="st43" d="M299.9,407.5c-1.3,0.3-1.8,2.9-1.1,5.8c0.6,2.9,2.2,5,3.4,4.8c1.3-0.3,1.7-2.9,1.1-5.8
			C302.7,409.3,301.1,407.2,299.9,407.5z"/>
	</g>
	<path class="st39" d="M341.4,399.4h-38v-10.3c0-8.7,6.2-14.2,13.9-14.2h10.3c7.6,0,13.9,5.5,13.9,14.2L341.4,399.4L341.4,399.4z"/>
	<g>
		<path class="st38" d="M317.7,376c-7.1,0-12.9,5.5-12.9,14.2v10.3H322V376H317.7z"/>
		<path class="st13" d="M340.1,390.2c0-8.7-5.8-14.2-12.9-14.2H322v24.5h18.1V390.2z"/>
	</g>
	<path class="st40" d="M344.4,402.4l-4.9-5.5c0,0-17.7-5.7-34.2,0l-4.9,4.9C300.4,401.8,322.7,397.7,344.4,402.4z"/>
	<path class="st39" d="M321.3,401.5c13.1,0,23.9,5.1,23.9,2.3c0-2.8-10.7-5.1-23.9-5.1c-13.1,0-23.9,2.3-23.9,5.1
		C297.4,406.6,308.1,401.5,321.3,401.5z"/>
</g>
<g>
	<defs>
		<circle id="SVGID_3_" cx="102.1" cy="420.1" r="79.1"/>
	</defs>
	<clipPath id="SVGID_4_">
		<use xlink:href="#SVGID_3_"  style="overflow:visible;"/>
	</clipPath>
	<g class="st45">
		<g>
			<path class="st46" d="M76.3,325.7c0.4,0.4,0.2,1.1-0.2,1.5l-9.8,9.8c-0.4,0.4-0.9,0.4-1.3,0l-0.7-0.7c-0.4-0.4-0.4-1,0-1.3
				l9.8-9.8c0.4-0.4,1.1-0.5,1.5-0.2L76.3,325.7z"/>
		</g>
		<g>
			<path class="st46" d="M78.1,327.6c0.4,0.4,0.4,1,0,1.3l-10,10c-0.4,0.4-1,0.4-1.3,0l0,0c-0.4-0.4-0.4-1,0-1.3l10-10
				C77.2,327.2,77.8,327.2,78.1,327.6L78.1,327.6z"/>
		</g>
		<g>
			<path class="st46" d="M80,329.5c0.4,0.4,0.4,1,0,1.3l-10,10c-0.4,0.4-1,0.4-1.3,0l0,0c-0.4-0.4-0.4-1,0-1.3l10-10
				C79.1,329.1,79.7,329.1,80,329.5L80,329.5z"/>
		</g>
		<g>
			<path class="st46" d="M80.7,341.2c-0.9,0.9-2.4,0.9-3.3,0s-0.9-2.4,0-3.3c0.9-0.9,2.4-0.9,3.3,0
				C81.6,338.8,81.6,340.3,80.7,341.2z M70.8,341.2c-0.4,0.4-0.4,1,0,1.3l7.6,7.6c0.4,0.4,0.9,0.4,1.2,0.2c0.3-0.3,0.4-0.9,0.4-1.4
				c0,0-0.5-3.7,1.9-6.2c2.5-2.5,6.2-1.9,6.2-1.9c0.5,0.1,1.2-0.2,1.6-0.5c0.4-0.4,0.4-1,0-1.3l-7.6-7.6c-0.4-0.4-1-0.4-1.3,0
				L70.8,341.2z"/>
		</g>
		<g>
			<path class="st46" d="M101.6,362.2c-1.5,1.5-4,1.5-5.5,0c-1.5-1.5-1.5-4,0-5.5c1.5-1.5,4-1.5,5.5,0
				C103.1,358.2,103.1,360.6,101.6,362.2z M101,353.6L101,353.6c-0.4-0.3-0.2,0-0.3-0.1c0,0-0.1,0-0.1,0c-8.8-3-16.1-11-16.1-11
				c-0.9,0.1-1.7,0.8-1.7,0.8s-0.8,0.7-0.8,1.6c0,0,8.6,7.9,11.1,16.6l0,0c0.1,0.6,0.8,1.5,1.4,2.2c2.4,2.4,6.3,2.4,8.7,0
				c2.4-2.4,2.4-6.3,0-8.7C102.5,354.4,101.5,353.7,101,353.6z"/>
		</g>
		<g>
			<path class="st46" d="M117.4,424c0.4,0.4,0.2,1.1-0.2,1.5l-9.8,9.8c-0.4,0.4-0.9,0.4-1.3,0l-0.7-0.7c-0.4-0.4-0.4-1,0-1.3
				l9.8-9.8c0.4-0.4,1.1-0.5,1.5-0.2L117.4,424z"/>
			<path class="st46" d="M119.2,425.9c0.4,0.4,0.4,1,0,1.3l-10,10c-0.4,0.4-1,0.4-1.3,0l0,0c-0.4-0.4-0.4-1,0-1.3l10-10
				C118.3,425.5,118.9,425.5,119.2,425.9L119.2,425.9z"/>
			<path class="st46" d="M121.2,427.8c0.4,0.4,0.4,1,0,1.3l-10,10c-0.4,0.4-1,0.4-1.3,0l0,0c-0.4-0.4-0.4-1,0-1.3l10-10
				C120.2,427.5,120.8,427.5,121.2,427.8L121.2,427.8z"/>
			<path class="st46" d="M121.8,439.6c-0.9,0.9-2.4,0.9-3.3,0c-0.9-0.9-0.9-2.4,0-3.3c0.9-0.9,2.4-0.9,3.3,0
				C122.7,437.2,122.7,438.7,121.8,439.6z M111.9,439.6c-0.4,0.4-0.4,1,0,1.3l7.6,7.6c0.4,0.4,0.9,0.4,1.2,0.2
				c0.3-0.3,0.4-0.9,0.4-1.4c0,0-0.5-3.7,1.9-6.2c2.5-2.5,6.2-2,6.2-2c0.5,0.1,1.2-0.2,1.6-0.5c0.4-0.4,0.4-1,0-1.3l-7.6-7.6
				c-0.4-0.4-1-0.4-1.3,0L111.9,439.6z"/>
			<path class="st46" d="M142.7,460.5c-1.5,1.5-4,1.5-5.5,0c-1.5-1.5-1.5-4,0-5.5c1.5-1.5,4-1.5,5.5,0
				C144.2,456.5,144.2,459,142.7,460.5z M142.1,452L142.1,452c-0.4-0.3-0.2,0-0.3-0.1c-0.1,0-0.1,0-0.1,0c-8.8-3-16.1-11-16.1-11
				c-0.9,0.1-1.7,0.8-1.7,0.8s-0.8,0.7-0.8,1.6c0,0,8.6,7.9,11.1,16.6l0,0c0.1,0.6,0.8,1.5,1.4,2.2c2.4,2.4,6.3,2.4,8.7,0
				c2.4-2.4,2.4-6.3,0-8.7C143.6,452.7,142.6,452.1,142.1,452z"/>
		</g>
		<g>
			<path class="st46" d="M70.6,409.4c-0.4,0.5-1.3,0.3-1.8-0.1l-12.7-10.7c-0.5-0.4-0.6-1.1-0.2-1.5l0.8-0.9
				c0.4-0.5,1.1-0.5,1.6-0.1L71,406.7c0.5,0.4,0.7,1.3,0.3,1.8L70.6,409.4z"/>
			<path class="st46" d="M68.6,411.8c-0.4,0.5-1.1,0.5-1.6,0.1L54,401.1c-0.5-0.4-0.5-1.1-0.1-1.6l0,0c0.4-0.5,1.1-0.5,1.6-0.1
				l12.9,10.9C68.9,410.7,69,411.4,68.6,411.8L68.6,411.8z"/>
			<path class="st46" d="M66.5,414.3c-0.4,0.5-1.1,0.5-1.6,0.1l-12.9-10.9c-0.5-0.4-0.5-1.1-0.1-1.6l0,0c0.4-0.5,1.1-0.5,1.6-0.1
				l12.9,10.9C66.8,413.1,66.9,413.8,66.5,414.3L66.5,414.3z"/>
			<path class="st46" d="M52.5,416.2c-1.2-1-1.3-2.8-0.3-3.9c1-1.2,2.8-1.3,4-0.3c1.2,1,1.3,2.8,0.3,3.9
				C55.4,417.1,53.6,417.2,52.5,416.2z M51.5,404.4c-0.5-0.4-1.2-0.3-1.6,0.1l-8.4,9.8c-0.4,0.5-0.4,1.1-0.1,1.4
				c0.4,0.3,1.1,0.4,1.7,0.3c0,0,4.4-1,7.6,1.7c3.2,2.7,2.9,7.2,2.9,7.2c0,0.6,0.3,1.4,0.8,1.8c0.5,0.4,1.2,0.3,1.6-0.1l8.4-9.8
				c0.4-0.5,0.3-1.2-0.1-1.6L51.5,404.4z"/>
			<path class="st46" d="M29.5,443.3c-2-1.7-2.2-4.6-0.5-6.6c1.7-2,4.6-2.2,6.6-0.6c2,1.7,2.2,4.6,0.5,6.6
				C34.4,444.7,31.5,445,29.5,443.3z M39.7,441.7L39.7,441.7c0.3-0.5,0-0.2,0.1-0.4c0-0.1,0-0.1,0-0.1c2.7-10.9,11.6-20.4,11.6-20.4
				c-0.2-1.1-1.2-1.9-1.2-1.9s-0.9-0.9-2-0.8c0,0-8.6,11.1-18.8,15l0,0c-0.7,0.2-1.8,1.1-2.4,1.9c-2.6,3.1-2.3,7.8,0.8,10.4
				c3.1,2.6,7.8,2.2,10.4-0.9C38.9,443.6,39.6,442.4,39.7,441.7z"/>
		</g>
		<g>
			<path class="st46" d="M191.5,362.4c-0.4,0.5-1.3,0.3-1.8-0.1l-12.7-10.7c-0.5-0.4-0.6-1.1-0.2-1.5l0.8-0.9
				c0.4-0.5,1.1-0.5,1.6-0.1l12.7,10.7c0.5,0.4,0.7,1.3,0.3,1.8L191.5,362.4z"/>
			<path class="st46" d="M189.5,364.8c-0.4,0.5-1.1,0.5-1.6,0.1l-12.9-10.9c-0.5-0.4-0.5-1.1-0.1-1.6l0,0c0.4-0.5,1.1-0.5,1.6-0.1
				l12.9,10.9C189.8,363.7,189.9,364.4,189.5,364.8L189.5,364.8z"/>
			<path class="st46" d="M187.4,367.3c-0.4,0.5-1.1,0.5-1.6,0.1l-12.9-10.9c-0.5-0.4-0.5-1.1-0.1-1.6l0,0c0.4-0.5,1.1-0.5,1.6-0.1
				l12.9,10.9C187.7,366.1,187.8,366.8,187.4,367.3L187.4,367.3z"/>
			<path class="st46" d="M173.4,369.2c-1.2-1-1.3-2.8-0.3-3.9c1-1.2,2.8-1.3,4-0.3c1.2,1,1.3,2.8,0.3,3.9
				C176.3,370.1,174.5,370.2,173.4,369.2z M172.4,357.4c-0.5-0.4-1.2-0.3-1.6,0.1l-8.4,9.8c-0.4,0.5-0.4,1.1-0.1,1.4
				c0.4,0.3,1.1,0.4,1.7,0.3c0,0,4.4-1,7.6,1.7c3.2,2.7,2.9,7.2,2.9,7.2c0,0.6,0.3,1.4,0.8,1.8c0.5,0.4,1.2,0.3,1.6-0.1l8.4-9.8
				c0.4-0.5,0.3-1.2-0.1-1.6L172.4,357.4z"/>
			<path class="st46" d="M150.4,396.3c-2-1.7-2.2-4.6-0.5-6.6s4.6-2.2,6.6-0.6c2,1.7,2.2,4.6,0.5,6.6
				C155.3,397.7,152.4,398,150.4,396.3z M160.6,394.7L160.6,394.7c0.3-0.5,0-0.2,0.1-0.4c0-0.1,0-0.1,0-0.1
				c2.7-10.9,11.6-20.4,11.6-20.4c-0.2-1.1-1.2-1.9-1.2-1.9s-0.9-0.9-2-0.8c0,0-8.6,11.1-18.8,15l0,0c-0.7,0.2-1.8,1.1-2.4,1.9
				c-2.6,3.1-2.3,7.8,0.8,10.4c3.1,2.6,7.8,2.2,10.4-0.9C159.8,396.6,160.5,395.4,160.6,394.7z"/>
		</g>
		<g>
			<path class="st46" d="M85.3,449.6c-0.1,0.7-1.1,1.2-1.8,1.1l-19.9-1.9c-0.7-0.1-1.3-0.7-1.2-1.4l0.1-1.4c0.1-0.7,0.7-1.3,1.5-1.2
				l19.9,1.9c0.7,0.1,1.6,0.8,1.5,1.5L85.3,449.6z"/>
			<path class="st46" d="M85,453.4c-0.1,0.7-0.7,1.3-1.5,1.2l-20.2-1.9c-0.7-0.1-1.3-0.7-1.2-1.5v0c0.1-0.7,0.7-1.3,1.5-1.2
				l20.2,1.9C84.5,452,85,452.7,85,453.4L85,453.4L85,453.4z"/>
			<path class="st46" d="M84.6,457.3c-0.1,0.7-0.7,1.3-1.5,1.2l-20.2-1.9c-0.7-0.1-1.3-0.7-1.2-1.5v0c0.1-0.7,0.7-1.3,1.5-1.2
				l20.2,1.9C84.1,455.9,84.7,456.6,84.6,457.3L84.6,457.3z"/>
			<path class="st46" d="M72.1,468.8c-1.8-0.2-3.2-1.8-3-3.7c0.2-1.9,1.8-3.2,3.7-3.1c1.9,0.2,3.2,1.8,3,3.7
				C75.6,467.6,74,469,72.1,468.8z M63,457.8c-0.7-0.1-1.4,0.5-1.5,1.2l-1.5,15.5c-0.1,0.7,0.3,1.4,0.9,1.4c0.6,0,1.4-0.4,1.9-0.9
				c0,0,3.7-4,8.7-3.6c5,0.5,7.8,5,7.8,5c0.4,0.6,1.3,1.2,2,1.3c0.7,0.1,1.4-0.5,1.5-1.2l1.5-15.4c0.1-0.7-0.5-1.4-1.2-1.5L63,457.8
				z"/>
			<path class="st46" d="M68,511.2c-3.1-0.3-5.4-3-5.1-6.1c0.3-3.1,3.1-5.4,6.2-5.1c3.1,0.3,5.4,3,5.1,6.1
				C73.8,509.2,71.1,511.5,68,511.2z M76.9,502.6L76.9,502.6c0-0.7-0.1-0.3-0.2-0.4c0-0.1-0.1-0.1-0.1-0.2c-4.8-12.5-2.5-28-2.5-28
				c-0.9-1-2.5-1.1-2.5-1.1s-1.5-0.2-2.6,0.6c0,0-0.9,16.8-8.3,27.7h0c-0.5,0.6-1,2.3-1.1,3.6c-0.5,4.9,3.1,9.2,7.9,9.6
				c4.8,0.4,9.2-3.2,9.6-8.1C77.5,505,77.3,503.3,76.9,502.6z"/>
		</g>
	</g>
</g>
<g>
	<g>
		<path class="st47" d="M116.5,367.8v8.7c15.1,0,27.3,12.2,27.3,27.3c0,4.5-1.1,8.8-3,12.5h9.5c1.4-3.9,2.2-8.1,2.2-12.5
			C152.5,383.9,136.4,367.8,116.5,367.8z"/>
		<path class="st48" d="M116.5,376.5v-8.7c-19.9,0-36,16.1-36,36c0,4.4,0.8,8.6,2.2,12.5h9.5c-1.9-3.7-3-8-3-12.5
			C89.3,388.7,101.5,376.5,116.5,376.5z"/>
		<path class="st49" d="M114.5,403.8c0,1.1,0.9,2,2,2v-4C115.4,401.8,114.5,402.7,114.5,403.8z"/>
		<path class="st49" d="M118.5,403.8c0-1.1-0.9-2-2-2v4C117.6,405.8,118.5,404.9,118.5,403.8z"/>
		<path class="st49" d="M108.4,403.8c0-4.5,3.7-8.2,8.2-8.2v-12c-1.4-0.3-2.9-0.4-4.4-0.4c-5.8,0-11.1,2-15.3,5.2
			c4.6-5.9,11.7-9.6,19.7-9.6v-2.3c-15.1,0-27.3,12.2-27.3,27.3c0,4.5,1.1,8.8,3,12.5h24.2v-4.3C112,411.9,108.4,408.3,108.4,403.8z
			"/>
		<path class="st50" d="M116.5,376.5v2.3c8.9,0,16.6,4.6,21,11.6l-4.4,4.4c-3.7-5.8-9.7-9.9-16.6-11.2v12c1.8,0,3.5,0.6,4.8,1.6
			l7.4-5.1l-5.2,7.6c0.7,1.2,1.1,2.5,1.1,4c0,4.5-3.7,8.2-8.2,8.2v4.3h24.2c1.9-3.7,3-8,3-12.5C143.8,388.7,131.6,376.5,116.5,376.5
			z"/>
		<path class="st51" d="M108.4,403.8c0,4.5,3.7,8.2,8.2,8.2v-6.2c-1.1,0-2-0.9-2-2c0-1.1,0.9-2,2-2v-6.2
			C112,395.6,108.4,399.3,108.4,403.8z"/>
		<path class="st52" d="M118.5,403.8c0,1.1-0.9,2-2,2v6.2c4.5,0,8.2-3.7,8.2-8.2c0-1.5-0.4-2.8-1.1-4l5.2-7.6l-7.4,5.1
			c-1.4-1-3-1.6-4.8-1.6v6.2C117.6,401.8,118.5,402.7,118.5,403.8z"/>
		<path class="st53" d="M133.2,394.8l4.4-4.4c-4.4-7-12.2-11.6-21-11.6v4.8C123.5,384.9,129.5,389,133.2,394.8z"/>
		<path class="st54" d="M96.8,388.5c4.2-3.3,9.5-5.2,15.3-5.2c1.5,0,3,0.1,4.4,0.4v-4.8C108.5,378.8,101.4,382.6,96.8,388.5z"/>
	</g>
	<g>
		<g>
			<path class="st55" d="M176.7,390.7c2.6-2.6,6.7-2.6,9.2,0l4.2-4.2c-4.9-4.9-12.7-4.9-17.6,0c-4.9,4.9-4.9,12.7,0,17.6l4.2-4.2
				C174.1,397.4,174.1,393.2,176.7,390.7z"/>
			<path class="st56" d="M190.1,386.5l-4.2,4.2c2.6,2.6,2.6,6.7,0,9.3c-2.6,2.6-6.7,2.6-9.2,0l-4.2,4.2c4.9,4.9,12.7,4.9,17.6,0
				C195,399.3,195,391.4,190.1,386.5z"/>
		</g>
		<g>
			<path class="st57" d="M91,491.5c1.8-1.8,1.8-4.6,0-6.4l-6.4,6.4C86.4,493.3,89.2,493.3,91,491.5z"/>
			<path class="st57" d="M84.6,485.1c-1.8,1.8-1.8,4.6,0,6.4l6.4-6.4C89.2,483.4,86.4,483.4,84.6,485.1z"/>
			<path class="st58" d="M84.6,485.1c1.8-1.8,4.6-1.8,6.4,0l32.8-32.8l-5.3-5.3L90,480.6c-2.7-0.8-5.8-0.1-7.9,2
				c-3.2,3.2-3.2,8.3,0,11.5l2.5-2.5C82.8,489.7,82.8,486.9,84.6,485.1z"/>
			<path class="st59" d="M95.5,486.1l33.5-28.5l-5.3-5.3L91,485.1c1.8,1.8,1.8,4.6,0,6.4c-1.8,1.8-4.6,1.8-6.4,0l-2.5,2.5
				c3.2,3.2,8.3,3.2,11.5,0C95.7,491.9,96.3,488.8,95.5,486.1z"/>
		</g>
		<g>
			<g>
				<path class="st60" d="M133.5,455.7c-0.1-1.7-3.7-7.6-5.8-11.2c-5.2-8.7-6.8-11.3-3.9-14.2c2.8-2.8,5.5-1.4,14.6,3.4
					c1.6,0.8,3.6,1.9,5.6,2.8c-0.8-1.2-1.7-2.4-2.4-3.4c-5.9-8.2-8.6-11.9-5.2-15.3c3.2-3.2,7.3-1,16.1,4c2.1,1.2,5,2.8,7.2,3.8
					c-0.5-3.8-3.3-8.5-4.8-13.5l6.2-3.2c6,19.3,5,20.9,3.9,22.3c-3.2,3.9-7.3,1.5-16.5-3.6c-1-0.5-2.1-1.2-3.2-1.8
					c0.7,1,1.4,1.9,2,2.7c5.9,8.2,8.6,11.9,5.2,15.3c-3.1,3.1-7,1.3-17.9-4.3l-1.9-1l1,1.6c6.3,10.4,8.3,14.1,5.1,17.4l-4-4
					C133.7,454.6,133.5,455.5,133.5,455.7z"/>
			</g>
			<polygon class="st55" points="132.2,465.9 110.2,443.9 117.7,436.4 139.7,458.4 			"/>
			
				<rect x="117.5" y="449.2" transform="matrix(0.707 0.7072 -0.7072 0.707 359.003 42.4352)" class="st61" width="21.6" height="10.6"/>
			<polygon class="st55" points="169.1,428.9 147.1,407 162.1,392 184.1,414 			"/>
			<polygon class="st61" points="169.1,428.9 153.8,413.7 168.8,398.7 184.1,414 			"/>
			<path class="st62" d="M145,425.9c0,0-4.4-11.2-8.8-8c0,0,2.8-2.6,6.8-0.8c4,1.8,16.5,8.6,16.5,8.6s1,4.4,0.5,7.4
				c0,0-1,0.5-6.9-2.7C147.2,427.2,145,425.9,145,425.9z"/>
			<path class="st62" d="M143.9,436.6c0,0,5.1,8.1,1.4,8.2c0,0-8.7-3.7-12.9-6.1l-4.5-7.6c0,0-1.4-1.8-2.6-1.8c0,0,2.1-1.1,8.9,2.4
				C139.6,434.4,143.9,436.6,143.9,436.6z"/>
		</g>
	</g>
	<g>
		<rect x="31.6" y="415.2" class="st63" width="47.8" height="11.6"/>
		<g>
			<path class="st64" d="M31.4,420.7l10.3,1.6c0-1.1,0-2.2,0-3.3c0-0.2-0.5-0.4-0.8-0.5c-2.8-0.5-5.7-0.9-8.5-1.3
				c-0.7-0.1-0.8-0.3-0.8-1c0.2-4.7,0.3-9.4,0.5-14.1c0.1-1.5,0-1.5-1.6-2c-0.4,2.2-0.9,4.3-1.3,6.5c-1.5,8.5-1.7,17.2-1.9,25.8
				c-0.1,3.6-0.2,7.2-0.2,10.8c0,0.3,0,0.6-0.1,1H11.5c0-0.3,0-0.7,0-1c0.3-9.6,0.4-19.2,0.9-28.8c0.5-8.3,1.2-16.6,2.2-24.8
				c0.8-7.1,2.2-14.2,3.4-21.2c0.1-0.4,0.4-0.9,0.8-1.1c6.2-3.5,12.8-6,19.6-7.9c0.9-0.2,1.3-0.6,1.2-1.6c-0.1-1.4,0-2.9,0-4.3
				c0-0.5,0.2-0.7,0.6-0.8C47,350.7,54,350.1,61,351c3.1,0.4,6.1,1,9.2,1.6v6.1c1.4,0.4,2.7,0.8,4,1.1c6.1,1.8,12,4.2,17.6,7.3
				c0.4,0.2,0.8,0.7,0.9,1.2c1.1,6.2,2.2,12.4,3,18.6c0.9,6.9,1.5,13.8,2.1,20.8c0.9,11.8,1.2,23.6,1.3,35.4v1H83.8
				c0-0.3-0.1-0.6-0.1-1c-0.2-7.4-0.3-14.7-0.6-22.1c-0.3-6.8-1-13.6-2.8-20.2c-0.1-0.2-0.1-0.5-0.2-0.7c-1.5,0.3-1.6,0.4-1.5,1.8
				c0.1,4.6,0.3,9.2,0.4,13.9c0,0.4,0,0.8,0,1.3l-9.9,1.5v3.6l10.3-1.5c0,1.7,0,3.3,0,4.9c0,1.8,0.1,3.6,0.2,5.3
				c0,0.7-0.2,1.1-0.7,1.4c-2,1.1-4,2.4-6.1,3.2c-4.9,1.9-10.1,2.6-15.3,2.7c-0.1,0-0.2,0-0.4-0.1c0-0.3-0.1-0.6-0.1-1
				c0-26.7,0-53.3,0-80c0-0.9,0.3-1.1,1.1-1.2c2.1-0.3,4.2-0.9,6-2.3c-3.4-1.6-14.4-1.7-20.1,1c3,0.8,5.9,1,8.9,0.9v82.6
				c-1.1-0.1-2.1-0.1-3.2-0.2c-4.9-0.5-9.6-1.3-14.1-3.5c-1.5-0.7-2.8-1.7-4.2-2.6c-0.2-0.1-0.4-0.4-0.4-0.7
				C31.2,427.9,31.3,424.4,31.4,420.7z"/>
		</g>
		<g>
			<path class="st63" d="M79.8,400.3c0-0.1-1.5-7.1-2.8-17.5l0.6-0.1c1.3,10.4,2.8,17.4,2.8,17.5L79.8,400.3z"/>
		</g>
		<g>
			<path class="st63" d="M30.5,400.3l-0.6-0.2c0-0.1,1.5-7,2.8-17.5l0.6,0.1C32,393.2,30.5,400.2,30.5,400.3z"/>
		</g>
		<path class="st65" d="M83.7,363.1c0,0-7.5,23.2-8.7,34c-1.1,10.7-20,14.2-20,14.2l-1-3.1l1-44.5c0,0,12.6,1,16.1-4.9L83.7,363.1z"
			/>
		<path class="st66" d="M26.5,363.1c0,0,7.5,23.2,8.7,34c1.1,10.7,20,14.2,20,14.2l1-3.1l-1-44.5c0,0-12.6,1-16.1-4.9L26.5,363.1z"
			/>
		<g>
			<polygon class="st63" points="31.6,380.4 31.5,379.9 55.5,374.7 78.7,379.9 78.6,380.4 55.5,375.3 			"/>
		</g>
		<rect x="53" y="355.8" class="st67" width="4.5" height="82.6"/>
		<rect x="55.2" y="355.8" class="st68" width="2.3" height="82.6"/>
		<path class="st63" d="M39.8,361.8c0.1-0.2-0.1-1.3-0.7-3c-0.2,0.1-0.4,0.2-0.7,0.3c-7,1.9-13.8,4.5-20.1,8.1
			c-0.4,0.2-0.7,0.7-0.8,1.1c-0.2,0.9-0.3,1.9-0.5,2.8C22.8,371,39.1,362.8,39.8,361.8z"/>
		<path class="st63" d="M70.8,361.8c-0.1-0.2,0.1-1.3,0.7-3c0.2,0.1,0.4,0.2,0.7,0.3c7,1.9,13.8,4.5,20.1,8.1
			c0.4,0.2,0.7,0.7,0.8,1.1c0.2,0.9,0.3,1.9,0.5,2.8C87.8,371,71.5,362.8,70.8,361.8z"/>
		<rect x="21.1" y="440" class="st66" width="5.8" height="4.1"/>
		<rect x="11.9" y="440" class="st66" width="7.8" height="4.1"/>
		<rect x="84.1" y="440" class="st66" width="5.8" height="4.1"/>
		<rect x="91.2" y="440" class="st66" width="7.8" height="4.1"/>
		<rect x="11.9" y="438.4" class="st67" width="15" height="1.7"/>
		<rect x="83.7" y="438.4" class="st67" width="15" height="1.7"/>
		<path class="st63" d="M96.6,395.3c0,0-3.5,8.5-1.5,13.7c2.1,5.2,3.6,9.9,3.6,9.9S99.5,405.1,96.6,395.3z"/>
		<g>
			<path class="st63" d="M84.7,410.2c-0.9,0-1.7-0.1-2.6-0.2l0.1-0.6c6.4,1.1,12.7-2.6,12.8-2.6l0.3,0.5
				C95.2,407.3,90.3,410.2,84.7,410.2z"/>
		</g>
		<path class="st63" d="M13.7,395.3c0,0,3.5,8.5,1.5,13.7s-3.6,9.9-3.6,9.9S10.9,405.1,13.7,395.3z"/>
		<g>
			<path class="st63" d="M25.6,410.2c0.9,0,1.7-0.1,2.6-0.2l-0.1-0.6c-6.4,1.1-12.7-2.6-12.8-2.6l-0.3,0.5
				C15.1,407.3,20,410.2,25.6,410.2z"/>
		</g>
	</g>
	<g>
		<path class="st69" d="M87.7,470c0,2.7-2.2,4.9-4.9,4.9H67.3c-2.7,0-4.9-2.2-4.9-4.9c0-2.7,2.2-4.9,4.9-4.9h15.6
			C85.6,465.1,87.7,467.3,87.7,470z"/>
		<g>
			<path class="st70" d="M70.1,417.6c-4.9-0.7-8.6-0.6-8.6-0.6c-20.6,0-33.7,14.4-33.7,14.4c-0.8,0.8-1.6,1.8-2.4,2.8h9l0.2-0.2
				h23.7c2,0,3.2,0.8,3.2,2.4c0,3.9-2.8,7.5-8.4,10.9c-2.8,1.6-9.2,3.3-14.8,4.8c-2.6,0.7-5.1,1.3-7.2,2c-3.3,1-6.8,1.9-10.6,2.8
				c-1.8,0.7-6.9,2.8-9.3,4.4c-0.2,0.5-0.4,1.3-0.5,1.7c-0.1,0.4-0.2,0.8-0.2,1.2v10.8c0,1.2,0.5,2.2,1.3,3.1
				c0.8,0.8,1.9,1.3,3.1,1.3l0,0l39.5,0C81.3,447.4,76.6,427.6,70.1,417.6z"/>
			<path class="st14" d="M69.9,470.2h17.8c8.5-17.5,9.9-31.1,4.4-40.6c-4.6-8-14.6-10.9-22-12c6.6,10,11.2,29.8-15.6,61.6l25.9,0
				c1.6,0,3-0.9,3.8-2.3c0.4-0.8,0.9-1.6,1.3-2.4H69.9c-1.2,0-2.2-1-2.2-2.2C67.7,471.2,68.7,470.2,69.9,470.2z"/>
		</g>
		<g>
			<path class="st71" d="M56.4,435.8c1.2,0,2.2,1,2.2,2.2c0,1.2-1,2.2-2.2,2.2c-1.2,0-2.2-1-2.2-2.2
				C54.3,436.8,55.2,435.8,56.4,435.8z M19.7,457l0.8-0.2l0.6-0.3l-0.6,0.3c3.7-0.9,7.3-1.8,10.6-2.8c2.1-0.6,4.6-1.3,7.2-2
				c5.7-1.5,12.1-3.2,14.8-4.8c5.6-3.3,8.4-7,8.4-10.9c0-1.6-1.3-2.4-3.2-2.4H34.7l-0.2,0.2h0.2h-0.2
				C29.2,438.8,23.6,447.6,19.7,457z"/>
			<path class="st72" d="M56.4,440.1c1.2,0,2.2-1,2.2-2.2c0-1.2-1-2.2-2.2-2.2c-1.2,0-2.2,1-2.2,2.2
				C54.3,439.2,55.2,440.1,56.4,440.1z"/>
		</g>
		<path class="st13" d="M19.7,457c3.9-9.4,9.5-18.2,14.7-22.8h-9c-5.8,7.4-11.4,18.7-14,26.6l-0.1,0.4c2.4-1.6,7.5-3.7,9.3-4.4
			L19.7,457z"/>
		<path class="st73" d="M86.7,477.9c0,0.8-0.6,1.4-1.4,1.4h-73c-0.8,0-1.4-0.6-1.4-1.4c0-0.8,0.6-1.4,1.4-1.4h73
			C86,476.5,86.7,477.1,86.7,477.9z"/>
		<path class="st74" d="M70.9,448.3c0,0-4.8,1.9-7.4,0c-2.6-1.8-8.2-2.1-8.2,3.2s7.4,14.3,13.2,13.2c5.8-1.1,1.3-4.1,9.2-5.2
			c0,0-4.2-1.1-7.9,1.1c-2.1,0.7-3.3-1.1-3.3-1.1s4.5-3.3,7.4-3c2.9,0.3,11.3,0.4,11.6-1.8c0,0-6.3-0.4-9.1-3.4
			c-2.7-3.1-7.3,2.1-9.7,1.1C66.9,452.3,70.6,450.2,70.9,448.3z"/>
		<path class="st75" d="M74.3,450.4c0,0-4.8,1.8-7.4,0c-2.6-1.8-8.2-2.1-8.2,3.2c0,5.3,7.4,14.3,13.2,13.2s1.3-4.1,9.2-5.2
			c0,0-4.2-1.1-7.9,1.1c-2.1,0.7-3.3-1.1-3.3-1.1s4.5-3.3,7.4-3c2.9,0.3,11.3,0.3,11.6-1.9c0,0-6.3-0.4-9.1-3.4
			c-2.7-3.1-7.3,2.1-9.7,1.1C70.2,454.4,74,452.3,74.3,450.4z"/>
	</g>
</g>
<g>
	<path class="st76" d="M211.8,453.9c0,0-1.8-0.5-2.6,0.5c-0.7,1.1,0.4,2.2,0.4,2.2L211.8,453.9z"/>
	<path class="st10" d="M214.4,453.1c0,0-0.4,0-1.4,0s-3.9,3.1-3.6,4.2c0.3,1.1,1.7,1.1,1.7,1.1l3.3-1.6L214.4,453.1z"/>
	<g>
		<g>
			<path class="st77" d="M255.3,469.1c0-1.6,1.3-2.8,2.8-2.8c1.6,0,2.8,1.3,2.8,2.8c0,1.6-1.3,2.8-2.8,2.8
				C256.5,471.9,255.3,470.7,255.3,469.1z M251.1,469.1c0,3.9,3.1,7,7,7c3.9,0,7-3.1,7-7c0-3.8-3.1-7-7-7
				C254.3,462.1,251.1,465.2,251.1,469.1z"/>
		</g>
		<circle class="st13" cx="258.1" cy="469" r="3.7"/>
		<g>
			<circle class="st77" cx="258.1" cy="469" r="0.9"/>
		</g>
	</g>
	<g>
		<g>
			<path class="st77" d="M216.8,469c0-1.6,1.3-2.8,2.8-2.8c1.6,0,2.8,1.3,2.8,2.8c0,1.6-1.3,2.8-2.8,2.8S216.8,470.6,216.8,469z
				 M212.6,469c0,3.9,3.1,7,7,7s7-3.1,7-7c0-3.9-3.1-7-7-7S212.6,465.2,212.6,469z"/>
		</g>
		<circle class="st13" cx="219.6" cy="469" r="3.7"/>
		<g>
			<circle class="st77" cx="219.6" cy="469" r="0.9"/>
		</g>
	</g>
	<g>
		<path class="st78" d="M236,450.8c0-1-0.8-1.9-1.9-1.9h-17.9c-1,0-1.9,0.8-1.9,1.9v2.4H236V450.8z"/>
	</g>
	<g>
		<g>
			<path class="st78" d="M239,470.3c0,0.3-0.3,0.6-0.6,0.6h-5.2c-0.3,0-0.6-0.3-0.6-0.6c0-0.3,0.3-0.6,0.6-0.6h5.2
				C238.7,469.7,239,470,239,470.3z"/>
		</g>
		<g>
			<path class="st77" d="M239.6,470.7c0,0.8-0.6,1.4-1.4,1.4s-1.4-0.6-1.4-1.4v-1.5c0-0.8,0.6-1.4,1.4-1.4s1.4,0.6,1.4,1.4V470.7z"
				/>
		</g>
	</g>
	<g>
		<g>
			<path id="SVGID_7_" class="st79" d="M246.3,444.4l3.5,11.1c0,0-0.8,8-2.7,9.8c-1.9,1.7-3.1,1.6-3.1,1.6h-8.1
				c-1.8,0-4.6-3.6-3.6-6.4c1.1-2.9,3.6-5.3,3.6-7.3c-2.4,0-21.6,0-21.6,0l-1.6,2.9l15,10.6c0,0,0.2,2.6,3.1,2.6h15.5l2.6-1.5l3,0.2
				c0,0,4.4-5.9,13.6-5.9c-2.3-5.2-9-4.2-9-4.2l-0.8-2.2c0,0-3.4-1.3-4.2-3.4c-0.7-2.2-1.9-7.2-1.9-7.2L246.3,444.4z"/>
		</g>
		<g>
			<g>
				<defs>
					<path id="SVGID_5_" d="M246.3,444.4l3.5,11.1c0,0-0.8,8-2.7,9.8c-1.9,1.7-3.1,1.6-3.1,1.6h-8.1c-1.8,0-4.6-3.6-3.6-6.4
						c1.1-2.9,3.6-5.3,3.6-7.3c-2.4,0-21.6,0-21.6,0l-1.6,2.9l15,10.6c0,0,0.2,2.6,3.1,2.6h15.5l2.6-1.5l3,0.2c0,0,4.4-5.9,13.6-5.9
						c-2.3-5.2-9-4.2-9-4.2l-0.8-2.2c0,0-3.4-1.3-4.2-3.4c-0.7-2.2-1.9-7.2-1.9-7.2L246.3,444.4z"/>
				</defs>
				<clipPath id="SVGID_6_">
					<use xlink:href="#SVGID_5_"  style="overflow:visible;"/>
				</clipPath>
				<rect x="236.4" y="465.4" class="st80" width="7.3" height="4.6"/>
			</g>
		</g>
	</g>
	<path class="st81" d="M229,463.5c0,1.2-0.2,2.3-0.7,3.3c-7,0-14.5-0.1-18.9-0.1c-0.4-1-0.6-2-0.6-3.1c0-5,4.5-9,10.1-9
		C224.5,454.4,229,458.5,229,463.5z"/>
	<path class="st81" d="M256.5,457.8c-3.6,2.2-6.2,6-7.7,9.9l3,0.2c0,0,4.4-5.9,13.6-5.9C263.3,457.2,257.3,457.7,256.5,457.8z"/>
	<g>
		<path class="st82" d="M228.7,466.5c0,0.5-0.4,1-0.9,1h-18c-0.5,0-0.9-0.4-0.9-1c0-0.5,0.4-1,0.9-1h18
			C228.3,465.5,228.7,465.9,228.7,466.5z"/>
	</g>
	<g>
		<path class="st82" d="M250.5,440.4h-0.3v5.1h0.3c1,0,1.9-0.8,1.9-1.9v-1.3C252.4,441.2,251.5,440.4,250.5,440.4z"/>
	</g>
	<path class="st81" d="M248,440.4c-1,0-1.9,0.8-1.9,1.9v1.3c0,1,0.8,1.9,1.9,1.9h2.2v-5.1L248,440.4L248,440.4z"/>
	<g>
		<path class="st78" d="M242.6,444.1c-0.5,0.2-0.8,0.8-0.6,1.3c0.1,0.4,0.5,0.7,1,0.7c0.1,0,0.2,0,0.3-0.1l2.3-0.8l-0.7-1.9
			L242.6,444.1z"/>
	</g>
	<path class="st81" d="M248.2,443.2c-0.2-0.5-0.8-0.8-1.3-0.6l-2.1,0.7l0.7,1.9l2-0.7C248.1,444.3,248.4,443.7,248.2,443.2z"/>
</g>
<polygon class="st83" points="287.4,455.3 389.4,455.3 382.1,484.5 280.1,484.5 "/>
<polygon class="st83" points="74.2,455.3 189.9,455.3 182.6,484.5 66.9,484.5 "/>
<polygon class="st83" points="508.7,455.3 588.9,455.3 581.6,484.5 501.4,484.5 "/>
</svg>
