<?xml version="1.0" encoding="utf-8"?>
<!-- Generator: Adobe Illustrator 16.0.0, SVG Export Plug-In . SVG Version: 6.00 Build 0)  -->
<!DOCTYPE svg PUBLIC "-//W3C//DTD SVG 1.1//EN" "http://www.w3.org/Graphics/SVG/1.1/DTD/svg11.dtd">
<svg version="1.1" id="Layer_1" xmlns="http://www.w3.org/2000/svg" xmlns:xlink="http://www.w3.org/1999/xlink" x="0px" y="0px"
	 width="30px" height="30px" viewBox="0 0 30 30" enable-background="new 0 0 30 30" xml:space="preserve">
<rect x="0" y="0.012" fill="#A1B0C3" width="30" height="30"/>
<g>
	<path fill="#FFFFFF" d="M20.659,19.744c-2.622-0.957-3.46-1.764-3.46-3.488c0-1.037,0.801-0.699,1.152-2.596
		c0.146-0.788,0.853-0.013,0.988-1.811c0-0.716-0.386-0.894-0.386-0.894s0.196-1.06,0.273-1.876C19.322,8.063,18.64,5.438,15,5.438
		c-3.64,0-4.323,2.626-4.227,3.642c0.077,0.816,0.273,1.876,0.273,1.876s-0.386,0.178-0.386,0.894
		c0.135,1.797,0.842,1.023,0.988,1.811C12,15.557,12.8,15.219,12.8,16.256c0,1.725-0.838,2.531-3.46,3.488
		C6.709,20.701,5,21.681,5,22.347s0,2.24,0,2.24h10h10c0,0,0-1.574,0-2.24S23.291,20.701,20.659,19.744z"/>
</g>
</svg>
