<?xml version="1.0" encoding="utf-8"?>
<!-- Generator: Adobe Illustrator 16.0.0, SVG Export Plug-In . SVG Version: 6.00 Build 0)  -->
<!DOCTYPE svg PUBLIC "-//W3C//DTD SVG 1.1//EN" "http://www.w3.org/Graphics/SVG/1.1/DTD/svg11.dtd">
<svg version="1.1" id="Layer_1" xmlns="http://www.w3.org/2000/svg" xmlns:xlink="http://www.w3.org/1999/xlink" x="0px" y="0px"
	 width="599px" height="159.902px" viewBox="0 0 599 159.902" enable-background="new 0 0 599 159.902" xml:space="preserve">
<g>
	<polygon fill-rule="evenodd" clip-rule="evenodd" fill="#2B4160" points="387.32,114.216 372.274,107.089 370.345,114.817 
		370.309,116.901 	"/>
	<polygon fill-rule="evenodd" clip-rule="evenodd" fill="#2B4160" points="187.822,114.216 172.777,107.089 170.308,116.981 	"/>
	<polygon fill-rule="evenodd" clip-rule="evenodd" fill="#DAE0E9" points="439.402,0 599,0 559.101,159.902 399.503,159.902 	"/>
	<polygon fill-rule="evenodd" clip-rule="evenodd" fill="#B6BCC5" points="39.9,0 199.498,0 159.598,159.902 0,159.902 	"/>
	<g>
		<defs>
			<polygon id="SVGID_1_" points="439.402,0 599,0 559.101,159.902 399.503,159.902 			"/>
		</defs>
		<clipPath id="SVGID_2_">
			<use xlink:href="#SVGID_1_"  overflow="visible"/>
		</clipPath>
		<g clip-path="url(#SVGID_2_)">
			<g>
				<path fill="#8C929B" d="M564.735,39.895c-13.853,0-26.072,6.848-33.341,17.28c-4.706-1.3-9.752-2.01-15.006-2.01
					c-12.457,0-23.761,3.969-32.057,10.416c-9.254-12.461-23.406-20.437-39.275-20.437c-27.884,0-50.489,24.625-50.489,55.001
					c0,30.376,22.605,55.001,50.489,55.001c20.397,0,37.961-13.173,45.93-32.133c7.285,3.869,16.011,6.123,25.402,6.123
					c13.706,0,26.016-4.803,34.458-12.428c4.33,1.559,9.005,2.406,13.888,2.406c22.295,0,40.366-17.736,40.366-39.609
					C605.102,57.625,587.03,39.895,564.735,39.895z"/>
				<path fill="#6C727B" d="M619.274,109.927c0,22.533-24.676,40.802-55.108,40.802c-30.432,0-81.956-18.386-81.956-40.924
					c0-22.534,42.392-45.454,92.525-45.454C605.168,64.351,619.274,87.394,619.274,109.927z"/>
				<path fill="#989EA7" d="M524.724,121.618c0,22.538-29.031,40.802-64.839,40.802c-35.808,0-60.91-27.691-60.91-50.224
					c0-22.538,25.102-31.382,60.91-31.382C495.693,80.814,524.724,99.083,524.724,121.618z"/>
				<rect x="399.691" y="126.632" fill="#737982" width="208.269" height="46.53"/>
				<g>
					<g>
						<polygon fill="#ADB3BC" points="547.202,104.409 549.212,85.753 553.389,79.606 564.065,72.403 576.39,84.754 572.573,91.398 
							595.751,119.293 568.096,124.663 						"/>
					</g>
					<g>
						<polygon fill="#ADB3BC" points="522.897,114.789 524.902,96.13 529.079,89.987 539.755,82.784 550.019,89.87 548.263,101.779 
							550.288,110.977 538.917,116.698 						"/>
					</g>
					<g>
						<polygon fill="#C9CFD8" points="543.912,116.551 539.014,108.672 543.912,97.094 556.202,93.216 560.725,97.907 
							568.4,104.044 563.882,113.769 555.593,117.937 						"/>
					</g>
					<g>
						<polygon fill="#C9CFD8" points="565.162,109.927 567.364,104.439 562.852,90.302 577.457,86.591 581.979,91.281 
							589.655,97.424 585.136,107.149 576.847,111.318 						"/>
					</g>
					<g>
						<polygon fill="#C9CFD8" points="569.106,115.632 570.715,104.617 572.451,98.983 580.238,93.728 584.883,98.983 
							587.599,106.149 589.076,112.855 580.786,117.023 						"/>
					</g>
					<g>
						<polygon fill="#C9CFD8" points="521.445,116.677 523.582,108.251 526.556,104.119 531.648,101.571 539.333,105.281 
							538.902,112.074 540.973,114.409 533.125,118.069 						"/>
					</g>
					<g>
						<polygon fill="#C9CFD8" points="507.104,121.779 509.241,113.353 512.221,109.216 517.313,106.668 524.993,110.384 
							524.562,117.175 526.632,119.511 518.784,123.171 						"/>
					</g>
					<g>
						<polygon fill="#C9CFD8" points="587.213,115.378 587.507,112.343 588.167,109.231 591.792,106.784 593.416,109.896 
							594.68,113.231 595.37,116.353 591.507,118.298 						"/>
					</g>
					<g>
						<polygon fill="#B8BEC7" points="563.994,117.023 565.075,113.998 564.948,110.875 567.75,109.119 570.197,111.541 
							571.461,114.876 572.152,118.003 568.288,119.942 						"/>
					</g>
					<g>
						<polygon fill="#B8BEC7" points="573.187,94.418 572.045,84.87 571.73,76.728 579.02,72.149 585.4,78.464 588.7,87.16 
							590.492,95.302 580.431,100.358 						"/>
					</g>
					<g>
						<polygon fill="#B8BEC7" points="520.688,115.49 521.764,112.47 521.643,109.343 524.44,107.586 526.892,110.013 
							528.156,113.349 528.841,116.47 524.983,118.41 						"/>
					</g>
					<g>
						<polygon fill="#B8BEC7" points="541.135,110.78 543.623,110.744 546.217,111.149 548.658,115.251 546.359,117.632 
							543.831,119.607 541.405,120.851 539.339,116.399 						"/>
					</g>
					<g>
						<polygon fill="#B8BEC7" points="534.156,109.627 535.542,111.464 538.389,113.379 537.298,117.053 534.896,115.845 
							533.359,116.505 531.43,116.257 531.379,112.475 						"/>
					</g>
					<g>
						<polygon fill="#B8BEC7" points="518.175,116.647 516.617,116.19 514.079,116.47 513.485,113.479 515.48,112.982 
							516.252,111.718 517.602,110.851 518.978,113.292 						"/>
					</g>
					<g>
						<polygon fill="#B8BEC7" points="598.035,114.078 599.584,114.719 602.177,114.719 602.563,117.811 600.503,118.095 
							599.63,119.287 598.198,120.018 596.98,117.394 						"/>
					</g>
				</g>
				<rect x="404.69" y="116.607" fill="#A9AFB8" width="208.269" height="10.381"/>
			</g>
		</g>
		<path clip-path="url(#SVGID_2_)" fill="none" d="M585.096,82.129c0,46.702-37.782,84.555-84.393,84.555
			c-46.61,0-84.393-37.853-84.393-84.555c0-46.696,37.783-84.551,84.393-84.551C547.313-2.422,585.096,35.433,585.096,82.129z"/>
		<ellipse clip-path="url(#SVGID_2_)" fill="#FFFFFF" cx="526.907" cy="22.843" rx="12.386" ry="12.412"/>
	</g>
	<g>
		<polygon fill="#242A33" points="421.457,64.469 409.416,73.504 409.416,67.479 416.944,61.743 		"/>
		<rect x="406.061" y="67.133" fill="#B3B9C2" width="3.355" height="5.772"/>
		<polygon fill="#646A73" points="450.808,81.221 409.416,61.743 410.899,56.864 432.747,59.012 446.478,67.479 468.682,64.844 
			468.682,77.266 		"/>
		<path fill="#242A33" d="M461.413,69.362h-22.082c0,0-11.853-10.163-14.488-10.163c-2.634,0-15.427-2.634-15.427-2.634v-2.437
			l23.143,2.437l7.899,5.178h20.955V69.362z"/>
		<path fill="#4A5059" d="M486.931,56.565c0,0-14.3-3.574-19.381-2.067c-5.076,1.503-7.898,7.336-7.898,7.336v6.964l9.406,3.01
			C469.057,71.809,487.307,61.271,486.931,56.565z"/>
		<polygon fill="#242A33" points="493.951,46.473 484.804,51.494 488.373,53.25 490.815,51.24 492.444,55.006 489.378,55.006 
			489.378,59.022 499.221,61.778 		"/>
		<path fill="#4A5059" d="M515.714,62.966c0,0-5.645-19.381-21.635-27.848l-5.076,4.137l7.711,7.34l-4.137-0.376l5.147,13.047
			C497.723,59.266,501.794,63.535,515.714,62.966z"/>
		<path fill="#F4FFFF" d="M510.931,52.286h-6.315l2.031,8.604l9.066,2.076C515.714,62.966,513.206,55.91,510.931,52.286z"/>
		<path fill-rule="evenodd" clip-rule="evenodd" fill="#313740" d="M511.724,109.145c-6.254,0-11.325-5.071-11.325-11.331
			c0-6.253,5.072-11.33,11.325-11.33c6.259,0,11.33,5.076,11.33,11.33C523.054,104.074,517.982,109.145,511.724,109.145z
			 M511.724,78.773c-10.513,0-19.041,8.523-19.041,19.041c0,10.519,8.528,19.046,19.041,19.046c10.518,0,19.041-8.527,19.041-19.046
			C530.765,87.296,522.242,78.773,511.724,78.773z"/>
		<path fill="#BAC0C9" d="M518.912,97.814c0,3.976-3.218,7.193-7.188,7.193c-3.969,0-7.188-3.217-7.188-7.193
			c0-3.968,3.219-7.187,7.188-7.187C515.694,90.627,518.912,93.846,518.912,97.814z"/>
		<path fill="#4A5059" d="M499.348,76.139c0,0,6.96-5.427,17.685-1.021L506.495,91.19L499.348,76.139z"/>
		<path fill="#242A33" d="M500.85,77.266l13.549,17.879c0,0,1.315,2.065-0.939,4.045c-2.259,1.974-5.27,0-5.27,0l-15.239-15.147
			L500.85,77.266z"/>
		<path fill-rule="evenodd" clip-rule="evenodd" fill="#313740" d="M425.934,109.145c-6.259,0-11.325-5.071-11.325-11.331
			c0-6.253,5.066-11.33,11.325-11.33c6.255,0,11.325,5.076,11.325,11.33C437.26,104.074,432.189,109.145,425.934,109.145z
			 M425.934,78.773c-10.518,0-19.041,8.523-19.041,19.041c0,10.519,8.523,19.046,19.041,19.046c10.513,0,19.041-8.527,19.041-19.046
			C444.976,87.296,436.448,78.773,425.934,78.773z"/>
		<path fill="#BAC0C9" d="M433.123,97.814c0,3.976-3.219,7.193-7.188,7.193c-3.969,0-7.188-3.217-7.188-7.193
			c0-3.968,3.219-7.187,7.188-7.187C429.904,90.627,433.123,93.846,433.123,97.814z"/>
		<path fill="#242A33" d="M469.215,70.017l-42.676,22.117c0,0-3.01,1.691-3.01,4.889c0,3.204,4.137,3.391,4.137,3.391l30.853-2.446
			l15.335-16.372L469.215,70.017z"/>
		<g>
			<polygon fill="#BAC0C9" points="440.057,101.221 404.371,83.18 407.741,77.824 440.646,95.582 457.616,93.348 459.879,100.216 
							"/>
		</g>
		<g>
			<polygon fill="#9399A2" points="440.057,101.221 404.371,83.18 405.604,81.221 440.397,99.19 458.519,97.967 459.879,100.216 			
				"/>
		</g>
		<path fill="#646A73" d="M466.611,71.997l20.32-15.432l27.468,6.025l-23.894,35.377h-33.3v-4.518c0,0,9.533-1.005,9.533-8.909
			C466.738,76.641,466.611,71.997,466.611,71.997z"/>
		<polygon fill="#4A5059" points="487.494,100.413 457.205,100.413 457.205,97.967 490.505,97.967 		"/>
		<polygon fill="#B3B9C2" points="502.358,65.6 492.951,77.266 475.829,75.119 490.505,64.093 		"/>
		<path fill="#BAC0C9" d="M496.713,46.595l11.477,1.39c0,0-8.588-11.117-14.112-12.868l-5.076,4.137L496.713,46.595z"/>
	</g>
	<g>
		<defs>
			<polygon id="SVGID_3_" points="39.9,0 199.498,0 159.598,159.902 0,159.902 			"/>
		</defs>
		<clipPath id="SVGID_4_">
			<use xlink:href="#SVGID_3_"  overflow="visible"/>
		</clipPath>
		<path clip-path="url(#SVGID_4_)" fill="#A0A6AF" d="M74.256-15.32c0.365,0.365,0.173,1.091-0.193,1.457l-9.802,9.822
			c-0.366,0.366-0.924,0.396-1.29,0.031l-0.7-0.706c-0.365-0.365-0.365-0.954,0-1.325l9.797-9.817
			c0.365-0.366,1.122-0.528,1.487-0.163L74.256-15.32z"/>
		<path clip-path="url(#SVGID_4_)" fill="#A0A6AF" d="M76.139-13.437c0.366,0.365,0.366,0.959,0,1.326l-9.965,9.984
			c-0.365,0.365-0.959,0.365-1.319,0l-0.01-0.004c-0.366-0.366-0.366-0.959,0-1.326l9.964-9.984c0.366-0.366,0.96-0.366,1.325,0
			L76.139-13.437z"/>
		<path clip-path="url(#SVGID_4_)" fill="#A0A6AF" d="M78.048-11.518c0.366,0.365,0.366,0.959,0,1.324l-9.96,9.981
			c-0.365,0.365-0.959,0.365-1.325,0l-0.005-0.006c-0.365-0.366-0.365-0.959,0-1.324l9.965-9.98c0.366-0.365,0.955-0.37,1.32,0
			L78.048-11.518z"/>
		<path clip-path="url(#SVGID_4_)" fill-rule="evenodd" clip-rule="evenodd" fill="#A0A6AF" d="M78.667,0.238
			c-0.914,0.914-2.391,0.914-3.305,0c-0.914-0.914-0.914-2.396,0-3.309c0.914-0.919,2.391-0.919,3.305-0.005
			C79.581-2.158,79.581-0.675,78.667,0.238z M68.753,0.238c-0.361,0.365-0.361,0.96,0,1.325l7.604,7.614
			c0.36,0.366,0.883,0.436,1.152,0.162c0.274-0.269,0.442-0.914,0.37-1.421c0,0-0.518-3.721,1.944-6.192
			c2.462-2.467,6.178-1.949,6.178-1.949c0.513,0.071,1.229-0.168,1.589-0.534c0.365-0.366,0.365-0.959,0-1.325l-7.599-7.614
			c-0.365-0.366-0.959-0.366-1.325,0L68.753,0.238z"/>
		<path clip-path="url(#SVGID_4_)" fill-rule="evenodd" clip-rule="evenodd" fill="#A0A6AF" d="M99.571,21.179
			c-1.528,1.533-4.005,1.533-5.538,0c-1.528-1.529-1.528-4.016,0-5.543c1.533-1.534,4.01-1.534,5.538,0
			C101.099,17.163,101.099,19.65,99.571,21.179z M98.952,12.604v-0.005c-0.371-0.289-0.203-0.041-0.324-0.081
			c-0.046-0.016-0.072-0.016-0.117-0.026c-8.848-3-16.138-11.016-16.138-11.016c-0.939,0.051-1.665,0.838-1.665,0.838
			s-0.787,0.67-0.843,1.609c0,0,8.609,7.869,11.137,16.64l0.01-0.005c0.096,0.569,0.792,1.532,1.416,2.157
			c2.396,2.396,6.294,2.416,8.691,0.015c2.396-2.401,2.365-6.32-0.031-8.717C100.469,13.391,99.515,12.701,98.952,12.604z"/>
		<g clip-path="url(#SVGID_4_)">
			<path fill="#A0A6AF" d="M115.364,83.042c0.365,0.366,0.173,1.097-0.193,1.462l-9.802,9.818c-0.36,0.366-0.924,0.396-1.29,0.031
				l-0.7-0.701c-0.365-0.366-0.365-0.96,0-1.325l9.802-9.817c0.366-0.365,1.117-0.533,1.482-0.168L115.364,83.042z"/>
			<path fill="#A0A6AF" d="M117.247,84.931c0.365,0.366,0.365,0.96,0,1.325l-9.964,9.98c-0.365,0.365-0.959,0.365-1.32,0
				l-0.01-0.006c-0.361-0.364-0.366-0.958,0.005-1.324l9.96-9.979c0.365-0.366,0.959-0.366,1.324-0.006L117.247,84.931z"/>
			<path fill="#A0A6AF" d="M119.16,86.845c0.366,0.365,0.361,0.959,0,1.325l-9.965,9.979c-0.365,0.371-0.959,0.371-1.325,0
				l-0.005-0.005c-0.365-0.365-0.365-0.959,0-1.326l9.965-9.979c0.366-0.365,0.955-0.365,1.32,0L119.16,86.845z"/>
			<path fill-rule="evenodd" clip-rule="evenodd" fill="#A0A6AF" d="M119.775,98.602c-0.909,0.914-2.391,0.914-3.305,0
				c-0.909-0.914-0.909-2.396,0-3.31c0.914-0.914,2.396-0.914,3.305,0C120.688,96.205,120.688,97.688,119.775,98.602z
				 M109.866,98.602c-0.365,0.365-0.365,0.959,0,1.325l7.599,7.615c0.36,0.365,0.883,0.441,1.157,0.167
				c0.269-0.274,0.437-0.914,0.365-1.426c0,0-0.518-3.72,1.944-6.188c2.467-2.472,6.183-1.955,6.183-1.955
				c0.508,0.072,1.223-0.167,1.584-0.533c0.365-0.361,0.365-0.959,0-1.32l-7.599-7.62c-0.365-0.361-0.959-0.361-1.325,0
				L109.866,98.602z"/>
			<path fill-rule="evenodd" clip-rule="evenodd" fill="#A0A6AF" d="M140.678,119.546c-1.527,1.527-4.005,1.527-5.533,0
				c-1.533-1.533-1.528-4.016,0-5.549c1.528-1.533,4.006-1.533,5.533,0C142.207,115.53,142.207,118.013,140.678,119.546z
				 M140.059,110.967h0.006c-0.375-0.294-0.203-0.045-0.325-0.086c-0.051-0.016-0.076-0.016-0.122-0.026
				c-8.848-2.999-16.137-11.015-16.137-11.015c-0.934,0.055-1.665,0.837-1.665,0.837s-0.787,0.67-0.837,1.61
				c0,0,8.604,7.868,11.137,16.645l0.005-0.01c0.096,0.568,0.792,1.533,1.416,2.157c2.396,2.401,6.3,2.421,8.69,0.021
				c2.401-2.401,2.371-6.32-0.025-8.721C141.582,111.754,140.623,111.064,140.059,110.967z"/>
		</g>
		<g clip-path="url(#SVGID_4_)">
			<path fill="#A0A6AF" d="M68.626,68.422c-0.401,0.473-1.294,0.315-1.767-0.085L54.144,57.615
				c-0.477-0.396-0.569-1.066-0.168-1.538l0.772-0.904c0.401-0.473,1.107-0.532,1.584-0.132l12.716,10.716
				c0.477,0.4,0.746,1.289,0.345,1.761L68.626,68.422z"/>
			<path fill="#A0A6AF" d="M66.555,70.859c-0.401,0.473-1.112,0.534-1.583,0.132l-12.93-10.899
				c-0.477-0.401-0.533-1.106-0.132-1.579l0.005-0.01c0.401-0.472,1.112-0.533,1.584-0.132l12.934,10.899
				c0.472,0.4,0.528,1.106,0.132,1.578L66.555,70.859z"/>
			<path fill="#A0A6AF" d="M64.454,73.332c-0.401,0.477-1.112,0.533-1.584,0.133L49.94,62.565c-0.477-0.401-0.533-1.106-0.132-1.579
				l0.005-0.005c0.401-0.478,1.112-0.533,1.584-0.132l12.934,10.898c0.472,0.397,0.533,1.106,0.132,1.579L64.454,73.332z"/>
			<path fill-rule="evenodd" clip-rule="evenodd" fill="#A0A6AF" d="M50.453,75.246c-1.188-0.995-1.335-2.761-0.33-3.944
				c1.005-1.183,2.777-1.33,3.96-0.331c1.188,0.995,1.335,2.762,0.33,3.944C53.408,76.099,51.636,76.246,50.453,75.246z
				 M49.468,63.408c-0.472-0.397-1.188-0.335-1.588,0.136l-8.351,9.833c-0.401,0.472-0.442,1.102-0.086,1.396
				c0.355,0.3,1.137,0.432,1.741,0.294c0,0,4.401-0.985,7.6,1.711c3.198,2.695,2.949,7.183,2.949,7.183
				c-0.035,0.614,0.325,1.442,0.792,1.843c0.472,0.396,1.188,0.335,1.584-0.137l8.355-9.833c0.401-0.472,0.34-1.183-0.132-1.58
				L49.468,63.408z"/>
			<path fill-rule="evenodd" clip-rule="evenodd" fill="#A0A6AF" d="M27.473,102.297c-1.98-1.676-2.229-4.63-0.548-6.61
				c1.68-1.98,4.65-2.228,6.635-0.553c1.985,1.669,2.229,4.629,0.548,6.608C32.427,103.724,29.458,103.967,27.473,102.297z
				 M37.671,100.698l0.005,0.005c0.31-0.477,0.031-0.249,0.066-0.396c0.015-0.056,0.01-0.086,0.02-0.147
				c2.71-10.863,11.579-20.366,11.579-20.366c-0.162-1.112-1.167-1.903-1.167-1.903s-0.883-0.873-2.01-0.843
				c0,0-8.564,11.062-18.808,14.96l0.01,0.004c-0.67,0.172-1.751,1.102-2.437,1.909c-2.634,3.097-2.269,7.762,0.838,10.381
				c3.112,2.619,7.797,2.193,10.432-0.908C36.879,102.592,37.61,101.384,37.671,100.698z"/>
		</g>
		<g clip-path="url(#SVGID_4_)">
			<path fill="#A0A6AF" d="M189.533,21.422c-0.401,0.472-1.289,0.313-1.767-0.087l-12.716-10.721
				c-0.478-0.396-0.569-1.066-0.168-1.539l0.771-0.903c0.401-0.472,1.112-0.533,1.584-0.132l12.721,10.716
				c0.472,0.402,0.741,1.29,0.34,1.762L189.533,21.422z"/>
			<path fill="#A0A6AF" d="M187.462,23.858c-0.401,0.472-1.112,0.528-1.584,0.131l-12.929-10.897
				c-0.477-0.402-0.533-1.108-0.132-1.58l0.005-0.01c0.401-0.471,1.112-0.532,1.584-0.132L187.34,22.27
				c0.472,0.402,0.533,1.106,0.132,1.579L187.462,23.858z"/>
			<path fill="#A0A6AF" d="M185.36,26.331c-0.401,0.472-1.112,0.533-1.584,0.132l-12.929-10.899
				c-0.477-0.401-0.533-1.107-0.132-1.579l0.005-0.004c0.401-0.478,1.112-0.533,1.584-0.138l12.934,10.905
				c0.472,0.396,0.533,1.106,0.132,1.578L185.36,26.331z"/>
			<path fill-rule="evenodd" clip-rule="evenodd" fill="#A0A6AF" d="M171.36,28.244c-1.188-1-1.33-2.762-0.33-3.944
				c1.005-1.184,2.776-1.33,3.959-0.331c1.188,0.995,1.335,2.762,0.331,3.945C174.319,29.097,172.543,29.244,171.36,28.244z
				 M170.375,16.406c-0.472-0.396-1.188-0.335-1.584,0.132l-8.356,9.837c-0.401,0.473-0.437,1.102-0.086,1.396
				c0.355,0.299,1.137,0.431,1.741,0.294c0,0,4.401-0.99,7.599,1.71c3.198,2.69,2.949,7.183,2.949,7.183
				c-0.035,0.615,0.325,1.442,0.792,1.843c0.472,0.396,1.187,0.336,1.588-0.137l8.35-9.833c0.401-0.472,0.345-1.182-0.127-1.578
				L170.375,16.406z"/>
			<path fill-rule="evenodd" clip-rule="evenodd" fill="#A0A6AF" d="M148.38,55.295c-1.98-1.675-2.229-4.629-0.548-6.609
				c1.681-1.979,4.65-2.228,6.635-0.558c1.985,1.675,2.233,4.635,0.548,6.614C153.334,56.717,150.364,56.967,148.38,55.295z
				 M158.578,53.696l0.005,0.005c0.314-0.478,0.03-0.249,0.066-0.396c0.015-0.061,0.01-0.091,0.02-0.146
				c2.711-10.864,11.579-20.367,11.579-20.367c-0.157-1.117-1.167-1.904-1.167-1.904s-0.883-0.873-2.01-0.843
				c0,0-8.564,11.062-18.803,14.96l0.005,0.005c-0.665,0.172-1.751,1.102-2.437,1.909c-2.635,3.096-2.269,7.761,0.837,10.38
				c3.112,2.62,7.797,2.193,10.432-0.908C157.791,55.59,158.522,54.382,158.578,53.696z"/>
		</g>
		<g clip-path="url(#SVGID_4_)">
			<path fill="#A0A6AF" d="M83.337,108.642c-0.071,0.741-1.056,1.193-1.792,1.122l-19.873-1.854
				c-0.741-0.065-1.294-0.664-1.218-1.406l0.137-1.431c0.071-0.741,0.731-1.29,1.472-1.219l19.873,1.863
				c0.742,0.071,1.614,0.761,1.538,1.504L83.337,108.642z"/>
			<path fill="#A0A6AF" d="M82.967,112.459c-0.071,0.741-0.731,1.289-1.467,1.219l-20.204-1.873
				c-0.741-0.067-1.284-0.726-1.213-1.472v-0.01c0.071-0.741,0.731-1.289,1.472-1.224l20.204,1.884
				c0.741,0.065,1.279,0.725,1.208,1.466V112.459z"/>
			<path fill="#A0A6AF" d="M82.586,116.343c-0.071,0.741-0.726,1.285-1.467,1.218l-20.199-1.863
				c-0.746-0.071-1.29-0.726-1.213-1.472v-0.01c0.071-0.747,0.731-1.29,1.472-1.224l20.204,1.874
				c0.736,0.066,1.279,0.72,1.208,1.462L82.586,116.343z"/>
			<path fill-rule="evenodd" clip-rule="evenodd" fill="#A0A6AF" d="M70.119,127.856c-1.848-0.167-3.204-1.807-3.026-3.665
				c0.183-1.854,1.828-3.218,3.676-3.051c1.853,0.167,3.203,1.808,3.025,3.66C73.611,126.658,71.967,128.023,70.119,127.856z
				 M61.032,116.856c-0.736-0.066-1.401,0.481-1.472,1.223l-1.493,15.462c-0.076,0.741,0.32,1.386,0.873,1.437
				c0.558,0.045,1.421-0.361,1.924-0.914c0,0,3.66-4.005,8.66-3.559c4.99,0.452,7.807,5.036,7.807,5.036
				c0.386,0.63,1.304,1.198,2.036,1.265c0.736,0.065,1.396-0.483,1.467-1.224l1.502-15.412c0.072-0.735-0.472-1.396-1.203-1.466
				L61.032,116.856z"/>
			<path fill-rule="evenodd" clip-rule="evenodd" fill="#A0A6AF" d="M66.007,170.243c-3.096-0.264-5.366-2.985-5.066-6.081
				c0.3-3.102,3.056-5.396,6.152-5.132c3.097,0.27,5.361,2.995,5.056,6.086C71.85,168.212,69.098,170.506,66.007,170.243z
				 M74.936,161.639h0.01c-0.02-0.681-0.137-0.264-0.203-0.432c-0.025-0.066-0.051-0.097-0.081-0.157
				c-4.756-12.508-2.528-27.956-2.528-27.956c-0.919-0.984-2.452-1.071-2.452-1.071s-1.467-0.249-2.553,0.553
				c0,0-0.863,16.777-8.284,27.676h0.015c-0.543,0.634-0.975,2.295-1.097,3.558c-0.472,4.858,3.087,9.163,7.939,9.574
				c4.848,0.406,9.157-3.248,9.63-8.091C75.454,164.034,75.347,162.349,74.936,161.639z"/>
		</g>
	</g>
	<g>
		<g>
			<path fill="#CED4DD" d="M114.531,26.778v8.736c15.061,0,27.269,12.213,27.269,27.28c0,4.502-1.096,8.751-3.03,12.498h9.538
				c1.436-3.894,2.228-8.101,2.228-12.498C150.537,42.904,134.415,26.778,114.531,26.778z"/>
			<path fill="#E6ECF5" d="M114.531,35.514v-8.736c-19.889,0-36.011,16.126-36.011,36.016c0,4.396,0.792,8.604,2.234,12.498h9.533
				c-1.934-3.747-3.031-7.996-3.031-12.498C87.256,47.727,99.464,35.514,114.531,35.514z"/>
			<path fill="#676D76" d="M112.516,62.793c0,1.112,0.903,2.015,2.015,2.015v-4.03C113.419,60.779,112.516,61.681,112.516,62.793z"
				/>
			<path fill="#4B515A" d="M116.541,62.793c0-1.113-0.898-2.015-2.01-2.015v4.03C115.643,64.809,116.541,63.906,116.541,62.793z"/>
			<path fill="#676D76" d="M106.364,62.793c0-4.513,3.655-8.167,8.168-8.167v-11.97c-1.432-0.254-2.904-0.402-4.412-0.402
				c-5.761,0-11.066,1.959-15.29,5.244c4.563-5.873,11.686-9.649,19.701-9.649v-2.335c-15.067,0-27.275,12.213-27.275,27.28
				c0,4.502,1.097,8.751,3.031,12.498h24.244v-4.33C110.018,70.961,106.364,67.301,106.364,62.793z"/>
			<path fill="#4B515A" d="M114.531,35.514v2.335c8.853,0,16.62,4.614,21.046,11.568l-4.411,4.406
				c-3.67-5.767-9.65-9.918-16.635-11.167v11.97c1.817,0,3.487,0.599,4.843,1.604l7.442-5.051l-5.167,7.62
				c0.665,1.178,1.051,2.543,1.051,3.995c0,4.508-3.66,8.168-8.167,8.168v4.33h24.239c1.934-3.747,3.03-7.996,3.03-12.498
				C141.8,47.727,129.592,35.514,114.531,35.514z"/>
			<path fill="#C6CCD5" d="M106.364,62.793c0,4.508,3.655,8.168,8.168,8.168v-6.153c-1.112,0-2.015-0.903-2.015-2.015
				c0-1.113,0.903-2.015,2.015-2.015v-6.153C110.018,54.626,106.364,58.281,106.364,62.793z"/>
			<path fill="#AEB4BD" d="M116.541,62.793c0,1.112-0.898,2.015-2.01,2.015v6.153c4.507,0,8.167-3.66,8.167-8.168
				c0-1.452-0.386-2.817-1.051-3.995l5.167-7.62l-7.442,5.051c-1.355-1.005-3.026-1.604-4.843-1.604v6.153
				C115.643,60.779,116.541,61.681,116.541,62.793z"/>
			<path fill="#B2B8C1" d="M131.166,53.823l4.411-4.406c-4.426-6.954-12.193-11.568-21.046-11.568v4.807
				C121.516,43.905,127.496,48.057,131.166,53.823z"/>
			<path fill="#BCC2CB" d="M94.83,47.498c4.223-3.284,9.528-5.244,15.29-5.244c1.508,0,2.98,0.147,4.412,0.402v-4.807
				C106.516,37.849,99.393,41.625,94.83,47.498z"/>
		</g>
		<g>
			<g>
				<path fill="#8B919A" d="M174.679,49.701c2.559-2.553,6.696-2.553,9.249,0l4.183-4.177c-4.863-4.868-12.747-4.868-17.61,0
					c-4.863,4.863-4.863,12.747,0,17.61l4.177-4.178C172.126,56.397,172.126,52.255,174.679,49.701z"/>
				<path fill="#A3A9B2" d="M188.112,45.524l-4.183,4.177c2.559,2.554,2.559,6.696,0,9.254c-2.553,2.554-6.69,2.554-9.244,0
					l-4.183,4.178c4.863,4.863,12.746,4.863,17.61,0C192.974,58.271,192.974,50.387,188.112,45.524z"/>
			</g>
			<g>
				<path fill="none" d="M88.962,150.512c1.756-1.756,1.761-4.609,0-6.366l-6.361,6.366
					C84.357,152.273,87.206,152.273,88.962,150.512z"/>
				<path fill="none" d="M82.601,144.146c-1.761,1.757-1.761,4.61,0,6.366l6.361-6.366
					C87.206,142.389,84.357,142.389,82.601,144.146z"/>
				<path fill="#CCD2DA" d="M82.601,144.146c1.756-1.757,4.604-1.757,6.361,0l32.792-32.797l-5.305-5.306l-28.447,33.534
					c-2.736-0.782-5.797-0.131-7.949,2.021c-3.163,3.167-3.163,8.3,0,11.463l2.548-2.548
					C80.84,148.755,80.84,145.902,82.601,144.146z"/>
				<path fill="#D7DDE5" d="M93.535,145.105l33.524-28.453l-5.305-5.304l-32.792,32.797c1.761,1.757,1.756,4.61,0,6.366
					c-1.756,1.761-4.604,1.761-6.361,0l-2.548,2.548c3.162,3.162,8.294,3.162,11.457,0
					C93.662,150.902,94.312,147.846,93.535,145.105z"/>
			</g>
			<g>
				<g>
					<path fill="#AEB4BD" d="M131.527,114.744c-0.117-1.665-3.706-7.605-5.848-11.158c-5.244-8.681-6.823-11.3-3.944-14.178
						c2.771-2.772,5.502-1.351,14.563,3.354c1.589,0.828,3.64,1.895,5.599,2.849c-0.838-1.193-1.7-2.386-2.441-3.401
						c-5.924-8.167-8.63-11.894-5.193-15.331c3.224-3.228,7.274-0.954,16.138,4.026c2.142,1.203,4.975,2.792,7.153,3.833
						c-0.538-3.757-3.285-8.457-4.843-13.468l6.203-3.223c6.026,19.331,4.98,20.919,3.868,22.29
						c-3.153,3.889-7.34,1.539-16.513-3.614c-0.975-0.548-2.092-1.178-3.229-1.797c0.68,0.955,1.355,1.889,1.954,2.711
						c5.924,8.167,8.63,11.893,5.193,15.33c-3.122,3.122-7.036,1.33-17.894-4.315l-1.857-0.965l0.985,1.645
						c6.269,10.375,8.275,14.132,5.051,17.355l-3.954-3.954C131.654,113.597,131.511,114.495,131.527,114.744z"/>
				</g>
				<polygon fill="#8B919A" points="130.186,124.875 108.231,102.917 115.708,95.434 137.664,117.398 				"/>
				
					<rect x="115.486" y="108.21" transform="matrix(0.707 0.7072 -0.7072 0.707 117.2679 -56.0576)" fill="#A3A9B2" width="21.604" height="10.575"/>
				<polygon fill="#8B919A" points="167.101,87.957 145.146,65.992 160.1,51.032 182.06,72.997 				"/>
				<polygon fill="#A3A9B2" points="167.101,87.957 151.826,72.677 166.781,57.717 182.06,72.997 				"/>
				<path fill="#8D939C" d="M143.039,84.926c0,0-4.386-11.168-8.777-8.046c0,0,2.848-2.615,6.817-0.767
					c3.97,1.848,16.473,8.625,16.473,8.625s0.994,4.366,0.487,7.365c0,0-0.985,0.477-6.889-2.685
					C145.248,86.261,143.039,84.926,143.039,84.926z"/>
				<path fill="#8D939C" d="M141.897,95.612c0,0,5.092,8.081,1.411,8.223c0,0-8.706-3.731-12.873-6.147l-4.493-7.609
					c0,0-1.351-1.756-2.64-1.782c0,0,2.112-1.081,8.925,2.376C137.577,93.388,141.897,95.612,141.897,95.612z"/>
			</g>
		</g>
		<g>
			<rect x="29.554" y="74.251" fill-rule="evenodd" clip-rule="evenodd" fill="#1C222B" width="47.813" height="11.63"/>
			<g>
				<path fill-rule="evenodd" clip-rule="evenodd" fill="#414750" d="M29.376,79.728l10.27,1.558c0-1.136,0.035-2.212-0.036-3.278
					c-0.01-0.173-0.482-0.412-0.767-0.457c-2.833-0.457-5.665-0.909-8.508-1.289c-0.706-0.097-0.848-0.341-0.817-1.001
					c0.183-4.71,0.33-9.421,0.477-14.132c0.051-1.487,0.035-1.487-1.645-1.979c-0.447,2.168-0.949,4.309-1.33,6.472
					c-1.518,8.543-1.731,17.188-1.949,25.829c-0.092,3.588-0.162,7.183-0.249,10.767c-0.01,0.305-0.046,0.609-0.071,0.965H9.523
					c0-0.335-0.01-0.66,0-0.991c0.279-9.609,0.37-19.229,0.899-28.822c0.457-8.285,1.213-16.559,2.193-24.793
					c0.848-7.116,2.188-14.167,3.355-21.244c0.066-0.406,0.431-0.894,0.797-1.101c6.188-3.508,12.782-6.031,19.64-7.889
					c0.893-0.244,1.274-0.589,1.213-1.574c-0.097-1.426-0.005-2.868-0.031-4.305c-0.01-0.498,0.173-0.716,0.64-0.842
					c6.817-1.899,13.736-2.493,20.751-1.569c3.082,0.406,6.138,1.035,9.234,1.574v6.127c1.371,0.391,2.69,0.757,4,1.143
					c6.117,1.817,12.015,4.158,17.569,7.315c0.39,0.223,0.787,0.735,0.863,1.172c1.061,6.208,2.243,12.401,3.04,18.64
					c0.884,6.898,1.503,13.833,2.061,20.767c0.949,11.768,1.203,23.564,1.315,35.361v1.005H81.799
					c-0.02-0.319-0.051-0.65-0.061-0.979c-0.203-7.361-0.305-14.732-0.635-22.086c-0.309-6.798-0.964-13.569-2.757-20.169
					c-0.066-0.238-0.147-0.472-0.223-0.7c-1.528,0.335-1.559,0.355-1.513,1.782c0.137,4.614,0.284,9.233,0.421,13.852
					c0.01,0.402,0,0.803,0,1.29l-9.924,1.529v3.603l10.259-1.547c0,1.711-0.02,3.33,0.005,4.944
					c0.036,1.782,0.076,3.558,0.188,5.335c0.041,0.654-0.167,1.107-0.696,1.396c-2.015,1.102-3.964,2.396-6.091,3.219
					c-4.904,1.888-10.071,2.559-15.305,2.747c-0.086,0.004-0.178-0.021-0.381-0.051c-0.015-0.315-0.051-0.639-0.051-0.969
					c0-26.661,0.005-53.316-0.021-79.977c-0.005-0.914,0.33-1.132,1.147-1.238c2.142-0.294,4.193-0.883,5.98-2.264
					c-3.366-1.583-14.447-1.696-20.087,0.984c3.005,0.848,5.909,1.021,8.904,0.919v82.581c-1.066-0.057-2.148-0.071-3.213-0.178
					c-4.858-0.497-9.65-1.325-14.097-3.452c-1.477-0.707-2.822-1.696-4.208-2.595c-0.193-0.122-0.371-0.447-0.365-0.675
					C29.158,86.931,29.27,83.413,29.376,79.728z"/>
			</g>
			<g>
				<path fill="#1C222B" d="M77.85,59.286c-0.015-0.071-1.472-7.057-2.782-17.519l0.569-0.096
					c1.305,10.432,2.751,17.391,2.767,17.462L77.85,59.286z"/>
			</g>
			<g>
				<path fill="#1C222B" d="M28.519,59.286l-0.558-0.153c0.015-0.071,1.462-7.03,2.767-17.462l0.568,0.096
					C29.986,52.229,28.529,59.215,28.519,59.286z"/>
			</g>
			<path fill="#313740" d="M81.657,22.112c0,0-7.539,23.229-8.686,33.96c-1.147,10.726-20.021,14.163-20.021,14.163l-0.964-3.056
				l0.964-44.488c0,0,12.599,1.01,16.122-4.919L81.657,22.112z"/>
			<path fill="#343A43" d="M24.508,22.112c0,0,7.543,23.229,8.686,33.96c1.147,10.726,20.021,14.163,20.021,14.163l0.969-3.056
				l-0.969-44.488c0,0-12.6,1.01-16.117-4.919L24.508,22.112z"/>
			<g>
				<polygon fill="#1C222B" points="29.615,39.433 29.493,38.875 53.463,33.742 76.672,38.875 76.55,39.433 53.463,34.331 				"/>
			</g>
			<rect x="50.961" y="14.772" fill-rule="evenodd" clip-rule="evenodd" fill="#898F98" width="4.508" height="82.596"/>
			<rect x="53.215" y="14.772" fill-rule="evenodd" clip-rule="evenodd" fill="#6B717A" width="2.254" height="82.596"/>
			<path fill="#1C222B" d="M37.773,20.792c0.137-0.208-0.132-1.33-0.675-3.021c-0.193,0.122-0.426,0.213-0.726,0.294
				c-7.01,1.898-13.757,4.487-20.092,8.076c-0.376,0.208-0.746,0.711-0.817,1.122c-0.152,0.944-0.314,1.883-0.472,2.827
				C20.788,30.042,37.123,21.767,37.773,20.792z"/>
			<path fill="#1C222B" d="M68.829,20.792c-0.137-0.208,0.137-1.33,0.68-3.021c0.188,0.122,0.427,0.213,0.721,0.294
				c7.015,1.898,13.761,4.487,20.096,8.076c0.371,0.208,0.746,0.711,0.812,1.122c0.158,0.944,0.315,1.883,0.472,2.827
				C85.814,30.042,69.479,21.767,68.829,20.792z"/>
			<rect x="19.077" y="99.048" fill-rule="evenodd" clip-rule="evenodd" fill="#2F3B4C" width="5.817" height="4.132"/>
			<rect x="9.919" y="99.048" fill-rule="evenodd" clip-rule="evenodd" fill="#343A43" width="7.823" height="4.132"/>
			<rect x="82.088" y="99.048" fill-rule="evenodd" clip-rule="evenodd" fill="#2F3B4C" width="5.818" height="4.132"/>
			<rect x="89.241" y="99.048" fill-rule="evenodd" clip-rule="evenodd" fill="#343A43" width="7.822" height="4.132"/>
			<rect x="9.919" y="97.368" fill-rule="evenodd" clip-rule="evenodd" fill="#B8BEC6" width="15.01" height="1.68"/>
			<rect x="81.733" y="97.368" fill-rule="evenodd" clip-rule="evenodd" fill="#B8BEC6" width="15.015" height="1.68"/>
			<path fill="#1C222B" d="M94.632,54.281c0,0-3.533,8.513-1.477,13.665c2.051,5.152,3.594,9.924,3.594,9.924
				S97.495,64.093,94.632,54.281z"/>
			<g>
				<path fill="#1C222B" d="M82.743,69.21c-0.853,0-1.72-0.067-2.589-0.219l0.096-0.563c6.386,1.112,12.69-2.564,12.757-2.599
					l0.289,0.492C93.241,66.352,88.343,69.21,82.743,69.21z"/>
			</g>
			<path fill="#1C222B" d="M11.731,54.281c0,0,3.533,8.513,1.482,13.665c-2.051,5.152-3.599,9.924-3.599,9.924
				S8.868,64.093,11.731,54.281z"/>
			<g>
				<path fill="#1C222B" d="M23.62,69.21c0.853,0,1.721-0.067,2.589-0.219l-0.097-0.563c-6.381,1.112-12.69-2.564-12.756-2.599
					l-0.289,0.492C13.122,66.352,18.021,69.21,23.62,69.21z"/>
			</g>
		</g>
		<g>
			<path fill="#4B515A" d="M85.733,129.024c0,2.69-2.178,4.873-4.868,4.873H65.286c-2.686,0-4.868-2.182-4.868-4.873
				c0-2.686,2.183-4.869,4.868-4.869h15.579C83.555,124.155,85.733,126.338,85.733,129.024z"/>
			<g>
				<path fill="#363C45" d="M68.078,76.626c-4.914-0.741-8.609-0.639-8.609-0.639c-20.64,0-33.671,14.431-33.671,14.431
					C25,91.261,24.208,92.195,23.417,93.2h9.036l0.244-0.218h23.697c1.954,0,3.233,0.817,3.243,2.411
					c0,3.873-2.833,7.523-8.427,10.853c-2.767,1.645-9.183,3.331-14.843,4.818c-2.614,0.69-5.086,1.34-7.233,1.984
					c-3.28,0.979-6.823,1.909-10.569,2.771c-1.792,0.726-6.894,2.848-9.274,4.447c-0.157,0.502-0.406,1.305-0.487,1.655
					c-0.092,0.396-0.173,0.797-0.173,1.208v10.823c0,1.157,0.452,2.244,1.269,3.061c0.818,0.817,1.904,1.264,3.061,1.264l0,0
					l39.493-0.005C79.297,106.398,74.647,86.596,68.078,76.626z"/>
				<path fill="#242A33" d="M67.854,129.231h17.777c8.477-17.513,9.874-31.087,4.406-40.564c-4.599-7.969-14.64-10.939-21.96-12.041
					c6.569,9.969,11.219,29.772-15.625,61.646l25.899-0.005c1.574,0,3.021-0.918,3.782-2.294c0.446-0.812,0.883-1.614,1.304-2.412
					H67.854c-1.193,0-2.163-0.969-2.163-2.167C65.692,130.202,66.662,129.231,67.854,129.231z"/>
			</g>
			<g>
				<path fill-rule="evenodd" clip-rule="evenodd" fill="#F7FAFF" d="M54.443,94.824c1.193,0,2.167,0.971,2.167,2.163
					c0,1.193-0.975,2.162-2.167,2.162c-1.193,0-2.163-0.969-2.163-2.162C52.281,95.795,53.25,94.824,54.443,94.824z M17.737,116.008
					l0.827-0.188l0.64-0.259l-0.64,0.259c3.746-0.863,7.29-1.792,10.569-2.771c2.147-0.644,4.619-1.294,7.233-1.984
					c5.66-1.488,12.076-3.173,14.843-4.818c5.594-3.329,8.427-6.979,8.427-10.853c-0.01-1.594-1.289-2.411-3.243-2.411H32.696
					L32.452,93.2h0.244h-0.244C27.234,97.855,21.62,106.571,17.737,116.008z"/>
				<path fill="#737982" d="M54.443,99.149c1.193,0,2.167-0.969,2.167-2.162c0-1.192-0.975-2.163-2.167-2.163
					c-1.193,0-2.163,0.971-2.163,2.163C52.281,98.181,53.25,99.149,54.443,99.149z"/>
			</g>
			<path fill="#FFFFFF" d="M17.737,116.008c3.884-9.437,9.498-18.153,14.716-22.808h-9.036c-5.827,7.406-11.37,18.717-13.99,26.635
				l-0.137,0.432c2.381-1.599,7.482-3.721,9.274-4.447L17.737,116.008z"/>
			<path fill="#B8BEC7" d="M84.652,136.887c0,0.772-0.625,1.391-1.391,1.391H10.305c-0.767,0-1.391-0.619-1.391-1.391
				c0-0.767,0.624-1.391,1.391-1.391h72.956C84.027,135.496,84.652,136.12,84.652,136.887z"/>
			<path fill="#C7CDD5" d="M68.906,107.328c0,0-4.752,1.853-7.396,0c-2.64-1.848-8.188-2.112-8.188,3.172s7.396,14.27,13.208,13.209
				c5.812-1.056,1.32-4.051,9.244-5.194c0,0-4.223-1.06-7.924,1.143c-2.137,0.746-3.3-1.143-3.3-1.143s4.533-3.259,7.437-2.995
				c2.908,0.264,11.274,0.351,11.624-1.847c0,0-6.34-0.355-9.066-3.438c-2.731-3.081-7.31,2.112-9.69,1.056
				C64.855,111.292,68.642,109.175,68.906,107.328z"/>
			<path fill="#D2D8E0" d="M72.297,109.424c0,0-4.757,1.848-7.396,0c-2.64-1.848-8.188-2.112-8.188,3.173
				c0,5.285,7.397,14.265,13.209,13.208c5.812-1.056,1.32-4.051,9.244-5.198c0,0-4.229-1.056-7.924,1.147
				c-2.137,0.746-3.305-1.147-3.305-1.147s4.539-3.253,7.442-2.99c2.909,0.264,11.274,0.35,11.625-1.853c0,0-6.34-0.35-9.072-3.431
				c-2.726-3.082-7.31,2.112-9.686,1.056C68.245,113.389,72.032,111.271,72.297,109.424z"/>
		</g>
	</g>
	<polygon fill-rule="evenodd" clip-rule="evenodd" fill="#2B4160" points="587.354,114.216 572.308,107.089 569.839,116.981 	"/>
	<polygon fill-rule="evenodd" clip-rule="evenodd" fill="#ADB3BC" points="239.397,0 398.995,0 359.095,159.902 199.498,159.902 	
		"/>
	<g>
		<defs>
			<polygon id="SVGID_5_" points="239.397,0 398.995,0 359.095,159.902 199.498,159.902 			"/>
		</defs>
		<clipPath id="SVGID_6_">
			<use xlink:href="#SVGID_5_"  overflow="visible"/>
		</clipPath>
		<rect x="188.462" y="132.079" clip-path="url(#SVGID_6_)" fill="#B0BCCE" width="215.046" height="32.793"/>
	</g>
	<g>
		<rect x="226.62" y="69.515" fill="#EDF3FC" width="143.688" height="63.204"/>
		<rect x="226.62" y="69.515" fill="#ADB3BC" width="143.688" height="11.304"/>
		<rect x="343.846" y="92.353" fill="#C7CDD6" width="21.584" height="40.366"/>
		<rect x="345.461" y="94.13" fill="#FFFFFF" width="18.036" height="38.589"/>
		<rect x="224.991" y="45.631" fill="#E0E6EF" width="48.783" height="26.908"/>
		<path fill="#ADB3BC" d="M249.235,58.626c9.386,0,17.538-5.264,21.675-12.995h-43.351
			C231.702,53.362,239.854,58.626,249.235,58.626z"/>
		<rect x="236.818" y="89.098" fill="#9DA3AC" width="28.975" height="31.641"/>
		<rect x="236.818" y="91.169" fill="#C9CFD8" width="26.747" height="29.57"/>
		<rect x="321.744" y="46.078" fill="#ADB3BC" width="6.431" height="17"/>
		<path fill="#252B34" d="M273.814,31.829c0,13.573-11.006,24.579-24.579,24.579c-13.574,0-24.575-11.005-24.575-24.579
			c0-13.58,11-24.584,24.575-24.584C262.809,7.244,273.814,18.249,273.814,31.829z"/>
		<path fill="#DAE0E9" d="M264.129,31.829c0,8.223-6.665,14.894-14.894,14.894c-8.224,0-14.894-6.671-14.894-14.894
			c0-8.229,6.669-14.9,14.894-14.9C257.464,16.929,264.129,23.6,264.129,31.829z"/>
		<circle fill="#252B34" cx="249.235" cy="31.829" r="5.508"/>
		<rect x="268.971" y="83.779" fill="#C7CDD6" width="69.85" height="48.94"/>
		<rect x="276.57" y="89.098" fill="#9AA0A9" width="54.651" height="43.621"/>
		<polygon fill="#636972" points="331.222,129.171 316.217,97.231 276.57,89.098 331.222,89.098 		"/>
		<rect x="268.971" y="83.779" fill="#C7CDD6" width="69.85" height="7.391"/>
		<rect x="268.971" y="89.693" fill="#7F858E" width="69.85" height="1.477"/>
		<rect x="268.971" y="83.925" fill="#7F858E" width="69.85" height="1.478"/>
		<rect x="268.971" y="86.585" fill="#7F858E" width="69.85" height="1.482"/>
		<rect x="345.461" y="44.153" fill="#818790" width="19.812" height="1.478"/>
		<path fill-rule="evenodd" clip-rule="evenodd" fill="#EDF3FC" d="M276.622,44.229c-2.386,0-4.325-1.939-4.325-4.325
			c0-2.392,1.939-4.325,4.325-4.325c2.385,0,4.324,1.934,4.324,4.325C280.946,42.291,279.007,44.229,276.622,44.229z
			 M349.019,34.468h16.432c-2.228-6.702-8.543-11.533-15.99-11.533c-6.325,0-11.838,3.492-14.716,8.649h-59.453
			c-4.594,0-8.315,3.727-8.315,8.32c0,4.589,3.721,8.315,8.315,8.315h59.58c2.913,5.035,8.355,8.427,14.589,8.427
			c7.254,0,13.437-4.584,15.812-11.016h-16.254V34.468z"/>
		<rect x="217.752" y="59.976" fill="#EDF3FC" width="161.867" height="17.742"/>
		<rect x="343.846" y="110.912" fill="#A8AEB7" width="4.122" height="4.213"/>
		<g>
			<path fill="#818790" d="M329.201,41.346H287.51c-1.63,0-2.955-1.325-2.955-2.959c0-0.083,0.005-0.163,0.01-0.244
				c-0.285,0.457-0.452,0.995-0.452,1.574c0,1.634,1.32,2.959,2.955,2.959h41.686c1.553,0,2.823-1.198,2.944-2.715
				C331.176,40.788,330.252,41.346,329.201,41.346z"/>
			<path fill="#ADB3BC" d="M287.51,41.346h41.691c1.051,0,1.975-0.558,2.498-1.385c0.01-0.082,0.015-0.164,0.015-0.244
				c0-1.635-1.325-2.955-2.959-2.955h-41.686c-1.056,0-1.975,0.553-2.502,1.381c-0.006,0.081-0.01,0.161-0.01,0.244
				C284.555,40.021,285.88,41.346,287.51,41.346z"/>
		</g>
	</g>
	<g>
		<g>
			<path fill-rule="evenodd" clip-rule="evenodd" fill="#FFFFFF" d="M298.475,110.053c-5.67,3.686-8.021,11.595-11.346,20.965
				c4.548,3.173,9.574,5.707,14.949,7.468c4.97-4.188,11.671-2.691,17.929-2.691c5.279-8.213,12.29-2.481,17.935,2.691
				c5.355-1.757,10.366-4.279,14.899-7.437c-3.315-9.411-5.624-17.401-11.365-20.996c-9.818-6.147-15.727-7.62-21.524-7.701
				C314.029,102.271,308.221,103.724,298.475,110.053z"/>
			<path fill-rule="evenodd" clip-rule="evenodd" fill="#E0E6EF" d="M298.475,110.053c-5.67,3.686-8.021,11.595-11.346,20.965
				c4.528,3.158,9.533,5.686,14.889,7.447c5.65,1.863,11.691-2.325,17.97-2.325v-33.788h-0.036
				C314.029,102.271,308.221,103.724,298.475,110.053z"/>
			<path fill-rule="evenodd" clip-rule="evenodd" fill="#4B515A" d="M307.049,105.231v25.026h25.874v-24.869
				c1.563,0.701,3.233,1.548,5.051,2.573v30.514c-5.792,1.903-11.888,2.863-17.985,2.863c-4.457-4.071-12.178-4.472-17.99-6.386
				v-27.076C303.815,106.814,305.485,105.942,307.049,105.231z"/>
			<path fill-rule="evenodd" clip-rule="evenodd" fill="#363C45" d="M307.049,105.231v25.026h12.939v11.082
				c-6.142,0-12.178-0.964-17.99-2.878v-30.584C303.815,106.814,305.485,105.942,307.049,105.231z"/>
		</g>
		<path fill-rule="evenodd" clip-rule="evenodd" fill="#DDE3EC" d="M311.845,80.743h16.264v23.528c0,7.939-16.264,8.854-16.264,0
			V80.743z"/>
		<polygon fill-rule="evenodd" clip-rule="evenodd" fill="#C5CBD4" points="328.105,95.515 328.105,92.505 311.845,92.505 
			311.845,103.581 		"/>
		<path fill-rule="evenodd" clip-rule="evenodd" fill="#D6DCE5" d="M319.973,50.818c34.448,0,20.483,45.509,0,45.509
			C299.495,96.327,285.53,50.818,319.973,50.818z"/>
		<path fill-rule="evenodd" clip-rule="evenodd" fill="#DDE3EC" d="M319.973,50.818c34.448,0,20.483,45.509,0,45.509V50.818z"/>
		<path fill-rule="evenodd" clip-rule="evenodd" fill="#616770" d="M302.998,71.991c-0.583,4.087-4.249,1.396-4.518-2.381
			c-0.269-3.777,0.101-4.417,1.583-7.924c1.482-3.503,10.112-8.7,20.067-8.7c9.95,0,18.488,6.543,19.97,9.239
			c1.482,2.7,1.812,5.619,1.137,8.045c-0.675,2.427-2.248,4.117-3.096,1.132c-2.904-10.198-10.371-12.178-17.757-12.305
			C311.307,58.935,304.064,64.555,302.998,71.991z"/>
		<g>
			
				<ellipse transform="matrix(0.2173 -0.9761 0.9761 0.2173 196.8357 388.9425)" fill-rule="evenodd" clip-rule="evenodd" fill="#DDE3EC" cx="340.94" cy="71.736" rx="5.385" ry="2.322"/>
			<path fill-rule="evenodd" clip-rule="evenodd" fill="#D6DCE5" d="M297.865,66.479c-1.254,0.279-1.751,2.857-1.101,5.761
				c0.645,2.904,2.183,5.03,3.436,4.752c1.255-0.28,1.746-2.859,1.102-5.762C300.657,68.327,299.115,66.199,297.865,66.479z"/>
		</g>
		<path fill-rule="evenodd" clip-rule="evenodd" fill="#4B515A" d="M339.374,58.448h-37.965v-10.28
			c0-8.676,6.203-14.188,13.853-14.188h10.259c7.65,0,13.853,5.512,13.853,14.188V58.448z"/>
		<g>
			<path fill="#E0E6EF" d="M315.668,34.996c-7.112,0-12.879,5.512-12.879,14.188v10.279h17.183V34.996H315.668z"/>
			<path fill="#FFFFFF" d="M338.074,49.184c0-8.675-5.766-14.188-12.878-14.188h-5.224v24.467h18.102V49.184z"/>
		</g>
		<path fill-rule="evenodd" clip-rule="evenodd" fill="#363C45" d="M342.425,61.412l-4.929-5.548c0,0-17.701-5.68-34.229,0
			l-4.868,4.915C298.399,60.779,320.739,56.748,342.425,61.412z"/>
		<path fill-rule="evenodd" clip-rule="evenodd" fill="#4B515A" d="M319.267,60.464c13.143,0,23.858,5.111,23.858,2.314
			c0-2.802-10.716-5.082-23.858-5.082c-13.137,0-23.854,2.28-23.854,5.082C295.414,65.575,306.13,60.464,319.267,60.464z"/>
	</g>
	<g>
		<path fill="#5E646D" d="M209.772,112.865c0,0-1.838-0.548-2.564,0.508c-0.726,1.061,0.35,2.213,0.35,2.213L209.772,112.865z"/>
		<path fill="#C9CFD8" d="M212.351,112.135c0,0-0.35,0.041-1.447,0.041c-1.097,0-3.868,3.081-3.604,4.178
			c0.259,1.096,1.72,1.096,1.72,1.096l3.315-1.604L212.351,112.135z"/>
		<g>
			<g>
				<path fill-rule="evenodd" clip-rule="evenodd" fill="#2B313A" d="M253.275,128.104c0-1.568,1.274-2.843,2.843-2.843
					c1.574,0,2.843,1.275,2.843,2.843c0,1.574-1.269,2.849-2.843,2.849C254.55,130.953,253.275,129.678,253.275,128.104z
					 M249.143,128.104c0,3.854,3.127,6.979,6.975,6.979c3.853,0,6.975-3.126,6.975-6.979c0-3.848-3.122-6.974-6.975-6.974
					C252.27,121.13,249.143,124.257,249.143,128.104z"/>
			</g>
			<circle fill="#FFFFFF" cx="256.138" cy="128.039" r="3.706"/>
			<g>
				<circle fill="#2B313A" cx="256.139" cy="128.039" r="0.883"/>
			</g>
		</g>
		<g>
			<g>
				<path fill-rule="evenodd" clip-rule="evenodd" fill="#2B313A" d="M214.757,128.039c0-1.574,1.274-2.843,2.843-2.843
					c1.568,0,2.843,1.27,2.843,2.843c0,1.568-1.274,2.843-2.843,2.843C216.031,130.882,214.757,129.607,214.757,128.039z
					 M210.625,128.039c0,3.853,3.122,6.974,6.975,6.974c3.853,0,6.974-3.122,6.974-6.974c0-3.854-3.121-6.976-6.974-6.976
					C213.747,121.063,210.625,124.186,210.625,128.039z"/>
			</g>
			<circle fill="#FFFFFF" cx="217.599" cy="128.039" r="3.706"/>
			<g>
				<circle fill="#2B313A" cx="217.599" cy="128.039" r="0.883"/>
			</g>
		</g>
		<g>
			<path fill="#3A4049" d="M233.965,109.769c0-1.036-0.842-1.878-1.883-1.878h-17.914c-1.041,0-1.879,0.843-1.879,1.878v2.406
				h21.676V109.769z"/>
		</g>
		<g>
			<g>
				<path fill="#3A4049" d="M236.991,129.308c0,0.319-0.254,0.573-0.574,0.573h-5.167c-0.32,0-0.579-0.254-0.579-0.573
					c0-0.32,0.259-0.574,0.579-0.574h5.167C236.737,128.734,236.991,128.988,236.991,129.308z"/>
			</g>
			<g>
				<path fill="#2B313A" d="M237.62,129.699c0,0.766-0.619,1.385-1.386,1.385c-0.767,0-1.386-0.62-1.386-1.385v-1.462
					c0-0.766,0.62-1.386,1.386-1.386c0.766,0,1.386,0.62,1.386,1.386V129.699z"/>
			</g>
		</g>
		<g>
			<defs>
				<path id="SVGID_7_" d="M244.306,103.398l3.549,11.127c0,0-0.782,8.041-2.66,9.767c-1.884,1.726-3.137,1.568-3.137,1.568h-8.147
					c-1.827,0-4.65-3.554-3.553-6.426c1.102-2.873,3.584-5.325,3.584-7.31c-2.35,0-21.635,0.046-21.635,0.046l-1.635,2.929
					l14.985,10.554c0,0,0.157,2.558,3.087,2.558h15.508l2.615-1.462l2.974,0.157c0,0,4.442-5.903,13.579-5.853
					c-2.295-5.172-8.98-4.228-8.98-4.228l-0.838-2.249c0,0-3.447-1.253-4.178-3.447c-0.731-2.198-1.934-7.208-1.934-7.208
					L244.306,103.398z"/>
			</defs>
			<use xlink:href="#SVGID_7_"  overflow="visible" fill="#626871"/>
			<clipPath id="SVGID_8_">
				<use xlink:href="#SVGID_7_"  overflow="visible"/>
			</clipPath>
			<rect x="234.432" y="124.45" clip-path="url(#SVGID_8_)" fill="#2B313A" width="7.259" height="4.599"/>
		</g>
		<path fill="#6A7079" d="M227.016,122.465c0,1.152-0.244,2.253-0.685,3.269c-7.005,0-14.548-0.122-18.919-0.122
			c-0.412-0.98-0.635-2.041-0.635-3.147c0-4.98,4.528-9.011,10.122-9.011C222.488,113.454,227.016,117.485,227.016,122.465z"/>
		<path fill="#6A7079" d="M254.53,116.81c-3.645,2.25-6.188,5.955-7.675,9.945l2.984,0.152c0,0,4.442-5.903,13.579-5.853
			C261.281,116.236,255.326,116.724,254.53,116.81z"/>
		<g>
			<path fill="#DEE4ED" d="M226.701,125.495c0,0.548-0.411,0.991-0.919,0.991h-18.041c-0.502,0-0.919-0.442-0.919-0.991
				s0.416-0.995,0.919-0.995h18.041C226.29,124.5,226.701,124.947,226.701,125.495z"/>
		</g>
		<g>
			<path fill="#DEE4ED" d="M248.509,99.388h-0.314v5.056h0.314c1.035,0,1.878-0.842,1.878-1.882v-1.295
				C250.387,100.231,249.544,99.388,248.509,99.388z"/>
		</g>
		<path fill="#6A7079" d="M245.961,99.388c-1.036,0-1.878,0.843-1.878,1.878v1.295c0,1.04,0.843,1.882,1.878,1.882h2.234v-5.056
			H245.961z"/>
		<g>
			<path fill="#3A4049" d="M240.575,103.089c-0.528,0.183-0.812,0.761-0.63,1.293c0.147,0.422,0.543,0.686,0.965,0.686
				c0.111,0,0.223-0.021,0.33-0.056l2.315-0.797l-0.736-1.903L240.575,103.089z"/>
		</g>
		<path fill="#6A7079" d="M246.179,102.226c-0.183-0.528-0.761-0.812-1.295-0.629l-2.066,0.715l0.736,1.903l1.995-0.69
			C246.083,103.343,246.367,102.759,246.179,102.226z"/>
	</g>
</g>
<polygon fill-rule="evenodd" clip-rule="evenodd" fill="#3B5A83" points="285.367,114.317 387.399,114.317 380.089,143.557 
	278.057,143.557 "/>
<polygon fill-rule="evenodd" clip-rule="evenodd" fill="#3B5A83" points="72.163,114.317 187.902,114.317 180.592,143.557 
	64.853,143.557 "/>
<polygon fill-rule="evenodd" clip-rule="evenodd" fill="#3B5A83" points="506.692,114.317 586.897,114.317 579.587,143.557 
	499.382,143.557 "/>
</svg>
