<?xml version="1.0" encoding="utf-8"?>
<!-- Generator: Adobe Illustrator 19.2.0, SVG Export Plug-In . SVG Version: 6.00 Build 0)  -->
<svg version="1.1" id="Layer_1" xmlns="http://www.w3.org/2000/svg" xmlns:xlink="http://www.w3.org/1999/xlink" x="0px" y="0px"
	 viewBox="0 0 400 230.7" style="enable-background:new 0 0 400 230.7;" xml:space="preserve">
<style type="text/css">
	.st0{fill:#292833;}
	.st1{fill:#373540;}
	.st2{fill:#55535C;}
	.st3{fill:#807E85;}
	.st4{fill:#AAAAAD;}
	.st5{fill:#FA4C2A;}
	.st6{fill:#1C1B21;}
	.st7{fill:#FFFFFF;}
</style>
<g>
	<g>
		<g>
			<g>
				<g>
					<polygon class="st0" points="152.3,57.1 108.2,21.4 4.7,37.1 3.1,26.5 111.2,8.2 155.8,47.9 198,43 198.8,53.8 					"/>
				</g>
				<path class="st0" d="M5,41.3l38.3-5.8c4.3-0.7,7.3-4.7,6.7-9l-0.4-2.9c-0.7-4.3-4.7-7.3-9-6.7L2.2,22.7C-2.2,23.4,0.6,42,5,41.3
					z"/>
				
					<rect x="47.1" y="13.8" transform="matrix(0.9883 -0.1527 0.1527 0.9883 -3.1976 7.8296)" class="st0" width="4.5" height="21.8"/>
			</g>
			<g>
				<g>
					<polygon class="st0" points="247.7,57.1 201.2,53.8 202,43 244.2,47.9 288.8,8.2 396.9,26.5 395.3,37.1 291.8,21.4 					"/>
				</g>
				<path class="st0" d="M395,41.3l-38.3-5.8c-4.3-0.7-7.3-4.7-6.7-9l0.4-2.9c0.7-4.3,4.7-7.3,9-6.7l38.3,5.8
					C402.2,23.4,399.4,42,395,41.3z"/>
				
					<rect x="339.7" y="22.5" transform="matrix(0.1525 -0.9883 0.9883 0.1525 272.7188 367.4881)" class="st0" width="21.8" height="4.5"/>
			</g>
		</g>
		<g>
			<path class="st1" d="M232.5,50c0,11.8-14.5,21.3-32.5,21.3s-32.5-9.5-32.5-21.3c0-32,14.5-21.3,32.5-21.3
				C217.9,28.7,232.5,19.3,232.5,50z"/>
			<ellipse class="st2" cx="200" cy="39.2" rx="32.5" ry="21.3"/>
			<path class="st3" d="M220.5,41.2c0,0-17.9,19.2-41.2,0l-2.7-22.4h47.5L220.5,41.2z"/>
			<path class="st0" d="M227.2,26c0,10.4-11.7,18.8-26.5,18.8c-14.7,0-26.5-8.4-26.5-18.8c0-2.5,0-7.2,0-7.2l53-2.1
				C227.3,16.7,227.2,22.8,227.2,26z"/>
			<ellipse class="st2" cx="200.6" cy="18.8" rx="26.7" ry="18.8"/>
			<ellipse class="st4" cx="173.6" cy="41.6" rx="3" ry="2.4"/>
			<ellipse class="st4" cx="225.6" cy="41.6" rx="3" ry="2.4"/>
			<ellipse class="st4" cx="217.5" cy="49.7" rx="3" ry="2.4"/>
			<ellipse class="st4" cx="180.8" cy="49.7" rx="3" ry="2.4"/>
		</g>
	</g>
	<g>
		<polygon class="st5" points="206.3,51.6 10.3,75.1 10.3,206.3 206.3,230.7 389.3,207.8 389.3,73.6 		"/>
		<polygon class="st6" points="205.6,56.7 15.3,78.9 15.3,202.5 205.6,225.6 383.3,204 383.3,77.5 		"/>
		<polygon class="st0" points="205.6,56.7 17.4,78.9 18.3,198.1 205.6,221.1 380.4,199.5 381.3,77.5 		"/>
		<path class="st7" d="M28.3,109.5V91.2l64-5.7v20.3l-19,1.1v87.5l-26-2.2v-83.9L28.3,109.5z"/>
		<path class="st7" d="M146.3,80.1l26-2.3v102c0,14-7,25.6-22.2,23.6c-9-0.8-13.4-1.2-22.4-2c-14.1-0.9-23.4-11.3-22.4-25.2V83.9
			l25-2.3v98.2c0,1,0.6,1.8,1.3,2.6c0.7,0.8,1.6,1.2,2.6,1.3c3.9,0.2,5.9,0.4,9.8,0.6c1,0.1,1.2-0.3,1.9-1c0.7-0.7,0.4-1.6,0.4-2.6
			L146.3,80.1L146.3,80.1z"/>
		<path class="st7" d="M265.3,179l27-1.6v21l-53,4.9v-125l26,2.3V179z"/>
		<path class="st7" d="M369.3,117.1c-9-0.4-14-0.6-24-1.1c0-3.3,0-4.9,0-8.2c0-0.9,0.3-1.6-0.4-2.3c-0.7-0.7-1.2-1.1-2.1-1.1
			c-4-0.3-5.8-0.4-9.8-0.6c-1-0.1-1.9,0.2-2.6,0.8c-0.7,0.6-1.1,1.4-1.1,2.3c0,7.6,0,11.4,0,19.1c0,0.9,0.5,1.7,1.2,2.3
			c0.7,0.7,1.6,1,2.5,1c6.5,0.1,9.6,0.2,16.1,0.3c12.4,0,22.2,7.5,22.2,20.7c0,8.5,0,12.8,0,21.4c0,13.4-9.5,21.6-22.2,22.4
			c-8.5,0.8-12.8,1.2-21.4,2c-13.7,2-23.5-7-22.5-20.6c0-4.6,0-6.9,0-11.6c10-0.4,14-0.6,24-0.9c0,4.8,0,7.2,0,11.9
			c0,0.9,0.5,1.6,1.2,2.3c0.7,0.6,1.6,0.9,2.5,0.8c4.5-0.3,6.8-0.4,11.3-0.7c1-0.1,1.6-0.4,2.2-1.1c0.7-0.7,0.8-1.5,0.8-2.3
			c0-8.2,0-12.2,0-20.4c0-0.9-0.1-1.6-0.8-2.2c-0.7-0.6-1.4-0.9-2.3-0.9c-6.5,0.1-9.9,0.2-16.4,0.3c-14,0.7-23.5-8.6-22.5-22.4
			c0-8.9,0-13.4,0-22.3c-1-13.7,8.9-22.7,22.6-20.6c8,0.8,11.5,1.1,19.5,1.9c12.7,0.8,22.9,9.1,21.9,22.5
			C369.3,112.7,369.3,114.2,369.3,117.1z"/>
		<polygon class="st7" points="219.3,207.1 206.3,209.7 193.3,207.1 193.3,72.6 206.3,70.8 219.3,72.6 		"/>
	</g>
</g>
</svg>
