<?xml version="1.0" encoding="utf-8"?>
<!-- Generator: Adobe Illustrator 16.0.0, SVG Export Plug-In . SVG Version: 6.00 Build 0)  -->
<!DOCTYPE svg PUBLIC "-//W3C//DTD SVG 1.1//EN" "http://www.w3.org/Graphics/SVG/1.1/DTD/svg11.dtd">
<svg version="1.1" id="Layer_1" xmlns="http://www.w3.org/2000/svg" xmlns:xlink="http://www.w3.org/1999/xlink" x="0px" y="0px"
	 width="400px" height="230.717px" viewBox="0 0 400 230.717" enable-background="new 0 0 400 230.717" xml:space="preserve">
<g>
	<g>
		<g>
			<g>
				<g>
					<polygon fill="#292833" points="152.331,57.121 108.156,21.361 4.735,37.137 3.113,26.504 111.231,8.219 155.795,47.88 
						198.046,43.039 198.82,53.768 					"/>
				</g>
				<path fill="#292833" d="M4.974,41.321l38.346-5.765c4.342-0.653,7.333-4.702,6.68-9.044l-0.434-2.89
					c-0.653-4.342-4.702-7.333-9.044-6.68L2.175,22.707C-2.167,23.36,0.632,41.974,4.974,41.321z"/>
				
					<rect x="47.124" y="13.817" transform="matrix(-0.9883 0.1527 -0.1527 -0.9883 101.9487 41.6357)" fill="#292833" width="4.503" height="21.828"/>
			</g>
			<g>
				<g>
					<polygon fill="#292833" points="247.67,57.121 201.18,53.768 201.954,43.039 244.205,47.88 288.77,8.219 396.888,26.504 
						395.265,37.137 291.844,21.361 					"/>
				</g>
				<path fill="#292833" d="M395.026,41.321l-38.346-5.765c-4.342-0.653-7.333-4.702-6.68-9.044l0.434-2.89
					c0.653-4.342,4.703-7.333,9.045-6.68l38.346,5.765C402.167,23.36,399.368,41.974,395.026,41.321z"/>
				
					<rect x="348.373" y="13.817" transform="matrix(0.9883 0.1526 -0.1526 0.9883 7.884 -53.2308)" fill="#292833" width="4.504" height="21.828"/>
			</g>
		</g>
		<g>
			<path fill="#373540" d="M232.494,49.972c0,11.757-14.548,21.289-32.494,21.289c-17.945,0-32.493-9.531-32.493-21.289
				c0-32.044,14.547-21.288,32.493-21.288C217.946,28.684,232.494,19.272,232.494,49.972z"/>
			<ellipse fill="#55535C" cx="200.001" cy="39.216" rx="32.493" ry="21.288"/>
			<path fill="#807E85" d="M220.505,41.151c0,0-17.866,19.23-41.232-0.041l-2.689-22.449h47.508L220.505,41.151z"/>
			<path fill="#292833" d="M227.228,25.995c0,10.396-11.745,18.823-26.474,18.823c-14.728,0-26.473-8.427-26.473-18.823
				c0-2.54,0-7.171,0-7.171l52.97-2.107C227.251,16.717,227.228,22.789,227.228,25.995z"/>
			<ellipse fill="#55535C" cx="200.561" cy="18.824" rx="26.667" ry="18.823"/>
			<ellipse fill="#AAAAAD" cx="173.595" cy="41.643" rx="2.988" ry="2.428"/>
			<ellipse fill="#AAAAAD" cx="225.584" cy="41.643" rx="2.988" ry="2.428"/>
			<ellipse fill="#AAAAAD" cx="217.518" cy="49.71" rx="2.987" ry="2.428"/>
			<ellipse fill="#AAAAAD" cx="180.766" cy="49.71" rx="2.988" ry="2.428"/>
		</g>
	</g>
	<g>
		<polygon fill="#F05030" points="206.284,51.604 10.281,75.143 10.281,206.266 206.284,230.717 389.281,207.809 389.281,73.605 		
			"/>
		<polygon fill="#1C1B21" points="205.57,56.737 15.281,78.927 15.281,202.534 205.57,225.584 383.281,203.989 383.281,77.477 		"/>
		<polygon fill="#292833" points="205.646,56.737 17.396,78.927 18.292,198.052 205.646,221.102 380.419,199.507 381.315,77.477 		
			"/>
		<path fill="#FFFFFF" d="M28.281,109.485v-18.29l64-5.665v20.342l-19,1.084v87.524l-26-2.196v-83.883L28.281,109.485z"/>
		<path fill="#FFFFFF" d="M146.281,80.108l26-2.266v102.03c0,14.013-7.003,25.584-22.169,23.646
			c-8.969-0.803-13.447-1.204-22.416-2.007c-14.149-0.918-23.415-11.269-22.415-25.24V83.863l25-2.266v98.224
			c0,0.978,0.61,1.848,1.272,2.621c0.661,0.771,1.614,1.191,2.58,1.252c3.906,0.243,5.928,0.363,9.834,0.607
			c0.963,0.061,1.217-0.263,1.879-0.971c0.661-0.708,0.434-1.562,0.434-2.564V80.108z"/>
		<path fill="#FFFFFF" d="M265.281,179.007l27-1.627v21.018l-53,4.9V78.261l26,2.342V179.007z"/>
		<path fill="#FFFFFF" d="M369.281,117.132c-9-0.422-14-0.634-24-1.056c0-3.283,0-4.925,0-8.208c0-0.857,0.268-1.63-0.393-2.315
			c-0.663-0.686-1.179-1.062-2.142-1.124c-3.979-0.255-5.816-0.383-9.795-0.639c-0.966-0.062-1.897,0.216-2.559,0.836
			c-0.663,0.621-1.112,1.375-1.112,2.258c0,7.624,0,11.436,0,19.061c0,0.886,0.523,1.666,1.188,2.342
			c0.662,0.675,1.57,1.022,2.537,1.042c6.51,0.129,9.555,0.194,16.064,0.323c12.448-0.038,22.211,7.485,22.211,20.733
			c0,8.546,0,12.818,0,21.364c0,13.363-9.469,21.644-22.163,22.426c-8.534,0.814-12.841,1.222-21.376,2.035
			c-13.668,2.019-23.461-6.975-22.461-20.648c0-4.626,0-6.938,0-11.564c10-0.37,14-0.556,24-0.926c0,4.773,0,7.16,0,11.934
			c0,0.886,0.523,1.638,1.188,2.258c0.662,0.62,1.57,0.897,2.537,0.835c4.484-0.29,6.774-0.436,11.259-0.727
			c0.964-0.062,1.569-0.438,2.231-1.123c0.662-0.684,0.785-1.452,0.785-2.311c0-8.157,0-12.235,0-20.394
			c0-0.854-0.1-1.599-0.76-2.229c-0.663-0.631-1.361-0.939-2.325-0.923c-6.509,0.111-9.874,0.166-16.384,0.276
			c-13.957,0.696-23.531-8.571-22.531-22.404c0-8.907,0-13.361,0-22.269c-1-13.673,8.923-22.667,22.59-20.647
			c8.029,0.765,11.502,1.148,19.529,1.914c12.719,0.784,22.881,9.1,21.881,22.474C369.281,112.695,369.281,114.174,369.281,117.132z
			"/>
		<polygon fill="#FFFFFF" points="219.281,207.058 206.281,209.747 193.281,207.058 193.281,72.605 206.281,70.812 219.281,72.605 
					"/>
	</g>
</g>
</svg>
