<?xml version="1.0" standalone="no"?>
<!DOCTYPE svg PUBLIC "-//W3C//DTD SVG 1.1//EN" "http://www.w3.org/Graphics/SVG/1.1/DTD/svg11.dtd" >
<svg xmlns="http://www.w3.org/2000/svg">
<metadata>Generated by IcoMoon</metadata>
<defs>
<font id="icomoon" horiz-adv-x="1024">
<font-face units-per-em="1024" ascent="960" descent="-64" />
<missing-glyph horiz-adv-x="1024" />
<glyph unicode="&#x20;" d="" horiz-adv-x="512" />
<glyph unicode="&#xe600;" d="M33.587 711.748c27.614-14.848 410.010-220.262 424.209-227.908 14.268-7.646 32.7-11.332 51.234-11.332 18.637 0 37.069 3.686 51.268 11.332 14.234 7.68 396.663 213.060 424.277 227.908 27.648 14.848 53.76 61.406 3.038 61.406h-957.030c-50.722 0-24.644-46.558 3.004-61.406zM996.284 598.63c-31.334-16.35-416.7-217.839-435.917-227.874-19.183-10.069-32.631-11.332-51.268-11.332-18.569 0-32.017 1.263-51.234 11.332-19.183 10.035-404.548 211.524-435.917 227.874-22.118 11.503-21.948-1.98-21.948-12.425s0-414.959 0-414.959c0-23.689 31.573-54.238 56.115-54.238h906.001c24.508 0 56.081 30.549 56.081 54.238 0 0 0 404.548 0 414.959-0.034 10.445 0.205 23.927-21.914 12.425z" />
<glyph unicode="&#xe601;" d="M587.366 372.668c-97.109-97.143-209.579-189.952-254.020-145.51-63.659 63.625-102.878 119.057-243.2 6.315-140.288-112.811-32.563-187.972 29.116-249.617 71.134-71.134 336.35-3.721 598.528 258.389 262.144 262.144 329.557 527.36 258.355 598.528-61.679 61.679-136.841 169.37-249.583 29.082-112.811-140.254-57.378-179.507 6.315-243.2 44.407-44.407-48.401-156.877-145.51-253.986z" />
<glyph unicode="&#xe602;" d="M588.186-54.443v440.661h188.826l31.505 188.86h-220.331v94.447c0 62.942 31.539 94.413 94.447 94.413h94.413v188.86c-31.471 0-101.956 0-157.321 0-157.423 0-220.365-94.413-220.365-251.802v-125.918h-188.86v-188.86h188.86v-440.661h188.826z" />
<glyph unicode="&#xe603;" d="M751.445 207.838h-192c-136.567 0-158.379 60.45-158.379 116.463 0 26.624 1.673 70.417 3.311 124.143h320.785c48.026 0 139.639 19.695 139.639 107.486 0 87.757-42.291 145.271-98.953 145.271h-357.478c-0.375 126.669-8.602 252.826-132.301 252.826-51.132 0-92.672-21.026-110.182-73.182-22.938-68.54-16.896-148.821-16.555-220.194 0.068-13.585 0.102-27.238 0.137-40.823 0.137-46.729 1.126-93.833 1.331-140.8 0.102-50.551 0.171-101.137 0.171-151.689 0-283.136 257.399-363.383 306.756-363.383 49.289 0 242.688-4.642 277.675-4.642s135.202 9.25 135.202 110.626c0 101.478-71.134 137.899-119.159 137.899z" />
<glyph unicode="&#xe604;" d="M272.22 317.993c-47.862 0-86.794-38.892-86.794-86.733 0-47.862 38.932-86.794 86.794-86.794s86.794 38.932 86.794 86.794c-0.020 47.841-38.953 86.733-86.794 86.733zM272.22 181.658c-27.341 0-49.603 22.241-49.603 49.603 0 27.32 22.241 49.603 49.603 49.603 27.341 0 49.582-22.282 49.582-49.603 0-27.361-22.262-49.603-49.582-49.603zM718.541 309.473c-47.862 0-86.774-38.892-86.774-86.733 0-47.882 38.912-86.794 86.774-86.794 47.841 0 86.794 38.912 86.794 86.794 0 47.841-38.953 86.733-86.794 86.733zM718.541 173.138c-27.341 0-49.603 22.241-49.603 49.603 0 27.32 22.262 49.582 49.603 49.582s49.603-22.262 49.603-49.582c0-27.361-22.262-49.603-49.603-49.603zM276.357 327.352c37.704 1.802 64.061-34.12 65.352-29.225 1.27 4.915-40.305 57.876-75.94 59.412-35.635 1.516-71.291-49.336-65.864-53.453 5.407-4.137 38.707 21.463 76.452 23.265zM285.143 259.625l-5.304-20.316c2.13-2.048 3.461-4.874 3.461-8.049 0-6.164-4.977-11.121-11.1-11.121s-11.1 4.956-11.1 11.121c0 5.98 4.772 10.813 10.691 11.039l5.14 19.722c-1.556 0.246-3.113 0.451-4.731 0.451-17.265 0-31.232-14.008-31.232-31.212 0-17.285 13.988-31.252 31.232-31.252s31.252 13.988 31.252 31.252c0 12.616-7.537 23.45-18.309 28.365zM710.369 254.628l8.929-19.046c2.97-0.205 5.755-1.516 7.823-3.912 3.891-4.71 3.277-11.756-1.413-15.667-4.71-3.891-11.715-3.277-15.667 1.413-3.83 4.628-3.256 11.407 1.147 15.36l-8.643 18.412c-1.311-0.799-2.703-1.638-3.912-2.662-13.271-11.039-15.073-30.74-4.035-43.991s30.74-15.073 43.991-4.035c13.23 11.039 15.053 30.761 4.014 44.012-8.131 9.708-20.828 13.23-32.236 10.117zM536.289 198.697c-2.929-0.963-0.43 0.758-74.035-6.001 23.45-19.374 97.628-15.688 97.628-15.688s-15.299 7.168-23.593 21.688zM483.779 358.339c6.205 0 65.065 1.167 65.065 1.167s206.5 72.069 210.78 73.216c4.239 1.167 1.946 15.872-4.28 15.503-6.185-0.389-210.76-22.077-236.728-29.45-25.969-7.352-39.895-24.371-41.452-36.413-1.556-12.022 0.389-24.023 6.615-24.023zM779.018 377.221c9.277 6.943 37.11 32.051 37.54 44.646 0.41 10.506-50.36 3.871-50.36 3.871l-182.497-67.011-38.748-12.39h-57.324l11.223-101.478-79.421-0.41c0 0-27.116 111.964-27.116 146.412 0 34.509 45.322 91.832 45.322 91.832l35.267 1.536 0.389 14.336-30.208 0.389c0 0-17.9 32.788-49.48 42.271v28.979h4.71c0.328-7.168 0.942-12.964 1.925-14.459 2.929-4.465 18.616 0 18.616 0v51.651c0 0-15.708 5.489-18.616 0-1.27-2.437-1.966-11.96-2.13-22.221h-10.752v-14.971h0.061v-27.464c-32.481 4.915-45.65-48.701-36.946-61.194 8.929-12.78 22.077 0.389 21.709-10.076-42.639-16.261-133.612-64.717-119.132-103.444 2.785-5.509 29.839 3.092 52.49-14.725s29.061-23.265 44.564-49.603c30.228-51.139 15.114-107.561 15.114-107.561l56.812 0.246 119.46 9.318c9.728-16.486 27.587-27.525 48.067-27.525 15.36 0 29.286 6.226 39.363 16.241-2.826 8.97-4.362 18.432-4.362 28.324 0 15.585 3.85 30.29 10.629 43.213-2.232 3.195-4.833 6.226-7.762 8.888l55.112 44.38c9.114 4.301 40.673 31.334 60.314 27.238 19.64-4.137 85.238-99.226 94.515-89.354 9.298 9.769-37.212 117.76-58.348 120.115z" />
<glyph unicode="&#xe605;" d="M683.11 344.207v47.247l-189.809-16.015c-1.434-0.184-18.596-2.458-35.656-10.854l-45.793-0.307c-1.905-0.184-17.347-2.376-19.886-28.652h-20.644v-78.193h18.575c0.43-6.738 2.13-14.725 6.984-20.296 3.953-4.608 9.441-7.045 15.831-7.045 5.878 0 10.854 2.007 14.725 5.898 9.687 9.708 10.588 29 10.588 57.713 0 3.215-0.041 20.89-0.041 20.89 0 13.271 6.902 22.794 15.852 29.635h175.596c-14.336-16.2-18.289-22.794-21.75-29.635v5.714c0 7.373-5.304 13.599-12.288 14.991l-130.294 0.328c-8.458 0-15.34-6.881-15.34-15.319v-58.409c0-6.861 2.744-13.599 7.516-18.473l19.968-20.541c4.383-4.547 12.186-7.823 18.493-7.823h96.584c8.479 0 15.36 6.881 15.36 15.319v41.964c0.041 0 0.082-0.041 0.082-0.041 8.090-2.683 16.712 1.679 19.395 9.728 6.472 19.558 17.162 36.844 41.923 62.198h14.029v-0.020zM422.646 314.511l0.020-10.895c0.102-26.030 0.164-50.586-6.083-56.873-0.717-0.696-1.7-1.372-3.891-1.372-2.437 0-3.523 0.84-4.239 1.72-1.946 2.212-2.867 6.246-3.195 10.281h9.216v78.193h-7.148c1.229 9.482 4.567 12.841 6.144 13.353l22.733 0.205c-7.987-8.561-13.558-19.825-13.558-34.611zM755.569 405.34c-2.355 0-4.69-0.102-7.045-0.225 4.608 5.837 12.37 15.79 20.767 26.624h112.968v34.222h-42.373v-0.061l-54.764-0.164-1.434 36.557v2.212c0 0.594-0.041 1.106-0.164 1.556l-0.123 3.154-222.269-1.311-14.336-0.389 0.061-18.063c-24.719 17.674-56.627 34.488-93 39.281 0.082 0.492 0.164 1.024 0.164 1.516v2.191c0 4.792-3.932 8.724-8.745 8.724h-13.414c-4.792 0-8.724-3.912-8.724-8.724v-2.191c0-0.328 0.041-0.635 0.102-0.963-41.206-6.042-61.891-53.371-61.215-73.032l0.041-2.028c0.041-5.038 0.123-13.742 2.15-22.508h-6.984v67.564c0.287 3.031-1.27 6.083-4.116 7.537l-13.64 6.984c-3.727 1.925-8.376 0.43-10.301-3.318l-10.916-21.238c-2.191 8.786-7.823 16.671-15.872 22.958l30.413 59.31c22.548-0.041 34.796-12.124 38.543-16.568 0-2.13 0-4.628 0-4.628 0-4.219 3.441-7.66 7.66-7.66 4.239 0 7.68 3.441 7.68 7.66v7.332c0 1.516-0.451 3.031-1.311 4.301-0.492 0.737-9.626 13.496-28.262 20.378h48.865c8.479 0 15.34 6.861 15.34 15.319s-6.861 15.319-15.34 15.319h-57.201v21.422l12.268-21.217c11.018 0 19.927 15.421 19.927 34.468s-8.929 34.447-19.948 34.447l-19.927-34.468v-34.877c-7.27-1.167-12.861-7.434-12.861-15.073 0-0.41 0.082-0.778 0.102-1.188l-39.178-76.37c-9.83 4.444-21.381 7.045-33.833 7.045v-92.16c15.34 0 29.389 3.871 40.387 10.363l-5.878-11.448c-1.905-3.789-0.43-8.397 3.359-10.322l6.82-3.482-15.278-29.798c-21.238 9.708-44.605 15.012-68.751 15.012-12.575 0-25.129-1.372-37.315-4.239 6.615-29.45 0.225 0.492 6.881-29.839 9.912 2.273 20.173 3.441 30.413 3.441 19.21 0 37.786-4.137 54.784-11.653l-10.895-21.197c-19.231 7.639-31.334 9.851-43.889 9.851-61.87 0-112.21-50.319-112.21-112.21 0-61.87 50.34-112.21 112.21-112.21 61.891 0 112.23 50.34 112.23 112.21 0 37.437-18.514 70.513-54.579 95.601l10.752 20.992c20.726-12.206 38.236-29.88 50.258-51.753 27.013 14.111-0.492 0.369 26.87 14.766-14.254 25.969-34.857 47.084-59.208 61.952h179.425c5.939 1.331 9.974 1.905 10.67 1.987l0.737 0.102 197.673 16.63v-41.636c6.881 3.768 14.090 6.881 21.565 9.4l5.96-21.565c-47.35-21.279-74.957-60.682-74.957-106.476 0-61.87 50.34-112.21 112.23-112.21 61.87 0 112.23 50.34 112.23 112.21 0 61.891-50.36 112.21-112.23 112.21-4.751 0-10.363 0.082-22.487-1.884l-6.001 21.75c9.236 2.048 18.719 3.113 28.488 3.113 42.004 0 80.916-19.128 106.844-52.408 20.009 14.479-0.164 0.717 24.166 18.801-31.764 40.858-79.524 64.287-131.031 64.287zM282.214 239.473c0-36.536-29.716-66.253-66.253-66.253s-66.232 29.716-66.232 66.253c0 36.516 29.716 66.232 66.232 66.232 5.161 0 10.24-0.717 22.589-5.468l-13.537-26.358c-2.888 0.758-5.919 1.229-9.052 1.229-19.661 0-35.615-15.954-35.615-35.635 0-19.661 15.954-35.574 35.615-35.574s35.615 15.913 35.615 35.574c0 11.039-5.018 20.91-12.902 27.484l13.619 26.522c21.217-16.712 29.921-34.406 29.921-54.006zM730.726 300.769l8.192-29.798c-11.284-6.001-19.005-17.838-19.005-31.478 0-19.661 15.954-35.594 35.635-35.594 19.64 0 35.594 15.933 35.594 35.594 0 19.64-15.954 35.594-35.594 35.594-0.594 0-1.249-0.082-1.843-0.082l-8.274 30.044c8.090 1.331 9.318 0.676 10.117 0.676 36.516 0 66.232-29.716 66.232-66.232 0-36.536-29.716-66.253-66.232-66.253-36.557 0-66.253 29.716-66.253 66.253 0 24.596 13.599 46.1 41.431 61.276z" />
<glyph unicode="&#xe606;" d="M1006.182 271.974c1.004 7.025 1.516 14.172 1.556 21.381 0.041 5.366-0.205 10.711-0.696 16.056l-7.864-0.717c-0.553 6.881-1.618 13.599-3.031 20.173l7.455 1.761c-1.618 6.963-3.748 13.885-6.246 20.541l-7.066-2.703c-2.396 6.451-5.038 12.759-8.212 18.76l6.287 3.441c-3.4 6.246-7.25 12.37-11.489 18.145l-5.714-4.198c-3.973 5.571-8.335 10.875-13.005 15.852l4.895 4.71c-4.936 5.14-10.322 10.015-15.872 14.438l-4.076-5.14c-5.325 4.342-10.957 8.212-16.835 11.817l3.277 5.489c-6.164 3.686-12.595 6.943-19.21 9.769l-2.355-5.55c-6.267 2.744-12.8 4.956-19.476 6.84l1.556 5.714c-6.881 1.905-13.988 3.318-21.012 4.28l-0.799-5.734c-6.636 0.922-13.332 1.577-20.234 1.638-0.123-0.020-0.287-0.020-0.389-0.020v5.468c-7.168 0-14.336-0.471-21.443-1.434l0.758-5.53c-6.943-0.922-13.722-2.273-20.316-4.076l-1.454 5.263c-6.922-1.905-13.722-4.301-20.255-7.148l2.13-4.915c-6.39-2.724-12.493-5.96-18.371-9.523l-2.806 4.69c-6.144-3.686-12.042-7.803-17.674-12.329l3.4-4.157c-5.407-4.362-10.445-9.073-15.176-14.090l-4.014 3.83c-4.915-5.202-9.544-10.691-13.763-16.486l4.567-3.236c-4.035-5.591-7.762-11.489-10.998-17.592l-4.956 2.683c-3.379-6.328-6.39-12.882-8.929-19.558l5.489-2.048c-1.454-4.014-2.765-8.11-3.912-12.247l-35.226 5.591 0.184 30.085c0 0 125.87 91.136 146.33 111.35 2.294 108.175 179.671 116.019 179.671 116.019l0.942 17.9c0 0-140.022-16.22-166.851-16.036-12.431-39.793-112.988-113.992-225.198-113.275-112.251 0.696-148.337 87.941-148.337 87.941l0.205 29.307 17.060-0.102c0 0 6.021 51.2-16.691 61.891-22.692 10.732-59.331 7.7-59.331 7.7l3.277 14.643 54.518 0.451-0.635 26.87-65.925 0.41 4.997 17.060c0 0-5.673 1.659-20.337 0.123-17.039 0.102-38.81-44.421-54.764-88.207-5.898 1.905-12.39 5.079-14.049 9.728-3.195 8.95 49.459 106.271 55.992 111.903 6.574 5.632 9.196 38.953-3.871 25.231-13.128-13.742-108.175-124.58-115.261-215.675 6.513-0.041 26.030-0.164 26.030-0.164l33.116 14.684-17.961-55.419c-122.348 78.787-224.788-47.411-224.788-47.411s125.583 50.463 203.51 19.886c3.256-1.27 6.369-2.724 9.523-4.137l-30.31-66.703c-6.144 2.683-12.534 4.813-19.087 6.676l1.577 5.734c-6.881 1.884-13.967 3.297-21.074 4.26l-0.758-5.755c-6.656 0.942-13.394 1.597-20.296 1.638-0.102 0-0.225-0.020-0.348-0.020v5.53c-7.168-0.020-14.356-0.492-21.422-1.454l0.737-5.53c-6.902-0.922-13.681-2.253-20.296-4.076l-1.475 5.284c-6.902-1.946-13.722-4.321-20.255-7.168l2.109-4.895c-6.39-2.765-12.472-5.98-18.391-9.564l-2.806 4.69c-6.083-3.666-12.042-7.782-17.633-12.308l3.338-4.137c-5.386-4.342-10.424-9.093-15.176-14.090l-3.994 3.809c-4.936-5.202-9.544-10.711-13.722-16.486l4.506-3.236c-4.035-5.591-7.721-11.489-10.998-17.572l-4.977 2.683c-3.4-6.349-6.39-12.902-8.888-19.579l5.489-2.048c-2.376-6.431-4.465-13.046-5.96-19.845l-5.714 1.27c-1.577-6.963-2.703-14.111-3.338-21.217l6.103-0.532c-0.307-3.789-0.614-7.516-0.655-11.366 0-3.113 0.246-6.185 0.41-9.236l-6.349-0.307c0.205-7.148 1.004-14.275 2.253-21.299l6.349 1.147c1.311-6.799 3.154-13.373 5.345-19.907l-6.513-2.068c2.212-6.861 4.895-13.537 7.987-19.988l6.369 3.052c3.052-6.144 6.41-12.145 10.24-17.756l-6.021-3.953c3.932-5.96 8.315-11.715 12.984-17.080l5.693 4.977c4.567-5.1 9.359-9.892 14.52-14.377l-5.079-5.796c5.386-4.731 11.1-9.114 17.039-13.087l4.424 6.656c5.693-3.707 11.633-6.984 17.797-9.933l-3.564-7.352c6.41-3.133 13.148-5.837 19.927-8.090l2.56 7.803c6.41-2.048 13.066-3.523 19.804-4.69l-1.516-8.376c7.004-1.29 14.152-2.13 21.279-2.458l0.43 8.684c1.802-0.082 3.584-0.307 5.427-0.348 5.018-0.020 9.974 0.266 14.868 0.696l0.758-8.643c7.086 0.594 14.234 1.679 21.217 3.236l-1.925 8.643c6.636 1.556 13.128 3.502 19.436 5.878l3.113-8.438c6.676 2.478 13.251 5.468 19.558 8.827l-4.157 7.803c5.98 3.215 11.633 6.922 17.101 10.875l5.284-7.291c5.796 4.157 11.366 8.765 16.548 13.681l-6.164 6.451c4.936 4.669 9.585 9.564 13.844 14.828l6.902-5.55c4.485 5.571 8.643 11.51 12.329 17.531l-7.557 4.608c3.523 5.755 6.799 11.674 9.564 17.92l7.864-3.42c2.867 6.574 5.284 13.353 7.229 20.234l-8.172 2.273c1.884 6.472 3.297 13.128 4.321 19.927l8.253-1.208c0.963 7.045 1.495 14.193 1.556 21.402 0.020 5.366-0.205 10.711-0.717 16.077l-7.885-0.717c-0.573 6.84-1.638 13.599-3.092 20.152l7.516 1.782c-1.638 6.943-3.727 13.865-6.287 20.521l-7.045-2.662c-2.376 6.431-5.018 12.718-8.233 18.739l6.308 3.42c-3.4 6.246-7.27 12.37-11.51 18.145l-5.693-4.198c-3.994 5.571-8.335 10.875-13.005 15.852l4.915 4.731c-4.956 5.12-10.301 9.974-15.892 14.418l-4.096-5.12c-1.925 1.556-3.912 2.99-5.919 4.485l25.62 70.636c57.221-35.144 92.037-91.484 102.093-129.925 9.748-0.061 17.060 0.717 17.060 0.717s-8.438 80.015-104.1 154.092l8.97 7.864c0.082-0.205 0.143-0.328 0.143-0.328s77.701-66.355 106.66-116.183c28.959-49.807 73.196-133.837 100.004-133.222 26.87 0.655 117.166-2.355 117.166-2.355l1.864 37.396 17.101 2.335 36.884-5.407c-0.287-3.154-0.512-6.369-0.553-9.605 0-3.072 0.287-6.164 0.43-9.236l-6.39-0.287c0.369-7.168 1.167-14.336 2.376-21.299l6.39 1.147c1.27-6.799 3.154-13.435 5.366-19.907l-6.472-2.109c2.171-6.861 4.874-13.537 7.967-19.988l6.39 3.031c3.052-6.124 6.39-12.124 10.22-17.736l-6.042-3.932c3.953-5.96 8.315-11.715 12.984-17.101l5.714 4.977c4.567-5.1 9.359-9.912 14.52-14.377l-5.1-5.816c5.427-4.69 11.141-9.093 17.060-13.066l4.403 6.636c5.714-3.707 11.653-6.984 17.818-9.892l-3.584-7.393c6.39-3.133 13.169-5.816 19.927-8.069l2.56 7.823c6.431-2.089 13.087-3.523 19.804-4.69l-1.516-8.417c7.025-1.27 14.193-2.089 21.279-2.437l0.451 8.684c1.782-0.061 3.584-0.307 5.427-0.307 4.997-0.020 9.933 0.225 14.868 0.655l0.717-8.643c7.127 0.635 14.254 1.679 21.217 3.236l-1.925 8.684c6.636 1.516 13.148 3.482 19.415 5.837l3.113-8.397c6.656 2.437 13.23 5.427 19.538 8.806l-4.157 7.823c5.98 3.174 11.633 6.922 17.101 10.813l5.304-7.291c5.796 4.198 11.366 8.827 16.527 13.681l-6.164 6.513c4.936 4.669 9.605 9.544 13.885 14.828l6.881-5.55c4.506 5.571 8.643 11.51 12.349 17.592l-7.537 4.567c3.523 5.714 6.758 11.674 9.564 17.92l7.885-3.441c2.847 6.554 5.284 13.373 7.209 20.255l-8.151 2.294c1.884 6.41 3.318 13.107 4.321 19.866l8.069-1.044zM298.619 296.899c-0.43-68.116-56.197-123.208-124.293-122.757-68.137 0.43-123.208 56.177-122.778 124.273 0.43 68.137 56.197 123.228 124.314 122.798 16.916-0.123 33.034-3.666 47.698-9.892l-32.932-72.602c-4.321 1.249-8.806 2.13-13.537 2.13-27.955 0.184-50.77-22.344-50.954-50.34-0.184-27.935 22.364-50.77 50.319-50.934 27.976-0.164 50.79 22.385 50.975 50.34 0.082 13.21-5.018 25.129-13.23 34.202l38.277 69.673c28.283-22.815 46.387-57.795 46.141-96.891zM846.213 172.38c-68.116 0.43-123.228 56.156-122.778 124.273 0.020 1.884 0.246 3.707 0.328 5.509l74.67-10.916c1.516-26.44 23.142-47.534 49.971-47.718 27.976-0.164 50.77 22.364 50.954 50.319s-22.344 50.77-50.34 50.954c-18.76 0.123-35.041-10.117-43.848-25.211l-76.37 12.145c15.483 50.995 62.976 88.125 118.948 87.736 68.116-0.43 123.208-56.197 122.798-124.314-0.471-68.137-56.197-123.208-124.334-122.778zM612.27 502.845c113.521 7.025 204.431 103.26 198.758 103.301-5.714 0.041-50.852 0.328-60.6 0.389-9.789 0.061-81.531-30.822-149.504-30.372-67.891 0.43-95.887 17.285-95.887 17.285s-31.293 0.184-38.625 0.246c-7.332 0.020 32.338-97.833 145.859-90.849z" />
<glyph unicode="&#xe607;" d="M682.639 454.103c41.042 9.011 54.477 34.284 58.552 46.162l-121.139-17.961c9.114-15.34 28.16-35.717 62.587-28.201zM864.87 427.684c58.839 35.43 118.968 77.824 114.688 110.121-2.929 21.77-27.873 31.539-59.679 34.959l-165.007-71.7c-2.99-11.715-16.486-47.882-69.489-59.474-6.164-1.372-11.878-1.966-17.244-1.966-34.243 0-52.92 24.699-61.481 40.694h-0.041c-18.473 29.491-39.465 54.845-62.464 69.571-9.81 6.308-20.378 10.609-31.375 13.353 1.761 5.673 3.236 13.537-2.13 13.537-8.397 0-38.4 1.188-52.818 0-8.028-0.676-7.107-6.533-4.751-11.633-57.385-8.233-114.135-39.977-137.523-54.374 0 0 46.080-87.532 140.78-132.588 94.7-44.974 293.806 9.462 295.793 10.035l3.4-12.37c-5.796-1.597-103.834-28.426-196.157-28.426-39.834 0-78.664 4.977-108.524 19.19-98.632 46.879-144.22 133.304-146.207 137.175-5.673 5.632 92.283 157.655-20.664 105.185-206.295-100.68-192.184-169.39-168.591-195.011-17.92-3.256-32.87-9.4-41.206-19.108-12.513-14.5 2.376-19.395 28.221-23.245-40.079-22.241-67.256-64.922-67.256-113.992 0-71.946 58.348-130.294 130.253-130.294 71.946 0 130.232 58.368 130.232 130.232 0 2.048-0.082 3.973-0.164 5.98 9.482-14.643 16.159-25.252 20.644-26.010 12.452-0.471 17.736 20.173 11.899 48.046l41.615-59.863 79.196-0.041v-9.564h-28.078v-22.508h77.066v22.508h-26.522v9.523l224.993-0.246c14.336-56.32 65.29-98.099 126.034-98.099 71.967 0 130.273 58.348 130.273 130.232 0 33.792-13.005 64.471-34.079 87.634 31.928-19.476 55.316-42.189 62.833-40.694 26.214 8.827-16.978 102.072-116.47 123.228zM165.417 175.677c-45.199 0-81.879 36.7-81.879 81.92 0 45.117 36.721 81.859 81.879 81.859 9.236 0 18.063-1.597 26.358-4.506l-18.801-30.495c-2.028 0.307-4.096 0.492-6.205 0.492-25.129 0-45.466-20.398-45.466-45.527s20.357-45.507 45.466-45.507c25.149 0 45.486 20.378 45.486 45.507 0 9.769-3.072 18.739-8.274 26.112l18.719 30.392c15.176-14.828 24.596-35.512 24.596-58.368-0.020-45.117-36.803-81.879-81.879-81.879zM373.883 276.070c-20.070 0-36.372 16.282-36.372 36.352s16.302 36.393 36.372 36.393c20.091 0 36.393-16.323 36.393-36.393s-16.302-36.352-36.393-36.352zM420.434 304.353c0 13.64 11.039 24.637 24.617 24.637s24.617-10.998 24.617-24.637c0-13.517-11.059-24.556-24.617-24.556s-24.617 11.039-24.617 24.556zM503.931 276.582c-13.578 0-24.617 10.998-24.617 24.596 0 13.578 11.039 24.637 24.617 24.637s24.617-11.059 24.617-24.637c0.020-13.599-11.018-24.596-24.617-24.596zM822.395 175.677c-33.792 0-62.833 20.5-75.325 49.746h46.592c8.233-8.397 19.722-13.578 32.358-13.578 25.17 0 45.527 20.357 45.527 45.527 0 25.129-20.357 45.445-45.527 45.445-18.473 0-34.447-11.080-41.513-26.993h-41.902c8.356 36.434 40.878 63.672 79.79 63.672 45.117 0 81.838-36.741 81.838-81.859 0-45.261-36.639-81.961-81.838-81.961z" />
<glyph unicode="&#xe608;" d="M476.549 228.905h111.37c22.569 0 40.796 18.289 40.796 40.776 0 22.569-18.268 40.776-40.796 40.776h-111.37c-22.528 0-40.776-18.268-40.776-40.776-0.041-22.508 18.227-40.776 40.776-40.776zM587.633 298.68c16.179 0 29.286-13.087 29.286-29.245 0-16.179-13.107-29.266-29.286-29.266-16.159 0-29.245 13.087-29.245 29.266 0.041 16.159 13.087 29.245 29.245 29.245zM433.521 296.141c0-11.661-9.453-21.115-21.115-21.115s-21.115 9.453-21.115 21.115c0 11.661 9.453 21.115 21.115 21.115s21.115-9.453 21.115-21.115zM429.015 244.122c0-7.454-6.043-13.496-13.496-13.496s-13.496 6.043-13.496 13.496c0 7.454 6.043 13.496 13.496 13.496s13.496-6.043 13.496-13.496zM455.27 565.268c-3.953-1.7-4.936-5.284-4.956-8.356-9.646 1.741-19.722 2.806-30.331 2.806-65.823 0-77.087-11.796-77.087-47.8s23.634-52.347 51.753-53.453c24.187-0.942 157.532 0.573 168.243 0.573 10.67 0 36.27 15.442 3.052 39.096-20.767 14.787-46.94 35.185-79.708 48.353 1.393 2.888 2.54 6.41 1.311 8.909-2.355 4.874-24.617 13.148-32.276 9.871zM983.634 386.458h8.008v34.304h-36.127c-8.765 9.523-15.995 15.79-19.599 15.79-14.090 0-95.642 0-133.366 0-37.683 0-54.006-58.491-54.006-58.491s0.123 0.082 0.246 0.246c1.085-1.925 2.314-4.116 3.727-6.554-18.596-12.534-34.079-29.798-44.564-50.831-4.874-9.81-8.274-19.948-10.609-30.188l-36.004 0.143c0 6.84-5.96 20.562-14.090 34.365 0.225 0 0.389 0 0.573 0 29.798 0 57.385 21.361 73.708 39.895 16.015 18.227 24.863 37.519 29.225 46.612 4.362 9.073 33.075 34.324 45.24 37.192 14.275 3.359 99.41 0.532 99.41 0.532s-12.964 52.347-111.37 52.347c-50.115 1.106-58.511-48.968-58.511-48.968s-44.483 0-59.638 0c0 26.46-44.483 55.132-65.884 41.083 3.4-11.264 20.869-84.050 20.869-84.050h0.082c-11.899-5.448-44.646-42.516-12.698-75.284 11.817-14.438 27.648-38.277 27.648-56.361 0-24.76-10.117-55.501-47.288-55.501s-118.333 0-168.407 0c-34.98 0-32.317 32.051-35.635 75.387-1.434 18.637 17.244 28.119 25.518 29.266-19.149 23.245-36.762 57.405-44.646 76.882-7.885 19.517 18.002 44.257 18.002 44.257s-30.024 4.403-41.636 23.183c-11.633 18.739-14.459 70.963-4.506 96.85 9.933 25.887 21.197 45.179 37.519 46.858 16.302 1.7 35.246-1.475 35.246-1.475l21.565-27.955 11.244 3.4-19.497 21.565 55.706-25.313 7.885 15.176-37.704 23.634 0.553 28.692c0 0-25.661 0-53.862 0 3.768 12.616 13.394 38.502 30.802 48.66v-22.241h20.255v59.658h-20.255v-27.443c-24.699-10.65-36.516-45.322-40.202-58.634-25.108 0-50.176 0-59.392 0-18.985 0-54.313-39.342-60.334-61.153-7.414 10.097-19.599 16.732-33.423 16.671-22.528-0.061-40.714-17.777-40.632-39.506l0.225-64.082c0.082-21.75 18.412-39.281 40.94-39.219 8.212 0.041 15.79 2.458 22.159 6.492-11.551-19.436-31.928-49.93-53.125-81.306-19.333 10.957-41.595 17.347-65.393 17.347-73.196 0-132.772-59.556-132.772-132.772 0-73.175 59.576-132.731 132.772-132.731 73.216 0 132.792 59.556 132.792 132.731 0 13.64-2.089 26.808-5.939 39.199 7.946-12.861 14.070-27.607 14.93-36.946 1.679-18.534 27.566-11.817 24.187 6.758-3.379 18.534-23.613 63.57-23.060 75.96 0.553 12.37-0.389 69.734-0.389 69.734l24.207 4.526c0 0 38.072-243.036 99.41-243.036s134.472 0 198.042 0c59.023 0 59.351 58.593 59.105 66.99l33.26 0.123c1.024-47.739 27.75-93.43 73.4-116.183 18.596-9.277 38.523-14.029 59.208-14.029 50.688 0 96.236 28.18 118.886 73.544 32.727 65.475 6.001 145.388-59.474 178.074-18.596 9.277-38.564 13.988-59.249 13.988-10.117 0-20.050-1.167-29.676-3.318-1.597 3.564-2.99 6.758-4.321 9.708 7.844 1.925 16.527 3.174 26.030 3.174 43.889 0 108.605-19.128 127.16-74.813 20.275 0 72.008-11.264 73.114 0 0.553 5.612-16.486 32.092-35.574 57.385zM137.544 187.863c-48.394 0-87.757 39.363-87.757 87.736 0 48.394 39.363 87.777 87.757 87.777 14.418 0 27.976-3.543 39.997-9.748-6.943-10.179-13.558-19.968-19.62-28.959-0.061-0.123-0.164-0.205-0.225-0.369-1.884-2.765-3.707-5.489-5.468-8.090-0.225-0.369-0.492-0.758-0.737-1.167-1.741-2.601-3.441-5.12-5.059-7.557-0.102-0.164-0.246-0.389-0.369-0.492-1.638-2.499-3.195-4.854-4.649-7.107-0.43-0.655-0.819-1.27-1.249-1.925-0.963-1.454-1.884-2.929-2.765-4.28-0.492-0.758-0.942-1.475-1.393-2.212-0.717-1.147-1.393-2.171-2.028-3.215-0.43-0.676-0.86-1.352-1.249-1.987-0.594-0.983-1.106-1.864-1.618-2.744-0.307-0.451-0.614-1.004-0.86-1.413-0.696-1.229-1.27-2.294-1.72-3.154-0.655-1.352-1.147-2.662-1.556-3.912-0.102-0.328-0.205-0.635-0.307-0.963-0.307-1.106-0.512-2.13-0.594-3.113 0-0.123-0.061-0.246-0.061-0.41-0.061-1.085-0.020-2.089 0.123-2.99 0.020-0.287 0.082-0.512 0.123-0.758 0.164-0.799 0.41-1.556 0.696-2.273 0.061-0.123 0.102-0.307 0.164-0.41 0.41-0.819 0.86-1.577 1.413-2.273 0.123-0.164 0.266-0.369 0.41-0.471 0.492-0.553 1.024-1.147 1.618-1.597 0.123-0.123 0.246-0.246 0.369-0.328 0.737-0.594 1.495-1.106 2.314-1.556 0.164-0.082 0.328-0.123 0.471-0.246 0.737-0.389 1.495-0.676 2.273-1.024 0.164-0.041 0.348-0.123 0.512-0.205 0.922-0.348 1.864-0.614 2.847-0.819 0.123-0.020 0.246-0.041 0.389-0.061 0.881-0.225 1.761-0.348 2.642-0.43 0.205-0.020 0.389-0.061 0.594-0.061 0.922-0.082 1.843-0.143 2.785-0.143 0.041 0 0.102 0 0.143 0 1.229 0 2.396 0.082 3.543 0.266 0.369 0.082 0.696 0.123 1.044 0.205 0.799 0.123 1.577 0.328 2.294 0.532 0.369 0.102 0.717 0.225 1.044 0.389 0.676 0.246 1.29 0.512 1.884 0.881 0.266 0.143 0.532 0.287 0.778 0.43 0.758 0.532 1.434 1.106 1.925 1.761 3.338 4.465 19.169 25.395 36.25 44.892v0c5.673 6.472 11.489 12.718 17.039 18.227 8.602-13.537 13.681-29.573 13.681-46.817-0.061-48.456-39.404-87.818-87.839-87.818zM847.032 284.058c-3.604 7.823-17.080 36.188-30.351 64.573 3.359 0.41 6.717 0.676 10.158 0.676 13.64 0 26.849-3.072 39.117-9.236 43.315-21.606 60.969-74.445 39.322-117.719-14.93-29.983-45.036-48.599-78.602-48.599-13.64 0-26.808 3.092-39.117 9.257-29.921 14.93-47.596 44.81-48.517 76.145l24.515 0.082c1.516-21.074 13.722-40.919 34.079-51.057 30.556-15.237 67.727-2.847 83.005 27.75 15.237 30.536 2.847 67.727-27.73 83.005-5.202 2.58-10.65 4.321-16.036 5.386 5.755-13.885 13.046-29.839 21.832-47.391 2.847-5.673 2.191-13.435-1.679-21.299-3.912-7.823-11.878-16.507-22.487-17.49-5.673-0.471-14.193 1.085-22.036 11.51-1.556 2.068-3.768 5.53-6.472 9.83l10.793 0.041c1.311-2.13 2.355-3.85 2.888-4.506 11.366-15.094 24.003-5.939 29.245 4.628 2.437 4.854 4.813 9.789-1.925 24.412zM798.761 290.365l-10.711 0.041c-2.683 4.69-5.53 9.626-8.438 14.889-3.809-4.137-7.086-8.847-9.728-14.090-0.123-0.266-0.205-0.492-0.328-0.758l-25.559 0.082c1.249 3.441 2.56 6.881 4.239 10.24 6.39 12.759 15.647 23.347 26.644 31.396 8.049-14.131 16.486-28.918 23.88-41.8zM193.823 406.692l0.553 15.176c0 0-23.634 19.169-58.511 19.169-34.898 0-63.017-20.849-63.017-20.849v-19.722c0 0 26.44 18.043 58.511 18.043s62.464-11.817 62.464-11.817zM165.56 253.891c-3.83-5.079-11.059-8.028-19.845-8.028-8.724 0-20.050 3.195-25.641 12.268-3.031 4.895-5.427 13.23 0.41 24.883 3.891 7.782 17.51 28.344 35.103 54.292-5.386 1.556-11.059 2.437-16.937 2.437-34.181 0-61.87-27.73-61.87-61.891s27.709-61.87 61.87-61.87 61.891 27.73 61.891 61.87c0 5.816-0.86 11.428-2.355 16.732-9.769-11.325-20.828-24.986-32.625-40.694zM523.96 441.037l69.284-41.062c7.639 18.043-0.164 39.69-18.76 49.869-17.756 9.667-39.014 5.53-50.524-8.806zM495.596 390.513l70.205-41.574 9.687 17.674-70.246 41.636zM589.23 391.885l-70.205 41.595-9.462-17.347 70.267-41.595zM462.397 418.406l-9.298 15.995c-0.594 1.004-1.372 1.802-2.028 2.765l-67.338-45.793 11.059-18.964 67.604 45.998zM479.355 389.284l-12.431 21.32-67.584-45.998 12.39-21.32zM398.049 447.898c-17.408-10.097-24.678-30.679-18.248-48.333l65.188 44.36c-12.513 10.813-31.375 13.046-46.94 3.973zM469.852 324.485c9.708 5.612 16.261 14.52 19.067 24.33 3.482-8.561 9.83-16.22 18.801-21.074 19.476-10.67 43.213-4.649 53.637 13.312l-70.124 41.554-0.922-1.72c-1.208-2.171-2.13-4.444-2.826-6.758-0.676 1.638-1.27 3.277-2.191 4.874l-1.454 2.478-67.359-45.834c11.612-16.835 34.796-22.016 53.371-11.162z" />
<glyph unicode="&#xe609;" d="M184.75 281.887c-0.328-0.963-0.328-2.191-0.328-3.113 0-5.018 4.362-9.032 9.38-8.765 5.304 0 9.052 4.362 9.052 9.359-0.307 4.997-4.69 8.786-9.687 8.786-3.748-0.348-7.188-2.56-8.417-6.267zM187.228 294.687c5.018 0 8.745 4.383 8.745 9.032-0.307 5.325-4.69 9.052-9.667 9.052-3.768-0.348-6.881-2.826-8.438-6.267 0-1.27 0-2.171 0-3.441 0-4.649 4.035-8.745 9.359-8.376zM586.588 432.681c5.366-6.636 24.33-10.67 39.567-10.67 1.106 0 2.13 0.041 3.154 0.082 14.602 0.614 125.788 24.515 135.148 31.662 6.124 4.669 17.449 20.009 31.498 43.254 1.27 2.109 0.43 3.523 0.307 3.809-0.164 0.020-0.43 0.082-0.676 0.123-0.041 0-0.041 0-0.041 0-1.126 0.164-34.57 3.461-90.563-13.373-55.91-16.855-85.955-49.091-121.283-30.577-4.321 3.318-6.758 4.116-13.558 9.236-4.649 3.482-11.612 8.745-13.373 9.339-0.553 0.143-1.106 0.225-1.679 0.287 7.885-9.646 15.852-19.62 21.852-28.938 3.871-6.042 7.229-11.223 9.646-14.234zM904.008 370.278l4.956-3.154 4.608 3.277-17.285 35.246 6.103 0.512v1.516l3.789 1.454-0.369 23.101-5.919 4.403h-3.4l-2.089 1.638-0.573-0.082c-2.785-0.184-5.345-0.758-7.864-1.495-1.126 7.68-1.884 27.484-2.15 37.028 2.478 15.34 8.233 57.242-0.963 62.853-11.244 6.861-72.11 5.796-81.183 0-5.878-3.789-4.137-31.416-2.13-50.422-0.676-0.983-1.352-2.048-2.089-3.154-7.803-12.083-19.005-28.365-25.969-33.71-0.041 0-0.041-0.020-0.041-0.020l-0.307-0.43-0.614-0.164c0.205 0.143 0.43 0.266 0.553 0.389-12.472-8.438-128.717-32.952-143.954-33.587-1.126-0.061-2.273-0.082-3.441-0.082-15.442 0-37.315 3.932-44.319 12.636-3.932 4.915-9.83 14.684-16.876 25.293-5.12 6.902-10.158 13.824-15.114 20.808 1.27-1.495-2.58 3.277-5.816 6.717 0.307 0-36.721 32.481-86.876 44.032v2.13c0.102 0.553 0.184 1.147 0.307 1.659-10.772 3.379-22.159 4.014-33.26 4.035-0.061 0-0.102 0-0.143 0v0c-0.102 0-0.225 0-0.328 0 0.123-0.655 0.102-1.393 0.061-2.109l-0.184-1.659c-56.873 2.028-78.070-11.878-115.2-24.596l-9.298 23.839 1.679 7.66 6.246-4.219c0.061-0.020 4.71-4.362 6.881-6.82 2.417-2.97 5.612-11.653 9.789-10.629 1.659 0.573 1.905 2.888 2.212 4.465-0.020 0.041-4.874 11.489-7.168 15.155l10.895-9.216c0 0 0.061-2.99 0.942-3.441 0.881-0.471 8.95-6.554 13.763 0 2.478 3.441 2.478 7.516-0.307 9.708-0.061 0.020-0.082 0.020-0.123 0.061l-7.393 3.973-9.708 9.38c0 0-2.13 4.71-2.212 6.554-0.020 1.843-17.183 12.268-17.818 12.431l1.556 7.004c0 0-28.918 15.503-48.558 19.599l-1.884 0.41-4.977-15.012c0 0-0.082-0.43-0.225-1.106-6.472 5.571-12.861 11.018-19.149 16.384 0 0 36.106 34.365 35.84 34.918 14.438 13.271 30.618 29.123 44.974 42.25 3.727 4.669 3.42 7.475-1.249 8.438-10.322 0.922-20.644 1.249-30.638 2.478-27.812-10.936-55.009-19.046-88.74-54.354-0.532-0.492-1.085-1.004-1.638-1.475l-0.225 39.281c0 0-26.972-5.571-6.779-45.834-0.246-0.246-0.471-0.43-0.737-0.717-9.503-11.94-18.432-24.494-27.095-37.478-0.020 0-0.061-0.020-0.082-0.020-0.061-0.123-0.123-0.287-0.205-0.41-0.061-0.102-0.123-0.205-0.184-0.287 0 0 0.041 0.020 0.061 0.020-11.059-20.173-19.21-42.23-23.757-67.031-73.38-18.371-113.828-88.289-113.828-88.289 39.014 36.598 83.64 47.084 119.46 48.21 26.132-6.349 52.122-9.175 76.882-10.015 3.441-0.143 6.861-0.778 10.24-1.659l-21.238-45.588-3.113 1.577-4.157-8.028c-43.356 13.23-80.118 12.636-112.251-1.802-0.717-0.881-1.085-1.638-0.963-2.13 0.143-0.471 0.942-1.249 2.929-1.905 6.042-2.396 13.599-1.679 21.135-1.905-4.977-1.249-9.81-2.765-14.561-4.608-0.082 0.041-0.164 0.041-0.266 0.082-33.976-12.8-62.833-38.994-77.701-74.957-6.963-16.835-10.22-34.324-10.117-51.569 0-0.348-0.020-0.635-0.020-0.963 0-75.244 60.969-136.151 136.172-136.151s136.151 60.969 136.151 136.151c0 13.046-1.884 25.58-5.304 37.499 3.604-7.148 7.352-15.585 10.322-23.429 3.809-4.157 5.55-5.284 9.748-2.765-9.421 53.965-31.928 91.648-68.608 115.2l4.035 7.926-3.379 1.679 23.142 44.38c7.598-5.878 56.259-45.732 64.881-71.68s49.889-134.042 49.889-134.042c4.956-14.234 20.992-24.924 40.407-25.846v-0.164h118.231l29.368-5.837 37.97 5.591 45.957 12.124c16.671-60.129 72.643-102.523 137.564-100.127 76.513 2.519 136.52 67.236 133.673 143.114-0.614 16.589-4.362 33.444-10.26 48.148-21.627 53.105-75.346 87.163-133.12 85.258-48.067-1.556-89.825-27.935-113.275-66.417l-6.574-12.063c-8.97-18.596-13.722-37.089-13.394-59.044l-34.365-12.636-9.667 14.991 30.822 31.56c6.39 66.519 66.765 96.399 86.528 105.042 20.541 8.97 37.396 14.561 71.844 16.364 34.488 1.802 96.85-24.412 125.010-96.829 4.628-11.51 14.889-19.558 18.657-19.702 0.102 0 0.143 0 0.225 0 2.396 0 4.547 1.249 6.39 3.686l0.43 0.614-0.225 0.696c-5.14 20.357-11.059 40.96-18.289 60.232zM260.669 636.744c0-0.020 0-0.020 0 0-0.041-0.041-0.102-0.061-0.143-0.061 0.041 0 0.082 0.020 0.143 0.061zM155.341 514.806l0.020-0.102-0.84-0.43 0.819 0.532zM201.851 406.446l15.933-7.537-53.924-105.636c-4.547 4.26-10.281 7.291-16.65 8.704l54.641 104.468zM139.715 231.997l2.396 0.123c19.19 1.597 33.628 18.002 32.748 36.762-0.143 4.69-1.147 8.97-3.011 13.005-1.024 2.478-2.437 4.71-4.014 6.84l9.667 18.842c0.020 0 0.041-0.020 0.061-0.041l4.956 8.991 8.438 2.847 10.301-2.847 10.301-32.809-8.438-17.162-9.667-2.765c-0.594-5.489-1.966-11.366-4.076-16.323-11.551-28.119-43.745-41.882-71.864-30.31-28.447 11.551-41.861 44.032-30.31 72.499 10.445 25.149 37.949 38.646 63.877 32.543l-10.056-19.395c-0.655 0.082-1.29 0.164-1.966 0.164-19.21 0-34.836-15.913-34.836-35.471 0.041-19.558 15.933-35.492 35.492-35.492zM171.581 361.636l-0.922-1.823c-0.041 0.451-0.143 0.922-0.184 1.331 0.369 0.102 0.737 0.246 1.106 0.492zM242.729 449.085l-23.306-44.728-14.459 7.25 21.484 46.080c5.837-1.946 11.407-4.854 16.425-8.397-0.082-0.082-0.123-0.143-0.143-0.205zM251.904 526.787c-6.062 2.826-37.622 29.716-44.012 40.038l18.207 18.596c12.595-11.039 24.719-22.077 32.973-33.956-2.191-8.438-4.69-16.548-7.168-24.678zM458.158 422.277c-63.939 13.087-146.207 0.819-147.026 0.696l-1.393 9.052c3.441 0.512 84.705 12.636 150.262-0.758 66.458-13.619 110.49-71.332 112.333-73.81l-7.352-5.55c-0.451 0.655-43.848 57.446-106.824 70.369zM766.792 209.039c-26.235-0.799-48.927 16.527-56.238 40.55l21.606 5.591 5.038 1.679c4.055-10.916 14.766-18.452 27.034-17.961 15.278 0.594 26.849 13.414 26.563 28.447 0 2.191-0.43 4.506-1.065 6.595l-43.233-14.049 72.315 23.47c1.536-5.038 2.724-10.281 2.99-15.36 0.922-31.478-23.757-57.754-55.009-58.962zM763.044 322.437c5.038 0.123 9.994-0.43 14.828-1.597v0l-58.429-21.074c9.974 13.169 25.6 21.955 43.602 22.671zM585.564 243.651l130.99 48.865 106.25 38.339c5.714-11.817 9.994-21.422 13.169-35.451l-105.431-33.444-144.855-40.55-29.532-4.915 0.922 1.679 28.488 25.477zM971.796 740.352h-139.756c-44.237 0-54.292-43.008-54.292-96.051 0-53.084 4.895-96.072 49.132-96.072h113.951c44.237 0 80.118 42.988 80.118 96.072 0.020 53.043-4.895 96.051-49.152 96.051z" />
<glyph unicode="&#xe60a;" d="M1002.359 62.327l-459.196 805.922c-6.349 11.127-18.261 17.954-31.164 17.954-12.868 0-24.815-6.861-31.13-17.954l-459.196-805.922c-6.246-10.923-6.144-24.269 0.273-35.089s18.159-17.476 30.822-17.476h918.426c12.663 0 24.439 6.622 30.822 17.476s6.554 24.166 0.341 35.089zM568.695 112.913h-113.425v103.117h113.425v-103.117zM568.695 293.376h-113.425v309.316h113.425v-309.316z" />
<glyph unicode="&#xe60b;" d="M178.62 59.017c0-61.372 49.766-111.138 111.138-111.138s111.104 49.766 111.104 111.138-49.732 111.104-111.104 111.104c-61.406 0-111.138-49.732-111.138-111.104zM734.31 59.017c0-61.372 49.732-111.138 111.138-111.138 61.44 0 111.138 49.766 111.138 111.138s-49.698 111.104-111.138 111.104c-61.406 0-111.138-49.732-111.138-111.104zM375.74 321.707l615.049 175.753c11.776 3.345 21.333 16.111 21.333 28.331v305.63h-783.462v94.447c0 12.22-10.001 22.221-22.221 22.221h-172.305c-12.186 0-22.187-10.001-22.187-22.221v-88.883h107.998l109.329-503.296 10.479-52.395v-83.354c0-12.186 10.001-22.187 22.221-22.187h727.893c12.22 0 22.187 10.001 22.187 22.187v83.354h-624.981c-63.795 0-65.126 25.054-11.332 40.414z" />
<glyph unicode="&#xe60c;" d="M921.6 857.6h-819.2c-56.286 0-102.4-46.080-102.4-102.4v-614.4c0-56.32 46.080-102.4 102.4-102.4h819.2c56.32 0 102.4 46.080 102.4 102.4v614.4c0 56.32-46.080 102.4-102.4 102.4zM921.6 140.8h-819.2v614.4h819.2v-614.4zM460.8 340.48h-256v-92.126h256v92.126zM460.8 494.080h-256v-92.126h256v92.126zM460.8 647.68h-256v-92.126h256v92.126zM814.114 320c0 0-87.040 22.767-87.040 67.482 0 42.598 56.286 60.518 56.286 147.558 0 70.69-21.47 112.64-92.16 112.64s-92.126-41.95-92.126-112.64c0-87.040 56.286-104.96 56.286-147.558 0-44.715-87.040-67.482-87.040-67.482-5.12 0-5.12-71.68-5.12-71.68h256c0 0 0 71.68-5.086 71.68z" />
<glyph unicode="&#xe60d;" d="M254.020-64c-68.437 0-132.471 29.047-178.722 75.264-89.634 89.634-114.62 246.067 11.025 371.746 73.626 73.591 368.503 368.469 515.721 515.686 52.258 52.258 118.75 72.431 182.477 55.364 62.532-16.759 113.766-67.994 130.526-130.526 17.067-63.727-3.106-130.219-55.364-182.477l-493.193-493.158c-28.16-28.16-59.972-44.817-91.921-48.196-31.676-3.345-61.884 6.861-83.046 27.989-38.366 38.366-43.827 110.558 19.934 174.285l346.419 346.453c14.234 14.234 37.308 14.234 51.541 0s14.234-37.308 0-51.507l-346.419-346.419c-29.935-29.935-32.7-58.539-19.934-71.27 5.598-5.598 14.063-8.124 23.859-7.066 14.985 1.57 32.085 11.264 48.094 27.273l493.158 493.158c33.826 33.826 46.797 73.626 36.454 112.060-10.138 37.854-41.131 68.881-78.985 79.019-38.434 10.308-78.234-2.662-112.060-36.489-147.217-147.217-442.129-442.129-515.721-515.721-96.085-96.085-73.079-206.643-11.025-268.663s172.578-85.060 268.663 11.025l515.721 515.686c14.234 14.234 37.274 14.234 51.507 0s14.234-37.308 0-51.507l-515.721-515.721c-60.791-60.757-128.819-86.289-192.99-86.289z" />
<glyph unicode="&#xe60e;" d="M917.402 456.124c0 62.805 38.673 112.401 96.905 146.534-10.479 35.055-24.371 68.676-41.506 100.284-65.263-17.067-118.17 8.499-162.611 52.941s-58.027 97.348-40.96 162.645c-31.607 17.101-65.195 30.993-100.284 41.472-34.099-58.266-95.676-96.905-158.515-96.905-62.805 0-124.416 38.639-158.515 96.905-35.089-10.479-68.676-24.371-100.284-41.472 17.101-65.331 3.516-118.204-40.96-162.645-44.442-44.442-97.314-70.042-162.611-52.975-17.135-31.607-31.027-65.195-41.506-100.284 58.266-34.133 96.905-83.729 96.905-146.534s-38.673-124.416-96.905-158.515c10.479-35.055 24.371-68.676 41.506-100.284 65.331 17.067 118.17 3.516 162.611-40.96 44.407-44.442 58.027-97.314 40.926-162.611 31.642-17.101 65.229-31.027 100.318-41.506 34.099 58.231 95.676 96.939 158.481 96.939 62.839 0 124.416-38.707 158.515-96.939 35.089 10.513 68.71 24.405 100.284 41.506-17.033 65.297-3.482 118.17 40.96 162.611 44.442 44.476 97.348 70.076 162.611 52.975 17.135 31.642 31.027 65.195 41.506 100.284-58.197 34.099-96.87 83.695-96.87 146.534zM510.43 236.954c-121.003 0-219.102 98.133-219.102 219.136s98.099 219.136 219.102 219.136c121.037 0 219.136-98.133 219.136-219.136s-98.099-219.136-219.136-219.136z" />
<glyph unicode="&#xe60f;" d="M922.999 745.165c-96.427 88.542-252.826 88.542-349.321 0l-65.468-60.109-65.536 60.109c-96.461 88.542-252.86 88.542-349.355 0-108.51-99.601-108.51-261.052 0-360.687l414.857-380.723 414.822 380.723c108.544 99.635 108.544 261.086 0 360.687z" />
<glyph unicode="&#xe610;" d="M70.315 675.772c-16.145 15.94-42.189 15.94-58.266 0-16.077-15.906-16.077-41.745 0-57.651l470.767-466.159c16.111-15.94 42.189-15.94 58.3 0l470.801 466.159c16.077 15.94 16.077 41.745 0 57.651-16.111 15.94-42.189 15.94-58.266 0.034l-441.685-425.097-441.651 425.062z" />
<glyph unicode="&#xe611;" d="M512 550.4c-84.821 0-153.6-68.813-153.6-153.6 0-84.821 68.779-153.6 153.6-153.6s153.6 68.779 153.6 153.6c0 84.787-68.779 153.6-153.6 153.6zM921.6 704h-122.88c-16.896 0-35.089 13.107-40.448 29.15l-31.778 95.334c-5.325 16.009-23.484 29.116-40.38 29.116h-348.194c-16.896 0-35.089-13.107-40.414-29.15l-31.778-95.3c-5.359-16.043-23.518-29.15-40.414-29.15h-122.914c-56.286 0-102.4-46.080-102.4-102.4v-460.8c0-56.32 46.114-102.4 102.4-102.4h819.2c56.32 0 102.4 46.080 102.4 102.4v460.8c0 56.32-46.080 102.4-102.4 102.4zM512 140.8c-141.38 0-256 114.62-256 256s114.62 256 256 256 256-114.62 256-256-114.62-256-256-256zM885.76 529.988c-19.763 0-35.84 16.043-35.84 35.84 0 19.763 16.077 35.84 35.84 35.84 19.797 0 35.84-16.077 35.84-35.84 0-19.797-16.043-35.84-35.84-35.84z" />
<glyph unicode="&#xe612;" d="M1010.927 430.933l-456.465 456.875c-23.381 24.201-61.542 24.201-84.89 0l-456.465-456.875c-23.347-24.166-14.643-44.066 19.354-44.066h95.164v-350.857c0-25.395 1.058-45.943 46.899-45.943h221.525v351.881h231.868v-351.881h232.585c34.918 0 35.874 20.548 35.874 45.943v350.857h95.13c34.031 0 42.769 19.866 19.422 44.066z" />
<glyph unicode="&#xe613;" d="M913.783 723.558c-26.283 155.58-168.243 259.516-317.133 232.038-148.855-27.409-274.5-147.149-248.218-302.694 5.666-33.519 21.333-85.982 39.868-123.597l-270.37-403.49c-9.967-14.916-15.633-41.711-12.629-59.597l17.374-102.946c3.038-17.852 19.49-29.901 36.591-26.761l79.189 14.609c17.135 3.174 38.844 18.227 48.265 33.451l106.94 172.919 0.922 1.126 72.363 13.346 124.826 202.65c41.062-7.236 99.908-4.813 134.69 1.604 148.924 27.409 213.606 191.761 187.324 347.341zM781.926 643.789c-40.994-61.099-82.739-18.022-141.278 24.781-58.47 42.803-111.514 69.12-70.554 130.219 40.96 61.133 121.583 76.015 180.019 33.212 58.505-42.803 72.738-127.078 31.812-188.211z" />
<glyph unicode="&#xe614;" d="M992.87 99.533l-240.879 240.879c36.352 59.631 57.276 129.707 57.276 204.663 0 217.737-188.689 406.426-406.494 406.426-217.737 0-394.24-176.538-394.24-394.308 0-217.737 188.689-406.426 406.426-406.426 72.431 0 140.186 19.627 198.519 53.623l242.142-242.142c23.689-23.689 62.123-23.689 85.811 0l60.075 60.075c23.654 23.723 15.053 53.521-8.636 77.21zM129.843 557.193c0 150.767 122.197 272.998 272.93 272.998 150.801 0 285.15-134.349 285.15-285.116s-122.231-272.998-272.998-272.998c-150.733 0-285.082 134.349-285.082 285.116z" />
<glyph unicode="&#xe615;" d="M347.546 6.349c-15.94-16.145-15.94-42.189 0-58.266 15.906-16.077 41.745-16.077 57.651 0l466.159 470.767c15.94 16.111 15.94 42.189 0 58.3l-466.159 470.767c-15.94 16.077-41.745 16.077-57.651 0-15.94-16.111-15.94-42.155-0.034-58.266l425.131-441.651-425.097-441.651z" />
<glyph unicode="&#xe616;" d="M700.689 6.349c15.94-16.145 15.94-42.189 0-58.266-15.906-16.077-41.745-16.077-57.651 0l-466.159 470.767c-15.94 16.111-15.94 42.189 0 58.3l466.159 470.767c15.94 16.077 41.745 16.077 57.651 0 15.94-16.111 15.94-42.155 0.034-58.266l-425.131-441.651 425.097-441.651z" />
<glyph unicode="&#xe617;" d="M776.397 283.034c-37.751 0-72.499-12.868-100.284-34.236l-286.993 172.203c1.434 8.772 2.355 17.783 2.355 26.999s-0.956 18.193-2.355 27.034l286.993 172.169c27.785-21.367 62.532-34.236 100.284-34.236 91.102 0 164.966 73.865 164.966 164.966s-73.865 164.966-164.966 164.966-164.932-73.865-164.932-164.966c0-9.216 0.922-18.193 2.389-26.999l-286.993-172.203c-27.819 21.402-62.566 34.236-100.352 34.236-91.102 0-164.966-73.899-164.966-164.966s73.865-164.966 164.966-164.966c37.786 0 72.533 12.834 100.352 34.236l287.027-172.203c-1.468-8.806-2.389-17.783-2.389-27.034 0-91.102 73.83-164.966 164.932-164.966s164.966 73.865 164.966 164.966c-0.034 91.136-73.899 165.001-165.001 165.001z" />
<glyph unicode="&#xe618;" d="M512 960l138.923-391.134h373.077l-304.401-229.683 108.851-403.183-316.45 241.732-316.382-241.732 108.783 403.183-304.401 229.683h373.077z" />
<glyph unicode="&#xe619;" d="M61.577-55.467c-5.222 6.042-10.411 12.425-16.111 18.125-3.516 3.686-4.028 6.519-1.331 11.059 27.682 44.51 55.057 89.122 82.398 133.564 0.99 1.707 2.185 3.55 3.686 4.745l50.176 41.813 10.581-9.25 273.374 281.975-58.914 52.361c3.857 4.71 5.359 6.724 7.066 8.397 11.264 11.571 22.801 22.801 33.417 34.918 12.902 14.609 26.18 23.654 47.991 25.668 55.364 5.359 93.833 52.19 92.809 108.1-0.171 7.851 1.877 13.414 7.407 18.944 86.938 89.463 173.705 179.234 260.642 268.868 2.014 2.185 3.686 4.54 6.212 7.714l154.556-159.437c-2.697-2.833-4.881-5.53-7.373-8.055-85.982-88.747-171.861-177.357-257.604-266.308-6.246-6.383-12.083-9.728-21.845-9.557-58.402 1.024-106.223-49.323-104.55-110.251 0.171-7.748-2.014-12.937-7.373-17.954-19.285-17.613-38.639-35.396-57.412-52.702l-55.057 51.166-270.029-278.562 9.25-11.059c-13.585-17.442-25.668-36.113-40.926-51.541-11.264-11.401-26.522-18.807-40.277-27.853l-90.317-59.221c-2.389-1.638-4.437-3.823-6.417-5.666h-4.028zM8.533 724.753l7.066 37.41c4.198-3.857 6.861-6.383 9.387-9.079 35.396-36.42 70.827-72.841 106.052-109.431 4.54-4.847 8.567-6.178 15.292-4.335 33.894 9.762 67.959 18.944 102.195 28.194 6.042 1.502 8.909 4.198 10.581 10.581 8.738 35.26 17.783 70.485 27.375 105.404 1.809 7.031 0.819 11.401-4.198 16.452-35.772 36.557-71.339 73.318-106.769 110.046l-8.567 9.079c13.107 2.185 24.166 4.847 35.601 5.871 116.77 9.728 218.18-72.67 233.097-188.962 3.516-27.853 2.833-55.398-3.857-82.739-1.365-5.7-0.512-9.557 3.857-13.926 20.958-20.958 41.609-42.633 61.918-66.799-9.25 0-18.295-0.683-27.375 0.171-6.383 0.683-10.889-0.171-15.599-5.018-27.034-28.535-54.545-56.559-82.227-85.436l55.398-57.549-36.932-32.563-1.331-5.871c-1.536 3.379-2.355 7.407-4.71 9.899-29.525 30.72-59.221 61.133-88.781 91.785-4.028 4.403-7.578 5.393-13.585 3.721-118.989-34.065-241.971 40.107-267.844 161.28-2.185 10.069-4.028 20.48-6.042 30.549v41.267zM910.746 61.986c-0.649 1.195-1.673 3.857-3.345 5.7-10.923 11.435-21.675 22.835-33.075 33.724-2.355 2.355-7.543 3.686-10.923 2.867-12.732-2.867-25.327-6.383-37.717-10.411-3.379-1.161-7.066-4.71-8.021-8.055-4.198-13.073-7.612-26.317-10.274-39.765-0.819-3.379 0.512-8.363 2.833-10.889 9.899-11.23 20.514-22.153 31.403-32.563 2.492-2.492 7.851-3.994 11.435-3.209 13.073 2.697 26.010 6.417 38.946 10.445 2.662 0.649 5.871 3.345 6.485 5.871 4.335 14.575 7.885 29.696 12.254 46.285zM469.879 308.531l36.591 32.734 52.702-49.527c17.613 16.145 36.113 32.768 54.067 49.869 10.854 10.411 21.299 21.299 31.369 32.563 2.492 3.004 3.516 7.885 3.823 11.913 0.512 10.069 0.205 20.139 0.205 32.563 3.652-3.174 5.7-4.54 7.373-6.246 91.785-94.788 183.74-189.611 275.558-284.604 47.514-49.152 42.598-124.211-10.581-162.611-38.946-28.194-92.16-25.532-126.054 8.533-59.563 59.938-117.965 121.003-176.708 181.76l-148.343 153.054z" />
<glyph unicode="&#xe61a;" d="M490.121 960c-176.742 0-320-143.292-320-320 0-305.527 320-704 320-704s320 398.473 320 704c0 176.708-143.258 320-320 320zM490.121 463.36c-95.437 0-172.783 77.38-172.783 172.783s77.38 172.783 172.783 172.783 172.783-77.38 172.783-172.783c0.034-95.403-77.346-172.783-172.783-172.783z" />
<glyph unicode="&#xe61b;" d="M70.315 186.095c-16.145-15.94-42.189-15.94-58.266 0-16.077 15.906-16.077 41.745 0 57.651l470.801 466.159c16.111 15.94 42.189 15.94 58.3 0l470.801-466.159c16.077-15.94 16.077-41.745 0-57.651-16.145-15.94-42.189-15.94-58.266-0.034l-441.685 425.131-441.685-425.097z" />
<glyph unicode="&#xe61c;" d="M731.273 667.614c33.109-0.683 66.389 0.683 99.328-2.048 79.326-6.315 132.779-49.323 163.977-121.685 20.651-48.128 28.331-98.953 28.877-150.665 0.99-113.664 0.341-227.294 0.341-341.163 0-1.707-0.341-3.55-0.512-6.144h-547.635v11.947c0 112.981 0.683 225.758-0.512 338.739-0.683 66.355-9.557 131.55-38.229 192.512-14.848 31.915-26.965 46.080-67.243 78.507h252.211l-0.341 0.341v-200.329c0-4.096 0.171-8.363 1.024-12.459 6.451-28.331 31.232-46.387 59.733-43.861 27.648 2.56 49.118 26.146 49.118 55.296 0.341 67.072 0.171 134.315 0.171 201.353l-0.307-0.341zM0-63.829v200.192c0.171 83.627-0.341 167.049 0.341 250.675 0.341 47.957 6.485 95.061 22.699 140.629 36.864 103.595 115.678 146.91 216.883 138.718 94.891-7.68 155.955-62.635 182.579-160.563 12.971-47.65 16.213-96.085 16.043-145.067-0.171-138.24 0-276.309 0-414.549v-10.069h-438.545zM621.875 667.614v292.318h254.805v-181.589h-145.408v-110.729l0.341 0.307h-110.080zM476.467 7.714h546.611v-71.714h-546.611v71.714z" />
<glyph unicode="&#xe61d;" d="M512.205 68.779h266.65c5.086 0 10.24 0 15.155 0.99 32.768 6.144 52.634 31.13 52.634 66.321v333.619c0 7.953 0.205 16.179-0.205 24.166-2.253 34.611-29.901 61.030-64.341 61.030h-538.385c-5.12 0-10.24-0.239-15.155-1.468-29.867-6.929-50.176-33.382-50.176-65.946v-350.788c0-41.574 26.419-67.959 68.198-67.959h265.626zM61.474 34.577v709.973c0.58 3.277 1.638 6.554 1.809 9.83 1.638 20.070 9.011 37.683 21.504 53.453 26.214 33.178 82.739 49.152 127.795 35.635 0-27.238-0.41-54.477 0-81.715 0.819-40.346 30.31-76.39 70.042-84.173 13.926-2.662 28.877-2.253 43.213-2.253 41.779 0.614 78.848 29.491 85.197 70.861 4.096 27.034 2.048 54.886 2.662 82.5 0.205 5.325 0 10.65 0 15.974h181.453v-11.639c0-22.323-0.239-44.646 0.205-66.765 0.785-45.466 30.31-81.715 73.899-89.498 13.141-2.458 26.829-1.638 40.38-1.434 42.803 0.614 80.657 32.563 85.606 75.162 3.072 27.238 1.638 55.091 2.048 82.739v12.083h63.283c57.583 0 101.99-44.032 101.99-101.751 0-235.11 0-470.391-0.205-705.707 0-8.192-1.024-16.794-2.867-24.815-11.264-46.455-50.79-76.8-99.942-76.8l-534.323-0.205c-54.272 0-108.544-0.205-162.816 0.205-47.104 0.205-86.221 31.778-96.87 77.619-1.604 6.963-2.833 13.926-4.062 20.719zM307.61 960c2.458-0.819 5.12-1.843 7.578-2.458 26.010-6.349 44.646-28.467 45.056-55.501 0.614-44.237 0.819-88.269 0-132.301-0.614-32.563-27.238-57.549-59.187-57.549-33.143 0.205-58.982 26.010-58.982 59.392-0.205 42.189-0.205 84.378-0.205 126.362 0.205 31.744 16.384 51.985 47.923 60.211 1.229 0.205 2.253 1.229 3.482 1.843h14.336zM704.512 960c2.253-0.819 4.301-1.843 6.554-2.458 26.385-6.554 44.646-28.672 44.817-55.296 0.205-43.827 0.205-87.45 0-131.072-0.205-32.973-25.6-58.334-58.334-58.982-32.154-0.614-59.392 24.781-60.041 57.754-0.649 44.032-0.649 88.064 0 132.096 0.649 28.467 19.081 49.152 47.923 55.91 1.673 0.41 3.106 1.434 4.745 2.048h14.336zM572.45 467.9c0.205-3.311 0.614-6.178 0.614-9.045 0-36.045-0.205-72.090 0.205-108.134 0.205-8.192-2.253-10.82-10.854-10.82-37.035 0.41-73.933 0.205-110.967 0.205-5.12 0-10.445-1.024-10.24 7.168 0.205 38.912 0 78.029 0.205 117.146 0 0.785 0.41 1.877 0.819 3.516h130.219zM782.097 468.309v-127.386c-3.652-0.205-6.519-0.785-9.591-0.785-36.864 0-73.933 0.205-110.797-0.205-8.397 0-11.469 2.219-11.264 10.65 0.41 36.045 0.41 72.090 0 108.134 0 7.817 2.253 10.445 10.445 10.24 37.308-0.41 74.581-0.205 112.026-0.205 2.662-0.068 5.325-0.239 9.182-0.444zM232.243 142.677v127.386c3.686 0.205 6.963 0.614 10.24 0.614 36.659 0.205 73.318-0.205 109.978 0.41 9.011 0 11.878-2.628 11.674-11.469-0.41-35.396-0.41-70.861 0-106.291 0-8.363-1.843-11.639-11.264-11.435-37.069 0.614-74.138 0.205-111.206 0.205-2.833-0.034-5.939 0.375-9.421 0.58zM573.030 142.677h-131.277c-0.205 3.686-0.614 6.758-0.614 10.035 0 35.84 0.205 71.509-0.205 107.145 0 7.953 1.638 11.23 10.65 11.23 37.274-0.614 74.752-0.205 112.026-0.205 4.949 0 9.626 0.205 9.421-6.963 0-39.902 0-80.077 0-121.242zM650.65 143.053v118.818c-0.205 5.12 0.205 9.011 7.373 9.011 40.175-0.205 80.111-0.205 120.218-0.41 0.99 0 1.843-0.41 3.652-0.819v-126.566h-131.243z" />
<glyph unicode="&#xe61e;" d="M839.305-63.727l-327.168 327.168-327.202-327.441-184.695 184.969 327.168 327.168-327.168 327.168 184.695 184.695 327.202-327.134 327.168 327.134 184.695-184.695-327.168-327.168 327.168-327.168z" />
<glyph unicode="&#xe61f;" d="M773.734 460.288c-37.205-26.317-88.405-17.067-114.415 20.139-25.941 37.376-17.067 88.883 20.207 115.029 29.457 20.821 67.721 19.285 95.403-0.853-13.858-8.533-23.415-13.312-25.259-14.165-15.394-7.339-21.879-25.771-14.677-41.131 5.257-11.264 16.35-17.783 27.785-17.783 4.403 0 8.875 0.853 13.141 2.901 9.865 4.642 20.48 10.445 31.607 16.896 5.086-30.345-6.997-62.259-33.792-81.033zM996.796 939.145c-5.666 16.213-23.279 24.747-39.253 19.115-16.077-5.632-24.61-23.211-18.944-39.424 47.411-136.704-46.797-238.763-118.477-293.547l-29.013 41.813c-9.728 13.824-31.607 25.6-48.469 25.771l-162.679-0.683c-16.862 0.171-42.121-7.509-55.979-17.408l-479.369-337.237c-23.211-16.35-28.843-48.469-12.629-71.817l217.941-312.661c16.213-23.415 42.325-20.651 65.536-4.267l479.403 337.237c13.79 9.899 29.73 31.061 35.328 47.104l50.859 161.109c5.598 16.043 2.185 40.619-7.543 54.443l-17.749 25.463c96.427 74.035 196.506 204.937 141.039 364.988z" />
<glyph unicode="&#xe620;" d="M479.983 636.348c-6.895 7.066-13.585 13.926-20.651 20.787-4.335 4.54-5.188 8.567-3.823 14.268 6.861 28.023 7.543 56.559 3.823 85.094-15.428 119.467-120.457 204.22-241.459 194.15-11.776-0.99-23.381-3.686-36.796-6.042l8.738-9.387c36.762-37.615 110.592-112.947 110.592-112.947l2.526-152.405-159.266-8.363c0 0-73.011 75.196-109.773 112.606-2.697 2.662-5.393 5.188-9.557 9.216-2.867-14.234-7.373-26.351-7.373-38.434v-42.257c0-10.581 3.857-21.163 6.212-31.573 26.692-124.348 154.214-200.704 277.402-165.615 6.383 1.673 9.899 0.478 14.097-3.891l16.418-16.759c25.532 69.154 80.077 124.348 148.89 151.552zM938.94 16.282c-0.683-2.526-4.028-5.188-6.69-6.076-13.449-3.994-26.692-7.851-40.277-10.718-3.686-0.853-9.25 0.853-11.947 3.345-11.401 10.718-22.153 22.016-32.529 33.451-2.389 2.662-3.686 7.68-3.038 11.196 2.867 13.79 6.383 27.546 10.547 40.926 1.024 3.345 5.052 7.066 8.431 8.192 12.902 4.267 26.010 7.919 39.253 10.786 3.379 0.785 8.704-0.546 11.196-3.072 11.81-11.059 23.040-22.801 34.099-34.543 1.843-2.082 3.038-4.745 3.686-5.939-4.506-17.101-8.226-32.495-12.732-47.548zM973.175 131.55c-52.019 53.521-104.209 106.735-156.399 160.119-29.525-67.209-86.903-119.33-157.764-142.541 57.412-58.743 114.483-117.931 172.681-175.991 35.123-35.055 90.317-37.786 130.628-8.738 54.989 39.595 60.177 116.463 10.854 167.151zM667.887 319.659c-2.321-7.543-6.212-14.404-11.571-20.787s-13.585-11.947-22.323-16.589c-8.738-4.54-19.797-7.919-33.212-9.933v-46.012h-47.002v44.783c-20.002 1.536-33.86 4.403-45.636 8.738-11.742 4.198-20.309 7.748-26.010 10.411l16.794 44.339c9.079-4.335 19.831-8.397 32.393-11.947 12.561-3.652 25.839-5.325 39.765-5.325 15.804 0 26.522 2.014 32.393 6.349 5.7 4.198 8.738 10.069 8.738 17.852 0 4.813-1.161 9.011-3.55 12.39-2.321 3.482-5.7 6.656-10.069 9.318-4.369 2.867-9.899 5.734-16.759 8.397-6.724 2.662-14.438 5.53-23.177 8.602-8.602 3.004-16.964 6.519-24.986 10.274-8.192 3.584-15.462 8.192-22.153 13.517-6.519 5.393-11.913 11.947-15.77 19.797-4.028 7.748-6.042 17.306-6.042 28.228 0 8.533 1.195 16.623 3.686 24.474 2.355 7.748 6.212 14.78 11.401 21.333 5.222 6.349 11.571 11.708 19.831 16.247 8.397 4.506 15.94 7.714 29.184 9.728v41.609h47.002v-40.073c13.414-1.195 26.317-3.209 35.908-5.7 9.728-2.526 17.92-5.052 23.654-7.748l-11.776-45.943c-8.363 3.516-18.091 6.519-29.355 9.216-11.196 2.526-23.006 3.686-35.43 3.686-12.356 0-21.265-2.014-26.829-6.007-5.359-4.198-7.987-9.557-7.987-16.145 0-4.198 0.751-7.714 2.458-10.547 1.707-3.038 4.369-5.564 7.885-7.885 3.686-2.355 8.226-4.506 13.449-6.724 5.359-2.116 11.742-4.54 19.285-7.202 11.196-4.062 21.811-8.533 31.539-13.483 9.728-4.813 18.125-10.411 25.156-16.794 7.066-6.212 12.595-13.517 16.623-21.948 4.028-8.533 6.042-18.261 6.042-29.525 0-7.68-1.161-15.428-3.55-22.972zM801.655 395.537c0 122.982-100.693 222.652-224.905 222.652-124.006 0-224.666-99.669-224.666-222.652 0-123.187 100.659-222.857 224.666-222.857 124.211 0 224.905 99.669 224.905 222.857z" />
<glyph unicode="&#xe621;" d="M680.926 875.042l-45.773 50.313c-17.749 24.849-36.864 29.525-74.274 29.525h-97.826c-37.376 0-56.525-4.71-74.24-29.525l-45.739-50.313c-137.114-23.689-236.578-86.528-236.578-132.915v-9.011c0-81.613 181.589-147.9 405.504-147.9s405.504 66.287 405.504 147.9v9.011c0 46.387-99.328 109.227-236.578 132.915zM159.232 558.251l58.778-512.58c3.174-24.474 122.061-104.448 293.99-104.516 171.964 0.102 290.85 80.077 293.99 104.516l58.812 512.58c-89.873-49.698-224.154-73.25-352.802-73.25-128.614 0-262.963 23.552-352.768 73.25z" />
<glyph unicode="&#xe622;" d="M294.059 39.834l-106.701-22.869c-10.24 19.183-22.562 38.4-45.295 61.099-22.733 22.733-41.95 35.055-61.133 45.466l22.903 106.53 30.857 30.72c0 0 57.924-1.092 123.358-66.526 65.604-65.638 66.731-123.529 66.731-123.529l-30.72-30.891zM942.694 878.763c-94.686 94.72-165.717 80.486-165.717 80.486l-710.793-710.622-66.219-312.627 312.661 66.219 710.588 710.588c0 0 14.234 71.202-80.521 165.956z" />
<glyph unicode="&#xe623;" d="M222.31 79.019l72.533 339.115h434.347l72.533-339.115h-579.413zM962.048 543.437h-900.062c-28.365 0-56.866-34.065-56.866-62.737v-182.647c0-28.706 28.501-62.566 56.866-62.566h102.502l-45.636-260.915h786.33l-45.636 260.915h102.502c28.331 0 56.832 33.86 56.832 62.566v182.647c0 28.706-28.501 62.737-56.832 62.737zM72.294 600.781h879.445c29.457 0 24.542 31.676 10.001 36.898-14.78 5.222-178.21 67.482-206.609 67.482h-46.558v156.501h-393.148v-156.501h-46.592c-28.365 0-191.829-62.259-206.541-67.482-14.575-5.222-19.49-36.898 10.001-36.898z" />
<glyph unicode="&#xe624;" d="M509.269 558.592l-248.32-246.955h153.6v-307.371h189.611v307.371h153.6l-248.491 246.955zM921.6 925.867h-819.2c-56.32 0-102.4-46.080-102.4-102.4v-614.4c0-56.32 46.080-101.376 102.4-101.376h203.776v100.352h-204.8v472.064h821.248v-472.064h-204.8v-100.318h203.776c56.32 0 102.4 45.022 102.4 101.376v614.366c0 56.32-46.080 102.4-102.4 102.4z" />
<glyph unicode="&#xe625;" d="M229.854 664.439c-2.185 0.683-3.345 1.365-4.71 1.365-29.867 0-59.733 0.341-89.6-0.341-3.004 0-7.373-5.018-8.397-8.567-11.264-36.079-21.811-72.499-32.563-108.749-4.028-13.756-9.728-27.341-11.401-41.438-3.379-27.819 19.456-54.716 47.138-58.061 31.369-3.823 58.743 15.428 64.273 44.646 6.69 35.601 14.097 70.827 21.299 106.257 4.403 21.606 9.284 43.11 13.961 64.887zM396.698 665.805c-33.246 0-64.444 0.171-95.471-0.341-2.355 0-5.871-4.881-6.383-7.885-5.53-30.549-11.093-61.099-15.77-91.785-3.516-22.153-7.885-44.305-8.397-66.628-0.819-28.023 25.327-51.029 54.886-51.371 29.013-0.341 54.545 23.006 56.559 50.688 2.697 35.055 6.042 69.973 9.25 105.062l5.325 62.259zM795.887 665.805c0.546-4.54 0.853-7.373 1.365-10.411 6.383-28.365 12.937-56.73 18.978-85.094 4.71-21.811 11.059-43.657 12.766-65.775 2.014-31.369 24.644-56.559 56.047-56.73 40.585 0 63.59 36.591 56.354 64.102-12.732 49.527-28.501 98.167-43.452 147.183-0.819 2.697-4.676 6.383-7.031 6.554-31.198 0.341-62.293 0.171-95.027 0.171zM569.378 579.209h-2.867c-0.99 25.839-2.15 51.541-2.833 77.38-0.171 5.7-0.717 9.557-8.055 9.387-28.535-0.171-57.037-0.171-85.572 0-5.359 0-7.885-1.502-8.055-7.373-1.843-50.517-4.369-101.035-5.7-151.723-0.819-33.519 24.337-59.051 56.559-59.051s56.73 25.532 56.559 59.051v72.329zM628.941 665.975l3.55-41.131c3.686-41.95 7.373-83.9 11.059-126.020 1.161-14.268 7.236-26.351 17.647-35.942 17.92-16.589 44.134-19.797 65.434-8.192 22.494 12.22 32.905 35.226 28.194 63.113-7.885 46.49-16.111 92.945-23.654 139.435-1.161 7.066-3.857 8.909-10.411 8.738-18.125-0.171-36.25 0-54.374 0h-37.444zM512.478 70.895v277.197h-317.508v-277.197h317.508zM631.808-48.094h-522.445c-7.202 4.028-15.258 7.202-21.47 12.425-10.923 9.353-11.571 22.63-11.571 36.079v481.109l-5.188-4.369c-12.254-10.889-31.369-12.083-45.636-3.004-10.923 6.861-19.627 27.989-14.097 42.598 16.282 42.462 30.379 85.777 45.636 128.717 11.23 31.915 23.996 63.488 19.627 98.372-0.341 2.355 0.137 4.71 0.478 7.066 2.185 15.258 14.78 28.877 29.867 31.539 6.383 0.99 12.766 0.819 19.149 0.819l772.642 0.171c3.345 0 6.69 0 10.069-0.171 23.996-0.819 38.605-14.95 40.107-38.775 0.341-5.7-0.171-11.571 0.171-17.101 0.99-12.254 0.341-25.327 4.028-36.591 19.456-58.231 40.107-115.78 60.45-173.67 10.581-30.413-7.782-53.248-39.424-47.821-8.397 1.331-16.145 6.042-25.020 9.557v-405.948c0-25.839 0.171-51.712-0.171-77.517-0.171-22.972-8.567-34.065-30.379-41.813-0.853-0.341-1.502-1.161-2.355-1.673h-84.787v395.878h-200.021v-333.653c0-20.582 0.171-41.438 0.341-62.225zM512.649 941.875c130.901 0 261.632 0 392.363 0.171 15.428 0 28.365-4.198 37.444-17.442 9.728-14.268 9.728-68.301 0-82.739-6.042-9.045-14.438-14.916-25.327-16.589-5.393-0.683-10.752-1.195-16.145-1.195h-776.329c-5.7 0-11.571 0.341-17.101 1.365-16.486 2.97-29.389 16.384-30.413 33.007-0.819 16.111-0.99 32.222 0 48.333 1.195 19.968 16.964 34.406 37.274 34.918 15.428 0.512 30.857 0.171 46.319 0.171h351.915z" />
<glyph unicode="&#xe626;" d="M494.933 942.933c-222.379 0-402.773-67.447-402.773-150.562v-72.158c0-88.269 180.395-159.778 402.773-159.778 222.549 0 402.773 71.509 402.773 159.778v72.158c0 83.115-180.224 150.562-402.773 150.562zM882.586 569.685c-47.65-69.12-203.23-119.671-387.652-119.671s-340.002 50.551-387.652 119.671c-9.899 14.097-15.087 6.383-15.087 0v-134.758c0-100.864 180.395-182.613 402.773-182.613 222.549 0 402.773 81.783 402.773 182.613v134.758c-0.034 6.383-5.257 14.097-15.155 0zM881.937 277.026c-48.503-78.063-203.401-135.134-387.004-135.134-183.569 0-338.5 57.071-387.004 135.134-10.24 16.418-15.77 7.714-15.77-0.546v-114.586c0-110.933 180.395-225.894 402.773-225.894 222.549 0 402.773 114.961 402.773 225.894v114.586c0 8.26-5.53 16.998-15.77 0.546z" />
<glyph unicode="&#xe627;" d="M1024 25.6c0 0-110.592 534.323-595.934 534.323v212.343l-399.633-354.372 399.633-367.445v239.275c263.373 0 458.581-23.177 595.934-264.124z" />
</font>
</defs>
</svg>
