<?xml version="1.0" encoding="utf-8"?>
<!-- Generator: Adobe Illustrator 19.0.1, SVG Export Plug-In . SVG Version: 6.00 Build 0)  -->
<svg version="1.1" id="Layer_1" xmlns="http://www.w3.org/2000/svg" xmlns:xlink="http://www.w3.org/1999/xlink" x="0px" y="0px"
	 viewBox="-282 405.9 30 30" style="enable-background:new -282 405.9 30 30;" xml:space="preserve">
<path d="M-268.4,421.6h2.7v3h13.6c0,0-0.2-6.7-0.3-8.8c-0.1-2-0.8-3.2-3-3.2h-4.8c-0.7-1.4-1.5-2.9-1.8-3.4
	c-0.5-0.9-0.7-1.1-1.8-1.1h-6.6c-1.1,0-1.3,0.2-1.8,1.1c-0.2,0.5-1,2-1.8,3.4h-4.8c-2.2,0-2.9,1.2-3,3.2c-0.1,2-0.3,8.8-0.3,8.8
	h13.6V421.6z M-270.5,411c0.3-0.6,0.5-0.8,1.2-0.8h4.6c0.8,0,0.9,0.1,1.2,0.8c0.1,0.2,0.5,0.9,0.9,1.6h-8.8
	C-271,411.9-270.7,411.3-270.5,411z M-265.6,429.1h-2.7v-3h-12.9c0,0,0.2,2.7,0.3,5c0,0.9,0.3,2.5,2.7,2.5h22.5
	c2.4,0,2.6-1.6,2.7-2.5c0.1-2.4,0.3-5,0.3-5h-12.9V429.1z"/>
</svg>
