<?xml version="1.0" encoding="utf-8"?>
<!-- Generator: Adobe Illustrator 16.0.0, SVG Export Plug-In . SVG Version: 6.00 Build 0)  -->
<!DOCTYPE svg PUBLIC "-//W3C//DTD SVG 1.1//EN" "http://www.w3.org/Graphics/SVG/1.1/DTD/svg11.dtd">
<svg version="1.1" id="Layer_1" xmlns="http://www.w3.org/2000/svg" xmlns:xlink="http://www.w3.org/1999/xlink" x="0px" y="0px"
	 width="30px" height="30px" viewBox="0 0 30 30" enable-background="new 0 0 30 30" xml:space="preserve">
<g>
	<path d="M21.424,8.566c0.97,0.02,1.945-0.02,2.91,0.06c2.324,0.185,3.89,1.445,4.804,3.565c0.605,1.41,0.83,2.899,0.846,4.414
		c0.029,3.33,0.01,6.659,0.01,9.995c0,0.05-0.01,0.104-0.015,0.18H13.935V26.43c0-3.31,0.02-6.614-0.015-9.924
		c-0.02-1.944-0.28-3.854-1.12-5.64c-0.435-0.935-0.79-1.35-1.97-2.3h7.389l-0.01-0.01v5.869c0,0.12,0.005,0.245,0.03,0.365
		c0.189,0.83,0.915,1.359,1.75,1.285c0.81-0.075,1.439-0.766,1.439-1.62c0.01-1.965,0.005-3.935,0.005-5.899L21.424,8.566z"/>
	<path d="M0,29.995V24.13c0.005-2.45-0.01-4.894,0.01-7.344c0.01-1.405,0.19-2.785,0.665-4.12c1.08-3.035,3.389-4.304,6.354-4.064
		c2.78,0.225,4.569,1.835,5.349,4.704c0.38,1.396,0.475,2.815,0.47,4.25c-0.005,4.05,0,8.095,0,12.145v0.295H0z"/>
	<polygon points="18.219,8.566 18.219,0.002 25.684,0.002 25.684,5.322 21.424,5.322 21.424,8.566 21.434,8.557 18.209,8.557 	"/>
	<rect x="13.959" y="27.899" width="16.014" height="2.101"/>
</g>
</svg>
