<?xml version="1.0" encoding="utf-8"?>
<!-- Generator: Adobe Illustrator 16.0.0, SVG Export Plug-In . SVG Version: 6.00 Build 0)  -->
<!DOCTYPE svg PUBLIC "-//W3C//DTD SVG 1.1//EN" "http://www.w3.org/Graphics/SVG/1.1/DTD/svg11.dtd">
<svg version="1.1" id="Layer_1" xmlns="http://www.w3.org/2000/svg" xmlns:xlink="http://www.w3.org/1999/xlink" x="0px" y="0px"
	 width="30px" height="30px" viewBox="0 0 30 30" enable-background="new 0 0 30 30" xml:space="preserve">
<g>
	<path fill-rule="evenodd" clip-rule="evenodd" d="M15.006,26.11h7.812c0.149,0,0.3,0,0.444-0.029
		c0.96-0.18,1.542-0.912,1.542-1.943v-9.774c0-0.233,0.006-0.474-0.006-0.708c-0.066-1.014-0.876-1.788-1.885-1.788H7.14
		c-0.15,0-0.3,0.007-0.444,0.043c-0.875,0.203-1.47,0.978-1.47,1.932v10.277c0,1.218,0.774,1.991,1.998,1.991H15.006z M1.801,27.112
		v-20.8C1.818,6.216,1.849,6.12,1.854,6.024c0.048-0.588,0.264-1.104,0.63-1.566c0.768-0.972,2.424-1.44,3.744-1.044
		c0,0.798-0.012,1.596,0,2.394C6.252,6.99,7.116,8.046,8.28,8.274C8.688,8.352,9.126,8.34,9.546,8.34
		c1.224-0.018,2.31-0.864,2.496-2.076c0.12-0.792,0.06-1.608,0.078-2.417c0.006-0.156,0-0.312,0-0.468h5.316V3.72
		c0,0.654-0.007,1.308,0.006,1.956c0.023,1.332,0.888,2.394,2.165,2.622c0.385,0.072,0.786,0.048,1.183,0.042
		c1.254-0.018,2.363-0.954,2.508-2.202c0.09-0.798,0.048-1.614,0.06-2.424V3.36h1.854c1.687,0,2.988,1.29,2.988,2.981
		c0,6.888,0,13.781-0.006,20.675c0,0.24-0.03,0.492-0.084,0.727c-0.33,1.361-1.488,2.25-2.928,2.25L9.528,29.999
		c-1.59,0-3.18,0.006-4.77-0.006c-1.38-0.006-2.526-0.931-2.838-2.274C1.873,27.515,1.837,27.311,1.801,27.112z"/>
	<path d="M9.012,0c0.072,0.024,0.15,0.054,0.222,0.072c0.762,0.186,1.308,0.834,1.32,1.626c0.018,1.296,0.024,2.586,0,3.876
		C10.536,6.528,9.756,7.26,8.82,7.26C7.849,7.254,7.092,6.498,7.092,5.52C7.086,4.284,7.086,3.048,7.086,1.818
		c0.006-0.93,0.48-1.523,1.404-1.764C8.526,0.048,8.556,0.018,8.592,0H9.012z"/>
	<path d="M20.64,0c0.066,0.024,0.126,0.054,0.192,0.072c0.773,0.192,1.308,0.84,1.313,1.62c0.006,1.284,0.006,2.562,0,3.84
		c-0.006,0.966-0.75,1.709-1.709,1.728c-0.942,0.018-1.74-0.726-1.759-1.692c-0.019-1.29-0.019-2.58,0-3.87
		c0.019-0.834,0.559-1.44,1.404-1.638C20.13,0.048,20.172,0.018,20.22,0H20.64z"/>
	<path d="M16.771,14.417c0.006,0.097,0.018,0.181,0.018,0.265c0,1.056-0.006,2.112,0.006,3.168c0.006,0.24-0.066,0.317-0.318,0.317
		c-1.085-0.012-2.166-0.006-3.251-0.006c-0.15,0-0.306,0.03-0.3-0.21c0.006-1.14,0-2.286,0.006-3.432
		c0-0.023,0.012-0.055,0.024-0.103H16.771z"/>
	<path d="M22.913,14.405v3.732c-0.107,0.006-0.191,0.023-0.281,0.023c-1.08,0-2.166-0.006-3.246,0.006
		c-0.246,0-0.336-0.065-0.33-0.312c0.012-1.056,0.012-2.112,0-3.168c0-0.229,0.066-0.306,0.306-0.3
		c1.093,0.012,2.185,0.006,3.282,0.006C22.722,14.394,22.8,14.399,22.913,14.405z"/>
	<path d="M6.804,23.945v-3.732c0.108-0.006,0.204-0.018,0.3-0.018c1.074-0.006,2.148,0.006,3.222-0.012
		c0.264,0,0.348,0.077,0.342,0.336c-0.012,1.037-0.012,2.076,0,3.114c0,0.245-0.054,0.341-0.33,0.335
		c-1.086-0.018-2.172-0.006-3.258-0.006C6.997,23.963,6.906,23.951,6.804,23.945z"/>
	<path d="M16.788,23.945h-3.846c-0.006-0.108-0.018-0.198-0.018-0.294c0-1.05,0.006-2.095-0.006-3.139
		c0-0.233,0.048-0.329,0.312-0.329c1.092,0.018,2.19,0.006,3.282,0.006c0.145,0,0.282-0.006,0.276,0.204
		C16.788,21.562,16.788,22.739,16.788,23.945z"/>
	<path d="M19.062,23.934v-1.393v-2.088c-0.006-0.15,0.006-0.264,0.216-0.264c1.177,0.006,2.347,0.006,3.522,0.012
		c0.029,0,0.054,0.012,0.107,0.024v3.708H19.062z"/>
</g>
</svg>
