<?xml version="1.0" encoding="utf-8"?>
<!-- Generator: Adobe Illustrator 19.0.1, SVG Export Plug-In . SVG Version: 6.00 Build 0)  -->
<svg version="1.1" id="Layer_1" xmlns="http://www.w3.org/2000/svg" xmlns:xlink="http://www.w3.org/1999/xlink" x="0px" y="0px"
	 viewBox="-282 405.9 30 30" style="enable-background:new -282 405.9 30 30;" xml:space="preserve">
<g>
	<path d="M-259.1,418.4c-3.8-8.2-5.8-11.3-12-11.2c-2.2,0-1.7-1.6-3.4-1c-1.7,0.6-0.2,1.5-2,3c-4.8,4-4.4,7.6-2.1,16.4
		c0.9,3.7-2.3,3.9-1,7.4c0.9,2.6,7.8,3.7,15,1c7.2-2.7,11.8-8,10.9-10.6C-255,419.9-257.5,421.9-259.1,418.4z M-265.3,431.9
		c-6.5,2.4-11.8,1-12,0.4c-0.4-1.1,2.1-4.7,9.5-7.4c7.4-2.7,11.5-1.7,12-0.5C-255.7,425-258.9,429.5-265.3,431.9z M-267.4,426.1
		c-3.4,1.3-5.7,2.7-7.3,4c1.1,1,3.1,1.2,5.1,0.5c2.5-0.9,4.1-3.1,3.5-4.8c0,0,0,0,0-0.1C-266.6,425.7-267,425.9-267.4,426.1z"/>
</g>
</svg>
