<?xml version="1.0" encoding="utf-8"?>
<!-- Generator: Adobe Illustrator 16.0.0, SVG Export Plug-In . SVG Version: 6.00 Build 0)  -->
<!DOCTYPE svg PUBLIC "-//W3C//DTD SVG 1.1//EN" "http://www.w3.org/Graphics/SVG/1.1/DTD/svg11.dtd">
<svg version="1.1" id="Layer_1" xmlns="http://www.w3.org/2000/svg" xmlns:xlink="http://www.w3.org/1999/xlink" x="0px" y="0px"
	 width="30px" height="30px" viewBox="0 0 30 30" enable-background="new 0 0 30 30" xml:space="preserve">
<path fill="#010101" d="M5.233,26.396c0,1.798,1.458,3.256,3.256,3.256c1.798,0,3.255-1.458,3.255-3.256s-1.457-3.255-3.255-3.255
	C6.69,23.141,5.233,24.598,5.233,26.396z M21.513,26.396c0,1.798,1.457,3.256,3.256,3.256c1.8,0,3.256-1.458,3.256-3.256
	s-1.456-3.255-3.256-3.255C22.97,23.141,21.513,24.598,21.513,26.396z M11.008,18.7l18.019-5.149
	c0.345-0.098,0.625-0.472,0.625-0.83V3.767H6.699V1c0-0.358-0.293-0.651-0.651-0.651H1C0.643,0.349,0.35,0.642,0.35,1v2.604h3.164
	l3.203,14.745l0.307,1.535v2.442c0,0.357,0.293,0.65,0.651,0.65h0.814h16.279h4.232c0.358,0,0.65-0.293,0.65-0.65v-2.442h-18.31
	C9.471,19.884,9.432,19.15,11.008,18.7z"/>
</svg>
