<?xml version="1.0" encoding="utf-8"?>
<!-- Generator: Adobe Illustrator 16.0.0, SVG Export Plug-In . SVG Version: 6.00 Build 0)  -->
<!DOCTYPE svg PUBLIC "-//W3C//DTD SVG 1.1//EN" "http://www.w3.org/Graphics/SVG/1.1/DTD/svg11.dtd">
<svg version="1.1" id="Layer_1" xmlns="http://www.w3.org/2000/svg" xmlns:xlink="http://www.w3.org/1999/xlink" x="0px" y="0px"
	 width="30px" height="30px" viewBox="-14.5 15.5 30 30" enable-background="new -14.5 15.5 30 30" xml:space="preserve">
<g>
	<rect x="-3.195" y="32.235" width="0.893" height="0.94"/>
	<rect x="-5.873" y="33.176" width="1.785" height="0.942"/>
	<path fill-rule="evenodd" clip-rule="evenodd" d="M12.275,23.716h-23.8v-1.574h23.8V23.716z M12.275,37.858h-23.8v-9.434h23.8
		V37.858z M12.275,19h-23.8c-1.632,0-2.975,1.416-2.975,3.142v15.717c0,1.726,1.343,3.142,2.975,3.142h23.8
		c1.632,0,2.975-1.416,2.975-3.142V22.142C15.25,20.416,13.907,19,12.275,19z"/>
	<polygon points="-6.765,33.176 -5.873,33.176 -5.873,32.235 -4.98,32.235 -4.98,31.285 -6.765,31.285 -6.765,32.235 -7.658,32.235 
		-7.658,33.176 -8.55,33.176 -8.55,34.118 -6.765,34.118 	"/>
	<polygon points="-3.195,32.235 -2.302,32.235 -2.302,31.285 -4.087,31.285 -4.087,33.176 -3.195,33.176 	"/>
	<polygon points="-3.195,33.176 -3.195,34.118 -1.41,34.118 -1.41,33.176 -0.518,33.176 -0.518,32.235 0.375,32.235 0.375,31.285 
		-1.41,31.285 -1.41,32.235 -2.302,32.235 -2.302,33.176 	"/>
	<rect x="-8.55" y="31.285" width="0.892" height="0.95"/>
	<rect x="-0.518" y="33.176" width="0.893" height="0.942"/>
</g>
</svg>
