<?xml version="1.0" encoding="utf-8"?>
<!-- Generator: Adobe Illustrator 19.0.1, SVG Export Plug-In . SVG Version: 6.00 Build 0)  -->
<svg version="1.1" id="Layer_1" xmlns="http://www.w3.org/2000/svg" xmlns:xlink="http://www.w3.org/1999/xlink" x="0px" y="0px"
	 viewBox="-282 405.9 30 30" style="enable-background:new -282 405.9 30 30;" xml:space="preserve">
<g>
	<g>
		<path d="M-261.9,428.8c0-0.4,0.3-0.8,0.8-0.8h6.2c3-6.1,3.4-10.8,1.5-14.1c-2.7-4.6-10.7-4.4-10.7-4.4c-7.2,0-11.7,5-11.7,5
			c-2.3,2.5-4.7,7.1-5.7,10.2c0,0-0.2,0.5-0.2,0.7c0,0.1-0.1,0.3-0.1,0.4v3.8c0,0.4,0.2,0.8,0.4,1.1c0.3,0.3,0.7,0.4,1.1,0.4h0
			l22.8,0c0.5,0,1.1-0.3,1.3-0.8c0.2-0.3,0.3-0.6,0.5-0.8h-5.4C-261.5,429.6-261.9,429.3-261.9,428.8z M-266.9,420.1
			c-1,0.6-3.2,1.2-5.2,1.7c-0.9,0.2-1.8,0.5-2.5,0.7c-1.2,0.4-2.6,0.7-4,1c1.4-3.3,3.4-6.4,5.2-8c0,0,7.6,0,8.3,0s1.1,0.3,1.1,0.8
			C-264,417.7-265,418.9-266.9,420.1z"/>
		<path d="M-265.8,416.1c-0.4,0-0.8,0.3-0.8,0.8c0,0.4,0.3,0.8,0.8,0.8c0.4,0,0.8-0.3,0.8-0.8C-265,416.4-265.4,416.1-265.8,416.1z"
			/>
	</g>
</g>
</svg>
