<?xml version="1.0" encoding="utf-8"?>
<!-- Generator: Adobe Illustrator 16.0.0, SVG Export Plug-In . SVG Version: 6.00 Build 0)  -->
<!DOCTYPE svg PUBLIC "-//W3C//DTD SVG 1.1//EN" "http://www.w3.org/Graphics/SVG/1.1/DTD/svg11.dtd">
<svg version="1.1" id="Layer_1" xmlns="http://www.w3.org/2000/svg" xmlns:xlink="http://www.w3.org/1999/xlink" x="0px" y="0px"
	 width="30px" height="30px" viewBox="0 0 30 30" enable-background="new 0 0 30 30" xml:space="preserve">
<g>
	<path d="M27,3H3C1.351,3,0,4.35,0,6v18c0,1.65,1.35,3,3,3h24c1.65,0,3-1.35,3-3V6C30,4.35,28.65,3,27,3z M27,24H3V6h24V24z
		 M13.5,18.15H6v2.699h7.5V18.15z M13.5,13.65H6v2.699h7.5V13.65z M13.5,9.15H6v2.699h7.5V9.15z M23.851,18.75
		c0,0-2.55-0.667-2.55-1.977c0-1.248,1.649-1.773,1.649-4.323c0-2.071-0.629-3.3-2.7-3.3s-2.699,1.229-2.699,3.3
		c0,2.55,1.649,3.075,1.649,4.323c0,1.31-2.55,1.977-2.55,1.977c-0.15,0-0.15,2.1-0.15,2.1H24C24,20.85,24,18.75,23.851,18.75z"/>
</g>
</svg>
