<?xml version="1.0" encoding="utf-8"?>
<!-- Generator: Adobe Illustrator 19.0.1, SVG Export Plug-In . SVG Version: 6.00 Build 0)  -->
<svg version="1.1" id="Layer_1" xmlns="http://www.w3.org/2000/svg" xmlns:xlink="http://www.w3.org/1999/xlink" x="0px" y="0px"
	 viewBox="-282 405.9 30 30" style="enable-background:new -282 405.9 30 30;" xml:space="preserve">
<path d="M-274.7,428.4l3.3,0.5c0-0.4,0-0.7,0-1.1c0-0.1-0.2-0.1-0.2-0.1c-0.9-0.1-1.8-0.3-2.7-0.4c-0.2,0-0.3-0.1-0.3-0.3
	c0.1-1.5,0.1-3,0.2-4.5c0-0.5,0-0.5-0.5-0.6c-0.1,0.7-0.3,1.4-0.4,2.1c-0.5,2.7-0.6,5.5-0.6,8.3c0,1.2-0.1,2.3-0.1,3.5
	c0,0.1,0,0.2,0,0.3h-4.9c0-0.1,0-0.2,0-0.3c0.1-3.1,0.1-6.2,0.3-9.2c0.1-2.7,0.4-5.3,0.7-7.9c0.3-2.3,0.7-4.5,1.1-6.8
	c0-0.1,0.1-0.3,0.3-0.4c2-1.1,4.1-1.9,6.3-2.5c0.3-0.1,0.4-0.2,0.4-0.5c0-0.5,0-0.9,0-1.4c0-0.2,0.1-0.2,0.2-0.3
	c2.2-0.6,4.4-0.8,6.7-0.5c1,0.1,2,0.3,3,0.5v2c0.4,0.1,0.9,0.2,1.3,0.4c2,0.6,3.9,1.3,5.6,2.3c0.1,0.1,0.3,0.2,0.3,0.4
	c0.3,2,0.7,4,1,6c0.3,2.2,0.5,4.4,0.7,6.7c0.3,3.8,0.4,7.6,0.4,11.3v0.3h-4.9c0-0.1,0-0.2,0-0.3c-0.1-2.4-0.1-4.7-0.2-7.1
	c-0.1-2.2-0.3-4.4-0.9-6.5c0-0.1,0-0.2-0.1-0.2c-0.5,0.1-0.5,0.1-0.5,0.6c0,1.5,0.1,3,0.1,4.4c0,0.1,0,0.3,0,0.4l-3.2,0.5v1.2
	l3.3-0.5c0,0.5,0,1.1,0,1.6c0,0.6,0,1.1,0.1,1.7c0,0.2-0.1,0.4-0.2,0.4c-0.6,0.4-1.3,0.8-2,1c-1.6,0.6-3.2,0.8-4.9,0.9
	c0,0-0.1,0-0.1,0c0-0.1,0-0.2,0-0.3c0-8.5,0-17.1,0-25.6c0-0.3,0.1-0.4,0.4-0.4c0.7-0.1,1.3-0.3,1.9-0.7c-1.1-0.5-4.6-0.5-6.4,0.3
	c1,0.3,1.9,0.3,2.9,0.3V434c-0.3,0-0.7,0-1-0.1c-1.6-0.2-3.1-0.4-4.5-1.1c-0.5-0.2-0.9-0.5-1.3-0.8c-0.1,0-0.1-0.1-0.1-0.2
	C-274.7,430.7-274.7,429.6-274.7,428.4z"/>
</svg>
