<?xml version="1.0" encoding="utf-8"?>
<!-- Generator: Adobe Illustrator 16.0.0, SVG Export Plug-In . SVG Version: 6.00 Build 0)  -->
<!DOCTYPE svg PUBLIC "-//W3C//DTD SVG 1.1//EN" "http://www.w3.org/Graphics/SVG/1.1/DTD/svg11.dtd">
<svg version="1.1" id="Layer_1" xmlns="http://www.w3.org/2000/svg" xmlns:xlink="http://www.w3.org/1999/xlink" x="0px" y="0px"
	 width="30px" height="30px" viewBox="1 1 30 30" enable-background="new 1 1 30 30" xml:space="preserve">
<g>
	<path d="M14.961,22.443h3.261c0.66,0,1.194-0.536,1.194-1.194c0-0.66-0.535-1.193-1.194-1.193h-3.261
		c-0.659,0-1.193,0.535-1.193,1.193C13.767,21.907,14.302,22.443,14.961,22.443z M18.215,20.399c0.474,0,0.857,0.383,0.857,0.856
		c0,0.473-0.385,0.857-0.857,0.857s-0.856-0.384-0.856-0.857C17.359,20.782,17.742,20.399,18.215,20.399z"/>
	<path d="M13.702,20.475c0,0.341-0.276,0.618-0.618,0.618s-0.618-0.276-0.618-0.618c0-0.341,0.276-0.618,0.618-0.618
		S13.702,20.133,13.702,20.475z"/>
	<path d="M13.57,21.997c0,0.218-0.177,0.395-0.396,0.395s-0.395-0.177-0.395-0.395s0.177-0.396,0.395-0.396
		S13.57,21.779,13.57,21.997z"/>
	<path d="M14.338,12.593c-0.116,0.05-0.144,0.155-0.145,0.245c-0.282-0.051-0.577-0.083-0.888-0.083c-1.928,0-2.258,0.346-2.258,1.4
		c0,1.054,0.693,1.533,1.515,1.565c0.708,0.027,4.613-0.017,4.927-0.017c0.311,0,1.061-0.452,0.089-1.145
		c-0.608-0.433-1.375-1.031-2.334-1.416c0.042-0.084,0.074-0.187,0.039-0.26C15.214,12.74,14.562,12.497,14.338,12.593
		L14.338,12.593z"/>
	<path d="M29.81,17.829h0.234v-1.004h-1.059c-0.257-0.279-0.468-0.462-0.572-0.462c-0.412,0-2.801,0-3.905,0
		s-1.582,1.712-1.582,1.712s0.004-0.002,0.008-0.008c0.031,0.058,0.068,0.121,0.107,0.192c-0.543,0.368-0.997,0.873-1.304,1.488
		c-0.144,0.287-0.243,0.584-0.312,0.884l-1.054-0.003c0-0.202-0.174-0.603-0.412-1.008c0.006,0,0.011,0,0.017,0
		c0.872,0,1.68-0.625,2.158-1.168c0.468-0.533,0.728-1.098,0.854-1.365c0.127-0.266,0.97-1.005,1.325-1.088
		c0.418-0.098,2.91-0.016,2.91-0.016s-0.378-1.533-3.26-1.533c-1.467-0.032-1.713,1.434-1.713,1.434s-1.302,0-1.747,0
		c0-0.775-1.302-1.614-1.929-1.203c0.099,0.33,0.611,2.461,0.611,2.461h0.002c-0.348,0.158-1.306,1.246-0.371,2.205
		c0.346,0.423,0.809,1.12,0.809,1.65c0,0.724-0.294,1.624-1.384,1.624c-1.089,0-3.465,0-4.931,0c-1.024,0-0.946-0.938-1.044-2.208
		c-0.042-0.545,0.505-0.824,0.747-0.856c-0.561-0.681-1.077-1.682-1.307-2.252c-0.231-0.571,0.527-1.296,0.527-1.296
		s-0.879-0.129-1.219-0.678c-0.341-0.549-0.424-2.078-0.132-2.836c0.292-0.758,0.621-1.323,1.098-1.372
		c0.477-0.05,1.032,0.043,1.032,0.043l0.631,0.819l0.329-0.1l-0.57-0.631l1.631,0.741l0.23-0.444l-1.104-0.692l0.016-0.84
		c0,0-0.752,0-1.577,0c0.111-0.37,0.393-1.127,0.902-1.425v0.651h0.593V7.499h-0.593v0.804c-0.723,0.312-1.069,1.327-1.177,1.717
		c-0.736,0-1.47,0-1.739,0c-0.556,0-1.59,1.151-1.767,1.791c-0.217-0.296-0.573-0.49-0.978-0.488
		c-0.66,0.002-1.192,0.521-1.19,1.157l0.007,1.876c0.003,0.637,0.539,1.15,1.198,1.148c0.241,0,0.462-0.072,0.648-0.19
		c-0.338,0.569-0.936,1.462-1.556,2.381c-0.566-0.32-1.218-0.509-1.915-0.509c-2.143,0-3.887,1.744-3.887,3.888
		s1.745,3.888,3.887,3.888s3.889-1.744,3.889-3.888c0-0.398-0.061-0.785-0.174-1.146c0.232,0.376,0.412,0.808,0.438,1.082
		c0.049,0.541,0.807,0.346,0.708-0.197c-0.099-0.544-0.691-1.862-0.675-2.226c0.016-0.362-0.011-2.041-0.011-2.041l0.708-0.132
		c0,0,1.115,7.116,2.911,7.116s3.936,0,5.799,0c1.728,0,1.737-1.717,1.729-1.962l0.974-0.003c0.031,1.397,0.812,2.735,2.15,3.401
		c0.543,0.271,1.127,0.411,1.732,0.411c1.483,0,2.817-0.825,3.48-2.154c0.959-1.916,0.176-4.256-1.742-5.213
		c-0.544-0.271-1.13-0.41-1.734-0.41c-0.297,0-0.588,0.034-0.868,0.098c-0.047-0.104-0.087-0.198-0.128-0.284
		c0.231-0.057,0.484-0.093,0.763-0.093c1.285,0,3.179,0.561,3.723,2.19c0.595,0,2.108,0.331,2.141,0
		c0.017-0.163-0.482-0.939-1.041-1.68L29.81,17.829z M5.036,23.644c-1.417,0-2.569-1.153-2.569-2.569s1.152-2.568,2.569-2.568
		c0.423,0,0.819,0.104,1.171,0.285c-0.203,0.299-0.396,0.585-0.574,0.848c-0.002,0.003-0.005,0.005-0.007,0.012
		c-0.055,0.08-0.108,0.16-0.16,0.236c-0.006,0.011-0.014,0.022-0.021,0.033c-0.05,0.077-0.102,0.149-0.148,0.222
		c-0.003,0.006-0.008,0.011-0.011,0.015c-0.047,0.073-0.094,0.143-0.136,0.207c-0.011,0.02-0.024,0.038-0.037,0.057
		c-0.027,0.041-0.055,0.086-0.08,0.126c-0.014,0.021-0.027,0.043-0.041,0.064c-0.021,0.034-0.042,0.063-0.059,0.094
		c-0.013,0.02-0.025,0.039-0.037,0.058c-0.018,0.029-0.033,0.055-0.047,0.08c-0.01,0.013-0.018,0.029-0.026,0.043
		c-0.021,0.034-0.038,0.066-0.051,0.092c-0.018,0.04-0.034,0.078-0.046,0.114c-0.003,0.01-0.006,0.019-0.009,0.028
		c-0.009,0.032-0.015,0.062-0.018,0.091c0,0.004-0.002,0.008-0.002,0.013c-0.002,0.031-0.001,0.061,0.004,0.087
		c0.001,0.009,0.002,0.014,0.003,0.021c0.005,0.023,0.012,0.047,0.021,0.067c0.002,0.004,0.003,0.01,0.005,0.013
		c0.012,0.023,0.025,0.045,0.042,0.066c0.003,0.004,0.007,0.011,0.012,0.014c0.014,0.016,0.03,0.033,0.048,0.046
		c0.004,0.004,0.008,0.008,0.011,0.01c0.022,0.019,0.044,0.033,0.067,0.046c0.005,0.004,0.009,0.004,0.015,0.009
		c0.021,0.01,0.043,0.018,0.066,0.029c0.004,0,0.01,0.004,0.015,0.005c0.027,0.011,0.055,0.018,0.083,0.024
		c0.004,0.002,0.007,0.002,0.011,0.002c0.026,0.008,0.051,0.011,0.078,0.013c0.005,0,0.011,0.002,0.017,0.002
		c0.028,0.003,0.054,0.004,0.082,0.004c0.001,0,0.003,0,0.004,0c0.036,0,0.07-0.004,0.104-0.008
		c0.011-0.003,0.021-0.003,0.031-0.005c0.023-0.004,0.046-0.011,0.067-0.017c0.012-0.003,0.021-0.007,0.031-0.012
		c0.02-0.007,0.038-0.015,0.056-0.026c0.007-0.003,0.015-0.008,0.022-0.012c0.023-0.017,0.042-0.033,0.057-0.052
		c0.097-0.132,0.561-0.744,1.061-1.313l0,0c0.166-0.189,0.336-0.373,0.499-0.535c0.251,0.396,0.4,0.866,0.4,1.371
		C7.607,22.49,6.455,23.643,5.036,23.644L5.036,23.644z M25.811,20.828c-0.106-0.229-0.501-1.06-0.89-1.891
		c0.1-0.014,0.198-0.021,0.298-0.021c0.399,0,0.786,0.089,1.145,0.271c1.269,0.632,1.784,2.179,1.151,3.446
		c-0.438,0.879-1.317,1.423-2.301,1.423c-0.398,0-0.785-0.09-1.146-0.271c-0.875-0.438-1.393-1.312-1.421-2.229l0.718-0.004
		c0.045,0.619,0.403,1.199,0.999,1.497c0.895,0.445,1.982,0.083,2.431-0.813c0.445-0.894,0.083-1.982-0.812-2.43
		c-0.153-0.076-0.313-0.128-0.47-0.157c0.169,0.406,0.382,0.873,0.639,1.387c0.083,0.166,0.063,0.394-0.048,0.625
		c-0.114,0.229-0.349,0.483-0.659,0.513c-0.167,0.014-0.416-0.033-0.646-0.338c-0.046-0.062-0.109-0.162-0.188-0.288h0.314
		c0.038,0.062,0.069,0.111,0.085,0.132c0.332,0.441,0.703,0.174,0.855-0.136c0.071-0.143,0.142-0.287-0.055-0.715V20.828z
		 M24.396,20.644l-0.314-0.001c-0.078-0.139-0.161-0.283-0.247-0.437c-0.111,0.121-0.207,0.259-0.283,0.413
		c-0.004,0.008-0.007,0.014-0.011,0.022l-0.748-0.003c0.036-0.102,0.075-0.201,0.123-0.3c0.188-0.374,0.459-0.684,0.78-0.92
		C23.932,19.834,24.178,20.266,24.396,20.644L24.396,20.644z"/>
	<path d="M6.684,17.237L6.7,16.792c0,0-0.692-0.561-1.712-0.561c-1.02,0-1.845,0.611-1.845,0.611v0.577c0,0,0.774-0.529,1.713-0.529
		C5.794,16.891,6.684,17.237,6.684,17.237L6.684,17.237z"/>
	<path d="M5.856,21.711c-0.112,0.148-0.324,0.234-0.581,0.234c-0.256,0-0.588-0.093-0.751-0.358
		c-0.088-0.143-0.159-0.386,0.013-0.729c0.114-0.228,0.512-0.83,1.027-1.59c-0.157-0.046-0.324-0.072-0.495-0.072
		c-1,0-1.812,0.813-1.812,1.812c0,1,0.812,1.812,1.812,1.812c0.999,0,1.812-0.812,1.812-1.812c0-0.171-0.025-0.334-0.07-0.489
		C6.527,20.851,6.203,21.251,5.856,21.711z"/>
	<path d="M16.351,16.231l2.028,1.203c0.223-0.528-0.005-1.163-0.549-1.46C17.31,15.691,16.688,15.812,16.351,16.231z"/>
	<path d="M15.519,17.71l2.057,1.218l0.283-0.518l-2.057-1.219L15.519,17.71z"/>
	<path d="M18.261,17.671l-2.056-1.218l-0.278,0.508l2.058,1.218L18.261,17.671z"/>
	<path d="M14.548,16.894l-0.272-0.468c-0.018-0.028-0.041-0.052-0.059-0.08l-1.971,1.34l0.324,0.556L14.548,16.894L14.548,16.894z"
		/>
	<path d="M15.044,17.746l-0.364-0.623l-1.979,1.346l0.363,0.624L15.044,17.746z"/>
	<path d="M12.664,16.03c-0.51,0.296-0.723,0.898-0.534,1.416l1.909-1.3C13.672,15.83,13.12,15.764,12.664,16.03z"/>
	<path d="M14.766,19.644c0.284-0.162,0.477-0.425,0.559-0.712c0.103,0.252,0.288,0.476,0.551,0.618
		c0.571,0.312,1.264,0.136,1.57-0.39l-2.052-1.218l-0.027,0.051c-0.036,0.063-0.063,0.13-0.083,0.197
		c-0.02-0.048-0.038-0.095-0.064-0.142l-0.042-0.072l-1.972,1.341c0.34,0.493,1.019,0.646,1.562,0.328L14.766,19.644z"/>
</g>
</svg>
