<?xml version="1.0" encoding="utf-8"?>
<!-- Generator: Adobe Illustrator 16.0.0, SVG Export Plug-In . SVG Version: 6.00 Build 0)  -->
<!DOCTYPE svg PUBLIC "-//W3C//DTD SVG 1.1//EN" "http://www.w3.org/Graphics/SVG/1.1/DTD/svg11.dtd">
<svg version="1.1" id="Layer_1" xmlns="http://www.w3.org/2000/svg" xmlns:xlink="http://www.w3.org/1999/xlink" x="0px" y="0px"
	 width="30px" height="30px" viewBox="0 0 30 30" enable-background="new 0 0 30 30" xml:space="preserve">
<g>
	<path d="M7.442,30c-2.005,0-3.881-0.851-5.236-2.205c-2.626-2.626-3.358-7.209,0.323-10.891
		C4.686,14.748,13.325,6.109,17.638,1.796c1.531-1.531,3.479-2.122,5.346-1.622c1.832,0.491,3.333,1.992,3.824,3.824
		c0.5,1.867-0.091,3.815-1.622,5.346L10.737,23.792c-0.825,0.825-1.757,1.313-2.693,1.412c-0.928,0.098-1.813-0.201-2.433-0.82
		c-1.124-1.124-1.284-3.239,0.584-5.106L16.344,9.128c0.417-0.417,1.093-0.417,1.51,0s0.417,1.093,0,1.509L7.705,20.786
		c-0.877,0.877-0.958,1.715-0.584,2.088c0.164,0.164,0.412,0.238,0.699,0.207c0.439-0.046,0.94-0.33,1.409-0.799L23.677,7.834
		c0.991-0.991,1.371-2.157,1.068-3.283c-0.297-1.109-1.205-2.018-2.314-2.315c-1.126-0.302-2.292,0.078-3.283,1.069
		C14.835,7.618,6.195,16.258,4.039,18.414c-2.815,2.815-2.141,6.054-0.323,7.871s5.056,2.492,7.871-0.323l15.109-15.108
		c0.417-0.417,1.092-0.417,1.509,0c0.417,0.417,0.417,1.093,0,1.509L13.096,27.472C11.315,29.252,9.322,30,7.442,30z"/>
</g>
</svg>
