<?xml version="1.0" encoding="utf-8"?>
<!-- Generator: Adobe Illustrator 16.0.0, SVG Export Plug-In . SVG Version: 6.00 Build 0)  -->
<!DOCTYPE svg PUBLIC "-//W3C//DTD SVG 1.1//EN" "http://www.w3.org/Graphics/SVG/1.1/DTD/svg11.dtd">
<svg version="1.1" id="Layer_1" xmlns="http://www.w3.org/2000/svg" xmlns:xlink="http://www.w3.org/1999/xlink" x="0px" y="0px"
	 width="30px" height="30px" viewBox="0 0 30 30" enable-background="new 0 0 30 30" xml:space="preserve">
<path fill-rule="evenodd" clip-rule="evenodd" d="M22.668,14.64c-1.09,0.771-2.59,0.5-3.352-0.59c-0.76-1.095-0.5-2.604,0.592-3.37
	c0.863-0.61,1.984-0.565,2.795,0.025c-0.406,0.25-0.686,0.39-0.74,0.415c-0.451,0.215-0.641,0.755-0.43,1.205
	c0.154,0.33,0.479,0.521,0.814,0.521c0.129,0,0.26-0.025,0.385-0.085c0.289-0.136,0.6-0.306,0.926-0.495
	C23.807,13.155,23.453,14.09,22.668,14.64z M29.203,0.611c-0.166-0.475-0.682-0.725-1.15-0.56c-0.471,0.165-0.721,0.68-0.555,1.155
	c1.389,4.005-1.371,6.995-3.471,8.6l-0.85-1.225c-0.285-0.405-0.926-0.75-1.42-0.755l-4.766,0.02c-0.494-0.005-1.234,0.22-1.64,0.51
	l-14.044,9.88c-0.68,0.479-0.845,1.42-0.37,2.104l6.385,9.16c0.475,0.686,1.24,0.605,1.92,0.125l14.045-9.88
	c0.404-0.29,0.871-0.91,1.035-1.38l1.49-4.72c0.164-0.47,0.064-1.19-0.221-1.595l-0.52-0.746C27.896,9.135,30.828,5.3,29.203,0.611z
	"/>
</svg>
