<?xml version="1.0" encoding="utf-8"?>
<!-- Generator: Adobe Illustrator 19.2.0, SVG Export Plug-In . SVG Version: 6.00 Build 0)  -->
<svg version="1.1" id="Layer_1" xmlns="http://www.w3.org/2000/svg" xmlns:xlink="http://www.w3.org/1999/xlink" x="0px" y="0px"
	 viewBox="0 0 30 30" style="enable-background:new 0 0 30 30;" xml:space="preserve">
<g>
	<path d="M14.8,6.1C12,6.1,9.7,8.3,9.7,11c0,1.3,0.1,3.4,1,4.9c0.9,1.7,2.7,2.7,4.2,2.7c1.5,0,3.3-1,4.2-2.7c0.8-1.5,1-3.6,1-4.9
		C20,8.3,17.7,6.1,14.8,6.1z M18.5,8.5c-4.1-3.2-7.2,0-7.2,0C14.9,4.4,18.5,8.5,18.5,8.5z M10.7,14.2c0,0-0.6-2.4-0.3-3.9
		c0,0,3.8,1.4,8.6,0c0,0,0.5,1,0,3.9C19.1,14.2,15,16.8,10.7,14.2z"/>
</g>
<path d="M20.1,20.5c-1.2-0.5-2-0.9-2.5-1.4c-1.1,0.5-3,1-5.4,0.1c-0.5,0.5-1.3,0.9-2.5,1.3c-2.4,0.9-4,1.8-4,2.4c0,0.6,3.4,2,9.1,2
	c5.8,0,9.1-1.4,9.1-2C24,22.2,22.5,21.3,20.1,20.5z"/>
<path d="M9.4,19.5c0.5-0.2,0.9-0.4,1.2-0.5c-0.4-0.2-0.7-0.4-0.9-0.7c-0.9,0.4-2.4,0.8-4.4,0.1c-0.4,0.4-1,0.7-2,1.1
	c-2,0.7-3.3,1.5-3.3,2c0,1.7,4.8,1.7,4.8,1.7v-0.3C4.8,22,5.3,21,9.4,19.5z"/>
<path d="M25.5,9.7c-2.1-1.6-3.8-1.2-4.9-0.7c0.2,0.6,0.4,1.3,0.4,2c0,0.2,0,0.4,0,0.7c1.3,0.1,3,0.1,5-0.4c0,0,0.4,0.8,0,3.2
	c0,0-2.6,1.6-5.5,0.6c-0.2,0.5-0.3,0.9-0.5,1.3c-0.1,0.1-0.1,0.2-0.2,0.3c0.8,0.8,1.8,1.3,2.8,1.3c1.2,0,2.7-0.8,3.4-2.2
	c0.7-1.2,0.8-3,0.8-4c0-2.2-1.9-4-4.2-4c-0.8,0-1.5,0.2-2.2,0.6c0.1,0.2,0.2,0.3,0.2,0.5C23.1,7,25.5,9.7,25.5,9.7z"/>
<path d="M30,21.4c0-0.5-1.3-1.2-3.3-2c-1-0.4-1.7-0.7-2.1-1.1c-0.9,0.4-2.4,0.8-4.4,0.1c-0.2,0.2-0.6,0.4-1,0.7
	c0.3,0.1,0.7,0.3,1.1,0.5C24.5,21,25,22,25,22.8v0.3C25,23.1,30,23.1,30,21.4z"/>
<path d="M9.3,15.1C8,15.4,6,15.6,4.1,14.4c0,0-0.5-2-0.2-3.2c0,0,2,0.7,4.8,0.4c0-0.2,0-0.4,0-0.7c0-0.7,0.1-1.4,0.4-2.1
	C6.4,7.7,4.5,9.7,4.5,9.7c1.8-2,3.5-1.6,4.7-1c0.1-0.2,0.2-0.3,0.2-0.5c-0.6-0.3-1.3-0.5-2-0.5c-2.3,0-4.2,1.8-4.2,4
	c0,1,0.1,2.8,0.8,4c0.8,1.4,2.2,2.2,3.4,2.2c0.9,0,1.8-0.4,2.6-1.1c-0.1-0.2-0.2-0.3-0.3-0.5C9.6,15.9,9.4,15.5,9.3,15.1z"/>
</svg>
