<?xml version="1.0" encoding="utf-8"?>
<!-- Generator: Adobe Illustrator 16.0.0, SVG Export Plug-In . SVG Version: 6.00 Build 0)  -->
<!DOCTYPE svg PUBLIC "-//W3C//DTD SVG 1.1//EN" "http://www.w3.org/Graphics/SVG/1.1/DTD/svg11.dtd">
<svg version="1.1" id="Layer_1" xmlns="http://www.w3.org/2000/svg" xmlns:xlink="http://www.w3.org/1999/xlink" x="0px" y="0px"
	 width="30px" height="30px" viewBox="0 0 30 30" enable-background="new 0 0 30 30" xml:space="preserve">
<g>
	<path d="M26.877,14.762c0-1.84,1.133-3.293,2.839-4.293c-0.307-1.027-0.714-2.012-1.216-2.938c-1.912,0.5-3.462-0.249-4.764-1.551
		s-1.7-2.852-1.2-4.765C21.61,0.714,20.626,0.307,19.598,0c-0.999,1.707-2.803,2.839-4.644,2.839c-1.84,0-3.645-1.132-4.644-2.839
		C9.282,0.307,8.298,0.714,7.372,1.215C7.873,3.129,7.475,4.678,6.172,5.98C4.87,7.282,3.321,8.032,1.408,7.532
		c-0.502,0.926-0.909,1.91-1.216,2.938c1.707,1,2.839,2.453,2.839,4.293s-1.133,3.645-2.839,4.644
		c0.307,1.027,0.714,2.012,1.216,2.938c1.914-0.5,3.462-0.103,4.764,1.2c1.301,1.302,1.7,2.851,1.199,4.764
		c0.927,0.501,1.911,0.909,2.939,1.216c0.999-1.706,2.803-2.84,4.643-2.84c1.841,0,3.645,1.134,4.644,2.84
		c1.028-0.308,2.013-0.715,2.938-1.216c-0.499-1.913-0.102-3.462,1.2-4.764c1.302-1.303,2.852-2.053,4.764-1.552
		c0.502-0.927,0.909-1.91,1.216-2.938C28.01,18.056,26.877,16.603,26.877,14.762z M14.954,21.183c-3.545,0-6.419-2.875-6.419-6.42
		s2.874-6.42,6.419-6.42c3.546,0,6.42,2.875,6.42,6.42S18.5,21.183,14.954,21.183z"/>
</g>
</svg>
