<?xml version="1.0" encoding="utf-8"?>
<!-- Generator: Adobe Illustrator 16.0.0, SVG Export Plug-In . SVG Version: 6.00 Build 0)  -->
<!DOCTYPE svg PUBLIC "-//W3C//DTD SVG 1.1//EN" "http://www.w3.org/Graphics/SVG/1.1/DTD/svg11.dtd">
<svg version="1.1" id="Layer_1" xmlns="http://www.w3.org/2000/svg" xmlns:xlink="http://www.w3.org/1999/xlink" x="0px" y="0px"
	 width="30px" height="30px" viewBox="0 0 30 30" enable-background="new 0 0 30 30" xml:space="preserve">
<g>
	<path d="M14.062,9.482c-0.202-0.207-0.398-0.408-0.605-0.609c-0.127-0.133-0.152-0.251-0.112-0.418
		c0.201-0.821,0.221-1.657,0.112-2.493c-0.452-3.5-3.529-5.983-7.074-5.688C6.038,0.303,5.698,0.382,5.305,0.451l0.256,0.275
		c1.077,1.102,3.24,3.309,3.24,3.309L8.875,8.5L4.209,8.745c0,0-2.139-2.203-3.216-3.299c-0.079-0.078-0.158-0.152-0.28-0.27
		C0.629,5.593,0.497,5.948,0.497,6.302V7.54c0,0.31,0.113,0.62,0.182,0.925c0.782,3.643,4.518,5.88,8.127,4.852
		c0.187-0.049,0.29-0.014,0.413,0.114L9.7,13.922C10.448,11.896,12.046,10.279,14.062,9.482z"/>
	<path fill-rule="evenodd" clip-rule="evenodd" d="M27.508,27.648c-0.02,0.074-0.118,0.152-0.196,0.178
		c-0.394,0.117-0.782,0.23-1.18,0.314c-0.108,0.025-0.271-0.025-0.35-0.098c-0.334-0.314-0.649-0.645-0.953-0.98
		c-0.07-0.078-0.108-0.225-0.089-0.328c0.084-0.404,0.187-0.807,0.309-1.199c0.03-0.098,0.148-0.207,0.247-0.24
		c0.378-0.125,0.762-0.232,1.15-0.316c0.099-0.023,0.255,0.016,0.328,0.09c0.346,0.324,0.675,0.668,0.999,1.012
		c0.054,0.061,0.089,0.139,0.108,0.174C27.749,26.756,27.64,27.207,27.508,27.648z M28.511,24.271
		c-1.524-1.568-3.053-3.127-4.582-4.691c-0.865,1.969-2.546,3.496-4.622,4.176c1.682,1.721,3.354,3.455,5.059,5.156
		c1.029,1.027,2.646,1.107,3.827,0.256C29.804,28.008,29.956,25.756,28.511,24.271z"/>
	<path fill-rule="evenodd" clip-rule="evenodd" d="M19.567,18.76c-0.068,0.221-0.182,0.422-0.339,0.609s-0.398,0.35-0.654,0.486
		c-0.256,0.133-0.58,0.232-0.973,0.291v1.348h-1.377v-1.312c-0.586-0.045-0.992-0.129-1.337-0.256
		c-0.344-0.123-0.595-0.227-0.762-0.305l0.492-1.299c0.266,0.127,0.581,0.246,0.949,0.35c0.368,0.107,0.757,0.156,1.165,0.156
		c0.463,0,0.777-0.059,0.949-0.186c0.167-0.123,0.256-0.295,0.256-0.523c0-0.141-0.034-0.264-0.104-0.363
		c-0.068-0.102-0.167-0.195-0.295-0.273c-0.128-0.084-0.29-0.168-0.491-0.246c-0.197-0.078-0.423-0.162-0.679-0.252
		c-0.252-0.088-0.497-0.191-0.732-0.301c-0.24-0.105-0.453-0.24-0.649-0.396c-0.191-0.158-0.349-0.35-0.462-0.58
		c-0.118-0.227-0.177-0.507-0.177-0.827c0-0.25,0.035-0.487,0.108-0.717c0.069-0.227,0.182-0.433,0.334-0.625
		c0.153-0.186,0.339-0.343,0.581-0.476c0.246-0.132,0.467-0.226,0.855-0.285v-1.219h1.377v1.174
		c0.393,0.035,0.771,0.094,1.052,0.167c0.285,0.074,0.525,0.148,0.693,0.227l-0.345,1.346c-0.245-0.103-0.53-0.191-0.86-0.27
		c-0.328-0.074-0.674-0.108-1.038-0.108c-0.362,0-0.623,0.059-0.786,0.176c-0.157,0.123-0.234,0.28-0.234,0.473
		c0,0.123,0.022,0.226,0.072,0.309c0.05,0.089,0.128,0.163,0.231,0.231c0.108,0.069,0.241,0.132,0.394,0.197
		c0.157,0.062,0.344,0.133,0.565,0.211c0.328,0.119,0.639,0.25,0.924,0.395c0.285,0.141,0.531,0.305,0.737,0.492
		c0.207,0.182,0.369,0.396,0.487,0.643c0.118,0.25,0.177,0.535,0.177,0.865C19.671,18.312,19.637,18.539,19.567,18.76z
		 M23.486,16.537c0-3.603-2.95-6.523-6.589-6.523c-3.633,0-6.582,2.92-6.582,6.523c0,3.609,2.949,6.529,6.582,6.529
		C20.536,23.066,23.486,20.146,23.486,16.537z"/>
</g>
</svg>
