<?xml version="1.0" encoding="utf-8"?>
<!-- Generator: Adobe Illustrator 16.0.0, SVG Export Plug-In . SVG Version: 6.00 Build 0)  -->
<!DOCTYPE svg PUBLIC "-//W3C//DTD SVG 1.1//EN" "http://www.w3.org/Graphics/SVG/1.1/DTD/svg11.dtd">
<svg version="1.1" id="Layer_1" xmlns="http://www.w3.org/2000/svg" xmlns:xlink="http://www.w3.org/1999/xlink" x="0px" y="0px"
	 width="30px" height="30px" viewBox="1 1 30 30" enable-background="new 1 1 30 30" xml:space="preserve">
<g>
	<path d="M21.348,19.244v-1.477l-5.933,0.5c-0.045,0.006-0.581,0.078-1.114,0.34l-1.431,0.01c-0.06,0.006-0.542,0.074-0.621,0.895
		h-0.645v2.444h0.58c0.013,0.211,0.067,0.46,0.218,0.634c0.124,0.145,0.295,0.221,0.495,0.221c0.184,0,0.339-0.063,0.46-0.185
		c0.303-0.303,0.331-0.905,0.331-1.804c0-0.1-0.001-0.653-0.001-0.653c0-0.415,0.216-0.712,0.495-0.926h5.487
		c-0.448,0.506-0.571,0.712-0.68,0.926V19.99c0-0.23-0.166-0.426-0.384-0.469l-4.072-0.01c-0.264,0-0.479,0.215-0.479,0.479v1.825
		c0,0.213,0.086,0.425,0.235,0.576l0.624,0.643c0.137,0.142,0.381,0.244,0.578,0.244h3.018c0.265,0,0.48-0.215,0.48-0.479v-1.311
		c0.001,0,0.003,0.001,0.003,0.001c0.253,0.084,0.521-0.053,0.605-0.305c0.202-0.61,0.536-1.15,1.311-1.943h0.438v0.001
		L21.348,19.244z M13.208,20.172l0.001,0.34c0.003,0.813,0.005,1.581-0.19,1.777c-0.022,0.021-0.053,0.043-0.122,0.043
		c-0.076,0-0.11-0.025-0.132-0.055c-0.061-0.068-0.09-0.194-0.1-0.32h0.288v-2.443H12.73c0.038-0.297,0.143-0.402,0.192-0.418
		l0.71-0.006C13.382,19.357,13.208,19.71,13.208,20.172z"/>
	<path d="M23.611,17.333c-0.073,0-0.146,0.003-0.219,0.007c0.144-0.182,0.387-0.492,0.648-0.832h3.529v-1.069h-1.323v0.002
		l-1.711,0.005l-0.045-1.142v-0.069c0-0.019-0.001-0.035-0.005-0.049l-0.004-0.099l-6.946,0.041l-0.448,0.012l0.002,0.564
		c-0.772-0.552-1.77-1.078-2.906-1.228c0.003-0.015,0.005-0.032,0.005-0.047v-0.068c0-0.15-0.123-0.273-0.273-0.273h-0.419
		c-0.15,0-0.273,0.122-0.273,0.273v0.068c0,0.01,0.001,0.02,0.003,0.03c-1.288,0.189-1.934,1.668-1.913,2.282l0.001,0.063
		c0.001,0.157,0.004,0.429,0.067,0.703h-0.218v-2.111c0.009-0.095-0.04-0.19-0.129-0.236l-0.426-0.218
		c-0.116-0.06-0.262-0.013-0.322,0.104L9.946,14.71c-0.068-0.275-0.244-0.521-0.496-0.717l0.95-1.853
		c0.705,0.001,1.087,0.379,1.204,0.518c0,0.067,0,0.145,0,0.145c0,0.132,0.108,0.239,0.239,0.239c0.131,0,0.24-0.108,0.24-0.239
		v-0.229c0-0.047-0.014-0.095-0.041-0.134c-0.015-0.023-0.301-0.422-0.883-0.637h1.527c0.265,0,0.479-0.214,0.479-0.479
		c0-0.265-0.214-0.479-0.479-0.479h-1.788v-0.669l0.383,0.663c0.344,0,0.623-0.482,0.623-1.077c0-0.595-0.279-1.076-0.623-1.076
		l-0.623,1.077v1.09c-0.227,0.036-0.402,0.232-0.402,0.471c0,0.013,0.003,0.024,0.003,0.037l-1.224,2.387
		c-0.307-0.139-0.668-0.22-1.057-0.22v2.88c0.479,0,0.918-0.121,1.262-0.324l-0.184,0.358c-0.06,0.119-0.013,0.262,0.105,0.324
		l0.213,0.108l-0.477,0.931c-0.664-0.303-1.394-0.469-2.148-0.469c-0.393,0-0.785,0.043-1.166,0.132
		C5.79,18.389,5.59,17.453,5.798,18.4c0.31-0.071,0.63-0.108,0.95-0.108c0.6,0,1.181,0.129,1.712,0.364l-0.34,0.662
		c-0.601-0.239-0.979-0.309-1.372-0.309c-1.933,0-3.507,1.572-3.507,3.508c0,1.935,1.573,3.506,3.507,3.506s3.507-1.572,3.507-3.506
		c0-1.17-0.579-2.205-1.706-2.988l0.336-0.656c0.648,0.381,1.195,0.934,1.571,1.617c0.844-0.441-0.015-0.012,0.84-0.461
		c-0.445-0.812-1.089-1.471-1.85-1.937h5.607c0.186-0.042,0.312-0.06,0.333-0.062l0.023-0.004l6.177-0.52v1.301
		c0.215-0.117,0.439-0.215,0.674-0.293l0.186,0.674c-1.479,0.664-2.342,1.896-2.342,3.326c0,1.934,1.573,3.508,3.508,3.508
		c1.934,0,3.507-1.573,3.507-3.508c0-1.934-1.574-3.507-3.507-3.507c-0.148,0-0.324-0.003-0.703,0.06l-0.188-0.68
		c0.288-0.064,0.584-0.098,0.889-0.098c1.313,0,2.529,0.598,3.34,1.639c0.625-0.453-0.006-0.022,0.755-0.589
		c-0.993-1.276-2.485-2.009-4.095-2.009L23.611,17.333z M8.819,22.516c0,1.143-0.929,2.07-2.07,2.07s-2.07-0.929-2.07-2.07
		c0-1.141,0.929-2.07,2.07-2.07c0.161,0,0.32,0.022,0.706,0.172l-0.423,0.824c-0.09-0.024-0.185-0.039-0.283-0.039
		c-0.614,0-1.113,0.5-1.113,1.115c0,0.614,0.499,1.111,1.113,1.111c0.614,0,1.113-0.497,1.113-1.111
		c0-0.346-0.157-0.653-0.403-0.859l0.426-0.829c0.663,0.522,0.935,1.075,0.935,1.688L8.819,22.516z M22.835,20.602l0.256,0.931
		c-0.353,0.188-0.594,0.557-0.594,0.983c0,0.614,0.499,1.112,1.114,1.112c0.613,0,1.111-0.498,1.111-1.112
		c0-0.613-0.498-1.111-1.111-1.111c-0.02,0-0.039,0.003-0.059,0.003l-0.259-0.939c0.253-0.042,0.291-0.021,0.315-0.021
		c1.142,0,2.07,0.929,2.07,2.07c0,1.141-0.929,2.069-2.07,2.069s-2.069-0.929-2.069-2.069C21.54,21.748,21.965,21.076,22.835,20.602
		L22.835,20.602z"/>
</g>
</svg>
