<?xml version="1.0" encoding="utf-8"?>
<!-- Generator: Adobe Illustrator 16.0.0, SVG Export Plug-In . SVG Version: 6.00 Build 0)  -->
<!DOCTYPE svg PUBLIC "-//W3C//DTD SVG 1.1//EN" "http://www.w3.org/Graphics/SVG/1.1/DTD/svg11.dtd">
<svg version="1.1" id="Layer_1" xmlns="http://www.w3.org/2000/svg" xmlns:xlink="http://www.w3.org/1999/xlink" x="0px" y="0px"
	 width="30px" height="30px" viewBox="0 0 30 30" enable-background="new 0 0 30 30" xml:space="preserve">
<path fill-rule="evenodd" clip-rule="evenodd" d="M19.949,2.489l-1.341-1.474c-0.52-0.728-1.08-0.865-2.176-0.865h-2.866
	c-1.095,0-1.656,0.138-2.175,0.865l-1.34,1.474C6.034,3.183,3.12,5.024,3.12,6.383v0.264c0,2.391,5.32,4.333,11.88,4.333
	c6.56,0,11.88-1.942,11.88-4.333V6.383C26.88,5.024,23.97,3.183,19.949,2.489z M4.665,11.77l1.722,15.017
	c0.093,0.717,3.576,3.06,8.613,3.062c5.038-0.003,8.521-2.346,8.613-3.062l1.723-15.017c-2.633,1.456-6.567,2.146-10.336,2.146
	C11.232,13.916,7.296,13.226,4.665,11.77z"/>
</svg>
