<?xml version="1.0" encoding="utf-8"?>
<!-- Generator: Adobe Illustrator 16.0.0, SVG Export Plug-In . SVG Version: 6.00 Build 0)  -->
<!DOCTYPE svg PUBLIC "-//W3C//DTD SVG 1.1//EN" "http://www.w3.org/Graphics/SVG/1.1/DTD/svg11.dtd">
<svg version="1.1" id="Layer_1" xmlns="http://www.w3.org/2000/svg" xmlns:xlink="http://www.w3.org/1999/xlink" x="0px" y="0px"
	 width="30px" height="30px" viewBox="1 1 30 30" enable-background="new 1 1 30 30" xml:space="preserve">
<g>
	<path d="M21.332,14.809c1.283-0.282,1.702-1.071,1.83-1.443l-3.786,0.561C19.661,14.406,20.256,15.043,21.332,14.809L21.332,14.809
		z"/>
	<path d="M27.027,15.635c1.839-1.107,3.718-2.432,3.584-3.441c-0.092-0.68-0.871-0.986-1.865-1.092l-5.156,2.241
		c-0.093,0.366-0.515,1.496-2.172,1.859c-0.193,0.043-0.371,0.061-0.539,0.061c-1.07,0-1.654-0.772-1.921-1.272h-0.001
		c-0.577-0.922-1.232-1.714-1.952-2.174c-0.307-0.197-0.637-0.332-0.98-0.417c0.055-0.177,0.101-0.423-0.067-0.423
		c-0.262,0-1.2-0.037-1.651,0c-0.251,0.021-0.222,0.204-0.148,0.364c-1.793,0.257-3.567,1.249-4.298,1.699
		c0,0,1.44,2.735,4.399,4.144c2.959,1.404,9.182-0.297,9.244-0.314l0.105,0.387c-0.18,0.051-3.244,0.889-6.129,0.889
		c-1.246,0-2.458-0.156-3.392-0.601c-3.082-1.465-4.507-4.166-4.569-4.287C9.343,13.081,12.404,8.33,8.874,9.97
		c-6.447,3.146-6.006,5.293-5.268,6.094c-0.56,0.102-1.027,0.293-1.288,0.597c-0.391,0.453,0.074,0.606,0.882,0.726
		c-1.252,0.695-2.102,2.029-2.102,3.562c0,2.248,1.823,4.072,4.07,4.072c2.248,0,4.07-1.824,4.07-4.07
		c0-0.064-0.003-0.124-0.005-0.188c0.296,0.459,0.505,0.789,0.645,0.813c0.389,0.015,0.554-0.63,0.372-1.501l1.3,1.871l2.475,0.001
		v0.299h-0.877v0.703h2.408v-0.703h-0.829v-0.298l7.031,0.008c0.448,1.76,2.04,3.066,3.939,3.066c2.248,0,4.07-1.823,4.07-4.07
		c0-1.057-0.406-2.016-1.064-2.739c0.998,0.609,1.729,1.318,1.964,1.272C31.486,19.21,30.136,16.296,27.027,15.635z M5.169,23.51
		c-1.412,0-2.559-1.146-2.559-2.56c0-1.41,1.148-2.558,2.559-2.558c0.289,0,0.564,0.049,0.824,0.141l-0.588,0.953
		c-0.063-0.01-0.128-0.016-0.194-0.016c-0.785,0-1.421,0.637-1.421,1.424c0,0.785,0.636,1.422,1.421,1.422
		c0.786,0,1.421-0.637,1.421-1.422c0-0.306-0.096-0.586-0.259-0.816l0.585-0.95c0.474,0.463,0.769,1.11,0.769,1.824
		C7.726,22.361,6.577,23.511,5.169,23.51L5.169,23.51z M11.684,20.373c-0.627,0-1.137-0.509-1.137-1.137
		c0-0.627,0.509-1.137,1.137-1.137s1.137,0.51,1.137,1.137C12.821,19.864,12.312,20.373,11.684,20.373z M13.139,19.489
		c0-0.427,0.345-0.771,0.769-0.771c0.424,0,0.769,0.344,0.769,0.771c0,0.422-0.346,0.767-0.769,0.767
		C13.485,20.256,13.139,19.911,13.139,19.489z M15.748,20.357c-0.424,0-0.769-0.344-0.769-0.77c0-0.425,0.345-0.77,0.769-0.77
		s0.77,0.346,0.77,0.77C16.518,20.014,16.173,20.357,15.748,20.357z M25.7,23.51c-1.056,0-1.964-0.641-2.354-1.555h1.456
		c0.257,0.262,0.616,0.424,1.011,0.424c0.787,0,1.424-0.636,1.424-1.423c0-0.785-0.637-1.42-1.424-1.42
		c-0.576,0-1.076,0.346-1.297,0.844h-1.309c0.261-1.139,1.277-1.989,2.493-1.989c1.409,0,2.557,1.147,2.557,2.558
		C28.257,22.361,27.111,23.509,25.7,23.51L25.7,23.51z"/>
</g>
</svg>
