<?xml version="1.0" encoding="utf-8"?>
<!-- Generator: Adobe Illustrator 16.0.0, SVG Export Plug-In . SVG Version: 6.00 Build 0)  -->
<!DOCTYPE svg PUBLIC "-//W3C//DTD SVG 1.1//EN" "http://www.w3.org/Graphics/SVG/1.1/DTD/svg11.dtd">
<svg version="1.1" id="Layer_1" xmlns="http://www.w3.org/2000/svg" xmlns:xlink="http://www.w3.org/1999/xlink" x="0px" y="0px"
	 width="30px" height="30px" viewBox="0 0 30 30" enable-background="new 0 0 30 30" xml:space="preserve">
<path fill-rule="evenodd" clip-rule="evenodd" d="M8.615,26.958l-3.126,0.67c-0.3-0.562-0.661-1.125-1.327-1.79
	c-0.666-0.666-1.229-1.027-1.791-1.332l0.671-3.121l0.904-0.9c0,0,1.697,0.032,3.614,1.949c1.922,1.923,1.955,3.619,1.955,3.619
	L8.615,26.958z M27.618,2.38c-2.774-2.775-4.855-2.358-4.855-2.358L1.939,20.841L-0.001,30l9.16-1.94L29.977,7.242
	C29.977,7.242,30.394,5.156,27.618,2.38z"/>
</svg>
