<?xml version="1.0" encoding="utf-8"?>
<!-- Generator: Adobe Illustrator 16.0.0, SVG Export Plug-In . SVG Version: 6.00 Build 0)  -->
<!DOCTYPE svg PUBLIC "-//W3C//DTD SVG 1.1//EN" "http://www.w3.org/Graphics/SVG/1.1/DTD/svg11.dtd">
<svg version="1.1" id="Layer_1" xmlns="http://www.w3.org/2000/svg" xmlns:xlink="http://www.w3.org/1999/xlink" x="0px" y="0px"
	 width="30px" height="30px" viewBox="1 1 30 30" enable-background="new 1 1 30 30" xml:space="preserve">
<g>
	<path d="M30.806,21.251c0.03-0.211,0.045-0.424,0.047-0.64c0.001-0.162-0.006-0.321-0.021-0.481l-0.236,0.021
		c-0.017-0.205-0.049-0.407-0.092-0.604l0.224-0.053c-0.049-0.209-0.111-0.416-0.187-0.616l-0.213,0.081
		c-0.07-0.193-0.15-0.382-0.245-0.562l0.187-0.104c-0.101-0.188-0.216-0.371-0.344-0.544l-0.17,0.126
		c-0.12-0.166-0.251-0.326-0.39-0.476l0.146-0.141c-0.147-0.154-0.31-0.3-0.476-0.432l-0.122,0.153
		c-0.159-0.129-0.327-0.245-0.503-0.353l0.098-0.166c-0.186-0.11-0.378-0.208-0.575-0.292l-0.071,0.166
		c-0.188-0.083-0.384-0.148-0.585-0.205l0.048-0.171c-0.206-0.058-0.419-0.1-0.63-0.129l-0.023,0.172
		c-0.198-0.028-0.4-0.047-0.606-0.049c-0.004,0.001-0.008,0.001-0.012,0.001v-0.164c-0.214,0-0.43,0.014-0.643,0.043L25.435,16
		c-0.207,0.028-0.411,0.068-0.608,0.122l-0.043-0.157c-0.207,0.058-0.412,0.129-0.608,0.214l0.066,0.148
		c-0.193,0.082-0.374,0.178-0.552,0.286l-0.084-0.141c-0.184,0.109-0.36,0.233-0.529,0.369l0.102,0.123
		c-0.162,0.132-0.312,0.274-0.454,0.424l-0.119-0.116c-0.148,0.157-0.286,0.32-0.413,0.494l0.138,0.097
		c-0.121,0.167-0.234,0.345-0.33,0.527l-0.149-0.081c-0.101,0.189-0.191,0.387-0.267,0.586l0.165,0.062
		c-0.043,0.12-0.083,0.241-0.117,0.366l-1.056-0.168l0.005-0.901c0,0,3.771-2.73,4.385-3.336c0.069-3.24,5.384-3.476,5.384-3.476
		l0.027-0.536c0,0-4.195,0.486-4.998,0.48c-0.373,1.192-3.386,3.415-6.747,3.394c-3.363-0.021-4.444-2.635-4.444-2.635l0.005-0.877
		l0.511,0.003c0,0,0.18-1.534-0.5-1.854c-0.68-0.322-1.777-0.231-1.777-0.231l0.098-0.439l1.634-0.014l-0.019-0.805l-1.976-0.013
		l0.149-0.51c0,0-0.169-0.05-0.609-0.004c-0.51-0.003-1.163,1.33-1.64,2.642C9.886,9.984,9.691,9.89,9.642,9.75
		c-0.096-0.268,1.481-3.184,1.677-3.353c0.196-0.168,0.275-1.166-0.116-0.755c-0.393,0.412-3.24,3.732-3.453,6.461
		c0.196,0.001,0.78,0.005,0.78,0.005l0.992-0.44l-0.538,1.66c-3.666-2.36-6.734,1.422-6.734,1.422s3.762-1.512,6.097-0.596
		c0.098,0.038,0.191,0.081,0.286,0.123l-0.908,1.998c-0.185-0.08-0.376-0.144-0.571-0.2l0.046-0.171
		c-0.206-0.057-0.417-0.099-0.631-0.128L6.545,15.95c-0.2-0.029-0.402-0.048-0.608-0.049c-0.003,0-0.007,0.001-0.01,0.001v-0.166
		c-0.215,0.001-0.431,0.015-0.641,0.043l0.021,0.166c-0.207,0.028-0.41,0.067-0.608,0.122l-0.044-0.158
		c-0.207,0.058-0.412,0.129-0.607,0.214l0.063,0.147c-0.192,0.082-0.374,0.179-0.552,0.287l-0.084-0.141
		c-0.182,0.111-0.36,0.234-0.528,0.369l0.1,0.124c-0.162,0.131-0.312,0.272-0.455,0.423l-0.12-0.114
		c-0.148,0.155-0.286,0.32-0.412,0.493l0.135,0.098c-0.121,0.167-0.231,0.344-0.33,0.525l-0.149-0.08
		c-0.102,0.188-0.192,0.386-0.267,0.586L1.616,18.9c-0.071,0.192-0.134,0.391-0.179,0.595l-0.171-0.038
		c-0.047,0.209-0.081,0.423-0.1,0.635l0.183,0.017c-0.009,0.113-0.017,0.226-0.018,0.34c0,0.093,0.007,0.186,0.012,0.277
		l-0.189,0.01c0.005,0.214,0.03,0.428,0.067,0.639l0.19-0.035c0.039,0.203,0.095,0.401,0.16,0.597l-0.195,0.062
		c0.065,0.206,0.146,0.406,0.24,0.6l0.19-0.09c0.091,0.184,0.192,0.363,0.307,0.532l-0.18,0.118
		c0.118,0.178,0.249,0.352,0.389,0.513l0.171-0.149c0.137,0.151,0.28,0.295,0.435,0.43l-0.152,0.173
		c0.161,0.143,0.333,0.273,0.51,0.393l0.132-0.199c0.17,0.111,0.349,0.209,0.533,0.297l-0.106,0.221
		c0.192,0.094,0.394,0.174,0.597,0.242l0.077-0.233c0.192,0.061,0.391,0.105,0.593,0.141l-0.045,0.252
		c0.21,0.037,0.424,0.063,0.637,0.072l0.013-0.259c0.054,0.003,0.107,0.011,0.163,0.011c0.15,0.002,0.298-0.008,0.445-0.021
		l0.023,0.259c0.211-0.019,0.426-0.05,0.635-0.097l-0.057-0.259c0.199-0.048,0.393-0.104,0.582-0.176L7.6,25.018
		c0.201-0.072,0.397-0.163,0.586-0.264L8.061,24.52c0.18-0.096,0.35-0.208,0.513-0.325l0.158,0.218
		c0.174-0.124,0.34-0.264,0.496-0.41l-0.185-0.193c0.147-0.141,0.288-0.286,0.415-0.444l0.208,0.165
		c0.134-0.166,0.259-0.345,0.369-0.524l-0.227-0.139c0.105-0.172,0.204-0.35,0.287-0.536l0.236,0.102
		c0.086-0.196,0.158-0.398,0.217-0.604l-0.244-0.069c0.057-0.192,0.099-0.393,0.129-0.597l0.248,0.037
		c0.029-0.212,0.045-0.427,0.047-0.643c0.001-0.161-0.005-0.319-0.021-0.481l-0.236,0.021c-0.018-0.205-0.049-0.407-0.094-0.604
		l0.226-0.054c-0.049-0.208-0.112-0.415-0.188-0.615l-0.21,0.08c-0.071-0.192-0.151-0.382-0.247-0.562l0.189-0.103
		c-0.102-0.188-0.218-0.371-0.345-0.544l-0.171,0.126c-0.12-0.167-0.25-0.326-0.389-0.476l0.147-0.142
		c-0.149-0.153-0.309-0.299-0.477-0.433l-0.123,0.154c-0.058-0.048-0.117-0.089-0.177-0.134l0.768-2.116
		c1.715,1.052,2.757,2.741,3.059,3.893c0.292,0.002,0.51-0.021,0.51-0.021s-0.253-2.396-3.118-4.616l0.268-0.236
		c0.003,0.005,0.004,0.009,0.004,0.009s2.328,1.989,3.196,3.481c0.867,1.492,2.192,4.009,2.996,3.991
		c0.805-0.021,3.51,0.07,3.51,0.07l0.055-1.12l0.514-0.07l1.104,0.162c-0.008,0.096-0.014,0.191-0.016,0.288
		c0,0.092,0.009,0.185,0.012,0.277l-0.191,0.008c0.012,0.216,0.035,0.43,0.071,0.638l0.192-0.033
		c0.037,0.203,0.095,0.402,0.161,0.595l-0.194,0.064c0.064,0.206,0.146,0.405,0.239,0.599l0.191-0.091
		c0.091,0.184,0.192,0.364,0.306,0.531l-0.182,0.118c0.119,0.178,0.25,0.351,0.39,0.512l0.171-0.149
		c0.139,0.152,0.281,0.297,0.437,0.431l-0.152,0.175c0.162,0.141,0.334,0.271,0.511,0.391l0.132-0.198
		c0.172,0.111,0.349,0.209,0.533,0.297l-0.106,0.22c0.191,0.094,0.395,0.176,0.598,0.242l0.077-0.234
		c0.192,0.063,0.391,0.106,0.593,0.142l-0.045,0.252c0.21,0.039,0.425,0.062,0.637,0.072l0.014-0.26
		c0.055,0.002,0.108,0.01,0.162,0.01c0.15,0.002,0.298-0.006,0.447-0.019l0.021,0.259c0.213-0.02,0.426-0.05,0.635-0.096
		l-0.057-0.261c0.198-0.045,0.394-0.105,0.581-0.174l0.094,0.25c0.199-0.072,0.396-0.162,0.586-0.264l-0.126-0.233
		c0.18-0.095,0.35-0.207,0.513-0.324l0.159,0.22c0.173-0.126,0.339-0.266,0.495-0.411l-0.186-0.196
		c0.147-0.14,0.288-0.284,0.415-0.443l0.206,0.166c0.137-0.166,0.261-0.346,0.371-0.528l-0.227-0.136
		c0.105-0.172,0.203-0.351,0.287-0.538l0.235,0.104c0.085-0.197,0.158-0.401,0.215-0.607l-0.242-0.069
		c0.056-0.191,0.099-0.393,0.128-0.596l0.242,0.032L30.806,21.251z M9.607,20.505c-0.012,2.042-1.684,3.691-3.724,3.678
		c-2.041-0.013-3.691-1.685-3.678-3.725c0.012-2.041,1.684-3.691,3.724-3.679c0.507,0.004,0.989,0.111,1.43,0.297l-0.987,2.176
		c-0.129-0.038-0.263-0.065-0.405-0.065c-0.838-0.006-1.522,0.669-1.527,1.509c-0.006,0.837,0.67,1.521,1.507,1.527
		c0.837,0.003,1.521-0.673,1.527-1.51c0.003-0.395-0.15-0.753-0.396-1.024l1.146-2.087C9.073,18.285,9.616,19.333,9.607,20.505
		L9.607,20.505z M26.012,24.235c-2.04-0.014-3.69-1.684-3.678-3.725c0-0.057,0.008-0.11,0.01-0.165l2.236,0.328
		c0.046,0.792,0.693,1.423,1.498,1.429c0.838,0.005,1.521-0.671,1.525-1.508c0.006-0.837-0.668-1.52-1.507-1.525
		c-0.562-0.004-1.051,0.303-1.313,0.756l-2.289-0.364c0.464-1.529,1.887-2.641,3.564-2.629c2.041,0.013,3.69,1.683,3.678,3.724
		C29.722,22.597,28.053,24.247,26.012,24.235L26.012,24.235z"/>
	<path d="M19.004,14.334c3.402-0.211,6.125-3.094,5.954-3.095c-0.172-0.001-1.523-0.01-1.815-0.012
		c-0.293-0.002-2.443,0.923-4.48,0.911c-2.032-0.013-2.871-0.518-2.871-0.518s-0.937-0.006-1.157-0.008
		C14.415,11.611,15.603,14.543,19.004,14.334z"/>
</g>
</svg>
