<?xml version="1.0" encoding="utf-8"?>
<!-- Generator: Adobe Illustrator 16.0.0, SVG Export Plug-In . SVG Version: 6.00 Build 0)  -->
<!DOCTYPE svg PUBLIC "-//W3C//DTD SVG 1.1//EN" "http://www.w3.org/Graphics/SVG/1.1/DTD/svg11.dtd">
<svg version="1.1" id="Layer_1" xmlns="http://www.w3.org/2000/svg" xmlns:xlink="http://www.w3.org/1999/xlink" x="0px" y="0px"
	 width="30px" height="30px" viewBox="-14.5 15.5 30 30" enable-background="new -14.5 15.5 30 30" xml:space="preserve">
<path d="M14.485,18.651c-0.552,0.195-27.864,9.819-28.401,10.009c-0.457,0.161-0.559,0.555-0.017,0.772
	c0.647,0.258,6.107,2.446,6.107,2.446h-0.001l3.621,1.45c0,0,17.435-12.802,17.671-12.976c0.237-0.175,0.512,0.152,0.338,0.34
	C13.63,20.88,1.141,34.387,1.141,34.387c0,0,0,0.002,0,0.002l-0.729,0.81l0.963,0.519l0,0c0,0,7.48,4.027,8.014,4.314
	c0.466,0.252,1.075,0.043,1.209-0.539c0.159-0.686,4.576-19.725,4.676-20.148C15.402,18.793,15.039,18.458,14.485,18.651z
	 M-4.24,42.021c0,0.397,0.224,0.508,0.533,0.226c0.403-0.364,4.583-4.117,4.583-4.117l-5.116-2.646V42.021z"/>
</svg>
