<?xml version="1.0" encoding="utf-8"?>
<!-- Generator: Adobe Illustrator 19.0.1, SVG Export Plug-In . SVG Version: 6.00 Build 0)  -->
<svg version="1.1" id="Layer_1" xmlns="http://www.w3.org/2000/svg" xmlns:xlink="http://www.w3.org/1999/xlink" x="0px" y="0px"
	 viewBox="-282 405.9 30 30" style="enable-background:new -282 405.9 30 30;" xml:space="preserve">
<g id="E6YWZy.tif">
	<g>
		<path d="M-282,426.4c0.1-0.5,0.1-1,0.3-1.5c0.2-0.9,0.6-1.7,0.8-2.5c0.1-0.2,0.2-0.2,0.4-0.2c1.6,0.5,3.1,1.2,4.5,2.2
			c1,0.7,1.9,1.5,2.8,2.5c-0.1-0.1-0.1-0.2-0.2-0.4c-0.1-0.1-0.1-0.3-0.2-0.4c-0.9-1.7-2.3-3-3.8-4c-0.8-0.5-1.6-1-2.4-1.5
			c-0.1-0.1-0.2-0.1-0.2-0.3c0.3-1.3,0.4-2.6,0.4-3.9c0-2.3,0-4.7,0-7c0-0.1,0-0.2,0-0.3c0.1-0.8,0.3-0.9,1-1c0.3,0,0.6-0.1,0.9-0.1
			c0.9,0,1.7-0.2,2.6-0.5c0.7-0.3,1.4-0.6,2.2-0.7c1.1-0.2,2.2,0,3.1,0.8c0.3,0.2,0.4,0.5,0.4,0.9c0,0.6,0,1.1,0,1.7
			c0,1.8,0,3.6,0,5.4c0,1.2,0.2,2.4,0.5,3.7c0.4,1.7,1.5,2.7,3.1,3.2c0.7,0.2,1.5,0.4,2.2,0.5c0.8,0.2,1.2,0.7,1.2,1.5
			c0,1.3-0.1,2.7-0.5,4c-0.1,0.2-0.1,0.3-0.2,0.5c0.8-0.1,2-1.3,2.4-3.5c0.3,0.1,0.7,0.3,1,0.4c0.5,0.2,1.1,0.2,1.6-0.1
			c0.6-0.3,1.3-0.4,2-0.4c1.4,0.1,3.2,0.9,3.4,3.2c0.1,1.2,0.3,0.9-0.8,1.5c-1.9,1-3.9,1.6-6,1.8c-1.7,0.2-3.4,0.3-5.2,0.3
			c-2.7,0-5.3-0.5-7.9-1.3c-1.6-0.5-3.2-0.7-4.8-0.9c-1.4-0.2-2.8-0.4-4.2-0.8c-0.2-0.1-0.3-0.2-0.4-0.4c-0.1-0.4-0.1-0.8-0.2-1.2
			C-282,427-282,426.7-282,426.4z M-270.8,412.4c0-0.4-0.4-0.8-0.8-0.8c-0.4,0-0.8,0.4-0.8,0.8c0,0.4,0.4,0.8,0.8,0.8
			C-271.2,413.2-270.8,412.9-270.8,412.4z M-269.5,421c-0.4,0-0.8,0.4-0.8,0.8c0,0.4,0.4,0.8,0.8,0.8c0.4,0,0.8-0.4,0.8-0.8
			C-268.8,421.3-269.1,421-269.5,421z M-271.5,409.9c0.4,0,0.8-0.4,0.8-0.8c0-0.4-0.4-0.7-0.8-0.8c-0.4,0-0.8,0.4-0.8,0.8
			C-272.3,409.6-271.9,409.9-271.5,409.9z M-271.5,416.3c0.4,0,0.8-0.4,0.8-0.8c0-0.4-0.4-0.7-0.8-0.8c-0.4,0-0.8,0.3-0.8,0.8
			C-272.2,416-271.9,416.3-271.5,416.3z M-270.3,419c0-0.4-0.4-0.8-0.8-0.8c-0.4,0-0.7,0.4-0.7,0.8c0,0.4,0.3,0.8,0.7,0.8
			C-270.6,419.8-270.3,419.4-270.3,419z M-264.2,423.6c-0.4,0-0.7,0.3-0.8,0.7c0,0.4,0.3,0.8,0.8,0.8c0.4,0,0.8-0.4,0.8-0.8
			C-263.5,423.9-263.8,423.6-264.2,423.6z M-267.2,424.2c0.4,0,0.7-0.3,0.8-0.7c0-0.4-0.3-0.8-0.8-0.8c-0.4,0-0.8,0.3-0.8,0.7
			C-267.9,423.8-267.6,424.2-267.2,424.2z"/>
		<path d="M-281.9,432.6c0-0.7,0-1.5,0-2.2c0-0.2,0.1-0.3,0.3-0.2c1,0.4,2.1,0.5,3.2,0.6c1.7,0.3,3.4,0.5,5.2,0.8
			c1.3,0.3,2.6,0.7,3.9,1c2.4,0.6,4.8,0.7,7.2,0.5c2.1-0.2,4.2-0.4,6.2-1.1c1.1-0.4,2.2-0.9,3.3-1.4c0.3-0.1,0.4-0.1,0.4,0.2
			c0.1,0.4,0.2,0.9,0.2,1.3c0.1,0.4,0,0.6-0.4,0.7c-0.2,0.1-0.4,0.2-0.6,0.3c-0.4,0.2-0.4,0.2-0.7-0.2c-0.1-0.2-0.2-0.4-0.4-0.3
			c-0.1,0-0.2,0-0.2,0c-0.1,0-0.2,0.1-0.4,0.1c-0.5,0.1-0.6,0.4-0.6,0.8c0,0.1,0,0.2,0,0.3c0,0.2-0.2,0.4-0.4,0.4
			c-0.3,0-0.6,0.1-0.9,0.2c-0.2,0-0.3,0-0.4-0.2c-0.4-0.7-0.4-0.6-1.2-0.5c-0.6,0.1-0.8,0.4-0.9,0.9c-0.1,0.3-0.2,0.5-0.6,0.5
			c-0.3,0-0.6,0.1-0.9,0.1c-0.3,0-0.5-0.1-0.4-0.4c0-0.7-0.1-0.7-0.8-0.7c-0.4,0-0.9,0-1.3,0c-0.3,0-0.4,0.1-0.4,0.4
			c-0.1,0.7-0.1,0.7-0.8,0.7c-0.3,0-0.6,0-0.9,0c-0.2,0-0.3-0.1-0.4-0.3c0-0.2-0.1-0.3-0.1-0.5c0-0.3-0.2-0.3-0.4-0.3
			c-0.1,0-0.1,0-0.2,0c-0.6,0-0.7,0-0.8,0.6c-0.1,0.2-0.3,0.2-0.4,0.2c-0.5,0-0.9-0.1-1.3-0.2c-0.2,0-0.4-0.2-0.4-0.4
			c0-0.9,0-0.8-0.7-0.9c-1.6-0.3-3.3-0.7-4.9-1c-0.3-0.1-0.4,0-0.4,0.3c0,0.7,0,1.5,0,2.2c0,0.3-0.1,0.5-0.4,0.5c-0.9,0-1.7,0-2.6,0
			c-0.3,0-0.4-0.1-0.4-0.4c0-0.3,0-0.5,0-0.8c0-0.2-0.1-0.4-0.4-0.5c-0.2,0-0.5,0-0.7,0c-0.1,0-0.1,0.2-0.1,0.3c0,0.3,0,0.6,0,0.9
			c0,0.2-0.1,0.3-0.3,0.3c-0.4,0-0.9,0-1.3,0c-0.2,0-0.3-0.2-0.4-0.4C-281.8,434.1-281.8,433.3-281.9,432.6
			C-281.9,432.6-281.9,432.6-281.9,432.6z"/>
	</g>
</g>
</svg>
