<?xml version="1.0" encoding="utf-8"?>
<!-- Generator: Adobe Illustrator 16.0.0, SVG Export Plug-In . SVG Version: 6.00 Build 0)  -->
<!DOCTYPE svg PUBLIC "-//W3C//DTD SVG 1.1//EN" "http://www.w3.org/Graphics/SVG/1.1/DTD/svg11.dtd">
<svg version="1.1" id="Layer_1" xmlns="http://www.w3.org/2000/svg" xmlns:xlink="http://www.w3.org/1999/xlink" x="0px" y="0px"
	 width="30px" height="30px" viewBox="0 0 30 30" enable-background="new 0 0 30 30" xml:space="preserve">
<g>
	<path d="M15,12c-2.485,0-4.5,2.016-4.5,4.5c0,2.485,2.015,4.5,4.5,4.5s4.5-2.015,4.5-4.5C19.5,14.016,17.485,12,15,12z M27,7.5
		h-3.6c-0.495,0-1.028-0.384-1.185-0.854l-0.931-2.793C21.128,3.384,20.596,3,20.101,3H9.9C9.405,3,8.872,3.384,8.716,3.854
		L7.785,6.646C7.628,7.116,7.096,7.5,6.601,7.5H3c-1.649,0-3,1.35-3,3V24c0,1.65,1.351,3,3,3h24c1.65,0,3-1.35,3-3V10.5
		C30,8.85,28.65,7.5,27,7.5z M15,24c-4.142,0-7.5-3.358-7.5-7.5S10.858,9,15,9s7.5,3.358,7.5,7.5S19.142,24,15,24z M25.95,12.598
		c-0.579,0-1.05-0.47-1.05-1.05c0-0.579,0.471-1.05,1.05-1.05c0.58,0,1.05,0.471,1.05,1.05C27,12.128,26.53,12.598,25.95,12.598z"/>
</g>
</svg>
