<?xml version="1.0" encoding="utf-8"?>
<!-- Generator: Adobe Illustrator 19.0.1, SVG Export Plug-In . SVG Version: 6.00 Build 0)  -->
<svg version="1.1" id="Layer_1" xmlns="http://www.w3.org/2000/svg" xmlns:xlink="http://www.w3.org/1999/xlink" x="0px" y="0px"
	 viewBox="-282 405.9 30 30" style="enable-background:new -282 405.9 30 30;" xml:space="preserve">
<path d="M-266.7,406.1c0-0.3-0.6-0.3-0.6,0c-1.4,11.1-8.4,13.4-8.4,21.1c0,4.8,4,8.6,8.7,8.6s8.7-3.9,8.7-8.6
	C-258.3,419.5-265.3,417.2-266.7,406.1z M-268,418.4c-0.1,0.3-0.2,0.7-0.3,1.1c-0.6,2.2-1.3,4.7-1.3,7.7c0,1.6-0.9,2.1-1.8,2.1
	c-1,0-1.8-0.8-1.8-1.8c0-3.4,1.7-5.7,3.1-7.7c0.5-0.6,0.9-1.2,1.2-1.8c0.2-0.3,0.6-0.3,0.8,0C-268,418.1-268,418.3-268,418.4z"/>
</svg>
