<?xml version="1.0" encoding="utf-8"?>
<!-- Generator: Adobe Illustrator 19.1.0, SVG Export Plug-In . SVG Version: 6.00 Build 0)  -->
<svg version="1.1" id="Layer_1" xmlns="http://www.w3.org/2000/svg" xmlns:xlink="http://www.w3.org/1999/xlink" x="0px" y="0px"
	 viewBox="-584 436 30 30" style="enable-background:new -584 436 30 30;" xml:space="preserve">
<path d="M-569.2,436c-8.3,0.1-14.9,6.9-14.8,15.2c0.1,8.3,6.9,14.9,15.2,14.8c8.3-0.1,14.9-6.9,14.8-15.2
	C-554.1,442.5-560.9,435.9-569.2,436z M-569.2,460.1L-569.2,460.1c-1.4,0-2.3-1-2.2-2.2c0-1.2,1-2.1,2.2-2.1l0.1,0
	c1.3,0,2.2,1,2.2,2.3C-567.1,459.3-568,460.1-569.2,460.1z M-563.9,449.5c-0.3,0.4-1,1-1.8,1.6l-0.9,0.6c-0.5,0.4-0.8,0.8-0.9,1.1
	c-0.1,0.3-0.1,0.4-0.1,0.9l0,0.1h-3.5l0-0.3c0-1.2,0.1-1.9,0.6-2.5c0.8-0.9,2.5-2.1,2.6-2.1c0.2-0.2,0.5-0.4,0.6-0.6
	c0.4-0.5,0.5-0.9,0.5-1.3c0-0.5-0.2-1-0.5-1.5c-0.3-0.4-0.9-0.6-1.7-0.6c-0.8,0-1.4,0.3-1.7,0.8c-0.4,0.6-0.5,1.1-0.5,1.7v0.1h-3.6
	l0-0.2c0.1-2.2,0.9-3.8,2.3-4.7c0.9-0.6,2.1-0.9,3.4-0.9c1.7,0,3.2,0.4,4.4,1.3c1.2,0.8,1.8,2.1,1.8,3.8
	C-563,447.8-563.3,448.7-563.9,449.5z"/>
</svg>
