<?xml version="1.0" encoding="utf-8"?>
<!-- Generator: Adobe Illustrator 19.0.1, SVG Export Plug-In . SVG Version: 6.00 Build 0)  -->
<svg version="1.1" id="Layer_1" xmlns="http://www.w3.org/2000/svg" xmlns:xlink="http://www.w3.org/1999/xlink" x="0px" y="0px"
	 viewBox="-282 405.9 30 30" style="enable-background:new -282 405.9 30 30;" xml:space="preserve">
<g>
	<path d="M-267,405.9c-8.3,0-15,6.7-15,15s6.7,15,15,15s15-6.7,15-15S-258.7,405.9-267,405.9z M-267,431.7c-6,0-10.8-4.8-10.8-10.8
		c0-6,4.8-10.8,10.8-10.8c6,0,10.8,4.8,10.8,10.8C-256.2,426.9-261,431.7-267,431.7z"/>
	<path d="M-269.6,420.8c0,1.4,1.2,2.6,2.6,2.6c1.4,0,2.6-1.2,2.6-2.6c0-1.5-1.2-2.7-2.6-2.7C-268.4,418.2-269.6,419.4-269.6,420.8z"
		/>
	<path d="M-265.4,412.1c0,1.8,0.3,3.5,1.1,5.1c0,0.1,0.2,0.2,0.3,0.2c1.7,0.1,3.3-0.1,4.9-0.6C-259.8,414.7-263.4,412-265.4,412.1z"
		/>
	<path d="M-269,415.4c0.3-1.1,0.4-2.2,0.6-3.4c-3,0.6-5.1,2.1-6.5,4.8c1.2,0.2,2.3,0.4,3.5,0.4C-269.2,417.3-269.6,417.6-269,415.4z
		"/>
	<path d="M-258.1,419.8c-0.5,0.2-1,0.4-1.4,0.6c-0.6,0.3-1.2,0.6-1.7,1c-1.9,1.4-1.7,0.8-0.9,3c0.3,1,0.9,1.9,1.4,2.9
		C-258.7,425.1-257.9,422.7-258.1,419.8z"/>
	<path d="M-271.6,422c-1.2-1.1-2.7-1.8-4.3-2.4c-0.3,2.9,0.5,5.3,2.4,7.4c1-1.5,1.7-3,2-4.6C-271.4,422.3-271.5,422.1-271.6,422z"/>
	<path d="M-267,425.6c-0.1-0.1-0.4,0-0.5,0.1c-1.3,0.8-2.3,1.8-3.2,2.9c-0.1,0.1-0.1,0.2-0.2,0.3c2.5,1.2,5.1,1.2,7.7,0.1
		C-264.4,427.6-265.5,426.5-267,425.6z"/>
</g>
</svg>
