<?xml version="1.0" encoding="utf-8"?>
<!-- Generator: Adobe Illustrator 16.0.0, SVG Export Plug-In . SVG Version: 6.00 Build 0)  -->
<!DOCTYPE svg PUBLIC "-//W3C//DTD SVG 1.1//EN" "http://www.w3.org/Graphics/SVG/1.1/DTD/svg11.dtd">
<svg version="1.1" id="Layer_1" xmlns="http://www.w3.org/2000/svg" xmlns:xlink="http://www.w3.org/1999/xlink" x="0px" y="0px"
	 width="30px" height="30px" viewBox="0 0 30 30" enable-background="new 0 0 30 30" xml:space="preserve">
<path d="M26.771,6.927c-0.77-4.558-4.929-7.603-9.291-6.798c-4.361,0.803-8.042,4.311-7.272,8.868
	c0.166,0.982,0.625,2.519,1.168,3.621L3.455,24.439c-0.292,0.437-0.458,1.222-0.37,1.746l0.509,3.016
	c0.089,0.523,0.571,0.876,1.072,0.784l2.32-0.428c0.502-0.093,1.138-0.534,1.414-0.98l3.133-5.066l0.027-0.033l2.12-0.391
	l3.657-5.937c1.203,0.212,2.927,0.141,3.946-0.047C25.646,16.3,27.541,11.485,26.771,6.927z M22.908,9.264
	c-1.201,1.79-2.424,0.528-4.139-0.726c-1.713-1.254-3.267-2.025-2.067-3.815c1.2-1.791,3.562-2.227,5.274-0.973
	C23.69,5.004,24.107,7.473,22.908,9.264z"/>
</svg>
