<?xml version="1.0" encoding="utf-8"?>
<!-- Generator: Adobe Illustrator 16.0.0, SVG Export Plug-In . SVG Version: 6.00 Build 0)  -->
<!DOCTYPE svg PUBLIC "-//W3C//DTD SVG 1.1//EN" "http://www.w3.org/Graphics/SVG/1.1/DTD/svg11.dtd">
<svg version="1.1" id="Layer_1" xmlns="http://www.w3.org/2000/svg" xmlns:xlink="http://www.w3.org/1999/xlink" x="0px" y="0px"
	 width="30px" height="30px" viewBox="0 0 30 30" enable-background="new 0 0 30 30" xml:space="preserve">
<g>
	<path d="M29.088,25.209l-7.057-7.057c1.065-1.747,1.678-3.8,1.678-5.996c0-6.379-5.528-11.907-11.909-11.907
		C5.421,0.249,0.25,5.421,0.25,11.801c0,6.379,5.528,11.907,11.907,11.907c2.122,0,4.107-0.575,5.816-1.571l7.094,7.094
		c0.694,0.694,1.82,0.694,2.514,0l1.76-1.76C30.034,26.776,29.782,25.903,29.088,25.209z M3.804,11.801
		c0-4.417,3.58-7.998,7.996-7.998c4.418,0,8.354,3.936,8.354,8.353s-3.581,7.998-7.998,7.998C7.74,20.154,3.804,16.218,3.804,11.801
		z"/>
</g>
</svg>
