<?xml version="1.0" encoding="utf-8"?>
<!-- Generator: Adobe Illustrator 19.0.1, SVG Export Plug-In . SVG Version: 6.00 Build 0)  -->
<svg version="1.1" id="Layer_1" xmlns="http://www.w3.org/2000/svg" xmlns:xlink="http://www.w3.org/1999/xlink" x="0px" y="0px"
	 viewBox="-290 382 30 30" style="enable-background:new -290 382 30 30;" xml:space="preserve">
<g>
	<path d="M-268.2,385.3c0.2,0.2,0.5,0.4,1,0.3c1-0.1,2.7-1.5,2.4-1.9s-3.2,0-3.2,0s-0.4,0.2-0.4,0.8c0,0.1,0,0.3,0,0.4l-1.9,1.5
		h-1.1l1.1-1.2l-0.9-0.9c0,0-1.7-1.8-3.9-1.8s-3.9,1.8-3.9,1.8l-0.9,0.9l1.1,1.2h-1.1l-1.9-1.5c0-0.1,0-0.3,0-0.4
		c0-0.6-0.4-0.8-0.4-0.8s-3-0.5-3.2,0s1.5,1.8,2.4,1.9c0.5,0.1,0.8-0.1,1-0.3l2.1,1.4v0.5h-0.6l-0.5,1.2c-1.9,0.3-2.7,1.7-2.7,1.7
		c0.8-0.6,1.8-0.9,2.5-1.1l-0.3,0.8l0.6,4.6c-0.1,0.2-0.1,0.5-0.1,0.8h-0.5c-0.2-0.2-0.5-0.4-0.9-0.4c-0.6,0-1,0.3-1,0.7
		s0.5,0.7,1,0.7s1-0.3,1-0.7h0.3c-0.2,2.3,0.2,4.8,0.2,4.8c1.7,1.5,2.5,2.9,2.7,3.2v0.4c0,0.4,0.4,0.8,0.8,0.8h0.6v5.7
		c0,0.8,0.7,1.5,1.5,1.5h0.5c0.8,0,1.5-0.7,1.5-1.5v-5.7h0.6c0.4,0,0.8-0.4,0.8-0.8v-0.4c0.2-0.3,1-1.8,2.7-3.2c0,0,0.4-2.5,0.2-4.8
		h0.2c0,0.4,0.5,0.7,1,0.7s1-0.3,1-0.7s-0.5-0.7-1-0.7c-0.4,0-0.8,0.1-0.9,0.4h-0.3c0-0.3-0.1-0.5-0.1-0.8l0.6-4.6l-0.3-0.8
		c0.7,0.2,1.6,0.5,2.4,1.1c0,0-0.9-1.4-2.7-1.7l-0.5-1.2h-0.6v-0.5L-268.2,385.3z M-276,393.3c-0.2,0-3.7-1.1-4-1.3
		c-0.3-0.2-0.9-1.8-0.9-2.3c0,0,3.8,1.1,4.1,1.5C-276.5,391.4-275.8,393.2-276,393.3z M-269.1,389.6c0.1,0.6-0.5,2.1-0.9,2.3
		c-0.3,0.2-3.7,1.4-4,1.3c-0.2,0,0.4-1.9,0.7-2.2C-272.9,390.7-269.1,389.6-269.1,389.6z"/>
</g>
</svg>
