<?xml version="1.0" encoding="utf-8"?>
<!-- Generator: Adobe Illustrator 19.0.1, SVG Export Plug-In . SVG Version: 6.00 Build 0)  -->
<svg version="1.1" id="Layer_1" xmlns="http://www.w3.org/2000/svg" xmlns:xlink="http://www.w3.org/1999/xlink" x="0px" y="0px"
	 viewBox="-290 382 30 30" style="enable-background:new -290 382 30 30;" xml:space="preserve">
<g>
	<path d="M-268.1,385.1c0.2,0.2,0.5,0.4,1,0.3c1-0.1,2.7-1.5,2.4-1.9s-3.2,0-3.2,0s-0.4,0.2-0.4,0.8c0,0.1,0,0.3,0,0.4l-1.9,1.5
		h-1.1l1.1-1.2l-0.9-0.9c0,0-1.7-1.8-3.9-1.8s-3.9,1.8-3.9,1.8l-0.9,0.9l1.1,1.2h-1.1l-1.9-1.5c0-0.1,0-0.3,0-0.4
		c0-0.6-0.4-0.8-0.4-0.8s-3-0.5-3.2,0s1.5,1.8,2.4,1.9c0.5,0.1,0.8-0.1,1-0.3l2.1,1.4v0.5h-0.6l-0.5,1.2c-1.9,0.3-2.7,1.7-2.7,1.7
		c0.8-0.6,1.8-0.9,2.5-1.1l-0.3,0.8l0.6,4.6c-0.1,0.2-0.1,0.5-0.1,0.8h-0.5c-0.2-0.2-0.5-0.4-0.9-0.4c-0.6,0-1,0.3-1,0.7
		s0.5,0.7,1,0.7s1-0.3,1-0.7h0.3c-0.2,2.3,0.2,4.8,0.2,4.8c1.7,1.5,2.5,2.9,2.7,3.2v0.4c0,0.4,0.4,0.8,0.8,0.8h0.6v5.7
		c0,0.8,0.7,1.5,1.5,1.5h0.5c0.8,0,1.5-0.7,1.5-1.5v-5.7h0.6c0.4,0,0.8-0.4,0.8-0.8v-0.4c0.2-0.3,1-1.8,2.7-3.2c0,0,0.4-2.5,0.2-4.8
		h0.2c0,0.4,0.5,0.7,1,0.7s1-0.3,1-0.7s-0.5-0.7-1-0.7c-0.4,0-0.8,0.1-0.9,0.4h-0.3c0-0.3-0.1-0.5-0.1-0.8l0.6-4.6l-0.3-0.8
		c0.7,0.2,1.6,0.5,2.4,1.1c0,0-0.9-1.4-2.7-1.7l-0.5-1.2h-0.6v-0.5L-268.1,385.1z M-272.9,404.5h-0.1v-6.1c0-0.7-0.7-1.3-1.5-1.3
		h-0.6c-0.9,0-1.5,0.6-1.5,1.3v6.1h-0.1v-6.1c0-0.8,0.7-1.5,1.7-1.5h0.6c0.9,0,1.7,0.7,1.7,1.5V404.5z M-271.7,392.9
		c0,0.2-0.2,0.4-0.4,0.4h-5.6c-0.2,0-0.4-0.2-0.4-0.4v-1.8c0-0.2,0.2-0.4,0.4-0.4h5.6c0.2,0,0.4,0.2,0.4,0.4V392.9z"/>
	<path d="M-277.4,391.9l0.3-0.5h-0.2l-0.2,0.4l-0.2-0.4h-0.2l0.4,0.5c-0.1,0.1-0.1,0.2-0.2,0.3c-0.1,0.1-0.1,0.2-0.2,0.3h0.2
		c0,0,0-0.1,0-0.1c0,0,0-0.1,0.1-0.1c0,0,0-0.1,0.1-0.1c0,0,0-0.1,0.1-0.1c0,0.1,0.1,0.1,0.1,0.2c0,0.1,0.1,0.1,0.1,0.2h0.2
		c0-0.1-0.1-0.2-0.2-0.3C-277.2,392.1-277.3,392-277.4,391.9z"/>
	<path d="M-276.4,391.9l0.3-0.5h-0.2l-0.2,0.4l-0.2-0.4h-0.2l0.4,0.5c-0.1,0.1-0.1,0.2-0.2,0.3c-0.1,0.1-0.1,0.2-0.2,0.3h0.2
		c0,0,0-0.1,0-0.1c0,0,0-0.1,0.1-0.1c0,0,0-0.1,0.1-0.1c0,0,0-0.1,0.1-0.1c0,0.1,0.1,0.1,0.1,0.2c0,0.1,0.1,0.1,0.1,0.2h0.2
		c0-0.1-0.1-0.2-0.2-0.3C-276.2,392.1-276.3,392-276.4,391.9z"/>
	<path d="M-275.3,391.9l0.3-0.5h-0.2l-0.2,0.4l-0.2-0.4h-0.2l0.4,0.5c-0.1,0.1-0.1,0.2-0.2,0.3c-0.1,0.1-0.1,0.2-0.2,0.3h0.2
		c0,0,0-0.1,0-0.1c0,0,0-0.1,0.1-0.1c0,0,0-0.1,0.1-0.1c0,0,0-0.1,0.1-0.1c0,0.1,0.1,0.1,0.1,0.2c0,0.1,0.1,0.1,0.1,0.2h0.2
		c0-0.1-0.1-0.2-0.2-0.3C-275.2,392.1-275.2,392-275.3,391.9z"/>
	<rect x="-274.9" y="391.9" width="0.4" height="0.2"/>
	<path d="M-274,391.3c-0.1,0-0.1,0-0.2,0c0,0-0.1,0.1-0.1,0.1c0,0-0.1,0.1-0.1,0.2c0,0.1,0,0.1,0,0.2c0,0.2,0,0.3,0.1,0.4
		c0.1,0.1,0.2,0.1,0.3,0.1c0.1,0,0.2,0,0.3-0.1c0.1-0.1,0.1-0.2,0.1-0.4c0-0.2,0-0.3-0.1-0.4C-273.8,391.4-273.9,391.3-274,391.3z
		 M-273.9,392.1c0,0,0,0.1,0,0.1c0,0,0,0.1-0.1,0.1c0,0-0.1,0-0.1,0s-0.1,0-0.1,0c0,0,0,0-0.1-0.1c0,0,0-0.1,0-0.1c0,0,0-0.1,0-0.2
		c0-0.1,0-0.1,0-0.2c0,0,0-0.1,0-0.1c0,0,0-0.1,0.1-0.1c0,0,0.1,0,0.1,0s0.1,0,0.1,0c0,0,0,0,0.1,0.1c0,0,0,0.1,0,0.1
		c0,0,0,0.1,0,0.2C-273.9,392-273.9,392-273.9,392.1z"/>
	<path d="M-273.2,391.3c-0.1,0-0.1,0-0.2,0c0,0-0.1,0.1-0.1,0.1c0,0-0.1,0.1-0.1,0.2c0,0.1,0,0.1,0,0.2c0,0.2,0,0.3,0.1,0.4
		c0.1,0.1,0.2,0.1,0.3,0.1c0.1,0,0.2,0,0.3-0.1c0.1-0.1,0.1-0.2,0.1-0.4c0-0.2,0-0.3-0.1-0.4C-273,391.4-273,391.3-273.2,391.3z
		 M-273,392.1c0,0,0,0.1,0,0.1c0,0,0,0.1-0.1,0.1c0,0-0.1,0-0.1,0s-0.1,0-0.1,0c0,0,0,0-0.1-0.1c0,0,0-0.1,0-0.1c0,0,0-0.1,0-0.2
		c0-0.1,0-0.1,0-0.2c0,0,0-0.1,0-0.1c0,0,0-0.1,0.1-0.1c0,0,0.1,0,0.1,0s0.1,0,0.1,0c0,0,0,0,0.1,0.1c0,0,0,0.1,0,0.1
		c0,0,0,0.1,0,0.2C-273,392-273,392-273,392.1z"/>
	<path d="M-272,391.4l-0.2,0.4l-0.2-0.4h-0.2l0.4,0.5c-0.1,0.1-0.1,0.2-0.2,0.3c-0.1,0.1-0.1,0.2-0.2,0.3h0.2c0,0,0-0.1,0-0.1
		c0,0,0-0.1,0.1-0.1c0,0,0-0.1,0.1-0.1c0,0,0-0.1,0.1-0.1c0,0.1,0.1,0.1,0.1,0.2c0,0.1,0.1,0.1,0.1,0.2h0.2c0-0.1-0.1-0.2-0.2-0.3
		c-0.1-0.1-0.1-0.2-0.2-0.3l0.3-0.5H-272z"/>
</g>
</svg>
