<?xml version="1.0" encoding="utf-8"?>
<!-- Generator: Adobe Illustrator 19.1.0, SVG Export Plug-In . SVG Version: 6.00 Build 0)  -->
<svg version="1.1" id="Layer_1" xmlns="http://www.w3.org/2000/svg" xmlns:xlink="http://www.w3.org/1999/xlink" x="0px" y="0px"
	 viewBox="-304 226 30 30" style="enable-background:new -304 226 30 30;" xml:space="preserve">
<g>
	<path d="M-303,233.1c0.8,0.4,12.1,6.5,12.5,6.7c0.4,0.2,1,0.3,1.5,0.3s1.1-0.1,1.5-0.3c0.4-0.2,11.7-6.3,12.5-6.7
		c0.8-0.4,1.6-1.8,0.1-1.8h-28.2C-304.6,231.3-303.8,232.7-303,233.1z M-274.6,236.5c-0.9,0.5-12.3,6.4-12.8,6.7
		c-0.6,0.3-1,0.3-1.5,0.3s-0.9,0-1.5-0.3c-0.6-0.3-11.9-6.2-12.8-6.7c-0.7-0.3-0.6,0.1-0.6,0.4s0,12.2,0,12.2c0,0.7,0.9,1.6,1.7,1.6
		h26.7c0.7,0,1.7-0.9,1.7-1.6c0,0,0-11.9,0-12.2S-274,236.1-274.6,236.5z"/>
</g>
</svg>
