<?xml version="1.0" encoding="utf-8"?>
<!-- Generator: Adobe Illustrator 19.1.0, SVG Export Plug-In . SVG Version: 6.00 Build 0)  -->
<svg version="1.1" id="Layer_1" xmlns="http://www.w3.org/2000/svg" xmlns:xlink="http://www.w3.org/1999/xlink" x="0px" y="0px"
	 viewBox="-304 226 30 30" style="enable-background:new -304 226 30 30;" xml:space="preserve">
<g id="o6B1Hm.tif">
	<g>
		<path d="M-289.4,232.4c0.3,0.1,0.6,0.2,0.9,0.3c1.1,0.4,2.3,0.7,3.4,1.1c0.4,0.1,0.7,0.1,1.1,0c0.7-0.3,1.3-0.5,2-0.8
			c0.3-0.1,0.6-0.2,0.9-0.1c0.9,0.2,1.6,0.7,2.3,1.3c1.1,1.2,1.8,2.6,2.2,4.2c0,0.1,0,0.3,0,0.4c-0.7,1.1-1.5,2.2-2.3,3.3
			c-0.2,0.3-0.5,0.5-0.8,0.7c-0.5,0.3-1,0.4-1.5,0c-1.1-0.8-2.3-1.6-3.3-2.4c-1.5-1.2-2.9-2.5-4.4-3.7c-0.5-0.4-0.9-0.5-1.5-0.3
			c-0.6,0.2-1.2,0.4-1.8,0.5c-1.1,0.2-2-0.2-2.8-0.9c-0.5-0.5-0.4-0.9,0.1-1.2c1.3-0.8,2.7-1.3,4.1-1.8
			C-290.4,232.7-289.9,232.6-289.4,232.4z"/>
		<path d="M-284.2,248.6c-0.7,1.4-1.5,1.7-2.9,1c-0.2,0.3-0.4,0.6-0.7,0.8c-0.7,0.6-1.5,0.7-2.3,0.2c-0.3-0.1-0.5-0.3-0.8-0.5
			c-0.2-0.2-0.3-0.4-0.1-0.7c0.2-0.2,0.4-0.2,0.7-0.1c0.3,0.2,0.5,0.4,0.8,0.5c0.5,0.2,1,0,1.3-0.5c0.2-0.3,0.1-0.6-0.2-0.8
			c-0.9-1-1.9-1.9-2.8-2.9c-0.1-0.1-0.1-0.1-0.2-0.2c-0.3-0.3-0.3-0.5-0.1-0.8c0.2-0.2,0.5-0.2,0.8,0.1c0.7,0.7,1.4,1.4,2.1,2.1
			c0.6,0.6,1.3,1.2,1.9,1.8c0.5,0.5,1.2,0.3,1.4-0.4c0.1-0.3,0-0.5-0.2-0.6c-1.5-1.4-3-2.8-4.6-4.3c0,0-0.1-0.1-0.1-0.1
			c-0.3-0.3-0.3-0.5-0.1-0.8c0.2-0.2,0.5-0.2,0.8,0c0.9,0.8,1.8,1.7,2.8,2.5c0.9,0.8,1.7,1.6,2.6,2.3c0.5,0.5,1.1,0.4,1.4-0.2
			c0.1-0.1,0.1-0.3,0.2-0.4c0.1-0.3,0.1-0.5-0.2-0.8c-2-1.7-4-3.4-6-5.1c-0.1-0.1-0.2-0.2-0.2-0.2c-0.1-0.2-0.1-0.5,0.1-0.6
			c0.2-0.2,0.5-0.2,0.7,0c0.5,0.4,1,0.9,1.5,1.3c1.6,1.3,3.2,2.7,4.7,4c0.3,0.3,0.8,0.3,1.1,0c0.3-0.2,0.3-0.6,0.1-1
			c-0.2-0.3-0.1-0.6,0.1-0.7c0.2-0.2,0.5-0.1,0.7,0.2c0.8,1,0.1,2.6-1.2,2.7c-0.3,0-0.4,0.1-0.5,0.4c-0.2,0.8-0.6,1.5-1.5,1.6
			C-283.4,248.6-283.8,248.6-284.2,248.6z"/>
		<path d="M-296.2,244.3c0.5-0.6,1-0.8,1.6-0.5c0.5,0.2,0.6,0.7,0.5,1.4c1.4,0.2,1.7,0.7,1.3,1.8c0.2,0,0.4,0,0.6,0.1
			c0.7,0.2,1.1,1,0.7,1.6c-0.2,0.3-0.4,0.6-0.6,0.8c-0.4,0.4-1,0.5-1.5,0.2c-0.2-0.1-0.4-0.3-0.6-0.5c-0.3-0.2-0.5-0.4-0.9-0.5
			c-0.3,0-0.5-0.3-0.7-0.5c-0.3-0.3-0.6-0.6-1.1-0.7c-0.3-0.1-0.6-0.4-0.8-0.6c-0.3-0.4-0.6-0.7-1.1-0.9c-0.8-0.2-1-1.2-0.4-1.8
			c0.4-0.4,0.8-0.7,1.2-1c0.6-0.5,1.5-0.2,1.7,0.5C-296.3,244-296.3,244.1-296.2,244.3z"/>
		<path d="M-298.6,242.5c-0.3,0.3-0.6,0.6-1,1c-0.4-0.3-0.9-0.5-1.2-0.9c-0.8-0.7-1.6-1.5-2.4-2.3c-0.6-0.6-0.7-1.4-0.5-2.1
			c0.3-1.4,1-2.6,2-3.7c0.6-0.7,1.3-1.3,2.1-1.8c0.4-0.2,0.8-0.4,1.2-0.3c1.1,0.2,2.1,0.7,3.2,1.1c-0.4,0.3-0.8,0.6-1.2,0.9
			c-0.1,0-0.2,0-0.3,0c-0.5-0.2-1-0.3-1.5-0.5c-0.3-0.1-0.6-0.1-0.9,0.1c-0.9,0.6-1.6,1.4-2.2,2.2c-0.5,0.6-0.8,1.3-1,2.1
			c-0.1,0.5-0.1,0.9,0.3,1.3c1,1,2,1.9,3.2,2.7C-298.8,242.4-298.7,242.4-298.6,242.5z"/>
		<path d="M-275.7,237.8c-0.5-3-2-5-4.9-6c0.6-0.3,1.1-0.7,1.6-1c0.1,0,0.2,0,0.3,0.1c2.3,0.9,3.8,2.5,4.4,4.9c0.1,0.4,0,0.7-0.3,1
			C-275,237.1-275.3,237.5-275.7,237.8z"/>
	</g>
</g>
</svg>
