<?xml version="1.0" encoding="utf-8"?>
<!-- Generator: Adobe Illustrator 16.0.0, SVG Export Plug-In . SVG Version: 6.00 Build 0)  -->
<!DOCTYPE svg PUBLIC "-//W3C//DTD SVG 1.1//EN" "http://www.w3.org/Graphics/SVG/1.1/DTD/svg11.dtd">
<svg version="1.1" id="Layer_1" xmlns="http://www.w3.org/2000/svg" xmlns:xlink="http://www.w3.org/1999/xlink" x="0px" y="0px"
	 width="30px" height="30px" viewBox="0 0 30 30" enable-background="new 0 0 30 30" xml:space="preserve">
<g>
	<path d="M30,5.441c0,0.991-0.804,1.795-1.795,1.795H1.796C0.804,7.236,0,6.433,0,5.441l0,0c0-0.993,0.804-1.797,1.796-1.797h26.409
		C29.196,3.645,30,4.448,30,5.441L30,5.441z"/>
	<path d="M30,23.559c0,0.992-0.804,1.797-1.795,1.797H1.796C0.804,25.355,0,24.551,0,23.559l0,0c0-0.991,0.804-1.795,1.796-1.795
		h26.409C29.196,21.764,30,22.567,30,23.559L30,23.559z"/>
	<path d="M30,14.5c0,0.991-0.804,1.796-1.795,1.796H1.796C0.804,16.296,0,15.491,0,14.5l0,0c0-0.991,0.804-1.796,1.796-1.796h26.409
		C29.196,12.704,30,13.509,30,14.5L30,14.5z"/>
</g>
</svg>
