<?xml version="1.0" encoding="utf-8"?>
<!-- Generator: Adobe Illustrator 19.0.1, SVG Export Plug-In . SVG Version: 6.00 Build 0)  -->
<svg version="1.1" id="Layer_1" xmlns="http://www.w3.org/2000/svg" xmlns:xlink="http://www.w3.org/1999/xlink" x="0px" y="0px"
	 viewBox="-282 405.9 30 30" style="enable-background:new -282 405.9 30 30;" xml:space="preserve">
<g>
	<g>
		<path d="M-543.9,834.7c0-0.4,0.3-0.8,0.8-0.8h6.2c3-6.1,3.4-10.8,1.5-14.1c-2.7-4.6-10.7-4.4-10.7-4.4c-7.2,0-11.7,5-11.7,5
			c-2.3,2.5-4.7,7.1-5.7,10.2c0,0-0.2,0.5-0.2,0.7c0,0.1-0.1,0.3-0.1,0.4v3.8c0,0.4,0.2,0.8,0.4,1.1c0.3,0.3,0.7,0.4,1.1,0.4l0,0
			h22.8c0.5,0,1.1-0.3,1.3-0.8c0.2-0.3,0.3-0.6,0.5-0.8h-5.4C-543.5,835.5-543.9,835.2-543.9,834.7z M-548.9,826
			c-1,0.6-3.2,1.2-5.2,1.7c-0.9,0.2-1.8,0.5-2.5,0.7c-1.2,0.4-2.6,0.7-4,1c1.4-3.3,3.4-6.4,5.2-8c0,0,7.6,0,8.3,0
			c0.7,0,1.1,0.3,1.1,0.8C-546,823.6-547,824.8-548.9,826z"/>
		<path d="M-547.8,822c-0.4,0-0.8,0.3-0.8,0.8c0,0.4,0.3,0.8,0.8,0.8c0.4,0,0.8-0.3,0.8-0.8S-547.4,822-547.8,822z"/>
	</g>
</g>
<g>
	<path d="M-273.2,424.2v-9.1h-5.6c-1.6,0-3,1.3-3,2.9v8.9c0,1.6,1.3,3,3,3h1.5v4.4l4.4-4.4h7.4c1.6,0,2.9-1.3,2.9-3v-2.7
		c-0.1,0-0.2,0-0.3,0H-273.2z M-255.2,407.7h-13.3c-1.6,0-2.9,1.3-2.9,2.9v11.8h10.3l4.4,4.4v-4.4h1.5c1.6,0,2.9-1.3,2.9-3v-8.9
		C-252.2,409-253.6,407.7-255.2,407.7z"/>
</g>
</svg>
