<?xml version="1.0" encoding="utf-8"?>
<!-- Generator: Adobe Illustrator 19.0.1, SVG Export Plug-In . SVG Version: 6.00 Build 0)  -->
<svg version="1.1" id="Layer_1" xmlns="http://www.w3.org/2000/svg" xmlns:xlink="http://www.w3.org/1999/xlink" x="0px" y="0px"
	 viewBox="-282 405.9 30 30" style="enable-background:new -282 405.9 30 30;" xml:space="preserve">
<g id="YNE1xo.tif">
	<g>
		<path d="M-252,434.2c0,0.5,0,1.1,0,1.6c-10,0-20,0-30,0c0-0.5,0-1,0-1.4c0-1.7,0.6-3,2.2-3.8c0.4-0.2,0.8-0.4,1.3-0.5
			c0.7-0.2,1.4-0.4,2.1-0.6c1.5-0.5,3-1.1,4.2-2.1c0.5-0.4,1-0.9,1.2-1.6c0.2-0.5,0.1-1.1-0.1-1.6c-1.5,1.9-4.3,1.8-5.5,0.9
			c0,0,0,0,0,0c0.1,0,0.2-0.1,0.3-0.1c0.9-0.3,1.5-1,1.7-2c0.1-0.7,0.1-1.5,0-2.2c-0.2-1.8-0.5-3.6-0.6-5.3c-0.1-1.4,0-2.7,0.5-4
			c0.9-2.8,4-5.5,7.9-5.5c3.6,0.1,7,2.6,7.8,6.2c0.4,1.8,0.3,3.7,0,5.5c-0.2,1.5-0.4,3-0.5,4.5c-0.1,1.6,0.7,2.5,2,2.9
			c0,0,0.1,0,0.1,0c-1.4,1.1-4,0.7-5.5-0.9c-0.3,0.7-0.3,1.4,0.1,2.1c0.4,0.5,0.8,1,1.3,1.4c1.3,1,2.8,1.5,4.3,2
			c0.8,0.2,1.6,0.4,2.3,0.7c1.6,0.6,2.5,1.6,2.8,3.3C-252.1,433.8-252,434-252,434.2z"/>
	</g>
</g>
</svg>
