<?xml version="1.0" encoding="utf-8"?>
<!-- Generator: Adobe Illustrator 19.0.1, SVG Export Plug-In . SVG Version: 6.00 Build 0)  -->
<svg version="1.1" id="Layer_1" xmlns="http://www.w3.org/2000/svg" xmlns:xlink="http://www.w3.org/1999/xlink" x="0px" y="0px"
	 viewBox="-290 382 30 30" style="enable-background:new -290 382 30 30;" xml:space="preserve">
<g>
	<path d="M-271.1,397.1c-0.1-0.1-0.1-0.3-0.2-0.3c-0.1-0.1-0.2-0.1-0.3-0.1c-0.1,0-0.3,0-0.3,0.1c-0.1,0.1-0.2,0.2-0.2,0.3
		c-0.1,0.1-0.1,0.3-0.1,0.5c0,0.2,0,0.4,0,0.6c0,0.2,0,0.4,0,0.6c0,0.2,0.1,0.4,0.1,0.5c0.1,0.1,0.1,0.3,0.2,0.3
		c0.1,0.1,0.2,0.1,0.3,0.1c0.1,0,0.3,0,0.3-0.1c0.1-0.1,0.2-0.2,0.2-0.3c0.1-0.1,0.1-0.3,0.1-0.5c0-0.2,0-0.4,0-0.6
		c0-0.2,0-0.4,0-0.6C-271,397.4-271,397.2-271.1,397.1z"/>
	<path d="M-267.5,397.1c-0.1-0.1-0.1-0.3-0.2-0.3c-0.1-0.1-0.2-0.1-0.3-0.1c-0.1,0-0.3,0-0.3,0.1c-0.1,0.1-0.2,0.2-0.2,0.3
		c-0.1,0.1-0.1,0.3-0.1,0.5c0,0.2,0,0.4,0,0.6c0,0.2,0,0.4,0,0.6c0,0.2,0.1,0.4,0.1,0.5c0.1,0.1,0.1,0.3,0.2,0.3
		c0.1,0.1,0.2,0.1,0.3,0.1c0.1,0,0.3,0,0.3-0.1c0.1-0.1,0.2-0.2,0.2-0.3c0.1-0.1,0.1-0.3,0.1-0.5c0-0.2,0-0.4,0-0.6
		c0-0.2,0-0.4,0-0.6C-267.4,397.4-267.5,397.2-267.5,397.1z"/>
	<path d="M-262.9,391.7h-24.2c-1.3,0-2.4,1.1-2.4,2.4v8.2c0,1.3,1.1,2.4,2.4,2.4h24.2c1.3,0,2.4-1.1,2.4-2.4v-8.2
		C-260.5,392.8-261.6,391.7-262.9,391.7z M-284.7,400.4c-0.1-0.2-0.3-0.5-0.5-0.8c-0.2-0.3-0.4-0.5-0.6-0.8
		c-0.1,0.1-0.2,0.2-0.3,0.4c-0.1,0.1-0.2,0.3-0.3,0.4c-0.1,0.1-0.2,0.3-0.3,0.4c-0.1,0.1-0.1,0.2-0.2,0.3h-0.9
		c0.2-0.3,0.4-0.7,0.7-1.1c0.3-0.4,0.5-0.7,0.8-1.1l-1.4-2.1h0.9l0.9,1.4l1-1.4h0.9l-1.4,2.1c0.3,0.4,0.6,0.8,0.9,1.2
		c0.2,0.4,0.5,0.7,0.6,1H-284.7z M-280.5,400.4c-0.1-0.2-0.3-0.5-0.5-0.8c-0.2-0.3-0.4-0.5-0.6-0.8c-0.1,0.1-0.2,0.2-0.3,0.4
		c-0.1,0.1-0.2,0.3-0.3,0.4c-0.1,0.1-0.2,0.3-0.3,0.4c-0.1,0.1-0.1,0.2-0.2,0.3h-0.9c0.2-0.3,0.4-0.7,0.7-1.1
		c0.3-0.4,0.5-0.7,0.8-1.1l-1.4-2.1h0.9l0.9,1.4l1-1.4h0.9l-1.4,2.1c0.3,0.4,0.6,0.8,0.9,1.2c0.2,0.4,0.5,0.7,0.6,1H-280.5z
		 M-276.3,400.4c-0.1-0.2-0.3-0.5-0.5-0.8c-0.2-0.3-0.4-0.5-0.6-0.8c-0.1,0.1-0.2,0.2-0.3,0.4c-0.1,0.1-0.2,0.3-0.3,0.4
		c-0.1,0.1-0.2,0.3-0.3,0.4c-0.1,0.1-0.1,0.2-0.2,0.3h-0.9c0.2-0.3,0.4-0.7,0.7-1.1c0.3-0.4,0.5-0.7,0.8-1.1l-1.4-2.1h0.9l0.9,1.4
		l1-1.4h0.9l-1.4,2.1c0.3,0.4,0.6,0.8,0.9,1.2c0.2,0.4,0.5,0.7,0.6,1H-276.3z M-273.6,398.9h-1.7v-0.7h1.7V398.9z M-270.6,399.9
		c-0.3,0.4-0.6,0.6-1.1,0.6c-0.5,0-0.8-0.2-1.1-0.6c-0.3-0.4-0.4-0.9-0.4-1.7c0-0.4,0-0.7,0.1-1c0.1-0.3,0.2-0.5,0.3-0.7
		c0.1-0.2,0.3-0.3,0.5-0.4c0.2-0.1,0.4-0.2,0.6-0.2c0.5,0,0.8,0.2,1.1,0.6c0.3,0.4,0.4,0.9,0.4,1.7
		C-270.2,398.9-270.3,399.5-270.6,399.9z M-267,399.9c-0.3,0.4-0.6,0.6-1.1,0.6c-0.5,0-0.8-0.2-1.1-0.6c-0.3-0.4-0.4-0.9-0.4-1.7
		c0-0.4,0-0.7,0.1-1c0.1-0.3,0.2-0.5,0.3-0.7c0.1-0.2,0.3-0.3,0.5-0.4c0.2-0.1,0.4-0.2,0.6-0.2c0.5,0,0.8,0.2,1.1,0.6
		c0.3,0.4,0.4,0.9,0.4,1.7C-266.6,398.9-266.7,399.5-267,399.9z M-263.2,400.4c-0.1-0.2-0.3-0.5-0.5-0.8c-0.2-0.3-0.4-0.5-0.6-0.8
		c-0.1,0.1-0.2,0.2-0.3,0.4c-0.1,0.1-0.2,0.3-0.3,0.4c-0.1,0.1-0.2,0.3-0.3,0.4c-0.1,0.1-0.1,0.2-0.2,0.3h-0.9
		c0.2-0.3,0.4-0.7,0.7-1.1c0.3-0.4,0.5-0.7,0.8-1.1l-1.4-2.1h0.9l0.9,1.4l1-1.4h0.9l-1.4,2.1c0.3,0.4,0.6,0.8,0.9,1.2
		c0.2,0.4,0.5,0.7,0.6,1H-263.2z"/>
	<path d="M-281.4,389.4h0.3c0.2,0,0.4,0,0.6-0.1c0.2,0,0.3-0.1,0.5-0.2c0.1-0.1,0.2-0.2,0.3-0.3c0.1-0.1,0.1-0.3,0.1-0.5
		c0-0.4-0.1-0.6-0.4-0.8c-0.2-0.2-0.6-0.2-1-0.2c-0.1,0-0.3,0-0.4,0c-0.2,0-0.3,0-0.4,0.1v3.1h0.6V389.4z M-281.4,387.8
		c0.1,0,0.2,0,0.4,0c0.1,0,0.2,0,0.3,0c0.1,0,0.2,0,0.2,0.1c0.1,0,0.1,0.1,0.2,0.2c0,0.1,0.1,0.2,0.1,0.3c0,0.2-0.1,0.4-0.2,0.4
		c-0.1,0.1-0.4,0.1-0.6,0.1h-0.3V387.8z"/>
	<polygon points="-277.2,390 -278.6,390 -278.6,387.3 -279.2,387.3 -279.2,390.5 -277.2,390.5 	"/>
	<path d="M-276.3,390.1c0-0.1,0.1-0.2,0.1-0.4h1.3c0,0.1,0.1,0.3,0.1,0.4c0,0.1,0.1,0.2,0.1,0.4h0.6c-0.1-0.3-0.2-0.6-0.3-0.9
		c-0.1-0.3-0.2-0.6-0.3-0.8c-0.1-0.3-0.2-0.5-0.3-0.7c-0.1-0.2-0.2-0.5-0.3-0.7h-0.5c-0.1,0.2-0.2,0.4-0.3,0.7
		c-0.1,0.2-0.2,0.5-0.3,0.7c-0.1,0.3-0.2,0.5-0.3,0.8c-0.1,0.3-0.2,0.6-0.3,0.9h0.6C-276.4,390.4-276.3,390.2-276.3,390.1z
		 M-275.7,388.5c0.1-0.2,0.2-0.4,0.2-0.6c0.1,0.2,0.1,0.3,0.2,0.6c0.1,0.2,0.2,0.5,0.3,0.8h-1C-275.9,389-275.8,388.8-275.7,388.5z"
		/>
	<path d="M-273.4,390.1c0.1,0.1,0.3,0.2,0.5,0.3c0.2,0.1,0.4,0.1,0.6,0.1c0.1,0,0.2,0,0.3,0c0.1,0,0.2,0,0.3-0.1
		c0.1,0,0.2,0,0.2-0.1c0.1,0,0.1,0,0.1-0.1l-0.2-0.5c-0.1,0-0.2,0.1-0.3,0.1c-0.1,0-0.3,0.1-0.5,0.1c-0.2,0-0.3,0-0.4-0.1
		c-0.1-0.1-0.2-0.1-0.3-0.2c-0.1-0.1-0.1-0.2-0.2-0.4c0-0.1-0.1-0.3-0.1-0.5c0-0.2,0-0.4,0.1-0.5s0.1-0.3,0.2-0.4
		c0.1-0.1,0.2-0.2,0.3-0.2c0.1,0,0.2-0.1,0.4-0.1c0.2,0,0.3,0,0.4,0.1c0.1,0,0.2,0.1,0.3,0.1l0.2-0.5c0,0-0.1,0-0.1-0.1
		c-0.1,0-0.1-0.1-0.2-0.1c-0.1,0-0.2,0-0.3-0.1c-0.1,0-0.2,0-0.4,0c-0.2,0-0.4,0-0.6,0.1c-0.2,0.1-0.3,0.2-0.5,0.3
		c-0.1,0.1-0.2,0.3-0.3,0.5c-0.1,0.2-0.1,0.4-0.1,0.7c0,0.3,0,0.5,0.1,0.7C-273.6,389.8-273.5,390-273.4,390.1z"/>
	<path d="M-270.3,390.1c0-0.1,0.1-0.2,0.1-0.4h1.3c0,0.1,0.1,0.3,0.1,0.4c0,0.1,0.1,0.2,0.1,0.4h0.6c-0.1-0.3-0.2-0.6-0.3-0.9
		c-0.1-0.3-0.2-0.6-0.3-0.8c-0.1-0.3-0.2-0.5-0.3-0.7c-0.1-0.2-0.2-0.5-0.3-0.7h-0.5c-0.1,0.2-0.2,0.4-0.3,0.7
		c-0.1,0.2-0.2,0.5-0.3,0.7c-0.1,0.3-0.2,0.5-0.3,0.8c-0.1,0.3-0.2,0.6-0.3,0.9h0.6C-270.4,390.4-270.3,390.2-270.3,390.1z
		 M-269.8,388.5c0.1-0.2,0.2-0.4,0.2-0.6c0.1,0.2,0.1,0.3,0.2,0.6c0.1,0.2,0.2,0.5,0.3,0.8h-1C-269.9,389-269.8,388.8-269.8,388.5z"
		/>
</g>
</svg>
