<?xml version="1.0" encoding="utf-8"?>
<!-- Generator: Adobe Illustrator 19.1.0, SVG Export Plug-In . SVG Version: 6.00 Build 0)  -->
<svg version="1.1" id="Layer_1" xmlns="http://www.w3.org/2000/svg" xmlns:xlink="http://www.w3.org/1999/xlink" x="0px" y="0px"
	 viewBox="-464 266 30 30" style="enable-background:new -464 266 30 30;" xml:space="preserve">
<g id="AwmENA.tif">
	<g>
		<path d="M-457.3,293.8c-1.1,0-1.8-1.4-1.9-1.8c-0.9-3.6-2.9-10.8-2.9-10.8c-1,0-1.9-0.4-1.9-1.5c0-1.1,0.7-1.4,1.5-1.4
			c0,0,3.1,0,3.1,0c0,0.4-0.2,2.7,2.4,3.4c1.1,0.2,2.2-0.4,2.7-1.3c0.4-0.6,1.4-2,1.4-2l7.5,0c0,0,1,1.4,1.3,1.9
			c0.7,1.2,1.4,1.7,3.4,1.3c2-0.5,1.8-3.2,1.8-3.2l3.2,0c0.8,0,1.5,0.5,1.5,1.4c0,0.9-0.9,1.5-1.9,1.5c-1,3.7-1.9,7.3-2.9,10.9
			c-0.2,0.8-1,1.8-1.9,1.8C-446.2,293.8-451.8,293.8-457.3,293.8z M-441.3,284.7c0-0.6-0.3-0.9-0.8-0.9c-0.5,0-0.8,0.4-0.8,0.9
			c0,2,0,4,0,6c0,0.6,0.3,0.9,0.8,0.9c0.5,0,0.8-0.4,0.8-0.9L-441.3,284.7z M-450.5,284.7c0-0.6-0.3-1-0.8-1c-0.5,0-0.8,0.4-0.8,1
			c0,2,0,4,0,6c0,0.6,0.3,0.9,0.8,0.9c0.5,0,0.8-0.4,0.8-0.9L-450.5,284.7z M-447.5,290.8c0,0.5,0.4,0.9,0.8,0.9
			c0.5,0,0.8-0.4,0.8-0.9c0-2,0-4.1,0-6.1c0-0.2,0-0.3-0.1-0.5c-0.2-0.3-0.5-0.5-0.9-0.4c-0.4,0.1-0.6,0.4-0.6,0.8L-447.5,290.8z
			 M-456.7,290.7c0,0.2,0,0.4,0.1,0.5c0.2,0.3,0.6,0.5,0.9,0.4c0.4-0.1,0.6-0.4,0.6-0.9c0-2,0-4.1,0-6.1c0-0.6-0.4-0.9-0.8-0.9
			c-0.5,0-0.8,0.4-0.8,0.9L-456.7,290.7z"/>
		<path d="M-457.2,280.1L-457.2,280.1c-0.7-0.4-0.9-1.3-0.5-1.9l5.2-9.2c0.4-0.7,1.3-0.9,1.9-0.5l0,0c0.7,0.4,0.9,1.3,0.5,1.9
			l-5.2,9.2C-455.7,280.2-456.6,280.5-457.2,280.1z"/>
		<path d="M-440.8,280.1L-440.8,280.1c-0.7,0.4-1.6,0.2-2-0.5l-5.3-9.2c-0.4-0.7-0.2-1.6,0.5-2v0c0.7-0.4,1.6-0.2,2,0.5l5.3,9.2
			C-439.8,278.8-440.1,279.7-440.8,280.1z"/>
	</g>
</g>
</svg>
