<?xml version="1.0" encoding="utf-8"?>
<!-- Generator: Adobe Illustrator 19.2.1, SVG Export Plug-In . SVG Version: 6.00 Build 0)  -->
<svg version="1.1" id="Layer_1" xmlns="http://www.w3.org/2000/svg" xmlns:xlink="http://www.w3.org/1999/xlink" x="0px" y="0px"
	 viewBox="0 0 30 30" style="enable-background:new 0 0 30 30;" xml:space="preserve">
<g id="Xd7EX5.tif">
	<g>
		<path d="M0.7,15.4c0.1-3.6,1.4-7,4.1-9.8c1-1,2.5-1.1,3.6-0.1c1,1,1.1,2.5,0.1,3.6c-1.5,1.5-2.3,3.3-2.6,5.3
			c-0.7,4.8,2.6,9.3,7.3,10.3c5.3,1.1,10.4-2.5,11.1-7.9c0.4-2.9-0.5-5.5-2.5-7.6c-0.8-0.8-1.1-1.7-0.7-2.8c0.6-1.7,2.8-2.2,4.1-0.9
			c2.3,2.3,3.7,5,4.1,8.2c0.5,4.3-0.6,8-3.4,11.3C23.3,28,20,29.7,16.2,30c-6.1,0.4-10.7-2.1-13.7-7.4C1.2,20.5,0.7,18.2,0.7,15.4z"
			/>
		<path d="M17.5,9.4c0,2.3,0,4.6,0,6.9c0,1.4-1,2.4-2.3,2.5c-1.2,0.1-2.4-0.8-2.6-2.1c0-0.2,0-0.4,0-0.5c0-4.5,0-9.1,0-13.6
			C12.5,1.1,13.6,0,15,0c1.4,0,2.5,1.1,2.5,2.6C17.5,4.9,17.5,7.1,17.5,9.4z"/>
	</g>
</g>
</svg>
