<?xml version="1.0" encoding="utf-8"?>
<!-- Generator: Adobe Illustrator 16.0.0, SVG Export Plug-In . SVG Version: 6.00 Build 0)  -->
<!DOCTYPE svg PUBLIC "-//W3C//DTD SVG 1.1//EN" "http://www.w3.org/Graphics/SVG/1.1/DTD/svg11.dtd">
<svg version="1.1" id="Layer_1" xmlns="http://www.w3.org/2000/svg" xmlns:xlink="http://www.w3.org/1999/xlink" x="0px" y="0px"
	 width="30px" height="30px" viewBox="0 0 30 30" enable-background="new 0 0 30 30" xml:space="preserve">
<path fill-rule="evenodd" clip-rule="evenodd" d="M6.513,25.81l2.125-9.935h12.725l2.125,9.935H6.513z M28.185,12.204H1.816
	c-0.831,0-1.666,0.998-1.666,1.838v5.351c0,0.841,0.835,1.833,1.666,1.833h3.003l-1.337,7.644h23.037l-1.337-7.644h3.003
	c0.83,0,1.665-0.992,1.665-1.833v-5.351C29.85,13.201,29.015,12.204,28.185,12.204z"/>
<path d="M2.118,10.524h25.765c0.863,0,0.719-0.928,0.293-1.081c-0.433-0.153-5.221-1.977-6.053-1.977h-1.364V2.881H9.241v4.585
	H7.876c-0.831,0-5.62,1.824-6.051,1.977C1.398,9.596,1.254,10.524,2.118,10.524z"/>
</svg>
