<?xml version="1.0" encoding="utf-8"?>
<!-- Generator: Adobe Illustrator 19.0.1, SVG Export Plug-In . SVG Version: 6.00 Build 0)  -->
<svg version="1.1" id="Layer_1" xmlns="http://www.w3.org/2000/svg" xmlns:xlink="http://www.w3.org/1999/xlink" x="0px" y="0px"
	 viewBox="-282 405.9 30 30" style="enable-background:new -282 405.9 30 30;" xml:space="preserve">
<g id="N724Kd.tif">
	<g>
		<path d="M-271,414.5c-0.3-0.2-0.6-0.4-0.9-0.6c-1-0.7-2-1.5-2.7-2.6c-0.7-1.1-0.8-2.3-0.1-3.4c0.8-1.2,1.8-2.1,3.3-2
			c1,0,1.8,0.6,2.4,1.4c1,1.3,1.6,2.8,2.1,4.3c0,0.1,0.1,0.3,0.2,0.5c0.1-0.2,0.1-0.4,0.2-0.5c0.4-1.1,0.8-2.2,1.6-3
			c0.8-0.8,1.7-1.2,2.8-0.9c1.2,0.3,2.2,1,2.5,2.3c0.2,0.8,0,1.5-0.4,2.1c-0.5,0.8-1.2,1.4-1.9,2c-0.2,0.1-0.3,0.2-0.5,0.4
			c0.1,0,0.3,0,0.4,0c2.1,0,4.2,0,6.3,0c0.9,0,1.3,0.4,1.3,1.3c0,1.7,0,3.3,0,5c0,1.2-0.1,1.3-1.3,1.6c0,0.2,0,0.3,0,0.5
			c0,3.9,0,7.7,0,11.6c0,1-0.4,1.4-1.4,1.4c-6.8,0-13.5,0-20.3,0c-0.9,0-1.3-0.4-1.3-1.3c0-3.9,0-7.7,0-11.6c0-0.2,0-0.4,0-0.6
			c-0.1,0-0.3,0-0.4-0.1c-0.6-0.1-0.9-0.5-1-1c0-1.9,0-3.8,0-5.7c0-0.6,0.5-1,1.2-1c2.4,0,4.8,0,7.1,0
			C-271.3,414.6-271.2,414.6-271,414.5C-271,414.5-271,414.5-271,414.5z M-268.9,433.8c0-4.1,0-8.2,0-12.4c-0.2,0-0.3,0-0.4,0
			c-2.2,0-4.4,0-6.5,0c-0.4,0-0.5,0.1-0.5,0.5c0,3.8,0,7.7,0,11.5c0,0.1,0,0.2,0,0.4C-273.8,433.8-271.4,433.8-268.9,433.8z
			 M-257.7,433.8c0-4.1,0-8.2,0-12.3c-2.5,0-4.9,0-7.3,0c0,4.1,0,8.2,0,12.3C-262.5,433.8-260.1,433.8-257.7,433.8z M-277.7,420.2
			c2.9,0,5.8,0,8.8,0c0-1.2,0-2.3,0-3.5c-2.9,0-5.8,0-8.8,0C-277.7,417.9-277.7,419-277.7,420.2z M-256.3,420.2c0-1.2,0-2.3,0-3.5
			c-2.9,0-5.8,0-8.6,0c0,1.2,0,2.3,0,3.5C-262.1,420.2-259.2,420.2-256.3,420.2z M-268.5,413.5c0-0.1,0-0.1,0-0.2
			c-0.4-1.4-0.8-2.8-1.5-4c-0.2-0.4-0.5-0.8-0.9-1.1c-0.2-0.3-0.6-0.3-0.9-0.2c-1.3,0.5-1.6,1.6-0.7,2.7c0,0,0.1,0.1,0.1,0.1
			C-271.2,412-269.9,412.8-268.5,413.5z M-264.8,413.5c0.1,0,0.1,0.1,0.2,0.1c0.8-0.6,1.7-1.2,2.5-1.9c0.2-0.2,0.4-0.5,0.6-0.7
			c0.1-0.1,0.1-0.4,0.1-0.5c-0.2-0.7-1.3-1-1.8-0.5C-264.1,411-264.4,412.3-264.8,413.5z"/>
	</g>
</g>
</svg>
