<?xml version="1.0" encoding="utf-8"?>
<!-- Generator: Adobe Illustrator 19.0.1, SVG Export Plug-In . SVG Version: 6.00 Build 0)  -->
<svg version="1.1" id="Layer_1" xmlns="http://www.w3.org/2000/svg" xmlns:xlink="http://www.w3.org/1999/xlink" x="0px" y="0px"
	 viewBox="-282 405.9 30 30" style="enable-background:new -282 405.9 30 30;" xml:space="preserve">
<g id="Your_Icon">
	<path d="M-273,406.6c0.3,0.3,0.1,0.8-0.1,1.1l-7.2,7.2c-0.3,0.3-0.7,0.3-0.9,0l-0.5-0.5c-0.3-0.3-0.3-0.7,0-1l7.2-7.2
		c0.3-0.3,0.8-0.4,1.1-0.1L-273,406.6z"/>
	<path d="M-271.6,408c0.3,0.3,0.3,0.7,0,1l-7.3,7.3c-0.3,0.3-0.7,0.3-1,0l0,0c-0.3-0.3-0.3-0.7,0-1l7.3-7.3
		C-272.3,407.7-271.9,407.7-271.6,408L-271.6,408z"/>
	<path d="M-270.2,409.4c0.3,0.3,0.3,0.7,0,1l-7.3,7.3c-0.3,0.3-0.7,0.3-1,0l0,0c-0.3-0.3-0.3-0.7,0-1l7.3-7.3
		C-270.9,409.1-270.5,409.1-270.2,409.4L-270.2,409.4z"/>
	<path d="M-277,418c-0.3,0.3-0.3,0.7,0,1l5.6,5.6c0.3,0.3,0.6,0.3,0.8,0.1c0.2-0.2,0.3-0.7,0.3-1c0,0-0.4-2.7,1.4-4.5
		c1.8-1.8,4.5-1.4,4.5-1.4c0.4,0.1,0.9-0.1,1.2-0.4l0,0c0.3-0.3,0.3-0.7,0-1l-5.6-5.6c-0.3-0.3-0.7-0.3-1,0L-277,418z M-269.8,418
		c-0.7,0.7-1.8,0.7-2.4,0c-0.7-0.7-0.7-1.8,0-2.4c0.7-0.7,1.8-0.7,2.4,0C-269.1,416.3-269.1,417.4-269.8,418z"/>
	<path d="M-267.8,420"/>
	<path d="M-254.9,427.1L-254.9,427.1c-0.3-0.2-0.1,0-0.2-0.1c0,0-0.1,0-0.1,0c-6.5-2.2-11.8-8.1-11.8-8.1c-0.7,0-1.2,0.6-1.2,0.6
		s-0.6,0.5-0.6,1.2c0,0,6.3,5.8,8.2,12.2l0,0c0.1,0.4,0.6,1.1,1,1.6c1.8,1.8,4.6,1.8,6.4,0c1.8-1.8,1.7-4.6,0-6.4
		C-253.8,427.7-254.5,427.2-254.9,427.1z M-254.4,433.4c-1.1,1.1-2.9,1.1-4.1,0c-1.1-1.1-1.1-2.9,0-4.1c1.1-1.1,2.9-1.1,4.1,0
		C-253.3,430.4-253.3,432.2-254.4,433.4z"/>
</g>
</svg>
