<?xml version="1.0" encoding="utf-8"?>
<!-- Generator: Adobe Illustrator 16.0.0, SVG Export Plug-In . SVG Version: 6.00 Build 0)  -->
<!DOCTYPE svg PUBLIC "-//W3C//DTD SVG 1.1//EN" "http://www.w3.org/Graphics/SVG/1.1/DTD/svg11.dtd">
<svg version="1.1" id="Layer_1" xmlns="http://www.w3.org/2000/svg" xmlns:xlink="http://www.w3.org/1999/xlink" x="0px" y="0px"
	 width="30px" height="30px" viewBox="1 1 30 30" enable-background="new 1 1 30 30" xml:space="preserve">
<g>
	<path d="M6.821,18.448c-1.833,0-3.322,1.488-3.322,3.321c0,1.83,1.491,3.321,3.322,3.321c1.832,0,3.322-1.491,3.322-3.321
		C10.142,19.937,8.653,18.448,6.821,18.448z M6.821,23.668c-1.046,0-1.899-0.852-1.899-1.898s0.852-1.899,1.899-1.899
		s1.897,0.853,1.897,1.899S7.866,23.668,6.821,23.668z"/>
	<path d="M23.906,18.775c-1.832,0-3.322,1.488-3.322,3.319c0,1.833,1.49,3.322,3.322,3.322c1.833,0,3.322-1.489,3.322-3.322
		C27.229,20.264,25.738,18.775,23.906,18.775z M23.906,23.993c-1.047,0-1.898-0.851-1.898-1.898c0-1.046,0.852-1.897,1.898-1.897
		s1.898,0.852,1.898,1.897C25.805,23.143,24.953,23.993,23.906,23.993z"/>
	<path d="M6.979,18.09c1.443-0.068,2.453,1.307,2.502,1.119c0.048-0.188-1.544-2.217-2.907-2.275
		c-1.365-0.057-2.729,1.89-2.521,2.046C4.261,19.137,5.535,18.158,6.979,18.09L6.979,18.09z"/>
	<path d="M7.316,20.684l-0.204,0.777c0.082,0.079,0.132,0.187,0.132,0.309c0,0.236-0.191,0.427-0.425,0.427s-0.425-0.19-0.425-0.427
		c0-0.229,0.183-0.414,0.409-0.421l0.197-0.756c-0.06-0.01-0.118-0.018-0.181-0.018c-0.662,0-1.196,0.536-1.196,1.194
		c0,0.663,0.536,1.197,1.196,1.197c0.661,0,1.197-0.534,1.197-1.197c0-0.482-0.289-0.897-0.7-1.084V20.684z"/>
	<path d="M23.595,20.875l0.342,0.729c0.112,0.007,0.22,0.058,0.299,0.148c0.148,0.181,0.125,0.449-0.055,0.601
		c-0.179,0.15-0.447,0.124-0.601-0.054c-0.146-0.179-0.125-0.438,0.045-0.588l-0.331-0.706c-0.05,0.031-0.103,0.063-0.149,0.104
		c-0.509,0.422-0.576,1.177-0.154,1.685c0.422,0.507,1.177,0.576,1.685,0.152c0.506-0.421,0.575-1.177,0.153-1.684
		C24.517,20.892,24.029,20.758,23.595,20.875L23.595,20.875z"/>
	<path d="M16.93,23.016c-0.112,0.036-0.016-0.028-2.834,0.23c0.898,0.741,3.738,0.601,3.738,0.601S17.247,23.572,16.93,23.016z"/>
	<path d="M14.92,16.904c0.237,0,2.489-0.044,2.489-0.044s7.905-2.759,8.07-2.803c0.162-0.044,0.074-0.608-0.165-0.593
		c-0.235,0.014-8.067,0.845-9.062,1.127s-1.527,0.933-1.586,1.394C14.606,16.446,14.681,16.905,14.92,16.904L14.92,16.904z"/>
	<path d="M26.222,16.182c0.355-0.266,1.421-1.228,1.438-1.709c0.015-0.401-1.929-0.148-1.929-0.148l-6.986,2.566l-1.483,0.474
		h-2.194l0.43,3.885l-3.041,0.017c0,0-1.038-4.287-1.038-5.604c0-1.321,1.734-3.516,1.734-3.516l1.35-0.059l0.015-0.549
		l-1.156-0.014c0,0-0.685-1.256-1.895-1.619V8.794h0.18c0.013,0.274,0.036,0.496,0.074,0.553c0.113,0.172,0.713,0,0.713,0V7.37
		c0,0-0.601-0.21-0.713,0c-0.049,0.093-0.075,0.458-0.082,0.85h-0.412v0.574h0.002v1.051c-1.244-0.189-1.748,1.864-1.415,2.342
		c0.341,0.489,0.845-0.015,0.83,0.386c-1.632,0.622-5.114,2.477-4.56,3.96c0.106,0.211,1.141-0.118,2.008,0.563
		c0.868,0.682,1.113,0.89,1.707,1.898c1.158,1.958,0.579,4.118,0.579,4.118l2.174-0.011l4.573-0.356
		c0.372,0.631,1.057,1.055,1.84,1.055c0.588,0,1.121-0.239,1.506-0.623c-0.107-0.344-0.165-0.705-0.165-1.084
		c0-0.597,0.146-1.16,0.407-1.654c-0.086-0.122-0.187-0.238-0.299-0.34l2.109-1.699c0.35-0.165,1.558-1.199,2.31-1.043
		c0.752,0.158,3.264,3.8,3.618,3.42c0.356-0.373-1.425-4.507-2.233-4.599L26.222,16.182z"/>
</g>
</svg>
