<?xml version="1.0" encoding="utf-8"?>
<!-- Generator: Adobe Illustrator 16.0.0, SVG Export Plug-In . SVG Version: 6.00 Build 0)  -->
<!DOCTYPE svg PUBLIC "-//W3C//DTD SVG 1.1//EN" "http://www.w3.org/Graphics/SVG/1.1/DTD/svg11.dtd">
<svg version="1.1" id="Layer_1" xmlns="http://www.w3.org/2000/svg" xmlns:xlink="http://www.w3.org/1999/xlink" x="0px" y="0px"
	 width="30px" height="30px" viewBox="0 0 30 30" enable-background="new 0 0 30 30" xml:space="preserve">
<g>
	<path d="M22.746,19.833c-1.106,0-2.124,0.377-2.938,1.003l-8.408-5.045c0.042-0.257,0.069-0.521,0.069-0.791
		c0-0.27-0.028-0.533-0.069-0.792l8.408-5.044c0.814,0.626,1.832,1.003,2.938,1.003c2.669,0,4.833-2.164,4.833-4.833
		c0-2.669-2.164-4.833-4.833-4.833s-4.832,2.164-4.832,4.833c0,0.27,0.027,0.533,0.07,0.791L9.576,11.17
		c-0.815-0.627-1.833-1.003-2.94-1.003c-2.669,0-4.833,2.165-4.833,4.833s2.164,4.833,4.833,4.833c1.107,0,2.125-0.376,2.94-1.003
		l8.409,5.045c-0.043,0.258-0.07,0.521-0.07,0.792c0,2.669,2.163,4.833,4.832,4.833s4.833-2.164,4.833-4.833
		C27.579,21.997,25.415,19.833,22.746,19.833z"/>
</g>
</svg>
