<?xml version="1.0" encoding="utf-8"?>
<!-- Generator: Adobe Illustrator 16.0.0, SVG Export Plug-In . SVG Version: 6.00 Build 0)  -->
<!DOCTYPE svg PUBLIC "-//W3C//DTD SVG 1.1//EN" "http://www.w3.org/Graphics/SVG/1.1/DTD/svg11.dtd">
<svg version="1.1" id="Layer_1" xmlns="http://www.w3.org/2000/svg" xmlns:xlink="http://www.w3.org/1999/xlink" x="0px" y="0px"
	 width="30px" height="30px" viewBox="0 0 30 30" enable-background="new 0 0 30 30" xml:space="preserve">
<g>
	<path fill-rule="evenodd" clip-rule="evenodd" d="M6.734,8.659c-0.064-0.02-0.098-0.04-0.138-0.04c-0.875,0-1.75-0.01-2.625,0.01
		c-0.088,0-0.216,0.147-0.246,0.251c-0.33,1.057-0.639,2.124-0.954,3.186c-0.118,0.403-0.285,0.801-0.334,1.214
		c-0.099,0.815,0.57,1.603,1.381,1.701c0.919,0.112,1.721-0.452,1.883-1.308c0.196-1.043,0.413-2.075,0.624-3.113
		C6.454,9.927,6.597,9.297,6.734,8.659z M11.622,8.619c-0.974,0-1.888-0.005-2.797,0.01c-0.069,0-0.172,0.143-0.187,0.231
		c-0.162,0.895-0.325,1.79-0.462,2.689c-0.103,0.649-0.231,1.298-0.246,1.952c-0.024,0.821,0.742,1.495,1.608,1.505
		c0.85,0.01,1.598-0.674,1.657-1.485c0.079-1.027,0.177-2.05,0.271-3.078L11.622,8.619z M23.317,8.619
		c0.016,0.133,0.025,0.216,0.04,0.305c0.187,0.831,0.379,1.662,0.556,2.493c0.138,0.639,0.324,1.279,0.374,1.927
		c0.059,0.919,0.722,1.657,1.642,1.662c1.189,0,1.863-1.072,1.651-1.878c-0.373-1.451-0.835-2.876-1.273-4.312
		c-0.024-0.079-0.137-0.187-0.206-0.192C25.187,8.614,24.276,8.619,23.317,8.619z M16.681,11.156h-0.084
		c-0.029-0.757-0.063-1.51-0.083-2.267c-0.005-0.167-0.021-0.28-0.236-0.275c-0.836,0.005-1.671,0.005-2.507,0
		c-0.157,0-0.231,0.044-0.236,0.216c-0.054,1.48-0.128,2.96-0.167,4.445c-0.024,0.982,0.713,1.73,1.657,1.73
		c0.944,0,1.662-0.748,1.657-1.73V11.156z M18.426,8.614l0.104,1.205c0.108,1.229,0.216,2.458,0.324,3.692
		c0.034,0.418,0.212,0.772,0.517,1.053c0.525,0.486,1.293,0.58,1.917,0.24c0.659-0.358,0.964-1.032,0.826-1.849
		c-0.231-1.362-0.472-2.723-0.693-4.085c-0.034-0.207-0.113-0.261-0.305-0.256c-0.531,0.005-1.062,0-1.593,0H18.426z M15.014,26.048
		v-8.121H5.712v8.121H15.014z M18.51,29.534H3.204c-0.211-0.118-0.447-0.211-0.629-0.364c-0.32-0.274-0.339-0.663-0.339-1.057
		V14.436v-0.418l-0.152,0.128c-0.359,0.319-0.919,0.354-1.337,0.088c-0.32-0.201-0.575-0.82-0.413-1.248
		c0.477-1.244,0.89-2.513,1.337-3.771C2,8.28,2.374,7.355,2.246,6.333C2.236,6.264,2.25,6.195,2.26,6.126
		c0.064-0.447,0.433-0.846,0.875-0.924c0.187-0.029,0.374-0.024,0.561-0.024l22.636-0.005c0.098,0,0.196,0,0.295,0.005
		c0.703,0.024,1.131,0.438,1.175,1.136c0.01,0.167-0.005,0.339,0.005,0.501c0.029,0.359,0.01,0.742,0.118,1.072
		c0.57,1.706,1.175,3.392,1.771,5.088c0.31,0.891-0.228,1.56-1.155,1.401c-0.246-0.039-0.473-0.177-0.733-0.28v0.369v11.524
		c0,0.757,0.005,1.515-0.005,2.271c-0.005,0.673-0.251,0.998-0.89,1.225c-0.025,0.01-0.044,0.034-0.069,0.049H24.36V17.936H18.5
		v0.379v9.396C18.5,28.314,18.505,28.925,18.51,29.534z"/>
	<path d="M15.019,0.531c3.835,0,7.665,0,11.495-0.005c0.452,0,0.831,0.123,1.097,0.511c0.285,0.418,0.285,2.001,0,2.424
		c-0.177,0.265-0.423,0.437-0.742,0.486c-0.158,0.02-0.315,0.035-0.473,0.035H3.652c-0.167,0-0.339-0.01-0.501-0.04
		C2.668,3.855,2.29,3.462,2.26,2.975c-0.024-0.472-0.029-0.944,0-1.416c0.035-0.585,0.497-1.008,1.092-1.023
		c0.452-0.015,0.904-0.005,1.357-0.005H15.019z"/>
</g>
</svg>
