<?xml version="1.0" encoding="utf-8"?>
<!-- Generator: Adobe Illustrator 16.0.0, SVG Export Plug-In . SVG Version: 6.00 Build 0)  -->
<!DOCTYPE svg PUBLIC "-//W3C//DTD SVG 1.1//EN" "http://www.w3.org/Graphics/SVG/1.1/DTD/svg11.dtd">
<svg version="1.1" id="Layer_1" xmlns="http://www.w3.org/2000/svg" xmlns:xlink="http://www.w3.org/1999/xlink" x="0px" y="0px"
	 width="30px" height="30px" viewBox="0 0 30 30" enable-background="new 0 0 30 30" xml:space="preserve">
<g>
	<path d="M1.804,29.75c-0.153-0.177-0.305-0.364-0.472-0.531c-0.103-0.108-0.118-0.191-0.039-0.324
		c0.811-1.304,1.613-2.611,2.414-3.913c0.029-0.05,0.064-0.104,0.108-0.139l1.47-1.225l0.31,0.271l8.009-8.261l-1.726-1.534
		c0.113-0.138,0.157-0.197,0.207-0.246c0.33-0.339,0.668-0.668,0.979-1.023c0.378-0.428,0.767-0.693,1.406-0.752
		c1.622-0.157,2.749-1.529,2.719-3.167c-0.005-0.23,0.055-0.393,0.217-0.555c2.547-2.621,5.089-5.251,7.636-7.877
		c0.059-0.064,0.108-0.133,0.182-0.226l4.528,4.671c-0.079,0.083-0.143,0.162-0.216,0.236c-2.519,2.6-5.035,5.196-7.547,7.802
		c-0.183,0.187-0.354,0.285-0.64,0.28c-1.711-0.03-3.112,1.445-3.063,3.23c0.005,0.227-0.059,0.379-0.216,0.526
		c-0.565,0.516-1.132,1.037-1.682,1.544l-1.613-1.499l-7.911,8.161l0.271,0.324c-0.398,0.511-0.752,1.058-1.199,1.51
		c-0.33,0.334-0.777,0.551-1.18,0.816l-2.646,1.735C2.04,29.632,1.98,29.696,1.922,29.75H1.804z"/>
	<path d="M0.25,6.892l0.207-1.096C0.58,5.909,0.658,5.983,0.732,6.062c1.037,1.067,2.075,2.134,3.107,3.206
		C3.972,9.41,4.09,9.449,4.287,9.395C5.28,9.109,6.278,8.84,7.281,8.569c0.177-0.044,0.261-0.123,0.31-0.31
		c0.256-1.033,0.521-2.065,0.802-3.088C8.446,4.965,8.417,4.837,8.27,4.689C7.222,3.618,6.18,2.541,5.142,1.465L4.891,1.199
		c0.384-0.064,0.708-0.142,1.043-0.172c3.421-0.285,6.392,2.129,6.829,5.536c0.103,0.816,0.083,1.623-0.113,2.424
		c-0.04,0.167-0.015,0.28,0.113,0.408c0.614,0.614,1.219,1.249,1.814,1.957c-0.271,0-0.536,0.02-0.802-0.005
		c-0.187-0.02-0.319,0.005-0.457,0.147c-0.792,0.836-1.598,1.657-2.409,2.503l1.623,1.686l-1.082,0.954l-0.039,0.172
		c-0.045-0.099-0.069-0.217-0.138-0.29c-0.865-0.9-1.735-1.791-2.601-2.689c-0.118-0.129-0.222-0.158-0.398-0.109
		c-3.486,0.998-7.089-1.175-7.847-4.725c-0.064-0.295-0.118-0.6-0.177-0.895V6.892z"/>
	<path fill-rule="evenodd" clip-rule="evenodd" d="M26.682,26.309c-0.019-0.035-0.049-0.113-0.098-0.167
		c-0.32-0.335-0.635-0.669-0.969-0.988c-0.069-0.069-0.221-0.108-0.32-0.084c-0.373,0.084-0.742,0.187-1.105,0.305
		c-0.099,0.034-0.207,0.138-0.235,0.236c-0.123,0.383-0.223,0.771-0.301,1.165c-0.024,0.099,0.015,0.245,0.083,0.319
		c0.29,0.329,0.601,0.649,0.92,0.954c0.073,0.073,0.23,0.117,0.335,0.094c0.383-0.079,0.762-0.188,1.141-0.306
		c0.078-0.019,0.172-0.098,0.19-0.172C26.45,27.238,26.554,26.795,26.682,26.309z M13.766,19.086l1.072-0.959l1.544,1.451
		c0.516-0.473,1.058-0.96,1.584-1.461c0.318-0.305,0.624-0.624,0.919-0.954c0.073-0.088,0.103-0.231,0.112-0.349
		c0.015-0.295,0.006-0.59,0.006-0.954c0.107,0.093,0.167,0.133,0.216,0.183c2.689,2.777,5.383,5.555,8.073,8.338
		c1.392,1.44,1.248,3.639-0.31,4.764c-1.141,0.826-2.7,0.748-3.693-0.25c-1.745-1.756-3.456-3.545-5.177-5.325L13.766,19.086z"/>
</g>
</svg>
