<?xml version="1.0" encoding="utf-8"?>
<!-- Generator: Adobe Illustrator 16.0.0, SVG Export Plug-In . SVG Version: 6.00 Build 0)  -->
<!DOCTYPE svg PUBLIC "-//W3C//DTD SVG 1.1//EN" "http://www.w3.org/Graphics/SVG/1.1/DTD/svg11.dtd">
<svg version="1.1" id="Layer_1" xmlns="http://www.w3.org/2000/svg" xmlns:xlink="http://www.w3.org/1999/xlink" x="0px" y="0px"
	 width="30px" height="30px" viewBox="1 1 30 30" enable-background="new 1 1 30 30" xml:space="preserve">
<g>
	<path d="M6.452,20.877c-0.009,0.027-0.009,0.063-0.009,0.09c0,0.147,0.126,0.264,0.273,0.257c0.155,0,0.264-0.128,0.264-0.274
		c-0.009-0.145-0.138-0.256-0.283-0.256C6.588,20.703,6.487,20.768,6.452,20.877z"/>
	<path d="M6.524,20.503c0.146,0,0.255-0.128,0.255-0.264c-0.009-0.155-0.137-0.263-0.282-0.263c-0.11,0.008-0.201,0.082-0.246,0.182
		c0,0.037,0,0.063,0,0.101C6.251,20.395,6.368,20.514,6.524,20.503L6.524,20.503z"/>
	<path d="M18.176,16.477c0.157,0.193,0.71,0.312,1.154,0.312c0.032,0,0.062-0.001,0.093-0.003c0.426-0.018,3.671-0.715,3.942-0.924
		c0.179-0.136,0.509-0.583,0.919-1.262c0.037-0.061,0.012-0.103,0.009-0.11c-0.004-0.001-0.012-0.003-0.021-0.004l0,0
		c-0.031-0.005-1.008-0.101-2.642,0.39c-1.631,0.492-2.507,1.432-3.539,0.892c-0.126-0.097-0.197-0.12-0.396-0.269
		c-0.135-0.103-0.338-0.255-0.391-0.273c-0.015-0.004-0.031-0.007-0.047-0.009c0.229,0.282,0.462,0.573,0.637,0.844
		C18.008,16.237,18.105,16.388,18.176,16.477L18.176,16.477z"/>
	<path d="M27.438,18.299l0.144,0.091l0.136-0.095l-0.505-1.027l0.179-0.016v-0.044l0.11-0.042l-0.011-0.674l-0.174-0.129h-0.098
		l-0.062-0.047l-0.017,0.002c-0.08,0.006-0.156,0.022-0.23,0.044c-0.033-0.224-0.055-0.802-0.062-1.08
		c0.07-0.448,0.239-1.67-0.028-1.834c-0.328-0.2-2.104-0.168-2.369,0c-0.172,0.11-0.12,0.917-0.063,1.472
		c-0.019,0.028-0.037,0.059-0.06,0.092c-0.229,0.353-0.554,0.827-0.759,0.983v0l-0.009,0.013l-0.019,0.004
		c0.006-0.003,0.012-0.007,0.017-0.011c-0.364,0.246-3.755,0.962-4.202,0.979c-0.032,0.002-0.065,0.003-0.1,0.003
		c-0.451,0-1.088-0.113-1.293-0.368c-0.114-0.144-0.287-0.429-0.492-0.738c-0.15-0.202-0.296-0.403-0.441-0.607
		c0.038,0.043-0.075-0.095-0.17-0.196c0.01,0-1.072-0.947-2.534-1.284v-0.062c0.003-0.016,0.005-0.034,0.009-0.049
		c-0.314-0.099-0.646-0.117-0.97-0.118c-0.002,0-0.003,0-0.004,0l0,0c-0.002,0-0.006,0-0.009,0c0.004,0.019,0.003,0.041,0.002,0.062
		l-0.005,0.049c-1.66-0.059-2.278,0.346-3.361,0.718l-0.272-0.696l0.048-0.223l0.183,0.123c0.001,0.001,0.137,0.126,0.201,0.199
		c0.071,0.087,0.164,0.34,0.286,0.311c0.048-0.017,0.056-0.084,0.064-0.131c-0.001-0.001-0.142-0.335-0.209-0.442l0.318,0.269
		c0,0,0.002,0.087,0.027,0.101c0.025,0.014,0.262,0.191,0.402,0c0.071-0.101,0.071-0.219-0.01-0.283c-0.002,0-0.003,0-0.003-0.001
		L10.805,13.5l-0.283-0.273c0,0-0.062-0.137-0.064-0.191c-0.001-0.054-0.502-0.357-0.521-0.363l0.046-0.204
		c0,0-0.844-0.452-1.416-0.571l-0.055-0.012l-0.146,0.438c0,0-0.003,0.013-0.007,0.033c-0.188-0.163-0.375-0.321-0.559-0.478
		c0,0,1.054-1.003,1.046-1.019c0.421-0.388,0.893-0.85,1.312-1.232c0.108-0.136,0.1-0.218-0.036-0.247
		C9.821,9.353,9.521,9.343,9.229,9.308C8.418,9.627,7.624,9.863,6.64,10.894c-0.016,0.015-0.032,0.029-0.048,0.043L6.586,9.79
		c0,0-0.787,0.163-0.198,1.337c-0.008,0.007-0.014,0.013-0.021,0.021c-0.278,0.348-0.538,0.714-0.791,1.093
		c-0.001,0-0.001,0.001-0.002,0.001c-0.002,0.004-0.004,0.009-0.006,0.013c-0.001,0.003-0.004,0.005-0.006,0.008
		c0,0,0.001-0.001,0.002-0.001c-0.323,0.587-0.56,1.232-0.693,1.956c-2.14,0.536-3.321,2.576-3.321,2.576
		c1.138-1.068,2.44-1.373,3.485-1.406c0.763,0.185,1.521,0.268,2.244,0.292c0.101,0.004,0.2,0.022,0.298,0.048l-0.62,1.332
		l-0.091-0.047l-0.122,0.234c-1.265-0.385-2.337-0.368-3.275,0.053c-0.02,0.025-0.032,0.048-0.028,0.062
		c0.004,0.014,0.027,0.036,0.086,0.056c0.176,0.069,0.396,0.048,0.616,0.056c-0.146,0.037-0.286,0.081-0.424,0.135
		c-0.003,0-0.005,0-0.008-0.002c-0.991,0.372-1.833,1.138-2.267,2.186c-0.204,0.491-0.298,1.002-0.295,1.505
		c0,0.012-0.001,0.02-0.001,0.029c0,2.194,1.779,3.972,3.973,3.972s3.973-1.777,3.973-3.972c0-0.382-0.055-0.747-0.155-1.095
		c0.105,0.209,0.215,0.455,0.302,0.683c0.111,0.123,0.162,0.155,0.285,0.08c-0.274-1.573-0.932-2.673-2.002-3.36l0.118-0.231
		l-0.099-0.048l0.675-1.296c0.221,0.172,1.642,1.334,1.894,2.091c0.252,0.759,1.456,3.912,1.456,3.912
		c0.145,0.416,0.613,0.727,1.179,0.755v0.003h3.45l0.857,0.171l1.108-0.163l1.341-0.354c0.486,1.754,2.12,2.99,4.014,2.921
		c2.232-0.074,3.983-1.962,3.899-4.176c-0.018-0.483-0.127-0.976-0.299-1.405c-0.631-1.549-2.199-2.543-3.885-2.486
		c-1.401,0.045-2.62,0.814-3.305,1.938l-0.191,0.352c-0.262,0.543-0.4,1.083-0.392,1.723l-1.002,0.37l-0.282-0.438l0.898-0.921
		c0.188-1.94,1.948-2.812,2.525-3.065c0.6-0.261,1.092-0.425,2.097-0.477s2.824,0.712,3.647,2.825
		c0.135,0.336,0.434,0.571,0.543,0.574c0.004,0,0.004,0,0.008,0c0.068,0,0.132-0.036,0.186-0.107l0.013-0.018l-0.007-0.021
		c-0.149-0.593-0.322-1.194-0.533-1.756L27.438,18.299z M8.667,10.523C8.667,10.524,8.667,10.524,8.667,10.523
		c0,0.001-0.002,0.002-0.003,0.002C8.665,10.525,8.667,10.524,8.667,10.523z M5.593,14.081l0.001,0.002L5.57,14.096L5.593,14.081
		L5.593,14.081z M6.951,17.242l0.465,0.221l-1.574,3.082c-0.132-0.124-0.3-0.213-0.485-0.254L6.951,17.242L6.951,17.242z
		 M5.138,22.332l0.069-0.004c0.561-0.047,0.982-0.524,0.955-1.072c-0.003-0.138-0.033-0.263-0.087-0.379
		c-0.03-0.072-0.071-0.138-0.116-0.201l0.281-0.549c0.001,0,0.001,0,0.002,0l0.145-0.262l0.246-0.082l0.301,0.082l0.3,0.957
		l-0.246,0.501l-0.282,0.08c-0.018,0.16-0.057,0.33-0.118,0.477c-0.337,0.82-1.277,1.222-2.097,0.884
		c-0.83-0.337-1.221-1.285-0.884-2.116c0.304-0.733,1.107-1.128,1.864-0.949l-0.293,0.566c-0.019-0.003-0.037-0.006-0.057-0.006
		c-0.56,0-1.017,0.465-1.017,1.035c0.001,0.57,0.465,1.035,1.036,1.035L5.138,22.332z M6.067,18.55l-0.027,0.054
		c-0.001-0.014-0.003-0.028-0.005-0.04C6.046,18.561,6.057,18.556,6.067,18.55z M8.144,15.998l-0.68,1.306l-0.423-0.213l0.627-1.344
		c0.17,0.056,0.333,0.142,0.479,0.244C8.145,15.994,8.144,15.995,8.144,15.998L8.144,15.998z M8.411,13.731
		c-0.176-0.082-1.098-0.867-1.283-1.168l0.531-0.542c0.368,0.322,0.721,0.644,0.962,0.99C8.557,13.258,8.483,13.494,8.411,13.731z
		 M14.428,16.781c-1.865-0.383-4.265-0.025-4.29-0.021l-0.041-0.265c0.101-0.015,2.471-0.369,4.384,0.023
		c1.939,0.397,3.224,2.081,3.277,2.153l-0.214,0.161C17.531,18.814,16.265,17.158,14.428,16.781L14.428,16.781z M23.434,23.002
		c-0.765,0.023-1.427-0.481-1.641-1.183l0.631-0.164l0.146-0.047c0.118,0.316,0.431,0.537,0.789,0.522
		c0.445-0.019,0.783-0.391,0.774-0.829c0-0.064-0.012-0.133-0.03-0.193l-1.262,0.41l2.109-0.684c0.045,0.146,0.08,0.3,0.088,0.447
		C25.065,22.2,24.347,22.969,23.434,23.002L23.434,23.002z M23.325,19.692c0.146-0.003,0.291,0.014,0.433,0.048l0,0l-1.706,0.615
		C22.343,19.971,22.8,19.715,23.325,19.692L23.325,19.692z M18.146,21.992l3.821-1.426l3.1-1.118
		c0.166,0.343,0.291,0.625,0.385,1.034l-3.076,0.976l-4.227,1.183l-0.861,0.143l0.026-0.047L18.146,21.992L18.146,21.992z"/>
	<path d="M29.415,7.5h-4.077c-1.289,0-1.584,1.255-1.584,2.803c0,1.549,0.143,2.803,1.433,2.803h3.325
		c1.29,0,2.337-1.254,2.337-2.803C30.851,8.755,30.707,7.5,29.415,7.5z"/>
</g>
</svg>
