<?xml version="1.0" encoding="utf-8"?>
<!-- Generator: Adobe Illustrator 16.0.0, SVG Export Plug-In . SVG Version: 6.00 Build 0)  -->
<!DOCTYPE svg PUBLIC "-//W3C//DTD SVG 1.1//EN" "http://www.w3.org/Graphics/SVG/1.1/DTD/svg11.dtd">
<svg version="1.1" id="Layer_1" xmlns="http://www.w3.org/2000/svg" xmlns:xlink="http://www.w3.org/1999/xlink" x="0px" y="0px"
	 width="30px" height="30px" viewBox="0 0 30 30" enable-background="new 0 0 30 30" xml:space="preserve">
<g>
	<path d="M23.49,22.736c-3.934-1.435-5.191-2.644-5.191-5.232c0-1.555,1.201-1.047,1.729-3.894c0.219-1.181,1.279-0.019,1.483-2.715
		c0-1.075-0.579-1.342-0.579-1.342s0.294-1.59,0.409-2.813C21.483,5.215,20.46,1.276,15,1.276S8.517,5.215,8.659,6.74
		c0.115,1.224,0.41,2.813,0.41,2.813S8.49,9.82,8.49,10.895c0.202,2.696,1.264,1.534,1.482,2.715
		c0.527,2.847,1.729,2.339,1.729,3.894c0,2.589-1.257,3.798-5.19,5.232C2.564,24.174,0,25.64,0,26.64S0,30,0,30h15h15
		c0,0,0-2.36,0-3.36S27.437,24.174,23.49,22.736z"/>
</g>
</svg>
