<?xml version="1.0" encoding="utf-8"?>
<!-- Generator: Adobe Illustrator 19.0.1, SVG Export Plug-In . SVG Version: 6.00 Build 0)  -->
<svg version="1.1" id="Layer_1" xmlns="http://www.w3.org/2000/svg" xmlns:xlink="http://www.w3.org/1999/xlink" x="0px" y="0px"
	 viewBox="-282 405.9 30 30" style="enable-background:new -282 405.9 30 30;" xml:space="preserve">
<g>
	<path d="M-252.2,420.5c0,7.9-6.5,14.4-14.5,14.4c-2.5,0-4.9-0.6-7-1.8l-8,2.5l2.6-7.7c-1.3-2.2-2.1-4.7-2.1-7.4
		c0-7.9,6.5-14.4,14.5-14.4C-258.7,406.1-252.2,412.6-252.2,420.5 M-266.7,408.4c-6.7,0-12.2,5.4-12.2,12.1c0,2.6,0.9,5.1,2.3,7.1
		l-1.5,4.5l4.7-1.5c1.9,1.3,4.2,2,6.7,2c6.7,0,12.2-5.4,12.2-12.1C-254.6,413.8-260,408.4-266.7,408.4 M-259.4,423.8
		c-0.1-0.1-0.3-0.2-0.7-0.4c-0.4-0.2-2.1-1-2.4-1.1c-0.3-0.1-0.6-0.2-0.8,0.2c-0.2,0.4-0.9,1.1-1.1,1.4c-0.2,0.2-0.4,0.3-0.8,0.1
		c-0.4-0.2-1.5-0.5-2.9-1.7c-1.1-0.9-1.8-2.1-2-2.4c-0.2-0.4,0-0.5,0.2-0.7c0.2-0.2,0.4-0.4,0.5-0.6c0.2-0.2,0.2-0.4,0.4-0.6
		c0.1-0.2,0.1-0.4,0-0.6c-0.1-0.2-0.8-1.9-1.1-2.6s-0.6-0.6-0.8-0.6c-0.2,0-0.4,0-0.7,0c-0.2,0-0.6,0.1-0.9,0.4
		c-0.3,0.4-1.2,1.2-1.2,2.9c0,1.7,1.3,3.4,1.4,3.6c0.2,0.2,2.5,3.9,6.1,5.3c3.6,1.4,3.6,0.9,4.3,0.9c0.7-0.1,2.1-0.9,2.4-1.7
		C-259.3,424.7-259.3,424-259.4,423.8"/>
</g>
</svg>
