<?xml version="1.0" encoding="utf-8"?>
<!-- Generator: Adobe Illustrator 19.0.1, SVG Export Plug-In . SVG Version: 6.00 Build 0)  -->
<svg version="1.1" id="Layer_1" xmlns="http://www.w3.org/2000/svg" xmlns:xlink="http://www.w3.org/1999/xlink" x="0px" y="0px"
	 viewBox="-282 405.9 30 30" style="enable-background:new -282 405.9 30 30;" xml:space="preserve">
<path d="M-252.3,414.7c0,0-0.3-2.2-1.2-3.2c-1.1-1.3-2.4-1.3-3-1.4c-4.2-0.3-10.5-0.3-10.5-0.3h0c0,0-6.3,0-10.5,0.3
	c-0.6,0.1-1.9,0.1-3,1.4c-0.9,1-1.2,3.2-1.2,3.2s-0.3,2.6-0.3,5.2v2.4c0,2.6,0.3,5.2,0.3,5.2s0.3,2.2,1.2,3.2
	c1.1,1.3,2.6,1.2,3.3,1.4c2.4,0.2,10.2,0.3,10.2,0.3s6.3,0,10.5-0.3c0.6-0.1,1.9-0.1,3-1.4c0.9-1,1.2-3.2,1.2-3.2s0.3-2.6,0.3-5.2
	v-2.4C-252,417.3-252.3,414.7-252.3,414.7z M-270.8,426.8v-11.2l9.4,5.6L-270.8,426.8z"/>
</svg>
